<?xml version="1.0"?>
<VTKFile type="PolyData" version="0.1" byte_order="LittleEndian" header_type="UInt32" compressor="vtkZLibDataCompressor">
  <PolyData>
    <Piece NumberOfPoints="686" NumberOfVerts="686" NumberOfLines="0" NumberOfStrips="0" NumberOfPolys="0">
      <PointData>
        <DataArray type="Float64" Name="density" format="ascii" RangeMin="500" RangeMax="858.7038962695441">
          500 591.7330930894926 591.4844246279922 591.3186949737442 591.1529871191378 590.9050849120255
          500 591.6854921859692 716.6191748773375 716.3275496860405 716.1234316513566 715.9193911819737
          715.6285774344448 590.9530509525073 591.6994460592473 716.6153304266132 716.3250000259033 716.1234267354804
          715.921887623627 715.632224582018 590.9391500364012 591.7056192919781 716.6149493182472 716.3235831737485
          716.1234250352579 715.923279553458 715.6325730661922 590.9330071035045 591.6994460592473 716.6153304266132
          716.3250000259034 716.1234267354804 715.9218876236268 715.632224582018 590.9391500364012 591.685492185969
          716.6191748773376 716.3275496860404 716.1234316513566 715.9193911819737 715.6285774344448 590.9530509525073
          500 591.7330930894926 591.4844246279921 591.3186949737442 591.1529871191378 590.9050849120254
          500 591.6861819586919 716.6189868134576 716.3273739652068 716.1234329623705 715.9195684157211
          715.6287637916973 590.9523590859286 716.4301256343149 858.703896269544 858.3787727784602 858.1346676176676
          857.8907471154059 857.5665579218812 715.817638730509 716.433375111935 858.6926814864503 858.3731805594969
          858.1346608299167 857.8962963358892 857.5776675417193 715.8145308502864 716.4397577575007 858.690701268109
          858.3709085979166 858.1346548900012 857.8985381937798 857.5796218010981 715.8081951481587 716.433375111935
          858.6926814864504 858.373180559497 858.1346608299167 857.8962963358894 857.5776675417194 715.8145308502864
          716.4301256343149 858.703896269544 858.3787727784601 858.1346676176676 857.8907471154059 857.5665579218814
          715.8176387305089 591.6861819586919 716.6189868134575 716.3273739652068 716.1234329623705 715.9195684157208
          715.6287637916973 590.9523590859286 591.7017995591 716.6145565051849 716.3242961629264 716.123429183477
          715.922591584801 715.6329886909383 590.93679636642 716.4351106325199 858.6919222859763 858.3725294948423
          858.1346607126475 857.8969425415396 857.5784161400213 715.8128008534354 716.4391195038354 858.6760769262681
          858.3648028889984 858.1346685300692 857.9046765337607 857.5942347232179 715.8090057662666 716.4450582958191
          858.672957877606 858.3618256574068 858.1346674716125 857.907638673739 857.5973471638724 715.8031185282363
          716.4391195038354 858.6760769262683 858.3648028889982 858.1346685300692 857.9046765337607 857.5942347232179
          715.8090057662668 716.4351106325198 858.6919222859763 858.3725294948424 858.1346607126476 857.8969425415395
          857.5784161400211 715.8128008534353 591.7017995591001 716.6145565051849 716.3242961629264 716.123429183477
          715.922591584801 715.6329886909383 590.9367963664201 591.7123394884472 716.6129178106303 716.3216682873248
          716.1234281413309 715.925186357473 715.6345745185284 590.926298341372 716.4460849205567 858.6881446034979
          858.3686502764324 858.1346520777569 857.9007751306025 857.5821428380284 715.801894835985 716.4496930042109
          858.670889777177 858.3600284474845 858.1346665794133 857.9094237869285 857.5993948850578 715.798504608958
          716.4554530193082 858.6673487583248 858.3567532003681 858.1346690546482 857.9126925447445 857.6029370558842
          715.7927959959851 716.449693004211 858.6708897771769 858.3600284474846 858.1346665794131 857.9094237869286
          857.5993948850576 715.7985046089581 716.4460849205566 858.688144603498 858.3686502764324 858.134652077757
          857.9007751306026 857.5821428380285 715.8018948359851 591.7123394884472 716.6129178106303 716.3216682873249
          716.1234281413309 715.925186357473 715.6345745185283 590.926298341372 591.7166954401669 716.6116625474273
          716.3204593258533 716.1234287166579 715.9263870841068 715.6358096166098 590.9219544655916 716.4506556802979
          858.6863497538981 858.3670441819685 858.1346493320234 857.9023647521767 857.5839127919048 715.7973457799997
          716.4542817029779 858.6688062968369 858.3582166726012 858.1346659784979 857.9112243022058 857.601458578438
          715.793936644166 716.4599598158776 858.6651624319333 858.3548593839505 858.1346696858338 857.9145779284564
          857.6051055929518 715.7883090810692 716.4542817029778 858.6688062968369 858.3582166726011 858.1346659784979
          857.9112243022057 857.601458578438 715.793936644166 716.450655680298 858.6863497538982 858.3670441819684
          858.1346493320234 857.9023647521768 857.5839127919047 715.7973457799998 591.716695440167 716.6116625474273
          716.3204593258533 716.123428716658 715.9263870841068 715.6358096166097 590.9219544655917 591.7184374285958
          716.6110769554789 716.3199332585236 716.1234293617837 715.9269108396011 715.6363873196543 590.9202164278223
          716.4524807914243 858.6855888980124 858.3663931994541 858.1346484807598 857.9030095571376 857.5846631162193
          715.7955283533576 716.4561263883386 858.6679961189951 858.3575289513853 858.1346656493495 857.9119071088321
          857.6022593600875 715.7920990354567 716.4617779695129 858.664333896097 858.3541557625582 858.1346697214506
          857.9152774556475 857.6059252133124 715.7864975760114 716.4561263883386 858.6679961189951 858.3575289513853
          858.1346656493495 857.9119071088321 857.6022593600877 715.7920990354568 716.4524807914244 858.6855888980123
          858.3663931994543 858.1346484807596 857.9030095571377 857.5846631162193 715.7955283533574 591.7184374285958
          716.6110769554789 716.3199332585237 716.1234293617839 715.9269108396011 715.6363873196543 590.9202164278222
          591.7190295852778 716.610867086744 716.319747094021 716.1234296689922 715.9270964025101 715.6365945683441
          590.919625559615 716.4531005149895 858.685325022789 858.3661697058722 858.1346482387709 857.9032310503384
          857.5849233978278 715.7949111787987 716.4567521074093 858.6677254817339 858.3573010850382 858.1346655092435
          857.9121332485946 857.6025266668059 715.7914756486197 716.4623950742365 858.6640612286795 858.353925825561
          858.1346696739852 857.9155058817013 857.6061946638267 715.7858826533942 716.4567521074093 858.667725481734
          858.3573010850381 858.1346655092434 857.9121332485947 857.6025266668059 715.7914756486196 716.4531005149895
          858.6853250227889 858.3661697058723 858.1346482387708 857.9032310503385 857.5849233978279 715.7949111787988
          591.7190295852778 716.6108670867441 716.319747094021 716.1234296689922 715.9270964025101 715.636594568344
          590.9196255596153 591.7190295852777 716.6108670867438 716.319747094021 716.1234296689922 715.9270964025101
          715.6365945683439 590.9196255596152 716.4531005149893 858.6853250227889 858.3661697058722 858.1346482387709
          857.9032310503385 857.5849233978274 715.7949111787987 716.4567521074093 858.6677254817338 858.357301085038
          858.1346655092435 857.9121332485945 857.6025266668056 715.7914756486194 716.4623950742364 858.6640612286793
          858.3539258255609 858.1346696739851 857.9155058817009 857.6061946638266 715.7858826533941 716.4567521074092
          858.6677254817339 858.357301085038 858.1346655092435 857.9121332485945 857.6025266668058 715.7914756486193
          716.4531005149894 858.6853250227889 858.3661697058723 858.1346482387709 857.9032310503385 857.5849233978275
          715.7949111787988 591.7190295852777 716.6108670867438 716.3197470940208 716.1234296689922 715.9270964025101
          715.6365945683439 590.9196255596152 591.7184374285958 716.611076955479 716.3199332585239 716.1234293617838
          715.926910839601 715.6363873196543 590.9202164278221 716.4524807914241 858.685588898012 858.3663931994544
          858.1346484807597 857.9030095571378 857.5846631162191 715.7955283533574 716.4561263883385 858.667996118995
          858.3575289513852 858.1346656493495 857.9119071088319 857.6022593600875 715.7920990354565 716.4617779695129
          858.6643338960971 858.3541557625583 858.1346697214506 857.9152774556472 857.6059252133124 715.7864975760114
          716.4561263883386 858.6679961189951 858.3575289513852 858.1346656493494 857.911907108832 857.6022593600877
          715.7920990354565 716.4524807914243 858.6855888980119 858.3663931994543 858.1346484807596 857.9030095571379
          857.5846631162192 715.7955283533574 591.7184374285958 716.6110769554791 716.319933258524 716.1234293617838
          715.926910839601 715.6363873196543 590.9202164278222 591.7166954401669 716.6116625474273 716.3204593258531
          716.1234287166577 715.9263870841065 715.6358096166097 590.9219544655917 716.4506556802977 858.686349753898
          858.3670441819679 858.1346493320236 857.9023647521769 857.5839127919048 715.7973457799997 716.4542817029776
          858.6688062968369 858.3582166726011 858.1346659784977 857.9112243022057 857.601458578438 715.7939366441657
          716.459959815878 858.6651624319331 858.3548593839502 858.1346696858336 857.9145779284559 857.6051055929516
          715.7883090810693 716.4542817029775 858.6688062968368 858.3582166726011 858.1346659784977 857.9112243022056
          857.601458578438 715.7939366441657 716.4506556802979 858.6863497538982 858.3670441819679 858.1346493320235
          857.9023647521768 857.5839127919047 715.7973457799997 591.716695440167 716.6116625474272 716.3204593258531
          716.1234287166577 715.9263870841064 715.6358096166095 590.9219544655917 591.7123394884474 716.6129178106303
          716.3216682873248 716.1234281413307 715.9251863574729 715.6345745185284 590.9262983413719 716.4460849205567
          858.688144603498 858.3686502764324 858.134652077757 857.9007751306027 857.5821428380286 715.8018948359851
          716.4496930042111 858.6708897771767 858.3600284474849 858.1346665794135 857.9094237869285 857.5993948850576
          715.7985046089582 716.4554530193083 858.6673487583249 858.3567532003677 858.1346690546484 857.9126925447443
          857.6029370558844 715.7927959959851 716.4496930042111 858.6708897771766 858.3600284474849 858.1346665794133
          857.9094237869285 857.5993948850573 715.7985046089583 716.4460849205566 858.6881446034981 858.3686502764324
          858.1346520777571 857.9007751306027 857.5821428380285 715.801894835985 591.7123394884472 716.6129178106303
          716.3216682873249 716.1234281413307 715.925186357473 715.6345745185284 590.926298341372 591.7017995591002
          716.6145565051849 716.3242961629263 716.1234291834771 715.9225915848011 715.6329886909383 590.93679636642
          716.4351106325198 858.6919222859763 858.3725294948425 858.1346607126476 857.8969425415397 857.5784161400214
          715.8128008534353 716.4391195038355 858.6760769262678 858.3648028889983 858.1346685300691 857.9046765337607
          857.594234723218 715.8090057662668 716.4450582958189 858.6729578776059 858.3618256574069 858.1346674716127
          857.9076386737388 857.5973471638725 715.8031185282362 716.4391195038355 858.6760769262679 858.3648028889982
          858.1346685300691 857.9046765337607 857.594234723218 715.8090057662668 716.4351106325198 858.6919222859761
          858.3725294948425 858.1346607126477 857.8969425415396 857.5784161400213 715.8128008534353 591.7017995591001
          716.6145565051849 716.3242961629263 716.1234291834771 715.9225915848011 715.6329886909382 590.93679636642
          591.6861819586919 716.6189868134575 716.3273739652069 716.1234329623707 715.9195684157212 715.628763791697
          590.9523590859286 716.4301256343149 858.7038962695441 858.3787727784601 858.1346676176678 857.890747115406
          857.5665579218813 715.817638730509 716.4333751119349 858.6926814864506 858.3731805594967 858.1346608299166
          857.8962963358892 857.5776675417195 715.8145308502864 716.4397577575005 858.6907012681094 858.3709085979167
          858.1346548900013 857.8985381937796 857.5796218010978 715.8081951481587 716.433375111935 858.6926814864507
          858.3731805594969 858.1346608299166 857.8962963358894 857.5776675417196 715.8145308502864 716.4301256343149
          858.703896269544 858.37877277846 858.1346676176678 857.8907471154059 857.5665579218816 715.8176387305089
          591.686181958692 716.6189868134575 716.3273739652068 716.1234329623705 715.919568415721 715.628763791697
          590.9523590859286 500 591.7330930894926 591.4844246279921 591.3186949737443 591.152987119138
          590.9050849120254 500 591.6854921859691 716.6191748773377 716.3275496860406 716.1234316513568
          715.9193911819737 715.6285774344449 590.9530509525074 591.6994460592473 716.6153304266132 716.3250000259033
          716.1234267354806 715.921887623627 715.632224582018 590.9391500364011 591.7056192919782 716.6149493182472
          716.3235831737486 716.1234250352577 715.9232795534579 715.6325730661921 590.9330071035045 591.6994460592472
          716.6153304266134 716.3250000259034 716.1234267354805 715.921887623627 715.6322245820178 590.9391500364012
          591.6854921859692 716.6191748773376 716.3275496860405 716.1234316513567 715.9193911819737 715.628577434445
          590.9530509525072 500 591.7330930894925 591.4844246279921 591.3186949737442 591.152987119138
          590.9050849120255 500
        </DataArray>
        <DataArray type="Float64" Name="pressure" format="ascii" RangeMin="0" RangeMax="0">
          0 0 0 0 0 0
          0 0 0 0 0 0
          0 0 0 0 0 0
          0 0 0 0 0 0
          0 0 0 0 0 0
          0 0 0 0 0 0
          0 0 0 0 0 0
          0 0 0 0 0 0
          0 0 0 0 0 0
          0 0 0 0 0 0
          0 0 0 0 0 0
          0 0 0 0 0 0
          0 0 0 0 0 0
          0 0 0 0 0 0
          0 0 0 0 0 0
          0 0 0 0 0 0
          0 0 0 0 0 0
          0 0 0 0 0 0
          0 0 0 0 0 0
          0 0 0 0 0 0
          0 0 0 0 0 0
          0 0 0 0 0 0
          0 0 0 0 0 0
          0 0 0 0 0 0
          0 0 0 0 0 0
          0 0 0 0 0 0
          0 0 0 0 0 0
          0 0 0 0 0 0
          0 0 0 0 0 0
          0 0 0 0 0 0
          0 0 0 0 0 0
          0 0 0 0 0 0
          0 0 0 0 0 0
          0 0 0 0 0 0
          0 0 0 0 0 0
          0 0 0 0 0 0
          0 0 0 0 0 0
          0 0 0 0 0 0
          0 0 0 0 0 0
          0 0 0 0 0 0
          0 0 0 0 0 0
          0 0 0 0 0 0
          0 0 0 0 0 0
          0 0 0 0 0 0
          0 0 0 0 0 0
          0 0 0 0 0 0
          0 0 0 0 0 0
          0 0 0 0 0 0
          0 0 0 0 0 0
          0 0 0 0 0 0
          0 0 0 0 0 0
          0 0 0 0 0 0
          0 0 0 0 0 0
          0 0 0 0 0 0
          0 0 0 0 0 0
          0 0 0 0 0 0
          0 0 0 0 0 0
          0 0 0 0 0 0
          0 0 0 0 0 0
          0 0 0 0 0 0
          0 0 0 0 0 0
          0 0 0 0 0 0
          0 0 0 0 0 0
          0 0 0 0 0 0
          0 0 0 0 0 0
          0 0 0 0 0 0
          0 0 0 0 0 0
          0 0 0 0 0 0
          0 0 0 0 0 0
          0 0 0 0 0 0
          0 0 0 0 0 0
          0 0 0 0 0 0
          0 0 0 0 0 0
          0 0 0 0 0 0
          0 0 0 0 0 0
          0 0 0 0 0 0
          0 0 0 0 0 0
          0 0 0 0 0 0
          0 0 0 0 0 0
          0 0 0 0 0 0
          0 0 0 0 0 0
          0 0 0 0 0 0
          0 0 0 0 0 0
          0 0 0 0 0 0
          0 0 0 0 0 0
          0 0 0 0 0 0
          0 0 0 0 0 0
          0 0 0 0 0 0
          0 0 0 0 0 0
          0 0 0 0 0 0
          0 0 0 0 0 0
          0 0 0 0 0 0
          0 0 0 0 0 0
          0 0 0 0 0 0
          0 0 0 0 0 0
          0 0 0 0 0 0
          0 0 0 0 0 0
          0 0 0 0 0 0
          0 0 0 0 0 0
          0 0 0 0 0 0
          0 0 0 0 0 0
          0 0 0 0 0 0
          0 0 0 0 0 0
          0 0 0 0 0 0
          0 0 0 0 0 0
          0 0 0 0 0 0
          0 0 0 0 0 0
          0 0 0 0 0 0
          0 0 0 0 0 0
          0 0 0 0 0 0
          0 0 0 0 0 0
          0 0 0 0 0 0
          0 0 0 0 0 0
          0 0 0 0 0 0
          0 0
        </DataArray>
        <DataArray type="Float64" Name="velocity" NumberOfComponents="3" format="ascii" RangeMin="25.895715269506045" RangeMax="25.89633081055773">
          0 0 -25.89571634187391 0 0 -25.895836608242067
          0 0 -25.89589799568422 0 0 -25.895916002042153
          0 0 -25.895897384436726 0 0 -25.895835442784804
          0 0 -25.895715269506045 0 0 -25.89583670017354
          0 0 -25.89595001435356 0 0 -25.896013203171837
          0 0 -25.89603127453206 0 0 -25.896012629134823
          0 0 -25.895948925365406 0 0 -25.895835351136085
          0 0 -25.89589838167618 0 0 -25.896013474989886
          0 0 -25.89607585608826 0 0 -25.89609375677721
          0 0 -25.896075295063163 0 0 -25.89601235747972
          0 0 -25.895896998986675 0 0 -25.89591669620369
          0 0 -25.89603183536811 0 0 -25.89609403664611
          0 0 -25.89611184745527 0 0 -25.8960934769015
          0 0 -25.89603071387409 0 0 -25.895915308433757
          0 0 -25.89589838167618 0 0 -25.896013474989886
          0 0 -25.89607585608826 0 0 -25.89609375677721
          0 0 -25.896075295063163 0 0 -25.89601235747972
          0 0 -25.895896998986675 0 0 -25.89583670017354
          0 0 -25.89595001435356 0 0 -25.896013203171837
          0 0 -25.89603127453206 0 0 -25.896012629134823
          0 0 -25.895948925365406 0 0 -25.895835351136085
          0 0 -25.89571634187391 0 0 -25.895836608242067
          0 0 -25.89589799568422 0 0 -25.895916002042153
          0 0 -25.895897384436726 0 0 -25.895835442784804
          0 0 -25.895715269506045 0 0 -25.895838551182774
          0 0 -25.89595184540767 0 0 -25.896014970505767
          0 0 -25.896033021906984 0 0 -25.896014396916474
          0 0 -25.895950756831994 0 0 -25.895837200235118
          0 0 -25.895951909228934 0 0 -25.896054512475143
          0 0 -25.896117888744232 0 0 -25.896135892599794
          0 0 -25.896117373921737 0 0 -25.896053564137443
          0 0 -25.89595069314194 0 0 -25.89601526935467
          0 0 -25.896118099417198 0 0 -25.896180063508734
          0 0 -25.896197759545906 0 0 -25.896179567886456
          0 0 -25.89611716343954 0 0 -25.896014098431017
          0 0 -25.896033603557605 0 0 -25.896136359649777
          0 0 -25.896198005772245 0 0 -25.8962155764122
          0 0 -25.89619751337271 0 0 -25.896135425813007
          0 0 -25.896032440675267 0 0 -25.89601526935467
          0 0 -25.896118099417198 0 0 -25.896180063508734
          0 0 -25.896197759545906 0 0 -25.896179567886456
          0 0 -25.89611716343954 0 0 -25.896014098431017
          0 0 -25.895951909228934 0 0 -25.896054512475143
          0 0 -25.896117888744232 0 0 -25.896135892599794
          0 0 -25.896117373921737 0 0 -25.896053564137443
          0 0 -25.89595069314194 0 0 -25.895838551182774
          0 0 -25.89595184540767 0 0 -25.896014970505767
          0 0 -25.896033021906984 0 0 -25.896014396916474
          0 0 -25.895950756831994 0 0 -25.895837200235118
          0 0 -25.895906329468538 0 0 -25.896021320903444
          0 0 -25.896083460303135 0 0 -25.896101283663153
          0 0 -25.896082900603105 0 0 -25.896020203491236
          0 0 -25.895904941604147 0 0 -25.896021348908057
          0 0 -25.896124070070343 0 0 -25.896185850805104
          0 0 -25.89620348741205 0 0 -25.8961853558069
          0 0 -25.896123133294832 0 0 -25.89602017569498
          0 0 -25.89608371058211 0 0 -25.896186047193535
          0 0 -25.896245668812476 0 0 -25.896262847230005
          0 0 -25.896245202966856 0 0 -25.896185159618224
          0 0 -25.896082650881837 0 0 -25.896101803552057
          0 0 -25.896203925973758 0 0 -25.89626307697847
          0 0 -25.896280078650808 0 0 -25.896262617530503
          0 0 -25.896203049116032 0 0 -25.896100764387537
          0 0 -25.89608371058211 0 0 -25.896186047193535
          0 0 -25.896245668812476 0 0 -25.896262847230005
          0 0 -25.896245202966856 0 0 -25.896185159618224
          0 0 -25.896082650881837 0 0 -25.896021348908057
          0 0 -25.896124070070343 0 0 -25.896185850805104
          0 0 -25.89620348741205 0 0 -25.8961853558069
          0 0 -25.896123133294832 0 0 -25.89602017569498
          0 0 -25.895906329468538 0 0 -25.896021320903444
          0 0 -25.896083460303135 0 0 -25.896101283663153
          0 0 -25.896082900603105 0 0 -25.896020203491236
          0 0 -25.895904941604147 0 0 -25.895939362350124
          0 0 -25.896054253947607 0 0 -25.8961158700998
          0 0 -25.896133492680494 0 0 -25.896115313157836
          0 0 -25.896053131482514 0 0 -25.895937964309617
          0 0 -25.896054276173448 0 0 -25.896156719145694
          0 0 -25.896217811717804 0 0 -25.896235199105565
          0 0 -25.896217321436627 0 0 -25.896155783484634
          0 0 -25.896053109528076 0 0 -25.896116110850443
          0 0 -25.896218004363117 0 0 -25.896276741592164
          0 0 -25.89629360364955 0 0 -25.8962762846543
          0 0 -25.896217129014694 0 0 -25.896115073058116
          0 0 -25.896133998999368 0 0 -25.89623562956387
          0 0 -25.896293828110093 0 0 -25.89631048845261
          0 0 -25.89629337923577 0 0 -25.89623476893435
          0 0 -25.89613298706638 0 0 -25.896116110850443
          0 0 -25.896218004363117 0 0 -25.896276741592164
          0 0 -25.89629360364955 0 0 -25.8962762846543
          0 0 -25.896217129014694 0 0 -25.896115073058116
          0 0 -25.896054276173448 0 0 -25.896156719145694
          0 0 -25.896217811717804 0 0 -25.896235199105565
          0 0 -25.896217321436627 0 0 -25.896155783484634
          0 0 -25.896053109528076 0 0 -25.895939362350124
          0 0 -25.896054253947607 0 0 -25.8961158700998
          0 0 -25.896133492680494 0 0 -25.896115313157836
          0 0 -25.896053131482514 0 0 -25.895937964309617
          0 0 -25.895954042208686 0 0 -25.89606878876493
          0 0 -25.896130062440466 0 0 -25.896147574377757
          0 0 -25.89612950698403 0 0 -25.896067665269786
          0 0 -25.89595263932779 0 0 -25.89606881107552
          0 0 -25.896171050418083 0 0 -25.896231773560437
          0 0 -25.896249037208705 0 0 -25.896231284808312
          0 0 -25.896170113817114 0 0 -25.896067643252824
          0 0 -25.896130302988375 0 0 -25.896231966035153
          0 0 -25.896290286894217 0 0 -25.896307007776063
          0 0 -25.89628983264032 0 0 -25.896231092566783
          0 0 -25.896129267115587 0 0 -25.89614807909573
          0 0 -25.896249466155396 0 0 -25.89630723062062
          0 0 -25.89632374233526 0 0 -25.8963067849777
          0 0 -25.89624860855762 0 0 -25.896147070390786
          0 0 -25.896130302988375 0 0 -25.896231966035153
          0 0 -25.896290286894217 0 0 -25.896307007776063
          0 0 -25.89628983264032 0 0 -25.896231092566783
          0 0 -25.896129267115587 0 0 -25.89606881107552
          0 0 -25.896171050418083 0 0 -25.896231773560437
          0 0 -25.896249037208705 0 0 -25.896231284808312
          0 0 -25.896170113817114 0 0 -25.896067643252824
          0 0 -25.895954042208686 0 0 -25.89606878876493
          0 0 -25.896130062440466 0 0 -25.896147574377757
          0 0 -25.89612950698403 0 0 -25.896067665269786
          0 0 -25.89595263932779 0 0 -25.89596000990541
          0 0 -25.89607467518582 0 0 -25.896135773063616
          0 0 -25.896153228747366 0 0 -25.896135218419996
          0 0 -25.89607355158444 0 0 -25.895958604892837
          0 0 -25.896074698086842 0 0 -25.89617683384069
          0 0 -25.89623737757419 0 0 -25.89625458254332
          0 0 -25.89623688941001 0 0 -25.896175896638482
          0 0 -25.89607352898409 0 0 -25.89613601440746
          0 0 -25.89623757034089 0 0 -25.896295702538257
          0 0 -25.896312361259692 0 0 -25.896295249102383
          0 0 -25.896236696879118 0 0 -25.896134977763065
          0 0 -25.896153733728813 0 0 -25.896255011349343
          0 0 -25.896312583626536 0 0 -25.896329031511748
          0 0 -25.896312138938526 0 0 -25.896254154034654
          0 0 -25.896152724502876 0 0 -25.89613601440746
          0 0 -25.89623757034089 0 0 -25.896295702538257
          0 0 -25.896312361259692 0 0 -25.896295249102383
          0 0 -25.896236696879118 0 0 -25.896134977763065
          0 0 -25.896074698086842 0 0 -25.89617683384069
          0 0 -25.89623737757419 0 0 -25.89625458254332
          0 0 -25.89623688941001 0 0 -25.896175896638482
          0 0 -25.89607352898409 0 0 -25.89596000990541
          0 0 -25.89607467518582 0 0 -25.896135773063616
          0 0 -25.896153228747366 0 0 -25.896135218419996
          0 0 -25.89607355158444 0 0 -25.895958604892837
          0 0 -25.89596204884179 0 0 -25.896076681341345
          0 0 -25.89613770974718 0 0 -25.896155143101346
          0 0 -25.896137155448404 0 0 -25.89607555779719
          0 0 -25.895960643126962 0 0 -25.8960767045292
          0 0 -25.89617879973133 0 0 -25.89623927398776
          0 0 -25.896256456288715 0 0 -25.89623878604209
          0 0 -25.896177862319483 0 0 -25.896075534912036
          0 0 -25.896137951498147 0 0 -25.896239466914327
          0 0 -25.89629752826276 0 0 -25.89631416385421
          0 0 -25.89629707507253 0 0 -25.8962385933519
          0 0 -25.896136914386076 0 0 -25.896155648299906
          0 0 -25.896256885117275 0 0 -25.896314386084565
          0 0 -25.89633081055773 0 0 -25.89631394166926
          0 0 -25.89625602775765 0 0 -25.896154638640763
          0 0 -25.896137951498147 0 0 -25.896239466914327
          0 0 -25.89629752826276 0 0 -25.89631416385421
          0 0 -25.89629707507253 0 0 -25.8962385933519
          0 0 -25.896136914386076 0 0 -25.8960767045292
          0 0 -25.89617879973133 0 0 -25.89623927398776
          0 0 -25.896256456288715 0 0 -25.89623878604209
          0 0 -25.896177862319483 0 0 -25.896075534912036
          0 0 -25.89596204884179 0 0 -25.896076681341345
          0 0 -25.89613770974718 0 0 -25.896155143101346
          0 0 -25.896137155448404 0 0 -25.89607555779719
          0 0 -25.895960643126962 0 0 -25.89596204884179
          0 0 -25.896076681341345 0 0 -25.89613770974718
          0 0 -25.896155143101346 0 0 -25.896137155448404
          0 0 -25.89607555779719 0 0 -25.895960643126962
          0 0 -25.8960767045292 0 0 -25.89617879973133
          0 0 -25.89623927398776 0 0 -25.896256456288715
          0 0 -25.89623878604209 0 0 -25.896177862319483
          0 0 -25.896075534912036 0 0 -25.896137951498147
          0 0 -25.896239466914327 0 0 -25.89629752826276
          0 0 -25.89631416385421 0 0 -25.89629707507253
          0 0 -25.8962385933519 0 0 -25.896136914386076
          0 0 -25.896155648299906 0 0 -25.896256885117275
          0 0 -25.896314386084565 0 0 -25.89633081055773
          0 0 -25.89631394166926 0 0 -25.89625602775765
          0 0 -25.896154638640763 0 0 -25.896137951498147
          0 0 -25.896239466914327 0 0 -25.89629752826276
          0 0 -25.89631416385421 0 0 -25.89629707507253
          0 0 -25.8962385933519 0 0 -25.896136914386076
          0 0 -25.8960767045292 0 0 -25.89617879973133
          0 0 -25.89623927398776 0 0 -25.896256456288715
          0 0 -25.89623878604209 0 0 -25.896177862319483
          0 0 -25.896075534912036 0 0 -25.89596204884179
          0 0 -25.896076681341345 0 0 -25.89613770974718
          0 0 -25.896155143101346 0 0 -25.896137155448404
          0 0 -25.89607555779719 0 0 -25.895960643126962
          0 0 -25.89596000990541 0 0 -25.89607467518582
          0 0 -25.896135773063616 0 0 -25.896153228747366
          0 0 -25.896135218419996 0 0 -25.89607355158444
          0 0 -25.895958604892837 0 0 -25.896074698086842
          0 0 -25.89617683384069 0 0 -25.89623737757419
          0 0 -25.89625458254332 0 0 -25.89623688941001
          0 0 -25.896175896638482 0 0 -25.89607352898409
          0 0 -25.89613601440746 0 0 -25.89623757034089
          0 0 -25.896295702538257 0 0 -25.896312361259692
          0 0 -25.896295249102383 0 0 -25.896236696879118
          0 0 -25.896134977763065 0 0 -25.896153733728813
          0 0 -25.896255011349343 0 0 -25.896312583626536
          0 0 -25.896329031511748 0 0 -25.896312138938526
          0 0 -25.896254154034654 0 0 -25.896152724502876
          0 0 -25.89613601440746 0 0 -25.89623757034089
          0 0 -25.896295702538257 0 0 -25.896312361259692
          0 0 -25.896295249102383 0 0 -25.896236696879118
          0 0 -25.896134977763065 0 0 -25.896074698086842
          0 0 -25.89617683384069 0 0 -25.89623737757419
          0 0 -25.89625458254332 0 0 -25.89623688941001
          0 0 -25.896175896638482 0 0 -25.89607352898409
          0 0 -25.89596000990541 0 0 -25.89607467518582
          0 0 -25.896135773063616 0 0 -25.896153228747366
          0 0 -25.896135218419996 0 0 -25.89607355158444
          0 0 -25.895958604892837 0 0 -25.895954042208686
          0 0 -25.89606878876493 0 0 -25.896130062440466
          0 0 -25.896147574377757 0 0 -25.89612950698403
          0 0 -25.896067665269786 0 0 -25.89595263932779
          0 0 -25.89606881107552 0 0 -25.896171050418083
          0 0 -25.896231773560437 0 0 -25.896249037208705
          0 0 -25.896231284808312 0 0 -25.896170113817114
          0 0 -25.896067643252824 0 0 -25.896130302988375
          0 0 -25.896231966035153 0 0 -25.896290286894217
          0 0 -25.896307007776063 0 0 -25.89628983264032
          0 0 -25.896231092566783 0 0 -25.896129267115587
          0 0 -25.89614807909573 0 0 -25.896249466155396
          0 0 -25.89630723062062 0 0 -25.89632374233526
          0 0 -25.8963067849777 0 0 -25.89624860855762
          0 0 -25.896147070390786 0 0 -25.896130302988375
          0 0 -25.896231966035153 0 0 -25.896290286894217
          0 0 -25.896307007776063 0 0 -25.89628983264032
          0 0 -25.896231092566783 0 0 -25.896129267115587
          0 0 -25.89606881107552 0 0 -25.896171050418083
          0 0 -25.896231773560437 0 0 -25.896249037208705
          0 0 -25.896231284808312 0 0 -25.896170113817114
          0 0 -25.896067643252824 0 0 -25.895954042208686
          0 0 -25.89606878876493 0 0 -25.896130062440466
          0 0 -25.896147574377757 0 0 -25.89612950698403
          0 0 -25.896067665269786 0 0 -25.89595263932779
          0 0 -25.895939362350124 0 0 -25.896054253947607
          0 0 -25.8961158700998 0 0 -25.896133492680494
          0 0 -25.896115313157836 0 0 -25.896053131482514
          0 0 -25.895937964309617 0 0 -25.896054276173448
          0 0 -25.896156719145694 0 0 -25.896217811717804
          0 0 -25.896235199105565 0 0 -25.896217321436627
          0 0 -25.896155783484634 0 0 -25.896053109528076
          0 0 -25.896116110850443 0 0 -25.896218004363117
          0 0 -25.896276741592164 0 0 -25.89629360364955
          0 0 -25.8962762846543 0 0 -25.896217129014694
          0 0 -25.896115073058116 0 0 -25.896133998999368
          0 0 -25.89623562956387 0 0 -25.896293828110093
          0 0 -25.89631048845261 0 0 -25.89629337923577
          0 0 -25.89623476893435 0 0 -25.89613298706638
          0 0 -25.896116110850443 0 0 -25.896218004363117
          0 0 -25.896276741592164 0 0 -25.89629360364955
          0 0 -25.8962762846543 0 0 -25.896217129014694
          0 0 -25.896115073058116 0 0 -25.896054276173448
          0 0 -25.896156719145694 0 0 -25.896217811717804
          0 0 -25.896235199105565 0 0 -25.896217321436627
          0 0 -25.896155783484634 0 0 -25.896053109528076
          0 0 -25.895939362350124 0 0 -25.896054253947607
          0 0 -25.8961158700998 0 0 -25.896133492680494
          0 0 -25.896115313157836 0 0 -25.896053131482514
          0 0 -25.895937964309617 0 0 -25.895906329468538
          0 0 -25.896021320903444 0 0 -25.896083460303135
          0 0 -25.896101283663153 0 0 -25.896082900603105
          0 0 -25.896020203491236 0 0 -25.895904941604147
          0 0 -25.896021348908057 0 0 -25.896124070070343
          0 0 -25.896185850805104 0 0 -25.89620348741205
          0 0 -25.8961853558069 0 0 -25.896123133294832
          0 0 -25.89602017569498 0 0 -25.89608371058211
          0 0 -25.896186047193535 0 0 -25.896245668812476
          0 0 -25.896262847230005 0 0 -25.896245202966856
          0 0 -25.896185159618224 0 0 -25.896082650881837
          0 0 -25.896101803552057 0 0 -25.896203925973758
          0 0 -25.89626307697847 0 0 -25.896280078650808
          0 0 -25.896262617530503 0 0 -25.896203049116032
          0 0 -25.896100764387537 0 0 -25.89608371058211
          0 0 -25.896186047193535 0 0 -25.896245668812476
          0 0 -25.896262847230005 0 0 -25.896245202966856
          0 0 -25.896185159618224 0 0 -25.896082650881837
          0 0 -25.896021348908057 0 0 -25.896124070070343
          0 0 -25.896185850805104 0 0 -25.89620348741205
          0 0 -25.8961853558069 0 0 -25.896123133294832
          0 0 -25.89602017569498 0 0 -25.895906329468538
          0 0 -25.896021320903444 0 0 -25.896083460303135
          0 0 -25.896101283663153 0 0 -25.896082900603105
          0 0 -25.896020203491236 0 0 -25.895904941604147
          0 0 -25.895838551182774 0 0 -25.89595184540767
          0 0 -25.896014970505767 0 0 -25.896033021906984
          0 0 -25.896014396916474 0 0 -25.895950756831994
          0 0 -25.895837200235118 0 0 -25.895951909228934
          0 0 -25.896054512475143 0 0 -25.896117888744232
          0 0 -25.896135892599794 0 0 -25.896117373921737
          0 0 -25.896053564137443 0 0 -25.89595069314194
          0 0 -25.89601526935467 0 0 -25.896118099417198
          0 0 -25.896180063508734 0 0 -25.896197759545906
          0 0 -25.896179567886456 0 0 -25.89611716343954
          0 0 -25.896014098431017 0 0 -25.896033603557605
          0 0 -25.896136359649777 0 0 -25.896198005772245
          0 0 -25.8962155764122 0 0 -25.89619751337271
          0 0 -25.896135425813007 0 0 -25.896032440675267
          0 0 -25.89601526935467 0 0 -25.896118099417198
          0 0 -25.896180063508734 0 0 -25.896197759545906
          0 0 -25.896179567886456 0 0 -25.89611716343954
          0 0 -25.896014098431017 0 0 -25.895951909228934
          0 0 -25.896054512475143 0 0 -25.896117888744232
          0 0 -25.896135892599794 0 0 -25.896117373921737
          0 0 -25.896053564137443 0 0 -25.89595069314194
          0 0 -25.895838551182774 0 0 -25.89595184540767
          0 0 -25.896014970505767 0 0 -25.896033021906984
          0 0 -25.896014396916474 0 0 -25.895950756831994
          0 0 -25.895837200235118 0 0 -25.89571634187391
          0 0 -25.895836608242067 0 0 -25.89589799568422
          0 0 -25.895916002042153 0 0 -25.895897384436726
          0 0 -25.895835442784804 0 0 -25.895715269506045
          0 0 -25.89583670017354 0 0 -25.89595001435356
          0 0 -25.896013203171837 0 0 -25.89603127453206
          0 0 -25.896012629134823 0 0 -25.895948925365406
          0 0 -25.895835351136085 0 0 -25.89589838167618
          0 0 -25.896013474989886 0 0 -25.89607585608826
          0 0 -25.89609375677721 0 0 -25.896075295063163
          0 0 -25.89601235747972 0 0 -25.895896998986675
          0 0 -25.89591669620369 0 0 -25.89603183536811
          0 0 -25.89609403664611 0 0 -25.89611184745527
          0 0 -25.8960934769015 0 0 -25.89603071387409
          0 0 -25.895915308433757 0 0 -25.89589838167618
          0 0 -25.896013474989886 0 0 -25.89607585608826
          0 0 -25.89609375677721 0 0 -25.896075295063163
          0 0 -25.89601235747972 0 0 -25.895896998986675
          0 0 -25.89583670017354 0 0 -25.89595001435356
          0 0 -25.896013203171837 0 0 -25.89603127453206
          0 0 -25.896012629134823 0 0 -25.895948925365406
          0 0 -25.895835351136085 0 0 -25.89571634187391
          0 0 -25.895836608242067 0 0 -25.89589799568422
          0 0 -25.895916002042153 0 0 -25.895897384436726
          0 0 -25.895835442784804 0 0 -25.895715269506045
          <InformationKey name="L2_NORM_RANGE" location="vtkDataArray" length="2">
            <Value index="0">
              25.89571527
            </Value>
            <Value index="1">
              25.896330811
            </Value>
          </InformationKey>
        </DataArray>
        <DataArray type="Float64" Name="speed" format="ascii" RangeMin="25.895715269506045" RangeMax="25.89633081055773">
          25.89571634187391 25.895836608242067 25.89589799568422 25.895916002042153 25.895897384436726 25.895835442784804
          25.895715269506045 25.89583670017354 25.89595001435356 25.896013203171837 25.89603127453206 25.896012629134823
          25.895948925365406 25.895835351136085 25.89589838167618 25.896013474989886 25.89607585608826 25.89609375677721
          25.896075295063163 25.89601235747972 25.895896998986675 25.89591669620369 25.89603183536811 25.89609403664611
          25.89611184745527 25.8960934769015 25.89603071387409 25.895915308433757 25.89589838167618 25.896013474989886
          25.89607585608826 25.89609375677721 25.896075295063163 25.89601235747972 25.895896998986675 25.89583670017354
          25.89595001435356 25.896013203171837 25.89603127453206 25.896012629134823 25.895948925365406 25.895835351136085
          25.89571634187391 25.895836608242067 25.89589799568422 25.895916002042153 25.895897384436726 25.895835442784804
          25.895715269506045 25.895838551182774 25.89595184540767 25.896014970505767 25.896033021906984 25.896014396916474
          25.895950756831994 25.895837200235118 25.895951909228934 25.896054512475143 25.896117888744232 25.896135892599794
          25.896117373921737 25.896053564137443 25.89595069314194 25.89601526935467 25.896118099417198 25.896180063508734
          25.896197759545906 25.896179567886456 25.89611716343954 25.896014098431017 25.896033603557605 25.896136359649777
          25.896198005772245 25.8962155764122 25.89619751337271 25.896135425813007 25.896032440675267 25.89601526935467
          25.896118099417198 25.896180063508734 25.896197759545906 25.896179567886456 25.89611716343954 25.896014098431017
          25.895951909228934 25.896054512475143 25.896117888744232 25.896135892599794 25.896117373921737 25.896053564137443
          25.89595069314194 25.895838551182774 25.89595184540767 25.896014970505767 25.896033021906984 25.896014396916474
          25.895950756831994 25.895837200235118 25.895906329468538 25.896021320903444 25.896083460303135 25.896101283663153
          25.896082900603105 25.896020203491236 25.895904941604147 25.896021348908057 25.896124070070343 25.896185850805104
          25.89620348741205 25.8961853558069 25.896123133294832 25.89602017569498 25.89608371058211 25.896186047193535
          25.896245668812476 25.896262847230005 25.896245202966856 25.896185159618224 25.896082650881837 25.896101803552057
          25.896203925973758 25.89626307697847 25.896280078650808 25.896262617530503 25.896203049116032 25.896100764387537
          25.89608371058211 25.896186047193535 25.896245668812476 25.896262847230005 25.896245202966856 25.896185159618224
          25.896082650881837 25.896021348908057 25.896124070070343 25.896185850805104 25.89620348741205 25.8961853558069
          25.896123133294832 25.89602017569498 25.895906329468538 25.896021320903444 25.896083460303135 25.896101283663153
          25.896082900603105 25.896020203491236 25.895904941604147 25.895939362350124 25.896054253947607 25.8961158700998
          25.896133492680494 25.896115313157836 25.896053131482514 25.895937964309617 25.896054276173448 25.896156719145694
          25.896217811717804 25.896235199105565 25.896217321436627 25.896155783484634 25.896053109528076 25.896116110850443
          25.896218004363117 25.896276741592164 25.89629360364955 25.8962762846543 25.896217129014694 25.896115073058116
          25.896133998999368 25.89623562956387 25.896293828110093 25.89631048845261 25.89629337923577 25.89623476893435
          25.89613298706638 25.896116110850443 25.896218004363117 25.896276741592164 25.89629360364955 25.8962762846543
          25.896217129014694 25.896115073058116 25.896054276173448 25.896156719145694 25.896217811717804 25.896235199105565
          25.896217321436627 25.896155783484634 25.896053109528076 25.895939362350124 25.896054253947607 25.8961158700998
          25.896133492680494 25.896115313157836 25.896053131482514 25.895937964309617 25.895954042208686 25.89606878876493
          25.896130062440466 25.896147574377757 25.89612950698403 25.896067665269786 25.89595263932779 25.89606881107552
          25.896171050418083 25.896231773560437 25.896249037208705 25.896231284808312 25.896170113817114 25.896067643252824
          25.896130302988375 25.896231966035153 25.896290286894217 25.896307007776063 25.89628983264032 25.896231092566783
          25.896129267115587 25.89614807909573 25.896249466155396 25.89630723062062 25.89632374233526 25.8963067849777
          25.89624860855762 25.896147070390786 25.896130302988375 25.896231966035153 25.896290286894217 25.896307007776063
          25.89628983264032 25.896231092566783 25.896129267115587 25.89606881107552 25.896171050418083 25.896231773560437
          25.896249037208705 25.896231284808312 25.896170113817114 25.896067643252824 25.895954042208686 25.89606878876493
          25.896130062440466 25.896147574377757 25.89612950698403 25.896067665269786 25.89595263932779 25.89596000990541
          25.89607467518582 25.896135773063616 25.896153228747366 25.896135218419996 25.89607355158444 25.895958604892837
          25.896074698086842 25.89617683384069 25.89623737757419 25.89625458254332 25.89623688941001 25.896175896638482
          25.89607352898409 25.89613601440746 25.89623757034089 25.896295702538257 25.896312361259692 25.896295249102383
          25.896236696879118 25.896134977763065 25.896153733728813 25.896255011349343 25.896312583626536 25.896329031511748
          25.896312138938526 25.896254154034654 25.896152724502876 25.89613601440746 25.89623757034089 25.896295702538257
          25.896312361259692 25.896295249102383 25.896236696879118 25.896134977763065 25.896074698086842 25.89617683384069
          25.89623737757419 25.89625458254332 25.89623688941001 25.896175896638482 25.89607352898409 25.89596000990541
          25.89607467518582 25.896135773063616 25.896153228747366 25.896135218419996 25.89607355158444 25.895958604892837
          25.89596204884179 25.896076681341345 25.89613770974718 25.896155143101346 25.896137155448404 25.89607555779719
          25.895960643126962 25.8960767045292 25.89617879973133 25.89623927398776 25.896256456288715 25.89623878604209
          25.896177862319483 25.896075534912036 25.896137951498147 25.896239466914327 25.89629752826276 25.89631416385421
          25.89629707507253 25.8962385933519 25.896136914386076 25.896155648299906 25.896256885117275 25.896314386084565
          25.89633081055773 25.89631394166926 25.89625602775765 25.896154638640763 25.896137951498147 25.896239466914327
          25.89629752826276 25.89631416385421 25.89629707507253 25.8962385933519 25.896136914386076 25.8960767045292
          25.89617879973133 25.89623927398776 25.896256456288715 25.89623878604209 25.896177862319483 25.896075534912036
          25.89596204884179 25.896076681341345 25.89613770974718 25.896155143101346 25.896137155448404 25.89607555779719
          25.895960643126962 25.89596204884179 25.896076681341345 25.89613770974718 25.896155143101346 25.896137155448404
          25.89607555779719 25.895960643126962 25.8960767045292 25.89617879973133 25.89623927398776 25.896256456288715
          25.89623878604209 25.896177862319483 25.896075534912036 25.896137951498147 25.896239466914327 25.89629752826276
          25.89631416385421 25.89629707507253 25.8962385933519 25.896136914386076 25.896155648299906 25.896256885117275
          25.896314386084565 25.89633081055773 25.89631394166926 25.89625602775765 25.896154638640763 25.896137951498147
          25.896239466914327 25.89629752826276 25.89631416385421 25.89629707507253 25.8962385933519 25.896136914386076
          25.8960767045292 25.89617879973133 25.89623927398776 25.896256456288715 25.89623878604209 25.896177862319483
          25.896075534912036 25.89596204884179 25.896076681341345 25.89613770974718 25.896155143101346 25.896137155448404
          25.89607555779719 25.895960643126962 25.89596000990541 25.89607467518582 25.896135773063616 25.896153228747366
          25.896135218419996 25.89607355158444 25.895958604892837 25.896074698086842 25.89617683384069 25.89623737757419
          25.89625458254332 25.89623688941001 25.896175896638482 25.89607352898409 25.89613601440746 25.89623757034089
          25.896295702538257 25.896312361259692 25.896295249102383 25.896236696879118 25.896134977763065 25.896153733728813
          25.896255011349343 25.896312583626536 25.896329031511748 25.896312138938526 25.896254154034654 25.896152724502876
          25.89613601440746 25.89623757034089 25.896295702538257 25.896312361259692 25.896295249102383 25.896236696879118
          25.896134977763065 25.896074698086842 25.89617683384069 25.89623737757419 25.89625458254332 25.89623688941001
          25.896175896638482 25.89607352898409 25.89596000990541 25.89607467518582 25.896135773063616 25.896153228747366
          25.896135218419996 25.89607355158444 25.895958604892837 25.895954042208686 25.89606878876493 25.896130062440466
          25.896147574377757 25.89612950698403 25.896067665269786 25.89595263932779 25.89606881107552 25.896171050418083
          25.896231773560437 25.896249037208705 25.896231284808312 25.896170113817114 25.896067643252824 25.896130302988375
          25.896231966035153 25.896290286894217 25.896307007776063 25.89628983264032 25.896231092566783 25.896129267115587
          25.89614807909573 25.896249466155396 25.89630723062062 25.89632374233526 25.8963067849777 25.89624860855762
          25.896147070390786 25.896130302988375 25.896231966035153 25.896290286894217 25.896307007776063 25.89628983264032
          25.896231092566783 25.896129267115587 25.89606881107552 25.896171050418083 25.896231773560437 25.896249037208705
          25.896231284808312 25.896170113817114 25.896067643252824 25.895954042208686 25.89606878876493 25.896130062440466
          25.896147574377757 25.89612950698403 25.896067665269786 25.89595263932779 25.895939362350124 25.896054253947607
          25.8961158700998 25.896133492680494 25.896115313157836 25.896053131482514 25.895937964309617 25.896054276173448
          25.896156719145694 25.896217811717804 25.896235199105565 25.896217321436627 25.896155783484634 25.896053109528076
          25.896116110850443 25.896218004363117 25.896276741592164 25.89629360364955 25.8962762846543 25.896217129014694
          25.896115073058116 25.896133998999368 25.89623562956387 25.896293828110093 25.89631048845261 25.89629337923577
          25.89623476893435 25.89613298706638 25.896116110850443 25.896218004363117 25.896276741592164 25.89629360364955
          25.8962762846543 25.896217129014694 25.896115073058116 25.896054276173448 25.896156719145694 25.896217811717804
          25.896235199105565 25.896217321436627 25.896155783484634 25.896053109528076 25.895939362350124 25.896054253947607
          25.8961158700998 25.896133492680494 25.896115313157836 25.896053131482514 25.895937964309617 25.895906329468538
          25.896021320903444 25.896083460303135 25.896101283663153 25.896082900603105 25.896020203491236 25.895904941604147
          25.896021348908057 25.896124070070343 25.896185850805104 25.89620348741205 25.8961853558069 25.896123133294832
          25.89602017569498 25.89608371058211 25.896186047193535 25.896245668812476 25.896262847230005 25.896245202966856
          25.896185159618224 25.896082650881837 25.896101803552057 25.896203925973758 25.89626307697847 25.896280078650808
          25.896262617530503 25.896203049116032 25.896100764387537 25.89608371058211 25.896186047193535 25.896245668812476
          25.896262847230005 25.896245202966856 25.896185159618224 25.896082650881837 25.896021348908057 25.896124070070343
          25.896185850805104 25.89620348741205 25.8961853558069 25.896123133294832 25.89602017569498 25.895906329468538
          25.896021320903444 25.896083460303135 25.896101283663153 25.896082900603105 25.896020203491236 25.895904941604147
          25.895838551182774 25.89595184540767 25.896014970505767 25.896033021906984 25.896014396916474 25.895950756831994
          25.895837200235118 25.895951909228934 25.896054512475143 25.896117888744232 25.896135892599794 25.896117373921737
          25.896053564137443 25.89595069314194 25.89601526935467 25.896118099417198 25.896180063508734 25.896197759545906
          25.896179567886456 25.89611716343954 25.896014098431017 25.896033603557605 25.896136359649777 25.896198005772245
          25.8962155764122 25.89619751337271 25.896135425813007 25.896032440675267 25.89601526935467 25.896118099417198
          25.896180063508734 25.896197759545906 25.896179567886456 25.89611716343954 25.896014098431017 25.895951909228934
          25.896054512475143 25.896117888744232 25.896135892599794 25.896117373921737 25.896053564137443 25.89595069314194
          25.895838551182774 25.89595184540767 25.896014970505767 25.896033021906984 25.896014396916474 25.895950756831994
          25.895837200235118 25.89571634187391 25.895836608242067 25.89589799568422 25.895916002042153 25.895897384436726
          25.895835442784804 25.895715269506045 25.89583670017354 25.89595001435356 25.896013203171837 25.89603127453206
          25.896012629134823 25.895948925365406 25.895835351136085 25.89589838167618 25.896013474989886 25.89607585608826
          25.89609375677721 25.896075295063163 25.89601235747972 25.895896998986675 25.89591669620369 25.89603183536811
          25.89609403664611 25.89611184745527 25.8960934769015 25.89603071387409 25.895915308433757 25.89589838167618
          25.896013474989886 25.89607585608826 25.89609375677721 25.896075295063163 25.89601235747972 25.895896998986675
          25.89583670017354 25.89595001435356 25.896013203171837 25.89603127453206 25.896012629134823 25.895948925365406
          25.895835351136085 25.89571634187391 25.895836608242067 25.89589799568422 25.895916002042153 25.895897384436726
          25.895835442784804 25.895715269506045
        </DataArray>
        <DataArray type="Float64" Name="radius" format="ascii" RangeMin="0.22" RangeMax="0.22">
          0.22 0.22 0.22 0.22 0.22 0.22
          0.22 0.22 0.22 0.22 0.22 0.22
          0.22 0.22 0.22 0.22 0.22 0.22
          0.22 0.22 0.22 0.22 0.22 0.22
          0.22 0.22 0.22 0.22 0.22 0.22
          0.22 0.22 0.22 0.22 0.22 0.22
          0.22 0.22 0.22 0.22 0.22 0.22
          0.22 0.22 0.22 0.22 0.22 0.22
          0.22 0.22 0.22 0.22 0.22 0.22
          0.22 0.22 0.22 0.22 0.22 0.22
          0.22 0.22 0.22 0.22 0.22 0.22
          0.22 0.22 0.22 0.22 0.22 0.22
          0.22 0.22 0.22 0.22 0.22 0.22
          0.22 0.22 0.22 0.22 0.22 0.22
          0.22 0.22 0.22 0.22 0.22 0.22
          0.22 0.22 0.22 0.22 0.22 0.22
          0.22 0.22 0.22 0.22 0.22 0.22
          0.22 0.22 0.22 0.22 0.22 0.22
          0.22 0.22 0.22 0.22 0.22 0.22
          0.22 0.22 0.22 0.22 0.22 0.22
          0.22 0.22 0.22 0.22 0.22 0.22
          0.22 0.22 0.22 0.22 0.22 0.22
          0.22 0.22 0.22 0.22 0.22 0.22
          0.22 0.22 0.22 0.22 0.22 0.22
          0.22 0.22 0.22 0.22 0.22 0.22
          0.22 0.22 0.22 0.22 0.22 0.22
          0.22 0.22 0.22 0.22 0.22 0.22
          0.22 0.22 0.22 0.22 0.22 0.22
          0.22 0.22 0.22 0.22 0.22 0.22
          0.22 0.22 0.22 0.22 0.22 0.22
          0.22 0.22 0.22 0.22 0.22 0.22
          0.22 0.22 0.22 0.22 0.22 0.22
          0.22 0.22 0.22 0.22 0.22 0.22
          0.22 0.22 0.22 0.22 0.22 0.22
          0.22 0.22 0.22 0.22 0.22 0.22
          0.22 0.22 0.22 0.22 0.22 0.22
          0.22 0.22 0.22 0.22 0.22 0.22
          0.22 0.22 0.22 0.22 0.22 0.22
          0.22 0.22 0.22 0.22 0.22 0.22
          0.22 0.22 0.22 0.22 0.22 0.22
          0.22 0.22 0.22 0.22 0.22 0.22
          0.22 0.22 0.22 0.22 0.22 0.22
          0.22 0.22 0.22 0.22 0.22 0.22
          0.22 0.22 0.22 0.22 0.22 0.22
          0.22 0.22 0.22 0.22 0.22 0.22
          0.22 0.22 0.22 0.22 0.22 0.22
          0.22 0.22 0.22 0.22 0.22 0.22
          0.22 0.22 0.22 0.22 0.22 0.22
          0.22 0.22 0.22 0.22 0.22 0.22
          0.22 0.22 0.22 0.22 0.22 0.22
          0.22 0.22 0.22 0.22 0.22 0.22
          0.22 0.22 0.22 0.22 0.22 0.22
          0.22 0.22 0.22 0.22 0.22 0.22
          0.22 0.22 0.22 0.22 0.22 0.22
          0.22 0.22 0.22 0.22 0.22 0.22
          0.22 0.22 0.22 0.22 0.22 0.22
          0.22 0.22 0.22 0.22 0.22 0.22
          0.22 0.22 0.22 0.22 0.22 0.22
          0.22 0.22 0.22 0.22 0.22 0.22
          0.22 0.22 0.22 0.22 0.22 0.22
          0.22 0.22 0.22 0.22 0.22 0.22
          0.22 0.22 0.22 0.22 0.22 0.22
          0.22 0.22 0.22 0.22 0.22 0.22
          0.22 0.22 0.22 0.22 0.22 0.22
          0.22 0.22 0.22 0.22 0.22 0.22
          0.22 0.22 0.22 0.22 0.22 0.22
          0.22 0.22 0.22 0.22 0.22 0.22
          0.22 0.22 0.22 0.22 0.22 0.22
          0.22 0.22 0.22 0.22 0.22 0.22
          0.22 0.22 0.22 0.22 0.22 0.22
          0.22 0.22 0.22 0.22 0.22 0.22
          0.22 0.22 0.22 0.22 0.22 0.22
          0.22 0.22 0.22 0.22 0.22 0.22
          0.22 0.22 0.22 0.22 0.22 0.22
          0.22 0.22 0.22 0.22 0.22 0.22
          0.22 0.22 0.22 0.22 0.22 0.22
          0.22 0.22 0.22 0.22 0.22 0.22
          0.22 0.22 0.22 0.22 0.22 0.22
          0.22 0.22 0.22 0.22 0.22 0.22
          0.22 0.22 0.22 0.22 0.22 0.22
          0.22 0.22 0.22 0.22 0.22 0.22
          0.22 0.22 0.22 0.22 0.22 0.22
          0.22 0.22 0.22 0.22 0.22 0.22
          0.22 0.22 0.22 0.22 0.22 0.22
          0.22 0.22 0.22 0.22 0.22 0.22
          0.22 0.22 0.22 0.22 0.22 0.22
          0.22 0.22 0.22 0.22 0.22 0.22
          0.22 0.22 0.22 0.22 0.22 0.22
          0.22 0.22 0.22 0.22 0.22 0.22
          0.22 0.22 0.22 0.22 0.22 0.22
          0.22 0.22 0.22 0.22 0.22 0.22
          0.22 0.22 0.22 0.22 0.22 0.22
          0.22 0.22 0.22 0.22 0.22 0.22
          0.22 0.22 0.22 0.22 0.22 0.22
          0.22 0.22 0.22 0.22 0.22 0.22
          0.22 0.22 0.22 0.22 0.22 0.22
          0.22 0.22 0.22 0.22 0.22 0.22
          0.22 0.22 0.22 0.22 0.22 0.22
          0.22 0.22 0.22 0.22 0.22 0.22
          0.22 0.22 0.22 0.22 0.22 0.22
          0.22 0.22 0.22 0.22 0.22 0.22
          0.22 0.22 0.22 0.22 0.22 0.22
          0.22 0.22 0.22 0.22 0.22 0.22
          0.22 0.22 0.22 0.22 0.22 0.22
          0.22 0.22 0.22 0.22 0.22 0.22
          0.22 0.22 0.22 0.22 0.22 0.22
          0.22 0.22 0.22 0.22 0.22 0.22
          0.22 0.22 0.22 0.22 0.22 0.22
          0.22 0.22 0.22 0.22 0.22 0.22
          0.22 0.22 0.22 0.22 0.22 0.22
          0.22 0.22 0.22 0.22 0.22 0.22
          0.22 0.22 0.22 0.22 0.22 0.22
          0.22 0.22 0.22 0.22 0.22 0.22
          0.22 0.22 0.22 0.22 0.22 0.22
          0.22 0.22
        </DataArray>
      </PointData>
      <CellData>
      </CellData>
      <Points>
        <DataArray type="Float32" Name="Points" NumberOfComponents="3" format="ascii" RangeMin="15.764459885415365" RangeMax="16.70221515921358">
          -1 -0.5 15.764753 -1 -0.5 15.914616
          -1 -0.5 16.064554 -1 -0.5 16.214539
          -1 -0.5 16.364555 -1 -0.5 16.514616
          -1 -0.5 16.664753 -1 -0.35 15.764616
          -1 -0.35 15.914486 -1 -0.35 16.064425
          -1 -0.35 16.214407 -1 -0.35 16.364424
          -1 -0.35 16.514486 -1 -0.35 16.664616
          -1 -0.2 15.764555 -1 -0.2 15.914424
          -1 -0.2 16.064362 -1 -0.2 16.214346
          -1 -0.2 16.364363 -1 -0.2 16.514423
          -1 -0.2 16.664555 -1 -0.05 15.764538
          -1 -0.05 15.914407 -1 -0.05 16.064346
          -1 -0.05 16.21433 -1 -0.05 16.364346
          -1 -0.05 16.514408 -1 -0.05 16.66454
          -1 0.1 15.764555 -1 0.1 15.914424
          -1 0.1 16.064362 -1 0.1 16.214346
          -1 0.1 16.364363 -1 0.1 16.514423
          -1 0.1 16.664555 -1 0.25 15.764616
          -1 0.25 15.914486 -1 0.25 16.064425
          -1 0.25 16.214407 -1 0.25 16.364424
          -1 0.25 16.514486 -1 0.25 16.664616
          -1 0.4 15.764753 -1 0.4 15.914616
          -1 0.4 16.064554 -1 0.4 16.214539
          -1 0.4 16.364555 -1 0.4 16.514616
          -1 0.4 16.664753 -0.85 -0.5 15.764615
          -0.85 -0.5 15.914485 -0.85 -0.5 16.064423
          -0.85 -0.5 16.214407 -0.85 -0.5 16.364424
          -0.85 -0.5 16.514486 -0.85 -0.5 16.664616
          -0.85 -0.35 15.764485 -0.85 -0.35 15.91437
          -0.85 -0.35 16.064306 -0.85 -0.35 16.21429
          -0.85 -0.35 16.364307 -0.85 -0.35 16.51437
          -0.85 -0.35 16.664486 -0.85 -0.2 15.764422
          -0.85 -0.2 15.914307 -0.85 -0.2 16.064247
          -0.85 -0.2 16.214231 -0.85 -0.2 16.364246
          -0.85 -0.2 16.514307 -0.85 -0.2 16.664423
          -0.85 -0.05 15.764406 -0.85 -0.05 15.91429
          -0.85 -0.05 16.06423 -0.85 -0.05 16.214214
          -0.85 -0.05 16.364231 -0.85 -0.05 16.514292
          -0.85 -0.05 16.664406 -0.85 0.1 15.764422
          -0.85 0.1 15.914307 -0.85 0.1 16.064247
          -0.85 0.1 16.214231 -0.85 0.1 16.364246
          -0.85 0.1 16.514307 -0.85 0.1 16.664423
          -0.85 0.25 15.764485 -0.85 0.25 15.91437
          -0.85 0.25 16.064306 -0.85 0.25 16.21429
          -0.85 0.25 16.364307 -0.85 0.25 16.51437
          -0.85 0.25 16.664486 -0.85 0.4 15.764615
          -0.85 0.4 15.914485 -0.85 0.4 16.064423
          -0.85 0.4 16.214407 -0.85 0.4 16.364424
          -0.85 0.4 16.514486 -0.85 0.4 16.664616
          -0.7 -0.5 15.76455 -0.7 -0.5 15.914419
          -0.7 -0.5 16.064358 -0.7 -0.5 16.214342
          -0.7 -0.5 16.364359 -0.7 -0.5 16.51442
          -0.7 -0.5 16.66455 -0.7 -0.35 15.764419
          -0.7 -0.35 15.914304 -0.7 -0.35 16.064243
          -0.7 -0.35 16.214228 -0.7 -0.35 16.364243
          -0.7 -0.35 16.514303 -0.7 -0.35 16.66442
          -0.7 -0.2 15.764358 -0.7 -0.2 15.914243
          -0.7 -0.2 16.064186 -0.7 -0.2 16.21417
          -0.7 -0.2 16.364185 -0.7 -0.2 16.514244
          -0.7 -0.2 16.664358 -0.7 -0.05 15.764341
          -0.7 -0.05 15.914227 -0.7 -0.05 16.06417
          -0.7 -0.05 16.214155 -0.7 -0.05 16.36417
          -0.7 -0.05 16.514227 -0.7 -0.05 16.664343
          -0.7 0.1 15.764358 -0.7 0.1 15.914243
          -0.7 0.1 16.064186 -0.7 0.1 16.21417
          -0.7 0.1 16.364185 -0.7 0.1 16.514244
          -0.7 0.1 16.664358 -0.7 0.25 15.764419
          -0.7 0.25 15.914304 -0.7 0.25 16.064243
          -0.7 0.25 16.214228 -0.7 0.25 16.364243
          -0.7 0.25 16.514303 -0.7 0.25 16.66442
          -0.7 0.4 15.76455 -0.7 0.4 15.914419
          -0.7 0.4 16.064358 -0.7 0.4 16.214342
          -0.7 0.4 16.364359 -0.7 0.4 16.51442
          -0.7 0.4 16.66455 -0.55 -0.5 15.7645235
          -0.55 -0.5 15.914392 -0.55 -0.5 16.064331
          -0.55 -0.5 16.214315 -0.55 -0.5 16.364332
          -0.55 -0.5 16.514393 -0.55 -0.5 16.664524
          -0.55 -0.35 15.764392 -0.55 -0.35 15.914277
          -0.55 -0.35 16.064217 -0.55 -0.35 16.214201
          -0.55 -0.35 16.364218 -0.55 -0.35 16.514277
          -0.55 -0.35 16.664392 -0.55 -0.2 15.764332
          -0.55 -0.2 15.914217 -0.55 -0.2 16.064161
          -0.55 -0.2 16.214146 -0.55 -0.2 16.36416
          -0.55 -0.2 16.514217 -0.55 -0.2 16.664331
          -0.55 -0.05 15.764316 -0.55 -0.05 15.914202
          -0.55 -0.05 16.064146 -0.55 -0.05 16.21413
          -0.55 -0.05 16.364145 -0.55 -0.05 16.514202
          -0.55 -0.05 16.664316 -0.55 0.1 15.764332
          -0.55 0.1 15.914217 -0.55 0.1 16.064161
          -0.55 0.1 16.214146 -0.55 0.1 16.36416
          -0.55 0.1 16.514217 -0.55 0.1 16.664331
          -0.55 0.25 15.764392 -0.55 0.25 15.914277
          -0.55 0.25 16.064217 -0.55 0.25 16.214201
          -0.55 0.25 16.364218 -0.55 0.25 16.514277
          -0.55 0.25 16.664392 -0.55 0.4 15.7645235
          -0.55 0.4 15.914392 -0.55 0.4 16.064331
          -0.55 0.4 16.214315 -0.55 0.4 16.364332
          -0.55 0.4 16.514393 -0.55 0.4 16.664524
          -0.4 -0.5 15.764513 -0.4 -0.5 15.914382
          -0.4 -0.5 16.064322 -0.4 -0.5 16.214306
          -0.4 -0.5 16.364323 -0.4 -0.5 16.514383
          -0.4 -0.5 16.664515 -0.4 -0.35 15.764382
          -0.4 -0.35 15.914267 -0.4 -0.35 16.064207
          -0.4 -0.35 16.214193 -0.4 -0.35 16.364208
          -0.4 -0.35 16.514267 -0.4 -0.35 16.664383
          -0.4 -0.2 15.764322 -0.4 -0.2 15.914207
          -0.4 -0.2 16.064152 -0.4 -0.2 16.214136
          -0.4 -0.2 16.364151 -0.4 -0.2 16.514208
          -0.4 -0.2 16.664322 -0.4 -0.05 15.764306
          -0.4 -0.05 15.914192 -0.4 -0.05 16.064137
          -0.4 -0.05 16.214123 -0.4 -0.05 16.364138
          -0.4 -0.05 16.514193 -0.4 -0.05 16.664307
          -0.4 0.1 15.764322 -0.4 0.1 15.914207
          -0.4 0.1 16.064152 -0.4 0.1 16.214136
          -0.4 0.1 16.364151 -0.4 0.1 16.514208
          -0.4 0.1 16.664322 -0.4 0.25 15.764382
          -0.4 0.25 15.914267 -0.4 0.25 16.064207
          -0.4 0.25 16.214193 -0.4 0.25 16.364208
          -0.4 0.25 16.514267 -0.4 0.25 16.664383
          -0.4 0.4 15.764513 -0.4 0.4 15.914382
          -0.4 0.4 16.064322 -0.4 0.4 16.214306
          -0.4 0.4 16.364323 -0.4 0.4 16.514383
          -0.4 0.4 16.664515 -0.25 -0.5 15.764509
          -0.25 -0.5 15.914378 -0.25 -0.5 16.064318
          -0.25 -0.5 16.214302 -0.25 -0.5 16.364319
          -0.25 -0.5 16.51438 -0.25 -0.5 16.66451
          -0.25 -0.35 15.764379 -0.25 -0.35 15.914264
          -0.25 -0.35 16.064205 -0.25 -0.35 16.21419
          -0.25 -0.35 16.364204 -0.25 -0.35 16.514263
          -0.25 -0.35 16.66438 -0.25 -0.2 15.764318
          -0.25 -0.2 15.914205 -0.25 -0.2 16.064148
          -0.25 -0.2 16.214134 -0.25 -0.2 16.36415
          -0.25 -0.2 16.514204 -0.25 -0.2 16.664318
          -0.25 -0.05 15.764302 -0.25 -0.05 15.914189
          -0.25 -0.05 16.064133 -0.25 -0.05 16.214119
          -0.25 -0.05 16.364134 -0.25 -0.05 16.514189
          -0.25 -0.05 16.664303 -0.25 0.1 15.764318
          -0.25 0.1 15.914205 -0.25 0.1 16.064148
          -0.25 0.1 16.214134 -0.25 0.1 16.36415
          -0.25 0.1 16.514204 -0.25 0.1 16.664318
          -0.25 0.25 15.764379 -0.25 0.25 15.914264
          -0.25 0.25 16.064205 -0.25 0.25 16.21419
          -0.25 0.25 16.364204 -0.25 0.25 16.514263
          -0.25 0.25 16.66438 -0.25 0.4 15.764509
          -0.25 0.4 15.914378 -0.25 0.4 16.064318
          -0.25 0.4 16.214302 -0.25 0.4 16.364319
          -0.25 0.4 16.51438 -0.25 0.4 16.66451
          -0.1 -0.5 15.764508 -0.1 -0.5 15.914377
          -0.1 -0.5 16.064318 -0.1 -0.5 16.214302
          -0.1 -0.5 16.364317 -0.1 -0.5 16.514378
          -0.1 -0.5 16.664509 -0.1 -0.35 15.764378
          -0.1 -0.35 15.914263 -0.1 -0.35 16.064203
          -0.1 -0.35 16.214188 -0.1 -0.35 16.364204
          -0.1 -0.35 16.514263 -0.1 -0.35 16.664377
          -0.1 -0.2 15.7643175 -0.1 -0.2 15.914204
          -0.1 -0.2 16.064148 -0.1 -0.2 16.214132
          -0.1 -0.2 16.364147 -0.1 -0.2 16.514204
          -0.1 -0.2 16.664318 -0.1 -0.05 15.764301
          -0.1 -0.05 15.914188 -0.1 -0.05 16.064133
          -0.1 -0.05 16.214119 -0.1 -0.05 16.364132
          -0.1 -0.05 16.514189 -0.1 -0.05 16.664303
          -0.1 0.1 15.7643175 -0.1 0.1 15.914204
          -0.1 0.1 16.064148 -0.1 0.1 16.214132
          -0.1 0.1 16.364147 -0.1 0.1 16.514204
          -0.1 0.1 16.664318 -0.1 0.25 15.764378
          -0.1 0.25 15.914263 -0.1 0.25 16.064203
          -0.1 0.25 16.214188 -0.1 0.25 16.364204
          -0.1 0.25 16.514263 -0.1 0.25 16.664377
          -0.1 0.4 15.764508 -0.1 0.4 15.914377
          -0.1 0.4 16.064318 -0.1 0.4 16.214302
          -0.1 0.4 16.364317 -0.1 0.4 16.514378
          -0.1 0.4 16.664509 0.05 -0.5 15.764508
          0.05 -0.5 15.914377 0.05 -0.5 16.064318
          0.05 -0.5 16.214302 0.05 -0.5 16.364317
          0.05 -0.5 16.514378 0.05 -0.5 16.664509
          0.05 -0.35 15.764378 0.05 -0.35 15.914263
          0.05 -0.35 16.064203 0.05 -0.35 16.214188
          0.05 -0.35 16.364204 0.05 -0.35 16.514263
          0.05 -0.35 16.664377 0.05 -0.2 15.7643175
          0.05 -0.2 15.914204 0.05 -0.2 16.064148
          0.05 -0.2 16.214132 0.05 -0.2 16.364147
          0.05 -0.2 16.514204 0.05 -0.2 16.664318
          0.05 -0.05 15.764301 0.05 -0.05 15.914188
          0.05 -0.05 16.064133 0.05 -0.05 16.214119
          0.05 -0.05 16.364132 0.05 -0.05 16.514189
          0.05 -0.05 16.664303 0.05 0.1 15.7643175
          0.05 0.1 15.914204 0.05 0.1 16.064148
          0.05 0.1 16.214132 0.05 0.1 16.364147
          0.05 0.1 16.514204 0.05 0.1 16.664318
          0.05 0.25 15.764378 0.05 0.25 15.914263
          0.05 0.25 16.064203 0.05 0.25 16.214188
          0.05 0.25 16.364204 0.05 0.25 16.514263
          0.05 0.25 16.664377 0.05 0.4 15.764508
          0.05 0.4 15.914377 0.05 0.4 16.064318
          0.05 0.4 16.214302 0.05 0.4 16.364317
          0.05 0.4 16.514378 0.05 0.4 16.664509
          0.2 -0.5 15.764509 0.2 -0.5 15.914378
          0.2 -0.5 16.064318 0.2 -0.5 16.214302
          0.2 -0.5 16.364319 0.2 -0.5 16.51438
          0.2 -0.5 16.66451 0.2 -0.35 15.764379
          0.2 -0.35 15.914264 0.2 -0.35 16.064205
          0.2 -0.35 16.21419 0.2 -0.35 16.364204
          0.2 -0.35 16.514263 0.2 -0.35 16.66438
          0.2 -0.2 15.764318 0.2 -0.2 15.914205
          0.2 -0.2 16.064148 0.2 -0.2 16.214134
          0.2 -0.2 16.36415 0.2 -0.2 16.514204
          0.2 -0.2 16.664318 0.2 -0.05 15.764302
          0.2 -0.05 15.914189 0.2 -0.05 16.064133
          0.2 -0.05 16.214119 0.2 -0.05 16.364134
          0.2 -0.05 16.514189 0.2 -0.05 16.664303
          0.2 0.1 15.764318 0.2 0.1 15.914205
          0.2 0.1 16.064148 0.2 0.1 16.214134
          0.2 0.1 16.36415 0.2 0.1 16.514204
          0.2 0.1 16.664318 0.2 0.25 15.764379
          0.2 0.25 15.914264 0.2 0.25 16.064205
          0.2 0.25 16.21419 0.2 0.25 16.364204
          0.2 0.25 16.514263 0.2 0.25 16.66438
          0.2 0.4 15.764509 0.2 0.4 15.914378
          0.2 0.4 16.064318 0.2 0.4 16.214302
          0.2 0.4 16.364319 0.2 0.4 16.51438
          0.2 0.4 16.66451 0.35 -0.5 15.764513
          0.35 -0.5 15.914382 0.35 -0.5 16.064322
          0.35 -0.5 16.214306 0.35 -0.5 16.364323
          0.35 -0.5 16.514383 0.35 -0.5 16.664515
          0.35 -0.35 15.764382 0.35 -0.35 15.914267
          0.35 -0.35 16.064207 0.35 -0.35 16.214193
          0.35 -0.35 16.364208 0.35 -0.35 16.514267
          0.35 -0.35 16.664383 0.35 -0.2 15.764322
          0.35 -0.2 15.914207 0.35 -0.2 16.064152
          0.35 -0.2 16.214136 0.35 -0.2 16.364151
          0.35 -0.2 16.514208 0.35 -0.2 16.664322
          0.35 -0.05 15.764306 0.35 -0.05 15.914192
          0.35 -0.05 16.064137 0.35 -0.05 16.214123
          0.35 -0.05 16.364138 0.35 -0.05 16.514193
          0.35 -0.05 16.664307 0.35 0.1 15.764322
          0.35 0.1 15.914207 0.35 0.1 16.064152
          0.35 0.1 16.214136 0.35 0.1 16.364151
          0.35 0.1 16.514208 0.35 0.1 16.664322
          0.35 0.25 15.764382 0.35 0.25 15.914267
          0.35 0.25 16.064207 0.35 0.25 16.214193
          0.35 0.25 16.364208 0.35 0.25 16.514267
          0.35 0.25 16.664383 0.35 0.4 15.764513
          0.35 0.4 15.914382 0.35 0.4 16.064322
          0.35 0.4 16.214306 0.35 0.4 16.364323
          0.35 0.4 16.514383 0.35 0.4 16.664515
          0.5 -0.5 15.7645235 0.5 -0.5 15.914392
          0.5 -0.5 16.064331 0.5 -0.5 16.214315
          0.5 -0.5 16.364332 0.5 -0.5 16.514393
          0.5 -0.5 16.664524 0.5 -0.35 15.764392
          0.5 -0.35 15.914277 0.5 -0.35 16.064217
          0.5 -0.35 16.214201 0.5 -0.35 16.364218
          0.5 -0.35 16.514277 0.5 -0.35 16.664392
          0.5 -0.2 15.764332 0.5 -0.2 15.914217
          0.5 -0.2 16.064161 0.5 -0.2 16.214146
          0.5 -0.2 16.36416 0.5 -0.2 16.514217
          0.5 -0.2 16.664331 0.5 -0.05 15.764316
          0.5 -0.05 15.914202 0.5 -0.05 16.064146
          0.5 -0.05 16.21413 0.5 -0.05 16.364145
          0.5 -0.05 16.514202 0.5 -0.05 16.664316
          0.5 0.1 15.764332 0.5 0.1 15.914217
          0.5 0.1 16.064161 0.5 0.1 16.214146
          0.5 0.1 16.36416 0.5 0.1 16.514217
          0.5 0.1 16.664331 0.5 0.25 15.764392
          0.5 0.25 15.914277 0.5 0.25 16.064217
          0.5 0.25 16.214201 0.5 0.25 16.364218
          0.5 0.25 16.514277 0.5 0.25 16.664392
          0.5 0.4 15.7645235 0.5 0.4 15.914392
          0.5 0.4 16.064331 0.5 0.4 16.214315
          0.5 0.4 16.364332 0.5 0.4 16.514393
          0.5 0.4 16.664524 0.65 -0.5 15.76455
          0.65 -0.5 15.914419 0.65 -0.5 16.064358
          0.65 -0.5 16.214342 0.65 -0.5 16.364359
          0.65 -0.5 16.51442 0.65 -0.5 16.66455
          0.65 -0.35 15.764419 0.65 -0.35 15.914304
          0.65 -0.35 16.064243 0.65 -0.35 16.214228
          0.65 -0.35 16.364243 0.65 -0.35 16.514303
          0.65 -0.35 16.66442 0.65 -0.2 15.764358
          0.65 -0.2 15.914243 0.65 -0.2 16.064186
          0.65 -0.2 16.21417 0.65 -0.2 16.364185
          0.65 -0.2 16.514244 0.65 -0.2 16.664358
          0.65 -0.05 15.764341 0.65 -0.05 15.914227
          0.65 -0.05 16.06417 0.65 -0.05 16.214155
          0.65 -0.05 16.36417 0.65 -0.05 16.514227
          0.65 -0.05 16.664343 0.65 0.1 15.764358
          0.65 0.1 15.914243 0.65 0.1 16.064186
          0.65 0.1 16.21417 0.65 0.1 16.364185
          0.65 0.1 16.514244 0.65 0.1 16.664358
          0.65 0.25 15.764419 0.65 0.25 15.914304
          0.65 0.25 16.064243 0.65 0.25 16.214228
          0.65 0.25 16.364243 0.65 0.25 16.514303
          0.65 0.25 16.66442 0.65 0.4 15.76455
          0.65 0.4 15.914419 0.65 0.4 16.064358
          0.65 0.4 16.214342 0.65 0.4 16.364359
          0.65 0.4 16.51442 0.65 0.4 16.66455
          0.8 -0.5 15.764615 0.8 -0.5 15.914485
          0.8 -0.5 16.064423 0.8 -0.5 16.214407
          0.8 -0.5 16.364424 0.8 -0.5 16.514486
          0.8 -0.5 16.664616 0.8 -0.35 15.764485
          0.8 -0.35 15.91437 0.8 -0.35 16.064306
          0.8 -0.35 16.21429 0.8 -0.35 16.364307
          0.8 -0.35 16.51437 0.8 -0.35 16.664486
          0.8 -0.2 15.764422 0.8 -0.2 15.914307
          0.8 -0.2 16.064247 0.8 -0.2 16.214231
          0.8 -0.2 16.364246 0.8 -0.2 16.514307
          0.8 -0.2 16.664423 0.8 -0.05 15.764406
          0.8 -0.05 15.91429 0.8 -0.05 16.06423
          0.8 -0.05 16.214214 0.8 -0.05 16.364231
          0.8 -0.05 16.514292 0.8 -0.05 16.664406
          0.8 0.1 15.764422 0.8 0.1 15.914307
          0.8 0.1 16.064247 0.8 0.1 16.214231
          0.8 0.1 16.364246 0.8 0.1 16.514307
          0.8 0.1 16.664423 0.8 0.25 15.764485
          0.8 0.25 15.91437 0.8 0.25 16.064306
          0.8 0.25 16.21429 0.8 0.25 16.364307
          0.8 0.25 16.51437 0.8 0.25 16.664486
          0.8 0.4 15.764615 0.8 0.4 15.914485
          0.8 0.4 16.064423 0.8 0.4 16.214407
          0.8 0.4 16.364424 0.8 0.4 16.514486
          0.8 0.4 16.664616 0.95 -0.5 15.764753
          0.95 -0.5 15.914616 0.95 -0.5 16.064554
          0.95 -0.5 16.214539 0.95 -0.5 16.364555
          0.95 -0.5 16.514616 0.95 -0.5 16.664753
          0.95 -0.35 15.764616 0.95 -0.35 15.914486
          0.95 -0.35 16.064425 0.95 -0.35 16.214407
          0.95 -0.35 16.364424 0.95 -0.35 16.514486
          0.95 -0.35 16.664616 0.95 -0.2 15.764555
          0.95 -0.2 15.914424 0.95 -0.2 16.064362
          0.95 -0.2 16.214346 0.95 -0.2 16.364363
          0.95 -0.2 16.514423 0.95 -0.2 16.664555
          0.95 -0.05 15.764538 0.95 -0.05 15.914407
          0.95 -0.05 16.064346 0.95 -0.05 16.21433
          0.95 -0.05 16.364346 0.95 -0.05 16.514408
          0.95 -0.05 16.66454 0.95 0.1 15.764555
          0.95 0.1 15.914424 0.95 0.1 16.064362
          0.95 0.1 16.214346 0.95 0.1 16.364363
          0.95 0.1 16.514423 0.95 0.1 16.664555
          0.95 0.25 15.764616 0.95 0.25 15.914486
          0.95 0.25 16.064425 0.95 0.25 16.214407
          0.95 0.25 16.364424 0.95 0.25 16.514486
          0.95 0.25 16.664616 0.95 0.4 15.764753
          0.95 0.4 15.914616 0.95 0.4 16.064554
          0.95 0.4 16.214539 0.95 0.4 16.364555
          0.95 0.4 16.514616 0.95 0.4 16.664753
          <InformationKey name="L2_NORM_RANGE" location="vtkDataArray" length="2">
            <Value index="0">
              15.764459885
            </Value>
            <Value index="1">
              16.702215159
            </Value>
          </InformationKey>
        </DataArray>
      </Points>
      <Verts>
        <DataArray type="Int64" Name="connectivity" format="ascii" RangeMin="0" RangeMax="685">
          0 1 2 3 4 5
          6 7 8 9 10 11
          12 13 14 15 16 17
          18 19 20 21 22 23
          24 25 26 27 28 29
          30 31 32 33 34 35
          36 37 38 39 40 41
          42 43 44 45 46 47
          48 49 50 51 52 53
          54 55 56 57 58 59
          60 61 62 63 64 65
          66 67 68 69 70 71
          72 73 74 75 76 77
          78 79 80 81 82 83
          84 85 86 87 88 89
          90 91 92 93 94 95
          96 97 98 99 100 101
          102 103 104 105 106 107
          108 109 110 111 112 113
          114 115 116 117 118 119
          120 121 122 123 124 125
          126 127 128 129 130 131
          132 133 134 135 136 137
          138 139 140 141 142 143
          144 145 146 147 148 149
          150 151 152 153 154 155
          156 157 158 159 160 161
          162 163 164 165 166 167
          168 169 170 171 172 173
          174 175 176 177 178 179
          180 181 182 183 184 185
          186 187 188 189 190 191
          192 193 194 195 196 197
          198 199 200 201 202 203
          204 205 206 207 208 209
          210 211 212 213 214 215
          216 217 218 219 220 221
          222 223 224 225 226 227
          228 229 230 231 232 233
          234 235 236 237 238 239
          240 241 242 243 244 245
          246 247 248 249 250 251
          252 253 254 255 256 257
          258 259 260 261 262 263
          264 265 266 267 268 269
          270 271 272 273 274 275
          276 277 278 279 280 281
          282 283 284 285 286 287
          288 289 290 291 292 293
          294 295 296 297 298 299
          300 301 302 303 304 305
          306 307 308 309 310 311
          312 313 314 315 316 317
          318 319 320 321 322 323
          324 325 326 327 328 329
          330 331 332 333 334 335
          336 337 338 339 340 341
          342 343 344 345 346 347
          348 349 350 351 352 353
          354 355 356 357 358 359
          360 361 362 363 364 365
          366 367 368 369 370 371
          372 373 374 375 376 377
          378 379 380 381 382 383
          384 385 386 387 388 389
          390 391 392 393 394 395
          396 397 398 399 400 401
          402 403 404 405 406 407
          408 409 410 411 412 413
          414 415 416 417 418 419
          420 421 422 423 424 425
          426 427 428 429 430 431
          432 433 434 435 436 437
          438 439 440 441 442 443
          444 445 446 447 448 449
          450 451 452 453 454 455
          456 457 458 459 460 461
          462 463 464 465 466 467
          468 469 470 471 472 473
          474 475 476 477 478 479
          480 481 482 483 484 485
          486 487 488 489 490 491
          492 493 494 495 496 497
          498 499 500 501 502 503
          504 505 506 507 508 509
          510 511 512 513 514 515
          516 517 518 519 520 521
          522 523 524 525 526 527
          528 529 530 531 532 533
          534 535 536 537 538 539
          540 541 542 543 544 545
          546 547 548 549 550 551
          552 553 554 555 556 557
          558 559 560 561 562 563
          564 565 566 567 568 569
          570 571 572 573 574 575
          576 577 578 579 580 581
          582 583 584 585 586 587
          588 589 590 591 592 593
          594 595 596 597 598 599
          600 601 602 603 604 605
          606 607 608 609 610 611
          612 613 614 615 616 617
          618 619 620 621 622 623
          624 625 626 627 628 629
          630 631 632 633 634 635
          636 637 638 639 640 641
          642 643 644 645 646 647
          648 649 650 651 652 653
          654 655 656 657 658 659
          660 661 662 663 664 665
          666 667 668 669 670 671
          672 673 674 675 676 677
          678 679 680 681 682 683
          684 685
        </DataArray>
        <DataArray type="Int64" Name="offsets" format="ascii" RangeMin="1" RangeMax="686">
          1 2 3 4 5 6
          7 8 9 10 11 12
          13 14 15 16 17 18
          19 20 21 22 23 24
          25 26 27 28 29 30
          31 32 33 34 35 36
          37 38 39 40 41 42
          43 44 45 46 47 48
          49 50 51 52 53 54
          55 56 57 58 59 60
          61 62 63 64 65 66
          67 68 69 70 71 72
          73 74 75 76 77 78
          79 80 81 82 83 84
          85 86 87 88 89 90
          91 92 93 94 95 96
          97 98 99 100 101 102
          103 104 105 106 107 108
          109 110 111 112 113 114
          115 116 117 118 119 120
          121 122 123 124 125 126
          127 128 129 130 131 132
          133 134 135 136 137 138
          139 140 141 142 143 144
          145 146 147 148 149 150
          151 152 153 154 155 156
          157 158 159 160 161 162
          163 164 165 166 167 168
          169 170 171 172 173 174
          175 176 177 178 179 180
          181 182 183 184 185 186
          187 188 189 190 191 192
          193 194 195 196 197 198
          199 200 201 202 203 204
          205 206 207 208 209 210
          211 212 213 214 215 216
          217 218 219 220 221 222
          223 224 225 226 227 228
          229 230 231 232 233 234
          235 236 237 238 239 240
          241 242 243 244 245 246
          247 248 249 250 251 252
          253 254 255 256 257 258
          259 260 261 262 263 264
          265 266 267 268 269 270
          271 272 273 274 275 276
          277 278 279 280 281 282
          283 284 285 286 287 288
          289 290 291 292 293 294
          295 296 297 298 299 300
          301 302 303 304 305 306
          307 308 309 310 311 312
          313 314 315 316 317 318
          319 320 321 322 323 324
          325 326 327 328 329 330
          331 332 333 334 335 336
          337 338 339 340 341 342
          343 344 345 346 347 348
          349 350 351 352 353 354
          355 356 357 358 359 360
          361 362 363 364 365 366
          367 368 369 370 371 372
          373 374 375 376 377 378
          379 380 381 382 383 384
          385 386 387 388 389 390
          391 392 393 394 395 396
          397 398 399 400 401 402
          403 404 405 406 407 408
          409 410 411 412 413 414
          415 416 417 418 419 420
          421 422 423 424 425 426
          427 428 429 430 431 432
          433 434 435 436 437 438
          439 440 441 442 443 444
          445 446 447 448 449 450
          451 452 453 454 455 456
          457 458 459 460 461 462
          463 464 465 466 467 468
          469 470 471 472 473 474
          475 476 477 478 479 480
          481 482 483 484 485 486
          487 488 489 490 491 492
          493 494 495 496 497 498
          499 500 501 502 503 504
          505 506 507 508 509 510
          511 512 513 514 515 516
          517 518 519 520 521 522
          523 524 525 526 527 528
          529 530 531 532 533 534
          535 536 537 538 539 540
          541 542 543 544 545 546
          547 548 549 550 551 552
          553 554 555 556 557 558
          559 560 561 562 563 564
          565 566 567 568 569 570
          571 572 573 574 575 576
          577 578 579 580 581 582
          583 584 585 586 587 588
          589 590 591 592 593 594
          595 596 597 598 599 600
          601 602 603 604 605 606
          607 608 609 610 611 612
          613 614 615 616 617 618
          619 620 621 622 623 624
          625 626 627 628 629 630
          631 632 633 634 635 636
          637 638 639 640 641 642
          643 644 645 646 647 648
          649 650 651 652 653 654
          655 656 657 658 659 660
          661 662 663 664 665 666
          667 668 669 670 671 672
          673 674 675 676 677 678
          679 680 681 682 683 684
          685 686
        </DataArray>
      </Verts>
      <Lines>
        <DataArray type="Int64" Name="connectivity" format="ascii" RangeMin="1e+299" RangeMax="-1e+299">
        </DataArray>
        <DataArray type="Int64" Name="offsets" format="ascii" RangeMin="1e+299" RangeMax="-1e+299">
        </DataArray>
      </Lines>
      <Strips>
        <DataArray type="Int64" Name="connectivity" format="ascii" RangeMin="1e+299" RangeMax="-1e+299">
        </DataArray>
        <DataArray type="Int64" Name="offsets" format="ascii" RangeMin="1e+299" RangeMax="-1e+299">
        </DataArray>
      </Strips>
      <Polys>
        <DataArray type="Int64" Name="connectivity" format="ascii" RangeMin="1e+299" RangeMax="-1e+299">
        </DataArray>
        <DataArray type="Int64" Name="offsets" format="ascii" RangeMin="1e+299" RangeMax="-1e+299">
        </DataArray>
      </Polys>
    </Piece>
  </PolyData>
</VTKFile>
