<?xml version="1.0"?>
<VTKFile type="PolyData" version="0.1" byte_order="LittleEndian" header_type="UInt32" compressor="vtkZLibDataCompressor">
  <PolyData>
    <Piece NumberOfPoints="686" NumberOfVerts="686" NumberOfLines="0" NumberOfStrips="0" NumberOfPolys="0">
      <PointData>
        <DataArray type="Float64" Name="density" format="ascii" RangeMin="500" RangeMax="858.2243597132663">
          500 591.3856740303648 591.3390410084902 591.3192574936381 591.2994680434036 591.2528479636097
          500 591.3820523100532 716.2029219810865 716.1483367255063 716.1240715095114 716.0998017549831
          716.0452320038893 591.2564786502684 591.3867079343098 716.201933251732 716.1476917603513 716.1240712189004
          716.1004449510015 716.0462133397422 591.2518254538912 591.3881457252072 716.2017756834757 716.1473874794544
          716.1240712671641 716.1007486934317 716.0463696030879 591.2503883987903 591.3867079343098 716.201933251732
          716.1476917603513 716.1240712189004 716.1004449510015 716.046213339742 591.2518254538911 591.3820523100532
          716.2029219810865 716.1483367255062 716.1240715095115 716.0998017549831 716.0452320038893 591.2564786502685
          500 591.3856740303648 591.3390410084903 591.319257493638 591.2994680434037 591.2528479636098
          500 591.3820827726231 716.2029138254275 716.148329302716 716.1240715160742 716.0998091817146
          716.0452401382059 591.2564481883364 716.1734143270239 858.2243597132663 858.1640869394216 858.1352891308344
          858.1064899404546 858.0462394029887 716.0747353233635 716.1762083541157 858.2218067911614 858.162911295439
          858.1352882888152 858.1076629846399 858.0487868012272 716.0719469505816 716.1777054771504 858.2213747634696
          858.1624757982846 858.1352881552117 858.1080976056982 858.0492174898268 716.0704510231458 716.1762083541157
          858.2218067911615 858.1629112954389 858.1352882888152 858.1076629846399 858.048786801227 716.0719469505815
          716.173414327024 858.2243597132662 858.1640869394216 858.1352891308343 858.1064899404547 858.0462394029888
          716.0747353233635 591.3820827726231 716.2029138254275 716.1483293027161 716.1240715160742 716.0998091817146
          716.0452401382058 591.2564481883363 591.3868722154485 716.201887842441 716.1476506408923 716.1240712399098
          716.1004860558937 716.0462586032257 591.2516612195466 716.1763485775595 858.2217590435873 858.1628706200121
          858.1352882853632 858.1077035935868 858.0488343830766 716.0718068176207 716.1793813246538 858.2184556171158
          858.1614102861765 858.1352878484518 858.1091626622127 858.0521342978128 716.068781095681 716.1807923351174
          858.2178691616946 858.160890103801 858.1352878247113 858.109682338075 858.0527198585044 716.0673712426071
          716.1793813246537 858.2184556171156 858.1614102861764 858.135287848452 858.1091626622128 858.0521342978128
          716.0687810956807 716.1763485775595 858.2217590435873 858.162870620012 858.1352882853632 858.1077035935867
          858.0488343830765 716.0718068176208 591.3868722154484 716.201887842441 716.1476506408923 716.1240712399098
          716.1004860558937 716.0462586032256 591.2516612195466 591.3888479324381 716.2016022582222 716.1472216775303
          716.1240713297047 716.1009143680257 716.0465423744116 591.2496864446684 716.1784087352299 858.2211457535544
          858.1622740636907 858.1352881255638 858.1082989927452 858.0494456954857 716.0697482273447 716.1813443696865
          858.2176633097287 858.1607138724333 858.1352878319543 858.1098583782119 858.0529251671343 716.0668195330454
          716.1827215714344 858.2170316813216 858.1601648257964 858.1352878723525 858.1104070950458 858.0535560571856
          716.0654434286934 716.1813443696864 858.2176633097288 858.1607138724333 858.1352878319544 858.1098583782118
          858.0529251671342 716.0668195330455 716.1784087352298 858.2211457535544 858.1622740636906 858.1352881255636
          858.1082989927452 858.0494456954857 716.0697482273446 591.3888479324381 716.2016022582222 716.1472216775302
          716.1240713297047 716.1009143680257 716.0465423744117 591.2496864446686 591.3893855104127 716.2014743173281
          716.1470970602784 716.1240713703926 716.1010388719403 716.0466698069985 591.249149075262 716.178970668929
          858.2209645978145 858.1621130740816 858.1352880989886 858.1084597016855 858.0496262131978 716.0691866660578
          716.181892164686 858.2174567437501 858.1605370482313 858.1352878424831 858.1100350203733 858.0531311968091
          716.066272058019 716.1832563960924 858.2168172068895 858.15998213678 858.1352878993862 858.1105896453192
          858.053770028895 716.064908901014 716.181892164686 858.2174567437503 858.1605370482313 858.1352878424831
          858.1100350203734 858.0531311968092 716.0662720580191 716.1789706689287 858.2209645978145 858.1621130740816
          858.1352880989888 858.1084597016855 858.0496262131979 716.0691866660576 591.3893855104127 716.2014743173281
          716.1470970602784 716.1240713703928 716.1010388719403 716.0466698069985 591.2491490752619 591.389520023243
          716.2014371591524 716.1470634789424 716.124071382924 716.1010724310812 716.0467068407145 591.2490146149969
          716.1791105638396 858.2209169666623 858.162072577192 858.1352880935476 858.1085001289784 858.049673680704
          716.0690468671229 716.182028330726 858.2174067446362 858.1604950250531 858.1352878444643 858.1100769936738
          858.0531810518 716.0661359731502 716.1833893886056 858.2167663842761 858.1599394503385 858.1352879047786
          858.1106322909972 858.0538207142482 716.0647759831043 716.1820283307259 858.2174067446364 858.160495025053
          858.1352878444642 858.1100769936737 858.0531810517998 716.0661359731503 716.1791105638395 858.2209169666622
          858.1620725771919 858.1352880935476 858.1085001289784 858.0496736807039 716.0690468671229 591.3895200232429
          716.2014371591524 716.1470634789424 716.1240713829242 716.1010724310812 716.0467068407145 591.2490146149968
          591.389549252294 716.2014285711135 716.1470558445078 716.1240713859809 716.1010800616109 716.0467154028485
          591.2489853981504 716.1791408526146 858.220906387045 858.1620636927163 858.1352880924284 858.1085089986062
          858.0496842255797 716.0690166001857 716.1820576126522 858.2173961089637 858.1604861626835 858.1352878445119
          858.110085844874 858.0531916564815 716.0661067093887 716.1834179530555 858.2167557494515 858.1599305777571
          858.1352879054753 858.110641154196 858.053831319361 716.0647474357122 716.1820576126522 858.2173961089638
          858.1604861626835 858.1352878445119 858.1100858448738 858.0531916564818 716.0661067093886 716.1791408526148
          858.220906387045 858.1620636927164 858.1352880924283 858.1085089986062 858.0496842255798 716.0690166001856
          591.3895492522939 716.2014285711135 716.1470558445078 716.124071385981 716.1010800616109 716.0467154028485
          591.2489853981504 591.3895492522939 716.2014285711135 716.1470558445079 716.1240713859805 716.1010800616109
          716.0467154028483 591.2489853981504 716.1791408526145 858.2209063870453 858.1620636927162 858.1352880924284
          858.108508998606 858.0496842255798 716.0690166001856 716.1820576126524 858.2173961089637 858.1604861626834
          858.1352878445119 858.1100858448742 858.0531916564814 716.0661067093886 716.1834179530555 858.2167557494516
          858.1599305777572 858.1352879054755 858.1106411541957 858.053831319361 716.0647474357122 716.1820576126523
          858.2173961089637 858.1604861626832 858.1352878445118 858.110085844874 858.0531916564815 716.0661067093886
          716.1791408526145 858.2209063870454 858.1620636927162 858.1352880924284 858.108508998606 858.0496842255798
          716.0690166001855 591.3895492522939 716.2014285711135 716.1470558445079 716.1240713859806 716.1010800616109
          716.0467154028485 591.2489853981504 591.389520023243 716.2014371591523 716.1470634789424 716.1240713829238
          716.101072431081 716.0467068407145 591.2490146149968 716.1791105638392 858.2209169666622 858.1620725771919
          858.1352880935473 858.1085001289786 858.0496736807039 716.069046867123 716.1820283307256 858.2174067446362
          858.160495025053 858.1352878444643 858.1100769936737 858.0531810517997 716.06613597315 716.1833893886052
          858.2167663842757 858.1599394503382 858.1352879047788 858.1106322909972 858.0538207142483 716.0647759831041
          716.1820283307256 858.2174067446363 858.160495025053 858.1352878444641 858.1100769936736 858.0531810517996
          716.06613597315 716.1791105638392 858.2209169666621 858.1620725771917 858.1352880935474 858.1085001289786
          858.0496736807038 716.069046867123 591.3895200232429 716.2014371591524 716.1470634789424 716.124071382924
          716.1010724310811 716.0467068407145 591.2490146149968 591.3893855104127 716.2014743173281 716.1470970602782
          716.1240713703924 716.1010388719404 716.0466698069984 591.2491490752619 716.1789706689289 858.2209645978146
          858.1621130740814 858.1352880989883 858.1084597016854 858.0496262131977 716.0691866660577 716.1818921646859
          858.2174567437501 858.1605370482314 858.1352878424831 858.1100350203731 858.053131196809 716.0662720580187
          716.1832563960925 858.2168172068896 858.1599821367802 858.1352878993858 858.1105896453189 858.0537700288949
          716.0649089010138 716.181892164686 858.2174567437502 858.1605370482314 858.1352878424831 858.1100350203733
          858.0531311968091 716.0662720580187 716.1789706689287 858.2209645978146 858.1621130740816 858.1352880989886
          858.1084597016853 858.0496262131978 716.0691866660576 591.3893855104127 716.2014743173281 716.1470970602782
          716.1240713703925 716.1010388719403 716.0466698069984 591.2491490752619 591.388847932438 716.2016022582222
          716.1472216775303 716.1240713297046 716.1009143680254 716.0465423744115 591.2496864446684 716.1784087352298
          858.2211457535543 858.1622740636907 858.1352881255636 858.1082989927452 858.0494456954857 716.0697482273447
          716.1813443696863 858.2176633097289 858.1607138724332 858.1352878319544 858.1098583782122 858.0529251671342
          716.0668195330455 716.1827215714342 858.2170316813218 858.1601648257961 858.1352878723521 858.1104070950461
          858.0535560571852 716.0654434286935 716.1813443696861 858.217663309729 858.1607138724333 858.1352878319544
          858.109858378212 858.052925167134 716.0668195330456 716.1784087352297 858.2211457535545 858.1622740636907
          858.1352881255636 858.1082989927452 858.0494456954856 716.0697482273445 591.388847932438 716.2016022582222
          716.1472216775303 716.1240713297046 716.1009143680255 716.0465423744116 591.2496864446686 591.3868722154484
          716.201887842441 716.1476506408919 716.1240712399099 716.1004860558938 716.0462586032257 591.2516612195465
          716.1763485775593 858.2217590435873 858.1628706200121 858.1352882853631 858.1077035935867 858.0488343830765
          716.0718068176207 716.1793813246536 858.2184556171159 858.1614102861764 858.1352878484519 858.1091626622128
          858.0521342978127 716.0687810956808 716.1807923351174 858.2178691616948 858.160890103801 858.1352878247112
          858.1096823380749 858.0527198585046 716.0673712426072 716.1793813246535 858.2184556171159 858.1614102861763
          858.1352878484521 858.1091626622128 858.0521342978127 716.0687810956807 716.1763485775595 858.2217590435874
          858.1628706200121 858.1352882853631 858.1077035935865 858.0488343830765 716.0718068176208 591.3868722154484
          716.2018878424411 716.1476506408919 716.1240712399099 716.1004860558938 716.0462586032257 591.2516612195465
          591.3820827726232 716.2029138254273 716.1483293027161 716.1240715160742 716.0998091817146 716.0452401382058
          591.2564481883363 716.1734143270241 858.2243597132663 858.1640869394217 858.1352891308345 858.1064899404546
          858.0462394029888 716.0747353233636 716.1762083541158 858.2218067911612 858.1629112954391 858.1352882888151
          858.10766298464 858.0487868012274 716.0719469505816 716.1777054771505 858.2213747634698 858.1624757982843
          858.1352881552115 858.1080976056979 858.0492174898266 716.0704510231459 716.1762083541159 858.2218067911612
          858.162911295439 858.1352882888151 858.1076629846398 858.0487868012272 716.0719469505815 716.1734143270241
          858.2243597132663 858.1640869394217 858.1352891308344 858.1064899404547 858.046239402989 716.0747353233636
          591.3820827726231 716.2029138254273 716.1483293027162 716.1240715160742 716.0998091817147 716.0452401382057
          591.2564481883363 500 591.3856740303647 591.3390410084902 591.319257493638 591.2994680434039
          591.25284796361 500 591.382052310053 716.2029219810865 716.1483367255063 716.1240715095112
          716.0998017549831 716.0452320038894 591.2564786502684 591.3867079343097 716.2019332517318 716.1476917603517
          716.1240712189006 716.1004449510016 716.0462133397424 591.2518254538911 591.3881457252072 716.2017756834757
          716.1473874794543 716.1240712671643 716.1007486934316 716.046369603088 591.2503883987904 591.3867079343098
          716.2019332517318 716.1476917603517 716.1240712189007 716.1004449510015 716.0462133397423 591.2518254538911
          591.3820523100532 716.2029219810863 716.148336725506 716.1240715095114 716.099801754983 716.0452320038895
          591.2564786502684 500 591.3856740303648 591.3390410084902 591.319257493638 591.2994680434037
          591.25284796361 500
        </DataArray>
        <DataArray type="Float64" Name="pressure" format="ascii" RangeMin="0" RangeMax="0">
          0 0 0 0 0 0
          0 0 0 0 0 0
          0 0 0 0 0 0
          0 0 0 0 0 0
          0 0 0 0 0 0
          0 0 0 0 0 0
          0 0 0 0 0 0
          0 0 0 0 0 0
          0 0 0 0 0 0
          0 0 0 0 0 0
          0 0 0 0 0 0
          0 0 0 0 0 0
          0 0 0 0 0 0
          0 0 0 0 0 0
          0 0 0 0 0 0
          0 0 0 0 0 0
          0 0 0 0 0 0
          0 0 0 0 0 0
          0 0 0 0 0 0
          0 0 0 0 0 0
          0 0 0 0 0 0
          0 0 0 0 0 0
          0 0 0 0 0 0
          0 0 0 0 0 0
          0 0 0 0 0 0
          0 0 0 0 0 0
          0 0 0 0 0 0
          0 0 0 0 0 0
          0 0 0 0 0 0
          0 0 0 0 0 0
          0 0 0 0 0 0
          0 0 0 0 0 0
          0 0 0 0 0 0
          0 0 0 0 0 0
          0 0 0 0 0 0
          0 0 0 0 0 0
          0 0 0 0 0 0
          0 0 0 0 0 0
          0 0 0 0 0 0
          0 0 0 0 0 0
          0 0 0 0 0 0
          0 0 0 0 0 0
          0 0 0 0 0 0
          0 0 0 0 0 0
          0 0 0 0 0 0
          0 0 0 0 0 0
          0 0 0 0 0 0
          0 0 0 0 0 0
          0 0 0 0 0 0
          0 0 0 0 0 0
          0 0 0 0 0 0
          0 0 0 0 0 0
          0 0 0 0 0 0
          0 0 0 0 0 0
          0 0 0 0 0 0
          0 0 0 0 0 0
          0 0 0 0 0 0
          0 0 0 0 0 0
          0 0 0 0 0 0
          0 0 0 0 0 0
          0 0 0 0 0 0
          0 0 0 0 0 0
          0 0 0 0 0 0
          0 0 0 0 0 0
          0 0 0 0 0 0
          0 0 0 0 0 0
          0 0 0 0 0 0
          0 0 0 0 0 0
          0 0 0 0 0 0
          0 0 0 0 0 0
          0 0 0 0 0 0
          0 0 0 0 0 0
          0 0 0 0 0 0
          0 0 0 0 0 0
          0 0 0 0 0 0
          0 0 0 0 0 0
          0 0 0 0 0 0
          0 0 0 0 0 0
          0 0 0 0 0 0
          0 0 0 0 0 0
          0 0 0 0 0 0
          0 0 0 0 0 0
          0 0 0 0 0 0
          0 0 0 0 0 0
          0 0 0 0 0 0
          0 0 0 0 0 0
          0 0 0 0 0 0
          0 0 0 0 0 0
          0 0 0 0 0 0
          0 0 0 0 0 0
          0 0 0 0 0 0
          0 0 0 0 0 0
          0 0 0 0 0 0
          0 0 0 0 0 0
          0 0 0 0 0 0
          0 0 0 0 0 0
          0 0 0 0 0 0
          0 0 0 0 0 0
          0 0 0 0 0 0
          0 0 0 0 0 0
          0 0 0 0 0 0
          0 0 0 0 0 0
          0 0 0 0 0 0
          0 0 0 0 0 0
          0 0 0 0 0 0
          0 0 0 0 0 0
          0 0 0 0 0 0
          0 0 0 0 0 0
          0 0 0 0 0 0
          0 0 0 0 0 0
          0 0 0 0 0 0
          0 0 0 0 0 0
          0 0 0 0 0 0
          0 0 0 0 0 0
          0 0
        </DataArray>
        <DataArray type="Float64" Name="velocity" NumberOfComponents="3" format="ascii" RangeMin="12.556127314175631" RangeMax="12.556326125844985">
          0 0 -12.556127350688058 0 0 -12.556174221374116
          0 0 -12.55619243653833 0 0 -12.556196858117449
          0 0 -12.556192416701563 0 0 -12.556174173818198
          0 0 -12.556127314175631 0 0 -12.55617422582107
          0 0 -12.55621835402754 0 0 -12.556237141427793
          0 0 -12.556241544621717 0 0 -12.5562371231204
          0 0 -12.55621831138217 0 0 -12.556174169372786
          0 0 -12.556192456524888 0 0 -12.556237154512726
          0 0 -12.556255334643676 0 0 -12.5562596027986
          0 0 -12.556255317034278 0 0 -12.556237110034832
          0 0 -12.556192396716114 0 0 -12.556196888433107
          0 0 -12.55624156699771 0 0 -12.55625961155502
          0 0 -12.556263827472979 0 0 -12.556259594040975
          0 0 -12.556241522244024 0 0 -12.5561968278013
          0 0 -12.556192456524888 0 0 -12.556237154512726
          0 0 -12.556255334643676 0 0 -12.5562596027986
          0 0 -12.556255317034278 0 0 -12.556237110034832
          0 0 -12.556192396716114 0 0 -12.55617422582107
          0 0 -12.55621835402754 0 0 -12.556237141427793
          0 0 -12.556241544621717 0 0 -12.5562371231204
          0 0 -12.55621831138217 0 0 -12.556174169372786
          0 0 -12.556127350688058 0 0 -12.556174221374116
          0 0 -12.55619243653833 0 0 -12.556196858117449
          0 0 -12.556192416701563 0 0 -12.556174173818198
          0 0 -12.556127314175631 0 0 -12.556174318903928
          0 0 -12.55621844468595 0 0 -12.556237225998771
          0 0 -12.556241627291065 0 0 -12.556237207696507
          0 0 -12.556218402042596 0 0 -12.556174262433967
          0 0 -12.556218446428954 0 0 -12.556257517263415
          0 0 -12.556276196538487 0 0 -12.556280530030055
          0 0 -12.556276180675365 0 0 -12.556257482957792
          0 0 -12.556218400299603 0 0 -12.556237239283842
          0 0 -12.556276205785931 0 0 -12.55629405578126
          0 0 -12.556298211161089 0 0 -12.55629404074394
          0 0 -12.556276171428618 0 0 -12.55623719441201
          0 0 -12.556241649845534 0 0 -12.556280547261014
          0 0 -12.556298218614884 0 0 -12.556302312052642
          0 0 -12.556298203707012 0 0 -12.556280512799734
          0 0 -12.55624160473648 0 0 -12.556237239283842
          0 0 -12.556276205785931 0 0 -12.55629405578126
          0 0 -12.556298211161089 0 0 -12.55629404074394
          0 0 -12.556276171428618 0 0 -12.55623719441201
          0 0 -12.556218446428954 0 0 -12.556257517263415
          0 0 -12.556276196538487 0 0 -12.556280530030055
          0 0 -12.556276180675365 0 0 -12.556257482957792
          0 0 -12.556218400299603 0 0 -12.556174318903928
          0 0 -12.55621844468595 0 0 -12.556237225998771
          0 0 -12.556241627291065 0 0 -12.556237207696507
          0 0 -12.556218402042596 0 0 -12.556174262433967
          0 0 -12.556193007795194 0 0 -12.556237691590844
          0 0 -12.556255839364763 0 0 -12.55626009742356
          0 0 -12.556255821778086 0 0 -12.556237647102947
          0 0 -12.556192947878763 0 0 -12.556237691818191
          0 0 -12.556276642816636 0 0 -12.556294466211709
          0 0 -12.5562986131737 0 0 -12.556294451186226
          0 0 -12.556276608432201 0 0 -12.556237646876845
          0 0 -12.556255850885922 0 0 -12.556294475077145
          0 0 -12.556311213524827 0 0 -12.556315139840038
          0 0 -12.556311199656415 0 0 -12.556294442321342
          0 0 -12.556255810259373 0 0 -12.556260117635386
          0 0 -12.556298629446147 0 0 -12.556315146659887
          0 0 -12.556318997728118 0 0 -12.55631513301982
          0 0 -12.556298596901568 0 0 -12.556260077213373
          0 0 -12.556255850885922 0 0 -12.556294475077145
          0 0 -12.556311213524827 0 0 -12.556315139840038
          0 0 -12.556311199656415 0 0 -12.556294442321342
          0 0 -12.556255810259373 0 0 -12.556237691818191
          0 0 -12.556276642816636 0 0 -12.556294466211709
          0 0 -12.5562986131737 0 0 -12.556294451186226
          0 0 -12.556276608432201 0 0 -12.556237646876845
          0 0 -12.556193007795194 0 0 -12.556237691590844
          0 0 -12.556255839364763 0 0 -12.55626009742356
          0 0 -12.556255821778086 0 0 -12.556237647102947
          0 0 -12.556192947878763 0 0 -12.556199228618722
          0 0 -12.556243858216462 0 0 -12.556261785949582
          0 0 -12.556265965178062 0 0 -12.556261768510435
          0 0 -12.556243813379822 0 0 -12.556199167542966
          0 0 -12.556243858504525 0 0 -12.556282690970598
          0 0 -12.556300246502673 0 0 -12.556304302550037
          0 0 -12.556300231650777 0 0 -12.556282656387031
          0 0 -12.556243813093465 0 0 -12.556261797523693
          0 0 -12.556300255362217 0 0 -12.556316676144133
          0 0 -12.556320495613507 0 0 -12.55631666256968
          0 0 -12.556300222791828 0 0 -12.556261756939243
          0 0 -12.556265985289144 0 0 -12.556304318666937
          0 0 -12.556320502263173 0 0 -12.556324240804308
          0 0 -12.556320488963394 0 0 -12.556304286433415
          0 0 -12.55626594506896 0 0 -12.556261797523693
          0 0 -12.556300255362217 0 0 -12.556316676144133
          0 0 -12.556320495613507 0 0 -12.55631666256968
          0 0 -12.556300222791828 0 0 -12.556261756939243
          0 0 -12.556243858504525 0 0 -12.556282690970598
          0 0 -12.556300246502673 0 0 -12.556304302550037
          0 0 -12.556300231650777 0 0 -12.556282656387031
          0 0 -12.556243813093465 0 0 -12.556199228618722
          0 0 -12.556243858216462 0 0 -12.556261785949582
          0 0 -12.556265965178062 0 0 -12.556261768510435
          0 0 -12.556243813379822 0 0 -12.556199167542966
          0 0 -12.556201016306028 0 0 -12.556245611169917
          0 0 -12.556263454504721 0 0 -12.556267607159219
          0 0 -12.556263437117696 0 0 -12.556245566260062
          0 0 -12.556200954895642 0 0 -12.556245611536461
          0 0 -12.556284394609447 0 0 -12.556301861012168
          0 0 -12.556305888101356 0 0 -12.556301846204638
          0 0 -12.556284359931203 0 0 -12.556245565895333
          0 0 -12.556263466182495 0 0 -12.556301869904008
          0 0 -12.556318194099433 0 0 -12.556321981825555
          0 0 -12.556318180592896 0 0 -12.55630183731341
          0 0 -12.556263425442916 0 0 -12.556267627332211
          0 0 -12.556305904214563 0 0 -12.556321988435457
          0 0 -12.556325694001217 0 0 -12.556321975215187
          0 0 -12.556305871988398 0 0 -12.556267586988236
          0 0 -12.556263466182495 0 0 -12.556301869904008
          0 0 -12.556318194099433 0 0 -12.556321981825555
          0 0 -12.556318180592896 0 0 -12.55630183731341
          0 0 -12.556263425442916 0 0 -12.556245611536461
          0 0 -12.556284394609447 0 0 -12.556301861012168
          0 0 -12.556305888101356 0 0 -12.556301846204638
          0 0 -12.556284359931203 0 0 -12.556245565895333
          0 0 -12.556201016306028 0 0 -12.556245611169917
          0 0 -12.556263454504721 0 0 -12.556267607159219
          0 0 -12.556263437117696 0 0 -12.556245566260062
          0 0 -12.556200954895642 0 0 -12.556201469439753
          0 0 -12.55624605263288 0 0 -12.55626386998187
          0 0 -12.556268014535233 0 0 -12.556263852611643
          0 0 -12.556246007711293 0 0 -12.556201407950383
          0 0 -12.556246053024793 0 0 -12.55628482096218
          0 0 -12.556302261226707 0 0 -12.556306280009611
          0 0 -12.55630224643043 0 0 -12.556284786258159
          0 0 -12.55624600732122 0 0 -12.55626388169473
          0 0 -12.556302270131042 0 0 -12.556318567702696
          0 0 -12.556322346871342 0 0 -12.556318554210524
          0 0 -12.556302237526715 0 0 -12.556263840901776
          0 0 -12.55626803473254 0 0 -12.556306296127186
          0 0 -12.55632235347304 0 0 -12.556326050322614
          0 0 -12.556322340269178 0 0 -12.556306263892289
          0 0 -12.556267994339962 0 0 -12.55626388169473
          0 0 -12.556302270131042 0 0 -12.556318567702696
          0 0 -12.556322346871342 0 0 -12.556318554210524
          0 0 -12.556302237526715 0 0 -12.556263840901776
          0 0 -12.556246053024793 0 0 -12.55628482096218
          0 0 -12.556302261226707 0 0 -12.556306280009611
          0 0 -12.55630224643043 0 0 -12.556284786258159
          0 0 -12.55624600732122 0 0 -12.556201469439753
          0 0 -12.55624605263288 0 0 -12.55626386998187
          0 0 -12.556268014535233 0 0 -12.556263852611643
          0 0 -12.556246007711293 0 0 -12.556201407950383
          0 0 -12.55620156835785 0 0 -12.556246148556312
          0 0 -12.55626395941918 0 0 -12.556268101937643
          0 0 -12.556263942053425 0 0 -12.556246103633846
          0 0 -12.55620150685356 0 0 -12.556246148954049
          0 0 -12.556284913144596 0 0 -12.556302347028232
          0 0 -12.556306363786547 0 0 -12.556302332234662
          0 0 -12.556284878435457 0 0 -12.556246103237957
          0 0 -12.556263971140192 0 0 -12.556302355935635
          0 0 -12.556318647232827 0 0 -12.55632242440127
          0 0 -12.556318633743533 0 0 -12.556302323327868
          0 0 -12.556263930335424 0 0 -12.556268122140557
          0 0 -12.556306379905452 0 0 -12.556322431001382
          0 0 -12.556326125844985 0 0 -12.556322417800693
          0 0 -12.556306347667878 0 0 -12.556268081736759
          0 0 -12.556263971140192 0 0 -12.556302355935635
          0 0 -12.556318647232827 0 0 -12.55632242440127
          0 0 -12.556318633743533 0 0 -12.556302323327868
          0 0 -12.556263930335424 0 0 -12.556246148954049
          0 0 -12.556284913144596 0 0 -12.556302347028232
          0 0 -12.556306363786547 0 0 -12.556302332234662
          0 0 -12.556284878435457 0 0 -12.556246103237957
          0 0 -12.55620156835785 0 0 -12.556246148556312
          0 0 -12.55626395941918 0 0 -12.556268101937643
          0 0 -12.556263942053425 0 0 -12.556246103633846
          0 0 -12.55620150685356 0 0 -12.55620156835785
          0 0 -12.556246148556312 0 0 -12.55626395941918
          0 0 -12.556268101937643 0 0 -12.556263942053425
          0 0 -12.556246103633846 0 0 -12.55620150685356
          0 0 -12.556246148954049 0 0 -12.556284913144596
          0 0 -12.556302347028232 0 0 -12.556306363786547
          0 0 -12.556302332234662 0 0 -12.556284878435457
          0 0 -12.556246103237957 0 0 -12.556263971140192
          0 0 -12.556302355935635 0 0 -12.556318647232827
          0 0 -12.55632242440127 0 0 -12.556318633743533
          0 0 -12.556302323327868 0 0 -12.556263930335424
          0 0 -12.556268122140557 0 0 -12.556306379905452
          0 0 -12.556322431001382 0 0 -12.556326125844985
          0 0 -12.556322417800693 0 0 -12.556306347667878
          0 0 -12.556268081736759 0 0 -12.556263971140192
          0 0 -12.556302355935635 0 0 -12.556318647232827
          0 0 -12.55632242440127 0 0 -12.556318633743533
          0 0 -12.556302323327868 0 0 -12.556263930335424
          0 0 -12.556246148954049 0 0 -12.556284913144596
          0 0 -12.556302347028232 0 0 -12.556306363786547
          0 0 -12.556302332234662 0 0 -12.556284878435457
          0 0 -12.556246103237957 0 0 -12.55620156835785
          0 0 -12.556246148556312 0 0 -12.55626395941918
          0 0 -12.556268101937643 0 0 -12.556263942053425
          0 0 -12.556246103633846 0 0 -12.55620150685356
          0 0 -12.556201469439753 0 0 -12.55624605263288
          0 0 -12.55626386998187 0 0 -12.556268014535233
          0 0 -12.556263852611643 0 0 -12.556246007711293
          0 0 -12.556201407950383 0 0 -12.556246053024793
          0 0 -12.55628482096218 0 0 -12.556302261226707
          0 0 -12.556306280009611 0 0 -12.55630224643043
          0 0 -12.556284786258159 0 0 -12.55624600732122
          0 0 -12.55626388169473 0 0 -12.556302270131042
          0 0 -12.556318567702696 0 0 -12.556322346871342
          0 0 -12.556318554210524 0 0 -12.556302237526715
          0 0 -12.556263840901776 0 0 -12.55626803473254
          0 0 -12.556306296127186 0 0 -12.55632235347304
          0 0 -12.556326050322614 0 0 -12.556322340269178
          0 0 -12.556306263892289 0 0 -12.556267994339962
          0 0 -12.55626388169473 0 0 -12.556302270131042
          0 0 -12.556318567702696 0 0 -12.556322346871342
          0 0 -12.556318554210524 0 0 -12.556302237526715
          0 0 -12.556263840901776 0 0 -12.556246053024793
          0 0 -12.55628482096218 0 0 -12.556302261226707
          0 0 -12.556306280009611 0 0 -12.55630224643043
          0 0 -12.556284786258159 0 0 -12.55624600732122
          0 0 -12.556201469439753 0 0 -12.55624605263288
          0 0 -12.55626386998187 0 0 -12.556268014535233
          0 0 -12.556263852611643 0 0 -12.556246007711293
          0 0 -12.556201407950383 0 0 -12.556201016306028
          0 0 -12.556245611169917 0 0 -12.556263454504721
          0 0 -12.556267607159219 0 0 -12.556263437117696
          0 0 -12.556245566260062 0 0 -12.556200954895642
          0 0 -12.556245611536461 0 0 -12.556284394609447
          0 0 -12.556301861012168 0 0 -12.556305888101356
          0 0 -12.556301846204638 0 0 -12.556284359931203
          0 0 -12.556245565895333 0 0 -12.556263466182495
          0 0 -12.556301869904008 0 0 -12.556318194099433
          0 0 -12.556321981825555 0 0 -12.556318180592896
          0 0 -12.55630183731341 0 0 -12.556263425442916
          0 0 -12.556267627332211 0 0 -12.556305904214563
          0 0 -12.556321988435457 0 0 -12.556325694001217
          0 0 -12.556321975215187 0 0 -12.556305871988398
          0 0 -12.556267586988236 0 0 -12.556263466182495
          0 0 -12.556301869904008 0 0 -12.556318194099433
          0 0 -12.556321981825555 0 0 -12.556318180592896
          0 0 -12.55630183731341 0 0 -12.556263425442916
          0 0 -12.556245611536461 0 0 -12.556284394609447
          0 0 -12.556301861012168 0 0 -12.556305888101356
          0 0 -12.556301846204638 0 0 -12.556284359931203
          0 0 -12.556245565895333 0 0 -12.556201016306028
          0 0 -12.556245611169917 0 0 -12.556263454504721
          0 0 -12.556267607159219 0 0 -12.556263437117696
          0 0 -12.556245566260062 0 0 -12.556200954895642
          0 0 -12.556199228618722 0 0 -12.556243858216462
          0 0 -12.556261785949582 0 0 -12.556265965178062
          0 0 -12.556261768510435 0 0 -12.556243813379822
          0 0 -12.556199167542966 0 0 -12.556243858504525
          0 0 -12.556282690970598 0 0 -12.556300246502673
          0 0 -12.556304302550037 0 0 -12.556300231650777
          0 0 -12.556282656387031 0 0 -12.556243813093465
          0 0 -12.556261797523693 0 0 -12.556300255362217
          0 0 -12.556316676144133 0 0 -12.556320495613507
          0 0 -12.55631666256968 0 0 -12.556300222791828
          0 0 -12.556261756939243 0 0 -12.556265985289144
          0 0 -12.556304318666937 0 0 -12.556320502263173
          0 0 -12.556324240804308 0 0 -12.556320488963394
          0 0 -12.556304286433415 0 0 -12.55626594506896
          0 0 -12.556261797523693 0 0 -12.556300255362217
          0 0 -12.556316676144133 0 0 -12.556320495613507
          0 0 -12.55631666256968 0 0 -12.556300222791828
          0 0 -12.556261756939243 0 0 -12.556243858504525
          0 0 -12.556282690970598 0 0 -12.556300246502673
          0 0 -12.556304302550037 0 0 -12.556300231650777
          0 0 -12.556282656387031 0 0 -12.556243813093465
          0 0 -12.556199228618722 0 0 -12.556243858216462
          0 0 -12.556261785949582 0 0 -12.556265965178062
          0 0 -12.556261768510435 0 0 -12.556243813379822
          0 0 -12.556199167542966 0 0 -12.556193007795194
          0 0 -12.556237691590844 0 0 -12.556255839364763
          0 0 -12.55626009742356 0 0 -12.556255821778086
          0 0 -12.556237647102947 0 0 -12.556192947878763
          0 0 -12.556237691818191 0 0 -12.556276642816636
          0 0 -12.556294466211709 0 0 -12.5562986131737
          0 0 -12.556294451186226 0 0 -12.556276608432201
          0 0 -12.556237646876845 0 0 -12.556255850885922
          0 0 -12.556294475077145 0 0 -12.556311213524827
          0 0 -12.556315139840038 0 0 -12.556311199656415
          0 0 -12.556294442321342 0 0 -12.556255810259373
          0 0 -12.556260117635386 0 0 -12.556298629446147
          0 0 -12.556315146659887 0 0 -12.556318997728118
          0 0 -12.55631513301982 0 0 -12.556298596901568
          0 0 -12.556260077213373 0 0 -12.556255850885922
          0 0 -12.556294475077145 0 0 -12.556311213524827
          0 0 -12.556315139840038 0 0 -12.556311199656415
          0 0 -12.556294442321342 0 0 -12.556255810259373
          0 0 -12.556237691818191 0 0 -12.556276642816636
          0 0 -12.556294466211709 0 0 -12.5562986131737
          0 0 -12.556294451186226 0 0 -12.556276608432201
          0 0 -12.556237646876845 0 0 -12.556193007795194
          0 0 -12.556237691590844 0 0 -12.556255839364763
          0 0 -12.55626009742356 0 0 -12.556255821778086
          0 0 -12.556237647102947 0 0 -12.556192947878763
          0 0 -12.556174318903928 0 0 -12.55621844468595
          0 0 -12.556237225998771 0 0 -12.556241627291065
          0 0 -12.556237207696507 0 0 -12.556218402042596
          0 0 -12.556174262433967 0 0 -12.556218446428954
          0 0 -12.556257517263415 0 0 -12.556276196538487
          0 0 -12.556280530030055 0 0 -12.556276180675365
          0 0 -12.556257482957792 0 0 -12.556218400299603
          0 0 -12.556237239283842 0 0 -12.556276205785931
          0 0 -12.55629405578126 0 0 -12.556298211161089
          0 0 -12.55629404074394 0 0 -12.556276171428618
          0 0 -12.55623719441201 0 0 -12.556241649845534
          0 0 -12.556280547261014 0 0 -12.556298218614884
          0 0 -12.556302312052642 0 0 -12.556298203707012
          0 0 -12.556280512799734 0 0 -12.55624160473648
          0 0 -12.556237239283842 0 0 -12.556276205785931
          0 0 -12.55629405578126 0 0 -12.556298211161089
          0 0 -12.55629404074394 0 0 -12.556276171428618
          0 0 -12.55623719441201 0 0 -12.556218446428954
          0 0 -12.556257517263415 0 0 -12.556276196538487
          0 0 -12.556280530030055 0 0 -12.556276180675365
          0 0 -12.556257482957792 0 0 -12.556218400299603
          0 0 -12.556174318903928 0 0 -12.55621844468595
          0 0 -12.556237225998771 0 0 -12.556241627291065
          0 0 -12.556237207696507 0 0 -12.556218402042596
          0 0 -12.556174262433967 0 0 -12.556127350688058
          0 0 -12.556174221374116 0 0 -12.55619243653833
          0 0 -12.556196858117449 0 0 -12.556192416701563
          0 0 -12.556174173818198 0 0 -12.556127314175631
          0 0 -12.55617422582107 0 0 -12.55621835402754
          0 0 -12.556237141427793 0 0 -12.556241544621717
          0 0 -12.5562371231204 0 0 -12.55621831138217
          0 0 -12.556174169372786 0 0 -12.556192456524888
          0 0 -12.556237154512726 0 0 -12.556255334643676
          0 0 -12.5562596027986 0 0 -12.556255317034278
          0 0 -12.556237110034832 0 0 -12.556192396716114
          0 0 -12.556196888433107 0 0 -12.55624156699771
          0 0 -12.55625961155502 0 0 -12.556263827472979
          0 0 -12.556259594040975 0 0 -12.556241522244024
          0 0 -12.5561968278013 0 0 -12.556192456524888
          0 0 -12.556237154512726 0 0 -12.556255334643676
          0 0 -12.5562596027986 0 0 -12.556255317034278
          0 0 -12.556237110034832 0 0 -12.556192396716114
          0 0 -12.55617422582107 0 0 -12.55621835402754
          0 0 -12.556237141427793 0 0 -12.556241544621717
          0 0 -12.5562371231204 0 0 -12.55621831138217
          0 0 -12.556174169372786 0 0 -12.556127350688058
          0 0 -12.556174221374116 0 0 -12.55619243653833
          0 0 -12.556196858117449 0 0 -12.556192416701563
          0 0 -12.556174173818198 0 0 -12.556127314175631
          <InformationKey name="L2_NORM_RANGE" location="vtkDataArray" length="2">
            <Value index="0">
              12.556127314
            </Value>
            <Value index="1">
              12.556326126
            </Value>
          </InformationKey>
        </DataArray>
        <DataArray type="Float64" Name="speed" format="ascii" RangeMin="12.556127314175631" RangeMax="12.556326125844985">
          12.556127350688058 12.556174221374116 12.55619243653833 12.556196858117449 12.556192416701563 12.556174173818198
          12.556127314175631 12.55617422582107 12.55621835402754 12.556237141427793 12.556241544621717 12.5562371231204
          12.55621831138217 12.556174169372786 12.556192456524888 12.556237154512726 12.556255334643676 12.5562596027986
          12.556255317034278 12.556237110034832 12.556192396716114 12.556196888433107 12.55624156699771 12.55625961155502
          12.556263827472979 12.556259594040975 12.556241522244024 12.5561968278013 12.556192456524888 12.556237154512726
          12.556255334643676 12.5562596027986 12.556255317034278 12.556237110034832 12.556192396716114 12.55617422582107
          12.55621835402754 12.556237141427793 12.556241544621717 12.5562371231204 12.55621831138217 12.556174169372786
          12.556127350688058 12.556174221374116 12.55619243653833 12.556196858117449 12.556192416701563 12.556174173818198
          12.556127314175631 12.556174318903928 12.55621844468595 12.556237225998771 12.556241627291065 12.556237207696507
          12.556218402042596 12.556174262433967 12.556218446428954 12.556257517263415 12.556276196538487 12.556280530030055
          12.556276180675365 12.556257482957792 12.556218400299603 12.556237239283842 12.556276205785931 12.55629405578126
          12.556298211161089 12.55629404074394 12.556276171428618 12.55623719441201 12.556241649845534 12.556280547261014
          12.556298218614884 12.556302312052642 12.556298203707012 12.556280512799734 12.55624160473648 12.556237239283842
          12.556276205785931 12.55629405578126 12.556298211161089 12.55629404074394 12.556276171428618 12.55623719441201
          12.556218446428954 12.556257517263415 12.556276196538487 12.556280530030055 12.556276180675365 12.556257482957792
          12.556218400299603 12.556174318903928 12.55621844468595 12.556237225998771 12.556241627291065 12.556237207696507
          12.556218402042596 12.556174262433967 12.556193007795194 12.556237691590844 12.556255839364763 12.55626009742356
          12.556255821778086 12.556237647102947 12.556192947878763 12.556237691818191 12.556276642816636 12.556294466211709
          12.5562986131737 12.556294451186226 12.556276608432201 12.556237646876845 12.556255850885922 12.556294475077145
          12.556311213524827 12.556315139840038 12.556311199656415 12.556294442321342 12.556255810259373 12.556260117635386
          12.556298629446147 12.556315146659887 12.556318997728118 12.55631513301982 12.556298596901568 12.556260077213373
          12.556255850885922 12.556294475077145 12.556311213524827 12.556315139840038 12.556311199656415 12.556294442321342
          12.556255810259373 12.556237691818191 12.556276642816636 12.556294466211709 12.5562986131737 12.556294451186226
          12.556276608432201 12.556237646876845 12.556193007795194 12.556237691590844 12.556255839364763 12.55626009742356
          12.556255821778086 12.556237647102947 12.556192947878763 12.556199228618722 12.556243858216462 12.556261785949582
          12.556265965178062 12.556261768510435 12.556243813379822 12.556199167542966 12.556243858504525 12.556282690970598
          12.556300246502673 12.556304302550037 12.556300231650777 12.556282656387031 12.556243813093465 12.556261797523693
          12.556300255362217 12.556316676144133 12.556320495613507 12.55631666256968 12.556300222791828 12.556261756939243
          12.556265985289144 12.556304318666937 12.556320502263173 12.556324240804308 12.556320488963394 12.556304286433415
          12.55626594506896 12.556261797523693 12.556300255362217 12.556316676144133 12.556320495613507 12.55631666256968
          12.556300222791828 12.556261756939243 12.556243858504525 12.556282690970598 12.556300246502673 12.556304302550037
          12.556300231650777 12.556282656387031 12.556243813093465 12.556199228618722 12.556243858216462 12.556261785949582
          12.556265965178062 12.556261768510435 12.556243813379822 12.556199167542966 12.556201016306028 12.556245611169917
          12.556263454504721 12.556267607159219 12.556263437117696 12.556245566260062 12.556200954895642 12.556245611536461
          12.556284394609447 12.556301861012168 12.556305888101356 12.556301846204638 12.556284359931203 12.556245565895333
          12.556263466182495 12.556301869904008 12.556318194099433 12.556321981825555 12.556318180592896 12.55630183731341
          12.556263425442916 12.556267627332211 12.556305904214563 12.556321988435457 12.556325694001217 12.556321975215187
          12.556305871988398 12.556267586988236 12.556263466182495 12.556301869904008 12.556318194099433 12.556321981825555
          12.556318180592896 12.55630183731341 12.556263425442916 12.556245611536461 12.556284394609447 12.556301861012168
          12.556305888101356 12.556301846204638 12.556284359931203 12.556245565895333 12.556201016306028 12.556245611169917
          12.556263454504721 12.556267607159219 12.556263437117696 12.556245566260062 12.556200954895642 12.556201469439753
          12.55624605263288 12.55626386998187 12.556268014535233 12.556263852611643 12.556246007711293 12.556201407950383
          12.556246053024793 12.55628482096218 12.556302261226707 12.556306280009611 12.55630224643043 12.556284786258159
          12.55624600732122 12.55626388169473 12.556302270131042 12.556318567702696 12.556322346871342 12.556318554210524
          12.556302237526715 12.556263840901776 12.55626803473254 12.556306296127186 12.55632235347304 12.556326050322614
          12.556322340269178 12.556306263892289 12.556267994339962 12.55626388169473 12.556302270131042 12.556318567702696
          12.556322346871342 12.556318554210524 12.556302237526715 12.556263840901776 12.556246053024793 12.55628482096218
          12.556302261226707 12.556306280009611 12.55630224643043 12.556284786258159 12.55624600732122 12.556201469439753
          12.55624605263288 12.55626386998187 12.556268014535233 12.556263852611643 12.556246007711293 12.556201407950383
          12.55620156835785 12.556246148556312 12.55626395941918 12.556268101937643 12.556263942053425 12.556246103633846
          12.55620150685356 12.556246148954049 12.556284913144596 12.556302347028232 12.556306363786547 12.556302332234662
          12.556284878435457 12.556246103237957 12.556263971140192 12.556302355935635 12.556318647232827 12.55632242440127
          12.556318633743533 12.556302323327868 12.556263930335424 12.556268122140557 12.556306379905452 12.556322431001382
          12.556326125844985 12.556322417800693 12.556306347667878 12.556268081736759 12.556263971140192 12.556302355935635
          12.556318647232827 12.55632242440127 12.556318633743533 12.556302323327868 12.556263930335424 12.556246148954049
          12.556284913144596 12.556302347028232 12.556306363786547 12.556302332234662 12.556284878435457 12.556246103237957
          12.55620156835785 12.556246148556312 12.55626395941918 12.556268101937643 12.556263942053425 12.556246103633846
          12.55620150685356 12.55620156835785 12.556246148556312 12.55626395941918 12.556268101937643 12.556263942053425
          12.556246103633846 12.55620150685356 12.556246148954049 12.556284913144596 12.556302347028232 12.556306363786547
          12.556302332234662 12.556284878435457 12.556246103237957 12.556263971140192 12.556302355935635 12.556318647232827
          12.55632242440127 12.556318633743533 12.556302323327868 12.556263930335424 12.556268122140557 12.556306379905452
          12.556322431001382 12.556326125844985 12.556322417800693 12.556306347667878 12.556268081736759 12.556263971140192
          12.556302355935635 12.556318647232827 12.55632242440127 12.556318633743533 12.556302323327868 12.556263930335424
          12.556246148954049 12.556284913144596 12.556302347028232 12.556306363786547 12.556302332234662 12.556284878435457
          12.556246103237957 12.55620156835785 12.556246148556312 12.55626395941918 12.556268101937643 12.556263942053425
          12.556246103633846 12.55620150685356 12.556201469439753 12.55624605263288 12.55626386998187 12.556268014535233
          12.556263852611643 12.556246007711293 12.556201407950383 12.556246053024793 12.55628482096218 12.556302261226707
          12.556306280009611 12.55630224643043 12.556284786258159 12.55624600732122 12.55626388169473 12.556302270131042
          12.556318567702696 12.556322346871342 12.556318554210524 12.556302237526715 12.556263840901776 12.55626803473254
          12.556306296127186 12.55632235347304 12.556326050322614 12.556322340269178 12.556306263892289 12.556267994339962
          12.55626388169473 12.556302270131042 12.556318567702696 12.556322346871342 12.556318554210524 12.556302237526715
          12.556263840901776 12.556246053024793 12.55628482096218 12.556302261226707 12.556306280009611 12.55630224643043
          12.556284786258159 12.55624600732122 12.556201469439753 12.55624605263288 12.55626386998187 12.556268014535233
          12.556263852611643 12.556246007711293 12.556201407950383 12.556201016306028 12.556245611169917 12.556263454504721
          12.556267607159219 12.556263437117696 12.556245566260062 12.556200954895642 12.556245611536461 12.556284394609447
          12.556301861012168 12.556305888101356 12.556301846204638 12.556284359931203 12.556245565895333 12.556263466182495
          12.556301869904008 12.556318194099433 12.556321981825555 12.556318180592896 12.55630183731341 12.556263425442916
          12.556267627332211 12.556305904214563 12.556321988435457 12.556325694001217 12.556321975215187 12.556305871988398
          12.556267586988236 12.556263466182495 12.556301869904008 12.556318194099433 12.556321981825555 12.556318180592896
          12.55630183731341 12.556263425442916 12.556245611536461 12.556284394609447 12.556301861012168 12.556305888101356
          12.556301846204638 12.556284359931203 12.556245565895333 12.556201016306028 12.556245611169917 12.556263454504721
          12.556267607159219 12.556263437117696 12.556245566260062 12.556200954895642 12.556199228618722 12.556243858216462
          12.556261785949582 12.556265965178062 12.556261768510435 12.556243813379822 12.556199167542966 12.556243858504525
          12.556282690970598 12.556300246502673 12.556304302550037 12.556300231650777 12.556282656387031 12.556243813093465
          12.556261797523693 12.556300255362217 12.556316676144133 12.556320495613507 12.55631666256968 12.556300222791828
          12.556261756939243 12.556265985289144 12.556304318666937 12.556320502263173 12.556324240804308 12.556320488963394
          12.556304286433415 12.55626594506896 12.556261797523693 12.556300255362217 12.556316676144133 12.556320495613507
          12.55631666256968 12.556300222791828 12.556261756939243 12.556243858504525 12.556282690970598 12.556300246502673
          12.556304302550037 12.556300231650777 12.556282656387031 12.556243813093465 12.556199228618722 12.556243858216462
          12.556261785949582 12.556265965178062 12.556261768510435 12.556243813379822 12.556199167542966 12.556193007795194
          12.556237691590844 12.556255839364763 12.55626009742356 12.556255821778086 12.556237647102947 12.556192947878763
          12.556237691818191 12.556276642816636 12.556294466211709 12.5562986131737 12.556294451186226 12.556276608432201
          12.556237646876845 12.556255850885922 12.556294475077145 12.556311213524827 12.556315139840038 12.556311199656415
          12.556294442321342 12.556255810259373 12.556260117635386 12.556298629446147 12.556315146659887 12.556318997728118
          12.55631513301982 12.556298596901568 12.556260077213373 12.556255850885922 12.556294475077145 12.556311213524827
          12.556315139840038 12.556311199656415 12.556294442321342 12.556255810259373 12.556237691818191 12.556276642816636
          12.556294466211709 12.5562986131737 12.556294451186226 12.556276608432201 12.556237646876845 12.556193007795194
          12.556237691590844 12.556255839364763 12.55626009742356 12.556255821778086 12.556237647102947 12.556192947878763
          12.556174318903928 12.55621844468595 12.556237225998771 12.556241627291065 12.556237207696507 12.556218402042596
          12.556174262433967 12.556218446428954 12.556257517263415 12.556276196538487 12.556280530030055 12.556276180675365
          12.556257482957792 12.556218400299603 12.556237239283842 12.556276205785931 12.55629405578126 12.556298211161089
          12.55629404074394 12.556276171428618 12.55623719441201 12.556241649845534 12.556280547261014 12.556298218614884
          12.556302312052642 12.556298203707012 12.556280512799734 12.55624160473648 12.556237239283842 12.556276205785931
          12.55629405578126 12.556298211161089 12.55629404074394 12.556276171428618 12.55623719441201 12.556218446428954
          12.556257517263415 12.556276196538487 12.556280530030055 12.556276180675365 12.556257482957792 12.556218400299603
          12.556174318903928 12.55621844468595 12.556237225998771 12.556241627291065 12.556237207696507 12.556218402042596
          12.556174262433967 12.556127350688058 12.556174221374116 12.55619243653833 12.556196858117449 12.556192416701563
          12.556174173818198 12.556127314175631 12.55617422582107 12.55621835402754 12.556237141427793 12.556241544621717
          12.5562371231204 12.55621831138217 12.556174169372786 12.556192456524888 12.556237154512726 12.556255334643676
          12.5562596027986 12.556255317034278 12.556237110034832 12.556192396716114 12.556196888433107 12.55624156699771
          12.55625961155502 12.556263827472979 12.556259594040975 12.556241522244024 12.5561968278013 12.556192456524888
          12.556237154512726 12.556255334643676 12.5562596027986 12.556255317034278 12.556237110034832 12.556192396716114
          12.55617422582107 12.55621835402754 12.556237141427793 12.556241544621717 12.5562371231204 12.55621831138217
          12.556174169372786 12.556127350688058 12.556174221374116 12.55619243653833 12.556196858117449 12.556192416701563
          12.556174173818198 12.556127314175631
        </DataArray>
        <DataArray type="Float64" Name="radius" format="ascii" RangeMin="0.22" RangeMax="0.22">
          0.22 0.22 0.22 0.22 0.22 0.22
          0.22 0.22 0.22 0.22 0.22 0.22
          0.22 0.22 0.22 0.22 0.22 0.22
          0.22 0.22 0.22 0.22 0.22 0.22
          0.22 0.22 0.22 0.22 0.22 0.22
          0.22 0.22 0.22 0.22 0.22 0.22
          0.22 0.22 0.22 0.22 0.22 0.22
          0.22 0.22 0.22 0.22 0.22 0.22
          0.22 0.22 0.22 0.22 0.22 0.22
          0.22 0.22 0.22 0.22 0.22 0.22
          0.22 0.22 0.22 0.22 0.22 0.22
          0.22 0.22 0.22 0.22 0.22 0.22
          0.22 0.22 0.22 0.22 0.22 0.22
          0.22 0.22 0.22 0.22 0.22 0.22
          0.22 0.22 0.22 0.22 0.22 0.22
          0.22 0.22 0.22 0.22 0.22 0.22
          0.22 0.22 0.22 0.22 0.22 0.22
          0.22 0.22 0.22 0.22 0.22 0.22
          0.22 0.22 0.22 0.22 0.22 0.22
          0.22 0.22 0.22 0.22 0.22 0.22
          0.22 0.22 0.22 0.22 0.22 0.22
          0.22 0.22 0.22 0.22 0.22 0.22
          0.22 0.22 0.22 0.22 0.22 0.22
          0.22 0.22 0.22 0.22 0.22 0.22
          0.22 0.22 0.22 0.22 0.22 0.22
          0.22 0.22 0.22 0.22 0.22 0.22
          0.22 0.22 0.22 0.22 0.22 0.22
          0.22 0.22 0.22 0.22 0.22 0.22
          0.22 0.22 0.22 0.22 0.22 0.22
          0.22 0.22 0.22 0.22 0.22 0.22
          0.22 0.22 0.22 0.22 0.22 0.22
          0.22 0.22 0.22 0.22 0.22 0.22
          0.22 0.22 0.22 0.22 0.22 0.22
          0.22 0.22 0.22 0.22 0.22 0.22
          0.22 0.22 0.22 0.22 0.22 0.22
          0.22 0.22 0.22 0.22 0.22 0.22
          0.22 0.22 0.22 0.22 0.22 0.22
          0.22 0.22 0.22 0.22 0.22 0.22
          0.22 0.22 0.22 0.22 0.22 0.22
          0.22 0.22 0.22 0.22 0.22 0.22
          0.22 0.22 0.22 0.22 0.22 0.22
          0.22 0.22 0.22 0.22 0.22 0.22
          0.22 0.22 0.22 0.22 0.22 0.22
          0.22 0.22 0.22 0.22 0.22 0.22
          0.22 0.22 0.22 0.22 0.22 0.22
          0.22 0.22 0.22 0.22 0.22 0.22
          0.22 0.22 0.22 0.22 0.22 0.22
          0.22 0.22 0.22 0.22 0.22 0.22
          0.22 0.22 0.22 0.22 0.22 0.22
          0.22 0.22 0.22 0.22 0.22 0.22
          0.22 0.22 0.22 0.22 0.22 0.22
          0.22 0.22 0.22 0.22 0.22 0.22
          0.22 0.22 0.22 0.22 0.22 0.22
          0.22 0.22 0.22 0.22 0.22 0.22
          0.22 0.22 0.22 0.22 0.22 0.22
          0.22 0.22 0.22 0.22 0.22 0.22
          0.22 0.22 0.22 0.22 0.22 0.22
          0.22 0.22 0.22 0.22 0.22 0.22
          0.22 0.22 0.22 0.22 0.22 0.22
          0.22 0.22 0.22 0.22 0.22 0.22
          0.22 0.22 0.22 0.22 0.22 0.22
          0.22 0.22 0.22 0.22 0.22 0.22
          0.22 0.22 0.22 0.22 0.22 0.22
          0.22 0.22 0.22 0.22 0.22 0.22
          0.22 0.22 0.22 0.22 0.22 0.22
          0.22 0.22 0.22 0.22 0.22 0.22
          0.22 0.22 0.22 0.22 0.22 0.22
          0.22 0.22 0.22 0.22 0.22 0.22
          0.22 0.22 0.22 0.22 0.22 0.22
          0.22 0.22 0.22 0.22 0.22 0.22
          0.22 0.22 0.22 0.22 0.22 0.22
          0.22 0.22 0.22 0.22 0.22 0.22
          0.22 0.22 0.22 0.22 0.22 0.22
          0.22 0.22 0.22 0.22 0.22 0.22
          0.22 0.22 0.22 0.22 0.22 0.22
          0.22 0.22 0.22 0.22 0.22 0.22
          0.22 0.22 0.22 0.22 0.22 0.22
          0.22 0.22 0.22 0.22 0.22 0.22
          0.22 0.22 0.22 0.22 0.22 0.22
          0.22 0.22 0.22 0.22 0.22 0.22
          0.22 0.22 0.22 0.22 0.22 0.22
          0.22 0.22 0.22 0.22 0.22 0.22
          0.22 0.22 0.22 0.22 0.22 0.22
          0.22 0.22 0.22 0.22 0.22 0.22
          0.22 0.22 0.22 0.22 0.22 0.22
          0.22 0.22 0.22 0.22 0.22 0.22
          0.22 0.22 0.22 0.22 0.22 0.22
          0.22 0.22 0.22 0.22 0.22 0.22
          0.22 0.22 0.22 0.22 0.22 0.22
          0.22 0.22 0.22 0.22 0.22 0.22
          0.22 0.22 0.22 0.22 0.22 0.22
          0.22 0.22 0.22 0.22 0.22 0.22
          0.22 0.22 0.22 0.22 0.22 0.22
          0.22 0.22 0.22 0.22 0.22 0.22
          0.22 0.22 0.22 0.22 0.22 0.22
          0.22 0.22 0.22 0.22 0.22 0.22
          0.22 0.22 0.22 0.22 0.22 0.22
          0.22 0.22 0.22 0.22 0.22 0.22
          0.22 0.22 0.22 0.22 0.22 0.22
          0.22 0.22 0.22 0.22 0.22 0.22
          0.22 0.22 0.22 0.22 0.22 0.22
          0.22 0.22 0.22 0.22 0.22 0.22
          0.22 0.22 0.22 0.22 0.22 0.22
          0.22 0.22 0.22 0.22 0.22 0.22
          0.22 0.22 0.22 0.22 0.22 0.22
          0.22 0.22 0.22 0.22 0.22 0.22
          0.22 0.22 0.22 0.22 0.22 0.22
          0.22 0.22 0.22 0.22 0.22 0.22
          0.22 0.22 0.22 0.22 0.22 0.22
          0.22 0.22 0.22 0.22 0.22 0.22
          0.22 0.22 0.22 0.22 0.22 0.22
          0.22 0.22 0.22 0.22 0.22 0.22
          0.22 0.22 0.22 0.22 0.22 0.22
          0.22 0.22 0.22 0.22 0.22 0.22
          0.22 0.22
        </DataArray>
      </PointData>
      <CellData>
      </CellData>
      <Points>
        <DataArray type="Float32" Name="Points" NumberOfComponents="3" format="ascii" RangeMin="41.93882227547819" RangeMax="42.8534161247797">
          -1 -0.5 41.93883 -1 -0.5 42.088806
          -1 -0.5 42.2388 -1 -0.5 42.388798
          -1 -0.5 42.5388 -1 -0.5 42.688805
          -1 -0.5 42.83883 -1 -0.35 41.938805
          -1 -0.35 42.088783 -1 -0.35 42.238777
          -1 -0.35 42.388775 -1 -0.35 42.538776
          -1 -0.35 42.68878 -1 -0.35 42.838806
          -1 -0.2 41.938797 -1 -0.2 42.088776
          -1 -0.2 42.23877 -1 -0.2 42.388767
          -1 -0.2 42.53877 -1 -0.2 42.688774
          -1 -0.2 42.8388 -1 -0.05 41.938797
          -1 -0.05 42.088776 -1 -0.05 42.238766
          -1 -0.05 42.388763 -1 -0.05 42.538765
          -1 -0.05 42.688774 -1 -0.05 42.8388
          -1 0.1 41.938797 -1 0.1 42.088776
          -1 0.1 42.23877 -1 0.1 42.388767
          -1 0.1 42.53877 -1 0.1 42.688774
          -1 0.1 42.8388 -1 0.25 41.938805
          -1 0.25 42.088783 -1 0.25 42.238777
          -1 0.25 42.388775 -1 0.25 42.538776
          -1 0.25 42.68878 -1 0.25 42.838806
          -1 0.4 41.93883 -1 0.4 42.088806
          -1 0.4 42.2388 -1 0.4 42.388798
          -1 0.4 42.5388 -1 0.4 42.688805
          -1 0.4 42.83883 -0.85 -0.5 41.938805
          -0.85 -0.5 42.088783 -0.85 -0.5 42.238777
          -0.85 -0.5 42.388775 -0.85 -0.5 42.538776
          -0.85 -0.5 42.68878 -0.85 -0.5 42.838806
          -0.85 -0.35 41.93878 -0.85 -0.35 42.088764
          -0.85 -0.35 42.238754 -0.85 -0.35 42.388752
          -0.85 -0.35 42.538757 -0.85 -0.35 42.688763
          -0.85 -0.35 42.838783 -0.85 -0.2 41.938774
          -0.85 -0.2 42.088757 -0.85 -0.2 42.238747
          -0.85 -0.2 42.38875 -0.85 -0.2 42.53875
          -0.85 -0.2 42.688755 -0.85 -0.2 42.838776
          -0.85 -0.05 41.938774 -0.85 -0.05 42.088753
          -0.85 -0.05 42.238747 -0.85 -0.05 42.388744
          -0.85 -0.05 42.538746 -0.85 -0.05 42.688755
          -0.85 -0.05 42.838776 -0.85 0.1 41.938774
          -0.85 0.1 42.088757 -0.85 0.1 42.238747
          -0.85 0.1 42.38875 -0.85 0.1 42.53875
          -0.85 0.1 42.688755 -0.85 0.1 42.838776
          -0.85 0.25 41.93878 -0.85 0.25 42.088764
          -0.85 0.25 42.238754 -0.85 0.25 42.388752
          -0.85 0.25 42.538757 -0.85 0.25 42.688763
          -0.85 0.25 42.838783 -0.85 0.4 41.938805
          -0.85 0.4 42.088783 -0.85 0.4 42.238777
          -0.85 0.4 42.388775 -0.85 0.4 42.538776
          -0.85 0.4 42.68878 -0.85 0.4 42.838806
          -0.7 -0.5 41.938797 -0.7 -0.5 42.088776
          -0.7 -0.5 42.23877 -0.7 -0.5 42.388767
          -0.7 -0.5 42.53877 -0.7 -0.5 42.688774
          -0.7 -0.5 42.8388 -0.7 -0.35 41.938774
          -0.7 -0.35 42.088757 -0.7 -0.35 42.238747
          -0.7 -0.35 42.38875 -0.7 -0.35 42.53875
          -0.7 -0.35 42.688755 -0.7 -0.35 42.838776
          -0.7 -0.2 41.938766 -0.7 -0.2 42.08875
          -0.7 -0.2 42.238743 -0.7 -0.2 42.38874
          -0.7 -0.2 42.538742 -0.7 -0.2 42.688747
          -0.7 -0.2 42.838768 -0.7 -0.05 41.938766
          -0.7 -0.05 42.088745 -0.7 -0.05 42.23874
          -0.7 -0.05 42.388737 -0.7 -0.05 42.53874
          -0.7 -0.05 42.688747 -0.7 -0.05 42.838768
          -0.7 0.1 41.938766 -0.7 0.1 42.08875
          -0.7 0.1 42.238743 -0.7 0.1 42.38874
          -0.7 0.1 42.538742 -0.7 0.1 42.688747
          -0.7 0.1 42.838768 -0.7 0.25 41.938774
          -0.7 0.25 42.088757 -0.7 0.25 42.238747
          -0.7 0.25 42.38875 -0.7 0.25 42.53875
          -0.7 0.25 42.688755 -0.7 0.25 42.838776
          -0.7 0.4 41.938797 -0.7 0.4 42.088776
          -0.7 0.4 42.23877 -0.7 0.4 42.388767
          -0.7 0.4 42.53877 -0.7 0.4 42.688774
          -0.7 0.4 42.8388 -0.55 -0.5 41.938797
          -0.55 -0.5 42.08877 -0.55 -0.5 42.238766
          -0.55 -0.5 42.388763 -0.55 -0.5 42.538765
          -0.55 -0.5 42.688774 -0.55 -0.5 42.838795
          -0.55 -0.35 41.938774 -0.55 -0.35 42.088753
          -0.55 -0.35 42.238747 -0.55 -0.35 42.388744
          -0.55 -0.35 42.538746 -0.55 -0.35 42.688755
          -0.55 -0.35 42.83877 -0.55 -0.2 41.938766
          -0.55 -0.2 42.088745 -0.55 -0.2 42.23874
          -0.55 -0.2 42.388737 -0.55 -0.2 42.53874
          -0.55 -0.2 42.688747 -0.55 -0.2 42.838764
          -0.55 -0.05 41.938763 -0.55 -0.05 42.088745
          -0.55 -0.05 42.23874 -0.55 -0.05 42.388737
          -0.55 -0.05 42.53874 -0.55 -0.05 42.688744
          -0.55 -0.05 42.838764 -0.55 0.1 41.938766
          -0.55 0.1 42.088745 -0.55 0.1 42.23874
          -0.55 0.1 42.388737 -0.55 0.1 42.53874
          -0.55 0.1 42.688747 -0.55 0.1 42.838764
          -0.55 0.25 41.938774 -0.55 0.25 42.088753
          -0.55 0.25 42.238747 -0.55 0.25 42.388744
          -0.55 0.25 42.538746 -0.55 0.25 42.688755
          -0.55 0.25 42.83877 -0.55 0.4 41.938797
          -0.55 0.4 42.08877 -0.55 0.4 42.238766
          -0.55 0.4 42.388763 -0.55 0.4 42.538765
          -0.55 0.4 42.688774 -0.55 0.4 42.838795
          -0.4 -0.5 41.938797 -0.4 -0.5 42.08877
          -0.4 -0.5 42.238766 -0.4 -0.5 42.388763
          -0.4 -0.5 42.538765 -0.4 -0.5 42.688774
          -0.4 -0.5 42.838795 -0.4 -0.35 41.938774
          -0.4 -0.35 42.088753 -0.4 -0.35 42.238747
          -0.4 -0.35 42.388744 -0.4 -0.35 42.538746
          -0.4 -0.35 42.68875 -0.4 -0.35 42.83877
          -0.4 -0.2 41.938766 -0.4 -0.2 42.088745
          -0.4 -0.2 42.23874 -0.4 -0.2 42.388737
          -0.4 -0.2 42.53874 -0.4 -0.2 42.688747
          -0.4 -0.2 42.838764 -0.4 -0.05 41.938763
          -0.4 -0.05 42.088745 -0.4 -0.05 42.23874
          -0.4 -0.05 42.388737 -0.4 -0.05 42.53874
          -0.4 -0.05 42.688744 -0.4 -0.05 42.838764
          -0.4 0.1 41.938766 -0.4 0.1 42.088745
          -0.4 0.1 42.23874 -0.4 0.1 42.388737
          -0.4 0.1 42.53874 -0.4 0.1 42.688747
          -0.4 0.1 42.838764 -0.4 0.25 41.938774
          -0.4 0.25 42.088753 -0.4 0.25 42.238747
          -0.4 0.25 42.388744 -0.4 0.25 42.538746
          -0.4 0.25 42.68875 -0.4 0.25 42.83877
          -0.4 0.4 41.938797 -0.4 0.4 42.08877
          -0.4 0.4 42.238766 -0.4 0.4 42.388763
          -0.4 0.4 42.538765 -0.4 0.4 42.688774
          -0.4 0.4 42.838795 -0.25 -0.5 41.938797
          -0.25 -0.5 42.08877 -0.25 -0.5 42.238766
          -0.25 -0.5 42.388763 -0.25 -0.5 42.538765
          -0.25 -0.5 42.688774 -0.25 -0.5 42.838795
          -0.25 -0.35 41.938774 -0.25 -0.35 42.088753
          -0.25 -0.35 42.238747 -0.25 -0.35 42.388744
          -0.25 -0.35 42.538746 -0.25 -0.35 42.68875
          -0.25 -0.35 42.83877 -0.25 -0.2 41.938766
          -0.25 -0.2 42.088745 -0.25 -0.2 42.23874
          -0.25 -0.2 42.388737 -0.25 -0.2 42.53874
          -0.25 -0.2 42.688744 -0.25 -0.2 42.838764
          -0.25 -0.05 41.938763 -0.25 -0.05 42.088745
          -0.25 -0.05 42.23874 -0.25 -0.05 42.388737
          -0.25 -0.05 42.53874 -0.25 -0.05 42.688744
          -0.25 -0.05 42.838764 -0.25 0.1 41.938766
          -0.25 0.1 42.088745 -0.25 0.1 42.23874
          -0.25 0.1 42.388737 -0.25 0.1 42.53874
          -0.25 0.1 42.688744 -0.25 0.1 42.838764
          -0.25 0.25 41.938774 -0.25 0.25 42.088753
          -0.25 0.25 42.238747 -0.25 0.25 42.388744
          -0.25 0.25 42.538746 -0.25 0.25 42.68875
          -0.25 0.25 42.83877 -0.25 0.4 41.938797
          -0.25 0.4 42.08877 -0.25 0.4 42.238766
          -0.25 0.4 42.388763 -0.25 0.4 42.538765
          -0.25 0.4 42.688774 -0.25 0.4 42.838795
          -0.1 -0.5 41.938797 -0.1 -0.5 42.08877
          -0.1 -0.5 42.238766 -0.1 -0.5 42.388763
          -0.1 -0.5 42.538765 -0.1 -0.5 42.688774
          -0.1 -0.5 42.838795 -0.1 -0.35 41.938774
          -0.1 -0.35 42.088753 -0.1 -0.35 42.238747
          -0.1 -0.35 42.388744 -0.1 -0.35 42.538746
          -0.1 -0.35 42.68875 -0.1 -0.35 42.83877
          -0.1 -0.2 41.938766 -0.1 -0.2 42.088745
          -0.1 -0.2 42.23874 -0.1 -0.2 42.388737
          -0.1 -0.2 42.53874 -0.1 -0.2 42.688744
          -0.1 -0.2 42.838764 -0.1 -0.05 41.938763
          -0.1 -0.05 42.088745 -0.1 -0.05 42.23874
          -0.1 -0.05 42.388737 -0.1 -0.05 42.53874
          -0.1 -0.05 42.688744 -0.1 -0.05 42.838764
          -0.1 0.1 41.938766 -0.1 0.1 42.088745
          -0.1 0.1 42.23874 -0.1 0.1 42.388737
          -0.1 0.1 42.53874 -0.1 0.1 42.688744
          -0.1 0.1 42.838764 -0.1 0.25 41.938774
          -0.1 0.25 42.088753 -0.1 0.25 42.238747
          -0.1 0.25 42.388744 -0.1 0.25 42.538746
          -0.1 0.25 42.68875 -0.1 0.25 42.83877
          -0.1 0.4 41.938797 -0.1 0.4 42.08877
          -0.1 0.4 42.238766 -0.1 0.4 42.388763
          -0.1 0.4 42.538765 -0.1 0.4 42.688774
          -0.1 0.4 42.838795 0.05 -0.5 41.938797
          0.05 -0.5 42.08877 0.05 -0.5 42.238766
          0.05 -0.5 42.388763 0.05 -0.5 42.538765
          0.05 -0.5 42.688774 0.05 -0.5 42.838795
          0.05 -0.35 41.938774 0.05 -0.35 42.088753
          0.05 -0.35 42.238747 0.05 -0.35 42.388744
          0.05 -0.35 42.538746 0.05 -0.35 42.68875
          0.05 -0.35 42.83877 0.05 -0.2 41.938766
          0.05 -0.2 42.088745 0.05 -0.2 42.23874
          0.05 -0.2 42.388737 0.05 -0.2 42.53874
          0.05 -0.2 42.688744 0.05 -0.2 42.838764
          0.05 -0.05 41.938763 0.05 -0.05 42.088745
          0.05 -0.05 42.23874 0.05 -0.05 42.388737
          0.05 -0.05 42.53874 0.05 -0.05 42.688744
          0.05 -0.05 42.838764 0.05 0.1 41.938766
          0.05 0.1 42.088745 0.05 0.1 42.23874
          0.05 0.1 42.388737 0.05 0.1 42.53874
          0.05 0.1 42.688744 0.05 0.1 42.838764
          0.05 0.25 41.938774 0.05 0.25 42.088753
          0.05 0.25 42.238747 0.05 0.25 42.388744
          0.05 0.25 42.538746 0.05 0.25 42.68875
          0.05 0.25 42.83877 0.05 0.4 41.938797
          0.05 0.4 42.08877 0.05 0.4 42.238766
          0.05 0.4 42.388763 0.05 0.4 42.538765
          0.05 0.4 42.688774 0.05 0.4 42.838795
          0.2 -0.5 41.938797 0.2 -0.5 42.08877
          0.2 -0.5 42.238766 0.2 -0.5 42.388763
          0.2 -0.5 42.538765 0.2 -0.5 42.688774
          0.2 -0.5 42.838795 0.2 -0.35 41.938774
          0.2 -0.35 42.088753 0.2 -0.35 42.238747
          0.2 -0.35 42.388744 0.2 -0.35 42.538746
          0.2 -0.35 42.68875 0.2 -0.35 42.83877
          0.2 -0.2 41.938766 0.2 -0.2 42.088745
          0.2 -0.2 42.23874 0.2 -0.2 42.388737
          0.2 -0.2 42.53874 0.2 -0.2 42.688744
          0.2 -0.2 42.838764 0.2 -0.05 41.938763
          0.2 -0.05 42.088745 0.2 -0.05 42.23874
          0.2 -0.05 42.388737 0.2 -0.05 42.53874
          0.2 -0.05 42.688744 0.2 -0.05 42.838764
          0.2 0.1 41.938766 0.2 0.1 42.088745
          0.2 0.1 42.23874 0.2 0.1 42.388737
          0.2 0.1 42.53874 0.2 0.1 42.688744
          0.2 0.1 42.838764 0.2 0.25 41.938774
          0.2 0.25 42.088753 0.2 0.25 42.238747
          0.2 0.25 42.388744 0.2 0.25 42.538746
          0.2 0.25 42.68875 0.2 0.25 42.83877
          0.2 0.4 41.938797 0.2 0.4 42.08877
          0.2 0.4 42.238766 0.2 0.4 42.388763
          0.2 0.4 42.538765 0.2 0.4 42.688774
          0.2 0.4 42.838795 0.35 -0.5 41.938797
          0.35 -0.5 42.08877 0.35 -0.5 42.238766
          0.35 -0.5 42.388763 0.35 -0.5 42.538765
          0.35 -0.5 42.688774 0.35 -0.5 42.838795
          0.35 -0.35 41.938774 0.35 -0.35 42.088753
          0.35 -0.35 42.238747 0.35 -0.35 42.388744
          0.35 -0.35 42.538746 0.35 -0.35 42.68875
          0.35 -0.35 42.83877 0.35 -0.2 41.938766
          0.35 -0.2 42.088745 0.35 -0.2 42.23874
          0.35 -0.2 42.388737 0.35 -0.2 42.53874
          0.35 -0.2 42.688747 0.35 -0.2 42.838764
          0.35 -0.05 41.938763 0.35 -0.05 42.088745
          0.35 -0.05 42.23874 0.35 -0.05 42.388737
          0.35 -0.05 42.53874 0.35 -0.05 42.688744
          0.35 -0.05 42.838764 0.35 0.1 41.938766
          0.35 0.1 42.088745 0.35 0.1 42.23874
          0.35 0.1 42.388737 0.35 0.1 42.53874
          0.35 0.1 42.688747 0.35 0.1 42.838764
          0.35 0.25 41.938774 0.35 0.25 42.088753
          0.35 0.25 42.238747 0.35 0.25 42.388744
          0.35 0.25 42.538746 0.35 0.25 42.68875
          0.35 0.25 42.83877 0.35 0.4 41.938797
          0.35 0.4 42.08877 0.35 0.4 42.238766
          0.35 0.4 42.388763 0.35 0.4 42.538765
          0.35 0.4 42.688774 0.35 0.4 42.838795
          0.5 -0.5 41.938797 0.5 -0.5 42.08877
          0.5 -0.5 42.238766 0.5 -0.5 42.388763
          0.5 -0.5 42.538765 0.5 -0.5 42.688774
          0.5 -0.5 42.838795 0.5 -0.35 41.938774
          0.5 -0.35 42.088753 0.5 -0.35 42.238747
          0.5 -0.35 42.388744 0.5 -0.35 42.538746
          0.5 -0.35 42.688755 0.5 -0.35 42.83877
          0.5 -0.2 41.938766 0.5 -0.2 42.088745
          0.5 -0.2 42.23874 0.5 -0.2 42.388737
          0.5 -0.2 42.53874 0.5 -0.2 42.688747
          0.5 -0.2 42.838764 0.5 -0.05 41.938763
          0.5 -0.05 42.088745 0.5 -0.05 42.23874
          0.5 -0.05 42.388737 0.5 -0.05 42.53874
          0.5 -0.05 42.688744 0.5 -0.05 42.838764
          0.5 0.1 41.938766 0.5 0.1 42.088745
          0.5 0.1 42.23874 0.5 0.1 42.388737
          0.5 0.1 42.53874 0.5 0.1 42.688747
          0.5 0.1 42.838764 0.5 0.25 41.938774
          0.5 0.25 42.088753 0.5 0.25 42.238747
          0.5 0.25 42.388744 0.5 0.25 42.538746
          0.5 0.25 42.688755 0.5 0.25 42.83877
          0.5 0.4 41.938797 0.5 0.4 42.08877
          0.5 0.4 42.238766 0.5 0.4 42.388763
          0.5 0.4 42.538765 0.5 0.4 42.688774
          0.5 0.4 42.838795 0.65 -0.5 41.938797
          0.65 -0.5 42.088776 0.65 -0.5 42.23877
          0.65 -0.5 42.388767 0.65 -0.5 42.53877
          0.65 -0.5 42.688774 0.65 -0.5 42.8388
          0.65 -0.35 41.938774 0.65 -0.35 42.088757
          0.65 -0.35 42.238747 0.65 -0.35 42.38875
          0.65 -0.35 42.53875 0.65 -0.35 42.688755
          0.65 -0.35 42.838776 0.65 -0.2 41.938766
          0.65 -0.2 42.08875 0.65 -0.2 42.238743
          0.65 -0.2 42.38874 0.65 -0.2 42.538742
          0.65 -0.2 42.688747 0.65 -0.2 42.838768
          0.65 -0.05 41.938766 0.65 -0.05 42.088745
          0.65 -0.05 42.23874 0.65 -0.05 42.388737
          0.65 -0.05 42.53874 0.65 -0.05 42.688747
          0.65 -0.05 42.838768 0.65 0.1 41.938766
          0.65 0.1 42.08875 0.65 0.1 42.238743
          0.65 0.1 42.38874 0.65 0.1 42.538742
          0.65 0.1 42.688747 0.65 0.1 42.838768
          0.65 0.25 41.938774 0.65 0.25 42.088757
          0.65 0.25 42.238747 0.65 0.25 42.38875
          0.65 0.25 42.53875 0.65 0.25 42.688755
          0.65 0.25 42.838776 0.65 0.4 41.938797
          0.65 0.4 42.088776 0.65 0.4 42.23877
          0.65 0.4 42.388767 0.65 0.4 42.53877
          0.65 0.4 42.688774 0.65 0.4 42.8388
          0.8 -0.5 41.938805 0.8 -0.5 42.088783
          0.8 -0.5 42.238777 0.8 -0.5 42.388775
          0.8 -0.5 42.538776 0.8 -0.5 42.68878
          0.8 -0.5 42.838806 0.8 -0.35 41.93878
          0.8 -0.35 42.088764 0.8 -0.35 42.238754
          0.8 -0.35 42.388752 0.8 -0.35 42.538757
          0.8 -0.35 42.688763 0.8 -0.35 42.838783
          0.8 -0.2 41.938774 0.8 -0.2 42.088757
          0.8 -0.2 42.238747 0.8 -0.2 42.38875
          0.8 -0.2 42.53875 0.8 -0.2 42.688755
          0.8 -0.2 42.838776 0.8 -0.05 41.938774
          0.8 -0.05 42.088753 0.8 -0.05 42.238747
          0.8 -0.05 42.388744 0.8 -0.05 42.538746
          0.8 -0.05 42.688755 0.8 -0.05 42.838776
          0.8 0.1 41.938774 0.8 0.1 42.088757
          0.8 0.1 42.238747 0.8 0.1 42.38875
          0.8 0.1 42.53875 0.8 0.1 42.688755
          0.8 0.1 42.838776 0.8 0.25 41.93878
          0.8 0.25 42.088764 0.8 0.25 42.238754
          0.8 0.25 42.388752 0.8 0.25 42.538757
          0.8 0.25 42.688763 0.8 0.25 42.838783
          0.8 0.4 41.938805 0.8 0.4 42.088783
          0.8 0.4 42.238777 0.8 0.4 42.388775
          0.8 0.4 42.538776 0.8 0.4 42.68878
          0.8 0.4 42.838806 0.95 -0.5 41.93883
          0.95 -0.5 42.088806 0.95 -0.5 42.2388
          0.95 -0.5 42.388798 0.95 -0.5 42.5388
          0.95 -0.5 42.688805 0.95 -0.5 42.83883
          0.95 -0.35 41.938805 0.95 -0.35 42.088783
          0.95 -0.35 42.238777 0.95 -0.35 42.388775
          0.95 -0.35 42.538776 0.95 -0.35 42.68878
          0.95 -0.35 42.838806 0.95 -0.2 41.938797
          0.95 -0.2 42.088776 0.95 -0.2 42.23877
          0.95 -0.2 42.388767 0.95 -0.2 42.53877
          0.95 -0.2 42.688774 0.95 -0.2 42.8388
          0.95 -0.05 41.938797 0.95 -0.05 42.088776
          0.95 -0.05 42.238766 0.95 -0.05 42.388763
          0.95 -0.05 42.538765 0.95 -0.05 42.688774
          0.95 -0.05 42.8388 0.95 0.1 41.938797
          0.95 0.1 42.088776 0.95 0.1 42.23877
          0.95 0.1 42.388767 0.95 0.1 42.53877
          0.95 0.1 42.688774 0.95 0.1 42.8388
          0.95 0.25 41.938805 0.95 0.25 42.088783
          0.95 0.25 42.238777 0.95 0.25 42.388775
          0.95 0.25 42.538776 0.95 0.25 42.68878
          0.95 0.25 42.838806 0.95 0.4 41.93883
          0.95 0.4 42.088806 0.95 0.4 42.2388
          0.95 0.4 42.388798 0.95 0.4 42.5388
          0.95 0.4 42.688805 0.95 0.4 42.83883
          <InformationKey name="L2_NORM_RANGE" location="vtkDataArray" length="2">
            <Value index="0">
              41.938822275
            </Value>
            <Value index="1">
              42.853416125
            </Value>
          </InformationKey>
        </DataArray>
      </Points>
      <Verts>
        <DataArray type="Int64" Name="connectivity" format="ascii" RangeMin="0" RangeMax="685">
          0 1 2 3 4 5
          6 7 8 9 10 11
          12 13 14 15 16 17
          18 19 20 21 22 23
          24 25 26 27 28 29
          30 31 32 33 34 35
          36 37 38 39 40 41
          42 43 44 45 46 47
          48 49 50 51 52 53
          54 55 56 57 58 59
          60 61 62 63 64 65
          66 67 68 69 70 71
          72 73 74 75 76 77
          78 79 80 81 82 83
          84 85 86 87 88 89
          90 91 92 93 94 95
          96 97 98 99 100 101
          102 103 104 105 106 107
          108 109 110 111 112 113
          114 115 116 117 118 119
          120 121 122 123 124 125
          126 127 128 129 130 131
          132 133 134 135 136 137
          138 139 140 141 142 143
          144 145 146 147 148 149
          150 151 152 153 154 155
          156 157 158 159 160 161
          162 163 164 165 166 167
          168 169 170 171 172 173
          174 175 176 177 178 179
          180 181 182 183 184 185
          186 187 188 189 190 191
          192 193 194 195 196 197
          198 199 200 201 202 203
          204 205 206 207 208 209
          210 211 212 213 214 215
          216 217 218 219 220 221
          222 223 224 225 226 227
          228 229 230 231 232 233
          234 235 236 237 238 239
          240 241 242 243 244 245
          246 247 248 249 250 251
          252 253 254 255 256 257
          258 259 260 261 262 263
          264 265 266 267 268 269
          270 271 272 273 274 275
          276 277 278 279 280 281
          282 283 284 285 286 287
          288 289 290 291 292 293
          294 295 296 297 298 299
          300 301 302 303 304 305
          306 307 308 309 310 311
          312 313 314 315 316 317
          318 319 320 321 322 323
          324 325 326 327 328 329
          330 331 332 333 334 335
          336 337 338 339 340 341
          342 343 344 345 346 347
          348 349 350 351 352 353
          354 355 356 357 358 359
          360 361 362 363 364 365
          366 367 368 369 370 371
          372 373 374 375 376 377
          378 379 380 381 382 383
          384 385 386 387 388 389
          390 391 392 393 394 395
          396 397 398 399 400 401
          402 403 404 405 406 407
          408 409 410 411 412 413
          414 415 416 417 418 419
          420 421 422 423 424 425
          426 427 428 429 430 431
          432 433 434 435 436 437
          438 439 440 441 442 443
          444 445 446 447 448 449
          450 451 452 453 454 455
          456 457 458 459 460 461
          462 463 464 465 466 467
          468 469 470 471 472 473
          474 475 476 477 478 479
          480 481 482 483 484 485
          486 487 488 489 490 491
          492 493 494 495 496 497
          498 499 500 501 502 503
          504 505 506 507 508 509
          510 511 512 513 514 515
          516 517 518 519 520 521
          522 523 524 525 526 527
          528 529 530 531 532 533
          534 535 536 537 538 539
          540 541 542 543 544 545
          546 547 548 549 550 551
          552 553 554 555 556 557
          558 559 560 561 562 563
          564 565 566 567 568 569
          570 571 572 573 574 575
          576 577 578 579 580 581
          582 583 584 585 586 587
          588 589 590 591 592 593
          594 595 596 597 598 599
          600 601 602 603 604 605
          606 607 608 609 610 611
          612 613 614 615 616 617
          618 619 620 621 622 623
          624 625 626 627 628 629
          630 631 632 633 634 635
          636 637 638 639 640 641
          642 643 644 645 646 647
          648 649 650 651 652 653
          654 655 656 657 658 659
          660 661 662 663 664 665
          666 667 668 669 670 671
          672 673 674 675 676 677
          678 679 680 681 682 683
          684 685
        </DataArray>
        <DataArray type="Int64" Name="offsets" format="ascii" RangeMin="1" RangeMax="686">
          1 2 3 4 5 6
          7 8 9 10 11 12
          13 14 15 16 17 18
          19 20 21 22 23 24
          25 26 27 28 29 30
          31 32 33 34 35 36
          37 38 39 40 41 42
          43 44 45 46 47 48
          49 50 51 52 53 54
          55 56 57 58 59 60
          61 62 63 64 65 66
          67 68 69 70 71 72
          73 74 75 76 77 78
          79 80 81 82 83 84
          85 86 87 88 89 90
          91 92 93 94 95 96
          97 98 99 100 101 102
          103 104 105 106 107 108
          109 110 111 112 113 114
          115 116 117 118 119 120
          121 122 123 124 125 126
          127 128 129 130 131 132
          133 134 135 136 137 138
          139 140 141 142 143 144
          145 146 147 148 149 150
          151 152 153 154 155 156
          157 158 159 160 161 162
          163 164 165 166 167 168
          169 170 171 172 173 174
          175 176 177 178 179 180
          181 182 183 184 185 186
          187 188 189 190 191 192
          193 194 195 196 197 198
          199 200 201 202 203 204
          205 206 207 208 209 210
          211 212 213 214 215 216
          217 218 219 220 221 222
          223 224 225 226 227 228
          229 230 231 232 233 234
          235 236 237 238 239 240
          241 242 243 244 245 246
          247 248 249 250 251 252
          253 254 255 256 257 258
          259 260 261 262 263 264
          265 266 267 268 269 270
          271 272 273 274 275 276
          277 278 279 280 281 282
          283 284 285 286 287 288
          289 290 291 292 293 294
          295 296 297 298 299 300
          301 302 303 304 305 306
          307 308 309 310 311 312
          313 314 315 316 317 318
          319 320 321 322 323 324
          325 326 327 328 329 330
          331 332 333 334 335 336
          337 338 339 340 341 342
          343 344 345 346 347 348
          349 350 351 352 353 354
          355 356 357 358 359 360
          361 362 363 364 365 366
          367 368 369 370 371 372
          373 374 375 376 377 378
          379 380 381 382 383 384
          385 386 387 388 389 390
          391 392 393 394 395 396
          397 398 399 400 401 402
          403 404 405 406 407 408
          409 410 411 412 413 414
          415 416 417 418 419 420
          421 422 423 424 425 426
          427 428 429 430 431 432
          433 434 435 436 437 438
          439 440 441 442 443 444
          445 446 447 448 449 450
          451 452 453 454 455 456
          457 458 459 460 461 462
          463 464 465 466 467 468
          469 470 471 472 473 474
          475 476 477 478 479 480
          481 482 483 484 485 486
          487 488 489 490 491 492
          493 494 495 496 497 498
          499 500 501 502 503 504
          505 506 507 508 509 510
          511 512 513 514 515 516
          517 518 519 520 521 522
          523 524 525 526 527 528
          529 530 531 532 533 534
          535 536 537 538 539 540
          541 542 543 544 545 546
          547 548 549 550 551 552
          553 554 555 556 557 558
          559 560 561 562 563 564
          565 566 567 568 569 570
          571 572 573 574 575 576
          577 578 579 580 581 582
          583 584 585 586 587 588
          589 590 591 592 593 594
          595 596 597 598 599 600
          601 602 603 604 605 606
          607 608 609 610 611 612
          613 614 615 616 617 618
          619 620 621 622 623 624
          625 626 627 628 629 630
          631 632 633 634 635 636
          637 638 639 640 641 642
          643 644 645 646 647 648
          649 650 651 652 653 654
          655 656 657 658 659 660
          661 662 663 664 665 666
          667 668 669 670 671 672
          673 674 675 676 677 678
          679 680 681 682 683 684
          685 686
        </DataArray>
      </Verts>
      <Lines>
        <DataArray type="Int64" Name="connectivity" format="ascii" RangeMin="1e+299" RangeMax="-1e+299">
        </DataArray>
        <DataArray type="Int64" Name="offsets" format="ascii" RangeMin="1e+299" RangeMax="-1e+299">
        </DataArray>
      </Lines>
      <Strips>
        <DataArray type="Int64" Name="connectivity" format="ascii" RangeMin="1e+299" RangeMax="-1e+299">
        </DataArray>
        <DataArray type="Int64" Name="offsets" format="ascii" RangeMin="1e+299" RangeMax="-1e+299">
        </DataArray>
      </Strips>
      <Polys>
        <DataArray type="Int64" Name="connectivity" format="ascii" RangeMin="1e+299" RangeMax="-1e+299">
        </DataArray>
        <DataArray type="Int64" Name="offsets" format="ascii" RangeMin="1e+299" RangeMax="-1e+299">
        </DataArray>
      </Polys>
    </Piece>
  </PolyData>
</VTKFile>
