<?xml version="1.0"?>
<VTKFile type="PolyData" version="0.1" byte_order="LittleEndian" header_type="UInt32" compressor="vtkZLibDataCompressor">
  <PolyData>
    <Piece NumberOfPoints="686" NumberOfVerts="686" NumberOfLines="0" NumberOfStrips="0" NumberOfPolys="0">
      <PointData>
        <DataArray type="Float64" Name="density" format="ascii" RangeMin="500" RangeMax="858.1353238537299">
          500 591.3192867615866 591.3192651964964 591.3192645836954 591.3192639708947 591.3192424058037
          500 591.3192900148763 716.1241057990496 716.1240807550812 716.124080005822 716.1240792565625
          716.1240542125962 591.319239152511 591.3192944301705 716.1241054604458 716.1240807110021 716.1240800058218
          716.1240793006417 716.1240545511989 591.3192347372184 591.3192945619677 716.1241054522261 716.1240806959497
          716.1240800058218 716.124079315694 716.1240545594186 591.3192346054212 591.3192944301705 716.1241054604457
          716.1240807110021 716.1240800058218 716.1240793006418 716.1240545511989 591.3192347372185 591.3192900148763
          716.1241057990496 716.1240807550813 716.1240800058218 716.1240792565624 716.1240542125963 591.319239152511
          500 591.3192867615866 591.3192651964964 591.3192645836955 591.3192639708947 591.3192424058036
          500 591.319290014876 716.1241057990468 716.1240807550843 716.1240800058218 716.1240792565593
          716.1240542125956 591.3192391525108 716.1240965653817 858.1353238537297 858.13529717828 858.1352963050133
          858.1352954317465 858.1352687563021 716.1240634462536 716.1241004553581 858.1353227651036 858.1352971042903
          858.135296305013 858.1352955057359 858.1352698449257 716.1240595562795 716.1241005935576 858.1353227420329
          858.1352970856408 858.1352963050132 858.1352955243852 858.135269867994 716.1240594180799 716.1241004553581
          858.1353227651038 858.1352971042902 858.135296305013 858.1352955057359 858.1352698449259 716.1240595562795
          716.1240965653816 858.1353238537297 858.1352971782799 858.1352963050132 858.1352954317465 858.1352687563021
          716.1240634462536 591.3192900148761 716.1241057990469 716.1240807550843 716.124080005822 716.1240792565594
          716.1240542125956 591.3192391525108 591.319294430189 716.1241054604457 716.1240807110034 716.1240800058217
          716.12407930064 716.1240545511903 591.3192347371812 716.1241004553954 858.1353227651019 858.1352971042819
          858.135296305013 858.1352955057439 858.1352698449248 716.1240595562421 716.1241042916475 858.1353215699615
          858.1352970236217 858.135296305013 858.1352955864041 858.135271040063 716.1240557199918 716.1241044159074
          858.1353215428578 858.1352970041503 858.135296305013 858.1352956058755 858.1352710671614 716.1240555957098
          716.1241042916475 858.1353215699614 858.1352970236219 858.1352963050128 858.135295586404 858.135271040063
          716.1240557199918 716.1241004553954 858.1353227651017 858.1352971042817 858.135296305013 858.1352955057438
          858.1352698449248 716.1240595562422 591.319294430189 716.1241054604457 716.1240807110036 716.1240800058217
          716.1240793006399 716.1240545511904 591.3192347371811 591.3192945645129 716.124105451943 716.1240806956125
          716.1240800058217 716.1240793160309 716.1240545596983 591.3192346028756 716.124100596174 858.135322741576
          858.135297085219 858.135296305013 858.1352955248069 858.1352698684533 716.1240594154635 716.1241044182096
          858.1353215423303 858.135297003724 858.1352963050127 858.1352956063017 858.135271067697 716.1240555934298
          716.1241045407821 858.1353215149029 858.1352969841711 858.1352963050131 858.1352956258545 858.1352710951218
          716.1240554708573 716.1241044182095 858.1353215423303 858.135297003724 858.1352963050127 858.1352956063016
          858.135271067697 716.12405559343 716.1241005961741 858.135322741576 858.1352970852189 858.1352963050128
          858.1352955248068 858.1352698684532 716.1240594154635 591.3192945645129 716.124105451943 716.1240806956124
          716.1240800058217 716.1240793160309 716.1240545596983 591.3192346028756 591.319294566993 716.1241054516406
          716.1240806952704 716.1240800058218 716.1240793163729 716.1240545600037 591.3192346003959 716.1241005987479
          858.1353227411294 858.1352970848073 858.1352963050133 858.1352955252155 858.1352698689007 716.1240594128928
          716.1241044205456 858.1353215418455 858.1352970033136 858.1352963050128 858.1352956067118 858.1352710681822
          716.1240555910948 716.1241045430503 858.1353215144175 858.1352969837549 858.135296305013 858.1352956262677
          858.135271095611 716.1240554685926 716.1241044205457 858.1353215418455 858.1352970033136 858.1352963050127
          858.135295606712 858.1352710681823 716.1240555910948 716.1241005987479 858.1353227411292 858.1352970848073
          858.1352963050131 858.1352955252155 858.1352698689005 716.124059412893 591.319294566993 716.1241054516406
          716.1240806952707 716.124080005822 716.1240793163728 716.1240545600039 591.3192346003959 591.3192945670368
          716.1241054516341 716.1240806952572 716.124080005822 716.1240793163831 716.1240545600103 591.3192346003553
          716.124100598798 858.1353227411256 858.1352970847879 858.1352963050134 858.1352955252266 858.1352698689045
          716.1240594128515 716.1241044205921 858.1353215418453 858.1352970032997 858.135296305013 858.1352956067198
          858.1352710681826 716.1240555910548 716.1241045430908 858.1353215144176 858.135296983739 858.135296305013
          858.1352956262753 858.1352710956111 716.1240554685609 716.1241044205921 858.1353215418454 858.1352970032997
          858.1352963050128 858.1352956067199 858.1352710681826 716.1240555910548 716.124100598798 858.1353227411255
          858.1352970847878 858.1352963050131 858.1352955252265 858.1352698689043 716.1240594128516 591.3192945670368
          716.1241054516341 716.1240806952575 716.124080005822 716.1240793163831 716.1240545600103 591.3192346003553
          591.3192945670371 716.1241054516341 716.1240806952569 716.124080005822 716.1240793163831 716.1240545600103
          591.3192346003553 716.1241005988011 858.1353227411256 858.1352970847848 858.1352963050134 858.1352955252266
          858.1352698689045 716.1240594128515 716.1241044205927 858.1353215418453 858.135297003299 858.135296305013
          858.1352956067198 858.1352710681826 716.1240555910548 716.1241045430938 858.1353215144176 858.1352969837359
          858.135296305013 858.1352956262753 858.1352710956111 716.1240554685609 716.1241044205926 858.1353215418454
          858.135297003299 858.1352963050128 858.1352956067199 858.1352710681826 716.1240555910548 716.1241005988011
          858.1353227411255 858.1352970847847 858.1352963050131 858.1352955252265 858.1352698689043 716.1240594128516
          591.3192945670371 716.1241054516341 716.1240806952571 716.124080005822 716.1240793163831 716.1240545600103
          591.3192346003553 591.3192945670371 716.1241054516341 716.1240806952569 716.124080005822 716.1240793163831
          716.1240545600103 591.3192346003553 716.1241005988011 858.1353227411256 858.1352970847848 858.1352963050134
          858.1352955252266 858.1352698689045 716.1240594128515 716.1241044205927 858.1353215418453 858.135297003299
          858.135296305013 858.1352956067198 858.1352710681826 716.1240555910548 716.1241045430938 858.1353215144176
          858.1352969837359 858.135296305013 858.1352956262753 858.1352710956111 716.1240554685609 716.1241044205926
          858.1353215418454 858.135297003299 858.1352963050128 858.1352956067199 858.1352710681826 716.1240555910548
          716.1241005988011 858.1353227411255 858.1352970847847 858.1352963050131 858.1352955252265 858.1352698689043
          716.1240594128516 591.3192945670371 716.1241054516341 716.1240806952571 716.124080005822 716.1240793163831
          716.1240545600103 591.3192346003553 591.3192945670368 716.124105451634 716.1240806952571 716.1240800058218
          716.124079316383 716.1240545600102 591.3192346003553 716.1241005987979 858.1353227411255 858.1352970847877
          858.1352963050132 858.1352955252265 858.1352698689044 716.1240594128514 716.124104420592 858.1353215418452
          858.1352970032996 858.1352963050128 858.1352956067196 858.1352710681825 716.1240555910547 716.1241045430905
          858.1353215144175 858.1352969837388 858.1352963050128 858.1352956262751 858.1352710956108 716.1240554685606
          716.1241044205918 858.1353215418453 858.1352970032996 858.1352963050127 858.1352956067198 858.1352710681825
          716.1240555910547 716.1241005987979 858.1353227411254 858.1352970847876 858.1352963050128 858.1352955252264
          858.1352698689042 716.1240594128515 591.3192945670366 716.124105451634 716.1240806952574 716.1240800058218
          716.124079316383 716.1240545600102 591.3192346003552 591.319294566993 716.1241054516406 716.1240806952704
          716.1240800058217 716.1240793163727 716.1240545600037 591.3192346003959 716.1241005987479 858.1353227411291
          858.1352970848072 858.1352963050132 858.1352955252155 858.1352698689008 716.1240594128926 716.1241044205455
          858.1353215418455 858.1352970033134 858.1352963050126 858.1352956067118 858.1352710681821 716.1240555910948
          716.1241045430501 858.1353215144171 858.1352969837545 858.1352963050125 858.1352956262676 858.1352710956108
          716.1240554685925 716.1241044205456 858.1353215418457 858.1352970033134 858.1352963050125 858.1352956067119
          858.1352710681822 716.1240555910947 716.1241005987479 858.135322741129 858.1352970848072 858.135296305013
          858.1352955252154 858.1352698689005 716.1240594128927 591.319294566993 716.1241054516406 716.1240806952705
          716.1240800058218 716.1240793163727 716.1240545600037 591.3192346003958 591.319294564513 716.1241054519431
          716.1240806956126 716.1240800058217 716.1240793160309 716.1240545596983 591.3192346028756 716.124100596174
          858.1353227415759 858.1352970852187 858.1352963050128 858.135295524807 858.1352698684533 716.1240594154634
          716.1241044182096 858.1353215423304 858.135297003724 858.1352963050128 858.135295606302 858.135271067697
          716.12405559343 716.1241045407821 858.1353215149028 858.135296984171 858.1352963050128 858.1352956258544
          858.1352710951217 716.1240554708575 716.1241044182096 858.1353215423304 858.135297003724 858.1352963050127
          858.1352956063017 858.1352710676969 716.12405559343 716.1241005961741 858.1353227415759 858.1352970852187
          858.1352963050126 858.1352955248069 858.1352698684533 716.1240594154634 591.319294564513 716.1241054519431
          716.1240806956126 716.1240800058217 716.1240793160309 716.1240545596984 591.3192346028756 591.319294430189
          716.1241054604454 716.1240807110036 716.1240800058218 716.1240793006401 716.1240545511903 591.3192347371811
          716.1241004553951 858.1353227651018 858.135297104282 858.1352963050127 858.1352955057439 858.1352698449249
          716.124059556242 716.1241042916477 858.1353215699615 858.1352970236214 858.1352963050128 858.1352955864039
          858.135271040063 716.1240557199919 716.1241044159073 858.1353215428576 858.1352970041502 858.1352963050128
          858.1352956058754 858.1352710671612 716.12405559571 716.1241042916477 858.1353215699614 858.1352970236215
          858.1352963050128 858.1352955864039 858.1352710400631 716.1240557199919 716.1241004553953 858.1353227651016
          858.1352971042818 858.1352963050127 858.1352955057439 858.135269844925 716.1240595562421 591.3192944301888
          716.1241054604454 716.1240807110037 716.1240800058218 716.12407930064 716.1240545511902 591.3192347371811
          591.3192900148762 716.1241057990468 716.1240807550843 716.124080005822 716.1240792565595 716.124054212596
          591.3192391525109 716.1240965653817 858.1353238537298 858.1352971782798 858.1352963050134 858.1352954317466
          858.1352687563024 716.1240634462536 716.1241004553582 858.1353227651036 858.1352971042902 858.135296305013
          858.1352955057359 858.1352698449256 716.1240595562797 716.124100593558 858.135322742033 858.1352970856408
          858.1352963050131 858.135295524385 858.135269867994 716.12405941808 716.1241004553581 858.1353227651039
          858.1352971042901 858.1352963050128 858.1352955057359 858.1352698449257 716.1240595562796 716.1240965653817
          858.1353238537299 858.1352971782798 858.1352963050133 858.1352954317465 858.1352687563023 716.1240634462536
          591.3192900148761 716.1241057990469 716.1240807550843 716.1240800058221 716.1240792565595 716.1240542125959
          591.3192391525109 500 591.3192867615866 591.3192651964964 591.3192645836955 591.3192639708947
          591.3192424058036 500 591.3192900148761 716.1241057990497 716.1240807550812 716.124080005822
          716.1240792565627 716.1240542125963 591.319239152511 591.3192944301704 716.1241054604458 716.1240807110023
          716.124080005822 716.1240793006415 716.124054551199 591.3192347372185 591.3192945619675 716.1241054522262
          716.1240806959498 716.1240800058218 716.124079315694 716.1240545594187 591.3192346054213 591.3192944301704
          716.1241054604457 716.1240807110023 716.124080005822 716.1240793006417 716.124054551199 591.3192347372184
          591.3192900148762 716.1241057990497 716.1240807550812 716.124080005822 716.1240792565625 716.1240542125963
          591.319239152511 500 591.3192867615865 591.3192651964963 591.3192645836955 591.3192639708946
          591.3192424058035 500
        </DataArray>
        <DataArray type="Float64" Name="pressure" format="ascii" RangeMin="0" RangeMax="0">
          0 0 0 0 0 0
          0 0 0 0 0 0
          0 0 0 0 0 0
          0 0 0 0 0 0
          0 0 0 0 0 0
          0 0 0 0 0 0
          0 0 0 0 0 0
          0 0 0 0 0 0
          0 0 0 0 0 0
          0 0 0 0 0 0
          0 0 0 0 0 0
          0 0 0 0 0 0
          0 0 0 0 0 0
          0 0 0 0 0 0
          0 0 0 0 0 0
          0 0 0 0 0 0
          0 0 0 0 0 0
          0 0 0 0 0 0
          0 0 0 0 0 0
          0 0 0 0 0 0
          0 0 0 0 0 0
          0 0 0 0 0 0
          0 0 0 0 0 0
          0 0 0 0 0 0
          0 0 0 0 0 0
          0 0 0 0 0 0
          0 0 0 0 0 0
          0 0 0 0 0 0
          0 0 0 0 0 0
          0 0 0 0 0 0
          0 0 0 0 0 0
          0 0 0 0 0 0
          0 0 0 0 0 0
          0 0 0 0 0 0
          0 0 0 0 0 0
          0 0 0 0 0 0
          0 0 0 0 0 0
          0 0 0 0 0 0
          0 0 0 0 0 0
          0 0 0 0 0 0
          0 0 0 0 0 0
          0 0 0 0 0 0
          0 0 0 0 0 0
          0 0 0 0 0 0
          0 0 0 0 0 0
          0 0 0 0 0 0
          0 0 0 0 0 0
          0 0 0 0 0 0
          0 0 0 0 0 0
          0 0 0 0 0 0
          0 0 0 0 0 0
          0 0 0 0 0 0
          0 0 0 0 0 0
          0 0 0 0 0 0
          0 0 0 0 0 0
          0 0 0 0 0 0
          0 0 0 0 0 0
          0 0 0 0 0 0
          0 0 0 0 0 0
          0 0 0 0 0 0
          0 0 0 0 0 0
          0 0 0 0 0 0
          0 0 0 0 0 0
          0 0 0 0 0 0
          0 0 0 0 0 0
          0 0 0 0 0 0
          0 0 0 0 0 0
          0 0 0 0 0 0
          0 0 0 0 0 0
          0 0 0 0 0 0
          0 0 0 0 0 0
          0 0 0 0 0 0
          0 0 0 0 0 0
          0 0 0 0 0 0
          0 0 0 0 0 0
          0 0 0 0 0 0
          0 0 0 0 0 0
          0 0 0 0 0 0
          0 0 0 0 0 0
          0 0 0 0 0 0
          0 0 0 0 0 0
          0 0 0 0 0 0
          0 0 0 0 0 0
          0 0 0 0 0 0
          0 0 0 0 0 0
          0 0 0 0 0 0
          0 0 0 0 0 0
          0 0 0 0 0 0
          0 0 0 0 0 0
          0 0 0 0 0 0
          0 0 0 0 0 0
          0 0 0 0 0 0
          0 0 0 0 0 0
          0 0 0 0 0 0
          0 0 0 0 0 0
          0 0 0 0 0 0
          0 0 0 0 0 0
          0 0 0 0 0 0
          0 0 0 0 0 0
          0 0 0 0 0 0
          0 0 0 0 0 0
          0 0 0 0 0 0
          0 0 0 0 0 0
          0 0 0 0 0 0
          0 0 0 0 0 0
          0 0 0 0 0 0
          0 0 0 0 0 0
          0 0 0 0 0 0
          0 0 0 0 0 0
          0 0 0 0 0 0
          0 0 0 0 0 0
          0 0 0 0 0 0
          0 0 0 0 0 0
          0 0 0 0 0 0
          0 0
        </DataArray>
        <DataArray type="Float64" Name="velocity" NumberOfComponents="3" format="ascii" RangeMin="0.784797073066106" RangeMax="0.7847982623544222">
          0 0 -0.784797073066114 0 0 -0.784797495878842
          0 0 -0.7847975116690906 0 0 -0.7847975120759297
          0 0 -0.784797511669088 0 0 -0.7847974958787631
          0 0 -0.784797073066106 0 0 -0.7847974958788495
          0 0 -0.7847978980293825 0 0 -0.7847979147435945
          0 0 -0.7847979151434815 0 0 -0.7847979147435916
          0 0 -0.7847978980293194 0 0 -0.7847974958787557
          0 0 -0.7847975116691441 0 0 -0.7847979147436246
          0 0 -0.7847979298342894 0 0 -0.7847979301983985
          0 0 -0.7847979298342869 0 0 -0.7847979147435614
          0 0 -0.7847975116690344 0 0 -0.7847975120759847
          0 0 -0.7847979151435132 0 0 -0.7847979301983996
          0 0 -0.7847979305525902 0 0 -0.7847979301983975
          0 0 -0.7847979151434499 0 0 -0.7847975120758743
          0 0 -0.7847975116691441 0 0 -0.7847979147436246
          0 0 -0.7847979298342894 0 0 -0.7847979301983985
          0 0 -0.7847979298342869 0 0 -0.7847979147435614
          0 0 -0.7847975116690344 0 0 -0.7847974958788495
          0 0 -0.7847978980293825 0 0 -0.7847979147435945
          0 0 -0.7847979151434815 0 0 -0.7847979147435916
          0 0 -0.7847978980293194 0 0 -0.7847974958787557
          0 0 -0.784797073066114 0 0 -0.784797495878842
          0 0 -0.7847975116690906 0 0 -0.7847975120759297
          0 0 -0.784797511669088 0 0 -0.7847974958787631
          0 0 -0.784797073066106 0 0 -0.7847974958788508
          0 0 -0.7847978980293839 0 0 -0.7847979147435954
          0 0 -0.7847979151434827 0 0 -0.7847979147435928
          0 0 -0.7847978980293208 0 0 -0.7847974958787571
          0 0 -0.7847978980293749 0 0 -0.7847982188125221
          0 0 -0.7847982349329143 0 0 -0.7847982353142022
          0 0 -0.784798234932912 0 0 -0.7847982188124764
          0 0 -0.7847978980293298 0 0 -0.784797914743621
          0 0 -0.7847982349329357 0 0 -0.7847982491857155
          0 0 -0.7847982495252442 0 0 -0.7847982491857134
          0 0 -0.7847982349328907 0 0 -0.7847979147435674
          0 0 -0.7847979151435099 0 0 -0.7847982353142245
          0 0 -0.7847982495252454 0 0 -0.7847982498547171
          0 0 -0.7847982495252434 0 0 -0.7847982353141797
          0 0 -0.7847979151434555 0 0 -0.784797914743621
          0 0 -0.7847982349329357 0 0 -0.7847982491857155
          0 0 -0.7847982495252442 0 0 -0.7847982491857134
          0 0 -0.7847982349328907 0 0 -0.7847979147435674
          0 0 -0.7847978980293749 0 0 -0.7847982188125221
          0 0 -0.7847982349329143 0 0 -0.7847982353142022
          0 0 -0.784798234932912 0 0 -0.7847982188124764
          0 0 -0.7847978980293298 0 0 -0.7847974958788508
          0 0 -0.7847978980293839 0 0 -0.7847979147435954
          0 0 -0.7847979151434827 0 0 -0.7847979147435928
          0 0 -0.7847978980293208 0 0 -0.7847974958787571
          0 0 -0.7847975116692644 0 0 -0.784797914743739
          0 0 -0.7847979298343896 0 0 -0.784797930198495
          0 0 -0.7847979298343872 0 0 -0.7847979147436757
          0 0 -0.7847975116691545 0 0 -0.7847979147437342
          0 0 -0.7847982349330408 0 0 -0.7847982491858072
          0 0 -0.7847982495253323 0 0 -0.7847982491858053
          0 0 -0.7847982349329959 0 0 -0.7847979147436802
          0 0 -0.7847979298344193 0 0 -0.784798249185828
          0 0 -0.7847982614855558 0 0 -0.7847982617820652
          0 0 -0.7847982614855538 0 0 -0.7847982491857847
          0 0 -0.7847979298343577 0 0 -0.7847979301985258
          0 0 -0.7847982495253542 0 0 -0.7847982617820659
          0 0 -0.784798262068321 0 0 -0.7847982617820645
          0 0 -0.7847982495253107 0 0 -0.7847979301984639
          0 0 -0.7847979298344193 0 0 -0.784798249185828
          0 0 -0.7847982614855558 0 0 -0.7847982617820652
          0 0 -0.7847982614855538 0 0 -0.7847982491857847
          0 0 -0.7847979298343577 0 0 -0.7847979147437342
          0 0 -0.7847982349330408 0 0 -0.7847982491858072
          0 0 -0.7847982495253323 0 0 -0.7847982491858053
          0 0 -0.7847982349329959 0 0 -0.7847979147436802
          0 0 -0.7847975116692644 0 0 -0.784797914743739
          0 0 -0.7847979298343896 0 0 -0.784797930198495
          0 0 -0.7847979298343872 0 0 -0.7847979147436757
          0 0 -0.7847975116691545 0 0 -0.7847975120840666
          0 0 -0.7847979151512908 0 0 -0.7847979302053405
          0 0 -0.7847979305593037 0 0 -0.7847979302053383
          0 0 -0.7847979151512275 0 0 -0.7847975120839562
          0 0 -0.7847979151512864 0 0 -0.7847982353215281
          0 0 -0.7847982495316908 0 0 -0.7847982498609255
          0 0 -0.7847982495316889 0 0 -0.7847982353214829
          0 0 -0.7847979151512322 0 0 -0.7847979302053704
          0 0 -0.7847982495317115 0 0 -0.7847982617875877
          0 0 -0.7847982620736095 0 0 -0.7847982617875858
          0 0 -0.7847982495316681 0 0 -0.7847979302053084
          0 0 -0.7847979305593349 0 0 -0.7847982498609472
          0 0 -0.7847982620736104 0 0 -0.784798262349299
          0 0 -0.7847982620736089 0 0 -0.7847982498609036
          0 0 -0.7847979305592726 0 0 -0.7847979302053704
          0 0 -0.7847982495317115 0 0 -0.7847982617875877
          0 0 -0.7847982620736095 0 0 -0.7847982617875858
          0 0 -0.7847982495316681 0 0 -0.7847979302053084
          0 0 -0.7847979151512864 0 0 -0.7847982353215281
          0 0 -0.7847982495316908 0 0 -0.7847982498609255
          0 0 -0.7847982495316889 0 0 -0.7847982353214829
          0 0 -0.7847979151512322 0 0 -0.7847975120840666
          0 0 -0.7847979151512908 0 0 -0.7847979302053405
          0 0 -0.7847979305593037 0 0 -0.7847979302053383
          0 0 -0.7847979151512275 0 0 -0.7847975120839562
          0 0 -0.7847975120920283 0 0 -0.7847979151589547
          0 0 -0.784797930212181 0 0 -0.7847979305659211
          0 0 -0.7847979302121788 0 0 -0.7847979151588911
          0 0 -0.7847975120919181 0 0 -0.78479791515895
          0 0 -0.7847982353287258 0 0 -0.7847982495380444
          0 0 -0.7847982498670456 0 0 -0.7847982495380426
          0 0 -0.7847982353286809 0 0 -0.7847979151588956
          0 0 -0.784797930212211 0 0 -0.7847982495380651
          0 0 -0.7847982617931056 0 0 -0.7847982620788945
          0 0 -0.784798261793104 0 0 -0.7847982495380217
          0 0 -0.7847979302121489 0 0 -0.7847979305659519
          0 0 -0.784798249867067 0 0 -0.7847982620788952
          0 0 -0.7847982623543497 0 0 -0.7847982620788938
          0 0 -0.7847982498670241 0 0 -0.7847979305658898
          0 0 -0.784797930212211 0 0 -0.7847982495380651
          0 0 -0.7847982617931056 0 0 -0.7847982620788945
          0 0 -0.784798261793104 0 0 -0.7847982495380217
          0 0 -0.7847979302121489 0 0 -0.78479791515895
          0 0 -0.7847982353287258 0 0 -0.7847982495380444
          0 0 -0.7847982498670456 0 0 -0.7847982495380426
          0 0 -0.7847982353286809 0 0 -0.7847979151588956
          0 0 -0.7847975120920283 0 0 -0.7847979151589547
          0 0 -0.784797930212181 0 0 -0.7847979305659211
          0 0 -0.7847979302121788 0 0 -0.7847979151588911
          0 0 -0.7847975120919181 0 0 -0.7847975120921471
          0 0 -0.7847979151590675 0 0 -0.7847979302122804
          0 0 -0.7847979305660164 0 0 -0.7847979302122781
          0 0 -0.7847979151590041 0 0 -0.7847975120920369
          0 0 -0.7847979151590628 0 0 -0.7847982353288311
          0 0 -0.7847982495381362 0 0 -0.7847982498671333
          0 0 -0.784798249538134 0 0 -0.7847982353287862
          0 0 -0.7847979151590084 0 0 -0.78479793021231
          0 0 -0.7847982495381567 0 0 -0.7847982617931846
          0 0 -0.78479826207897 0 0 -0.7847982617931829
          0 0 -0.7847982495381134 0 0 -0.7847979302122482
          0 0 -0.7847979305660474 0 0 -0.7847982498671551
          0 0 -0.7847982620789707 0 0 -0.7847982623544212
          0 0 -0.784798262078969 0 0 -0.7847982498671118
          0 0 -0.7847979305659851 0 0 -0.78479793021231
          0 0 -0.7847982495381567 0 0 -0.7847982617931846
          0 0 -0.78479826207897 0 0 -0.7847982617931829
          0 0 -0.7847982495381134 0 0 -0.7847979302122482
          0 0 -0.7847979151590628 0 0 -0.7847982353288311
          0 0 -0.7847982495381362 0 0 -0.7847982498671333
          0 0 -0.784798249538134 0 0 -0.7847982353287862
          0 0 -0.7847979151590084 0 0 -0.7847975120921471
          0 0 -0.7847979151590675 0 0 -0.7847979302122804
          0 0 -0.7847979305660164 0 0 -0.7847979302122781
          0 0 -0.7847979151590041 0 0 -0.7847975120920369
          0 0 -0.7847975120921485 0 0 -0.7847979151590687
          0 0 -0.7847979302122814 0 0 -0.7847979305660175
          0 0 -0.7847979302122791 0 0 -0.7847979151590053
          0 0 -0.7847975120920382 0 0 -0.7847979151590643
          0 0 -0.7847982353288323 0 0 -0.784798249538137
          0 0 -0.7847982498671344 0 0 -0.7847982495381353
          0 0 -0.7847982353287872 0 0 -0.7847979151590099
          0 0 -0.7847979302123113 0 0 -0.7847982495381578
          0 0 -0.7847982617931855 0 0 -0.7847982620789709
          0 0 -0.7847982617931837 0 0 -0.7847982495381145
          0 0 -0.7847979302122493 0 0 -0.7847979305660485
          0 0 -0.7847982498671561 0 0 -0.7847982620789715
          0 0 -0.7847982623544222 0 0 -0.78479826207897
          0 0 -0.7847982498671128 0 0 -0.7847979305659863
          0 0 -0.7847979302123113 0 0 -0.7847982495381578
          0 0 -0.7847982617931855 0 0 -0.7847982620789709
          0 0 -0.7847982617931837 0 0 -0.7847982495381145
          0 0 -0.7847979302122493 0 0 -0.7847979151590643
          0 0 -0.7847982353288323 0 0 -0.784798249538137
          0 0 -0.7847982498671344 0 0 -0.7847982495381353
          0 0 -0.7847982353287872 0 0 -0.7847979151590099
          0 0 -0.7847975120921485 0 0 -0.7847979151590687
          0 0 -0.7847979302122814 0 0 -0.7847979305660175
          0 0 -0.7847979302122791 0 0 -0.7847979151590053
          0 0 -0.7847975120920382 0 0 -0.7847975120921485
          0 0 -0.7847979151590687 0 0 -0.7847979302122814
          0 0 -0.7847979305660175 0 0 -0.7847979302122791
          0 0 -0.7847979151590053 0 0 -0.7847975120920382
          0 0 -0.7847979151590643 0 0 -0.7847982353288323
          0 0 -0.784798249538137 0 0 -0.7847982498671344
          0 0 -0.7847982495381353 0 0 -0.7847982353287872
          0 0 -0.7847979151590099 0 0 -0.7847979302123113
          0 0 -0.7847982495381578 0 0 -0.7847982617931855
          0 0 -0.7847982620789709 0 0 -0.7847982617931837
          0 0 -0.7847982495381145 0 0 -0.7847979302122493
          0 0 -0.7847979305660485 0 0 -0.7847982498671561
          0 0 -0.7847982620789715 0 0 -0.7847982623544222
          0 0 -0.78479826207897 0 0 -0.7847982498671128
          0 0 -0.7847979305659863 0 0 -0.7847979302123113
          0 0 -0.7847982495381578 0 0 -0.7847982617931855
          0 0 -0.7847982620789709 0 0 -0.7847982617931837
          0 0 -0.7847982495381145 0 0 -0.7847979302122493
          0 0 -0.7847979151590643 0 0 -0.7847982353288323
          0 0 -0.784798249538137 0 0 -0.7847982498671344
          0 0 -0.7847982495381353 0 0 -0.7847982353287872
          0 0 -0.7847979151590099 0 0 -0.7847975120921485
          0 0 -0.7847979151590687 0 0 -0.7847979302122814
          0 0 -0.7847979305660175 0 0 -0.7847979302122791
          0 0 -0.7847979151590053 0 0 -0.7847975120920382
          0 0 -0.7847975120921471 0 0 -0.7847979151590675
          0 0 -0.7847979302122804 0 0 -0.7847979305660164
          0 0 -0.7847979302122781 0 0 -0.7847979151590041
          0 0 -0.7847975120920369 0 0 -0.7847979151590628
          0 0 -0.7847982353288311 0 0 -0.7847982495381362
          0 0 -0.7847982498671333 0 0 -0.784798249538134
          0 0 -0.7847982353287862 0 0 -0.7847979151590084
          0 0 -0.78479793021231 0 0 -0.7847982495381567
          0 0 -0.7847982617931846 0 0 -0.78479826207897
          0 0 -0.7847982617931829 0 0 -0.7847982495381134
          0 0 -0.7847979302122482 0 0 -0.7847979305660474
          0 0 -0.7847982498671551 0 0 -0.7847982620789707
          0 0 -0.7847982623544212 0 0 -0.784798262078969
          0 0 -0.7847982498671118 0 0 -0.7847979305659851
          0 0 -0.78479793021231 0 0 -0.7847982495381567
          0 0 -0.7847982617931846 0 0 -0.78479826207897
          0 0 -0.7847982617931829 0 0 -0.7847982495381134
          0 0 -0.7847979302122482 0 0 -0.7847979151590628
          0 0 -0.7847982353288311 0 0 -0.7847982495381362
          0 0 -0.7847982498671333 0 0 -0.784798249538134
          0 0 -0.7847982353287862 0 0 -0.7847979151590084
          0 0 -0.7847975120921471 0 0 -0.7847979151590675
          0 0 -0.7847979302122804 0 0 -0.7847979305660164
          0 0 -0.7847979302122781 0 0 -0.7847979151590041
          0 0 -0.7847975120920369 0 0 -0.7847975120920283
          0 0 -0.7847979151589547 0 0 -0.784797930212181
          0 0 -0.7847979305659211 0 0 -0.7847979302121788
          0 0 -0.7847979151588911 0 0 -0.7847975120919181
          0 0 -0.78479791515895 0 0 -0.7847982353287258
          0 0 -0.7847982495380444 0 0 -0.7847982498670456
          0 0 -0.7847982495380426 0 0 -0.7847982353286809
          0 0 -0.7847979151588956 0 0 -0.784797930212211
          0 0 -0.7847982495380651 0 0 -0.7847982617931056
          0 0 -0.7847982620788945 0 0 -0.784798261793104
          0 0 -0.7847982495380217 0 0 -0.7847979302121489
          0 0 -0.7847979305659519 0 0 -0.784798249867067
          0 0 -0.7847982620788952 0 0 -0.7847982623543497
          0 0 -0.7847982620788938 0 0 -0.7847982498670241
          0 0 -0.7847979305658898 0 0 -0.784797930212211
          0 0 -0.7847982495380651 0 0 -0.7847982617931056
          0 0 -0.7847982620788945 0 0 -0.784798261793104
          0 0 -0.7847982495380217 0 0 -0.7847979302121489
          0 0 -0.78479791515895 0 0 -0.7847982353287258
          0 0 -0.7847982495380444 0 0 -0.7847982498670456
          0 0 -0.7847982495380426 0 0 -0.7847982353286809
          0 0 -0.7847979151588956 0 0 -0.7847975120920283
          0 0 -0.7847979151589547 0 0 -0.784797930212181
          0 0 -0.7847979305659211 0 0 -0.7847979302121788
          0 0 -0.7847979151588911 0 0 -0.7847975120919181
          0 0 -0.7847975120840666 0 0 -0.7847979151512908
          0 0 -0.7847979302053405 0 0 -0.7847979305593037
          0 0 -0.7847979302053383 0 0 -0.7847979151512275
          0 0 -0.7847975120839562 0 0 -0.7847979151512864
          0 0 -0.7847982353215281 0 0 -0.7847982495316908
          0 0 -0.7847982498609255 0 0 -0.7847982495316889
          0 0 -0.7847982353214829 0 0 -0.7847979151512322
          0 0 -0.7847979302053704 0 0 -0.7847982495317115
          0 0 -0.7847982617875877 0 0 -0.7847982620736095
          0 0 -0.7847982617875858 0 0 -0.7847982495316681
          0 0 -0.7847979302053084 0 0 -0.7847979305593349
          0 0 -0.7847982498609472 0 0 -0.7847982620736104
          0 0 -0.784798262349299 0 0 -0.7847982620736089
          0 0 -0.7847982498609036 0 0 -0.7847979305592726
          0 0 -0.7847979302053704 0 0 -0.7847982495317115
          0 0 -0.7847982617875877 0 0 -0.7847982620736095
          0 0 -0.7847982617875858 0 0 -0.7847982495316681
          0 0 -0.7847979302053084 0 0 -0.7847979151512864
          0 0 -0.7847982353215281 0 0 -0.7847982495316908
          0 0 -0.7847982498609255 0 0 -0.7847982495316889
          0 0 -0.7847982353214829 0 0 -0.7847979151512322
          0 0 -0.7847975120840666 0 0 -0.7847979151512908
          0 0 -0.7847979302053405 0 0 -0.7847979305593037
          0 0 -0.7847979302053383 0 0 -0.7847979151512275
          0 0 -0.7847975120839562 0 0 -0.7847975116692644
          0 0 -0.784797914743739 0 0 -0.7847979298343896
          0 0 -0.784797930198495 0 0 -0.7847979298343872
          0 0 -0.7847979147436757 0 0 -0.7847975116691545
          0 0 -0.7847979147437342 0 0 -0.7847982349330408
          0 0 -0.7847982491858072 0 0 -0.7847982495253323
          0 0 -0.7847982491858053 0 0 -0.7847982349329959
          0 0 -0.7847979147436802 0 0 -0.7847979298344193
          0 0 -0.784798249185828 0 0 -0.7847982614855558
          0 0 -0.7847982617820652 0 0 -0.7847982614855538
          0 0 -0.7847982491857847 0 0 -0.7847979298343577
          0 0 -0.7847979301985258 0 0 -0.7847982495253542
          0 0 -0.7847982617820659 0 0 -0.784798262068321
          0 0 -0.7847982617820645 0 0 -0.7847982495253107
          0 0 -0.7847979301984639 0 0 -0.7847979298344193
          0 0 -0.784798249185828 0 0 -0.7847982614855558
          0 0 -0.7847982617820652 0 0 -0.7847982614855538
          0 0 -0.7847982491857847 0 0 -0.7847979298343577
          0 0 -0.7847979147437342 0 0 -0.7847982349330408
          0 0 -0.7847982491858072 0 0 -0.7847982495253323
          0 0 -0.7847982491858053 0 0 -0.7847982349329959
          0 0 -0.7847979147436802 0 0 -0.7847975116692644
          0 0 -0.784797914743739 0 0 -0.7847979298343896
          0 0 -0.784797930198495 0 0 -0.7847979298343872
          0 0 -0.7847979147436757 0 0 -0.7847975116691545
          0 0 -0.7847974958788508 0 0 -0.7847978980293839
          0 0 -0.7847979147435954 0 0 -0.7847979151434827
          0 0 -0.7847979147435928 0 0 -0.7847978980293208
          0 0 -0.7847974958787571 0 0 -0.7847978980293749
          0 0 -0.7847982188125221 0 0 -0.7847982349329143
          0 0 -0.7847982353142022 0 0 -0.784798234932912
          0 0 -0.7847982188124764 0 0 -0.7847978980293298
          0 0 -0.784797914743621 0 0 -0.7847982349329357
          0 0 -0.7847982491857155 0 0 -0.7847982495252442
          0 0 -0.7847982491857134 0 0 -0.7847982349328907
          0 0 -0.7847979147435674 0 0 -0.7847979151435099
          0 0 -0.7847982353142245 0 0 -0.7847982495252454
          0 0 -0.7847982498547171 0 0 -0.7847982495252434
          0 0 -0.7847982353141797 0 0 -0.7847979151434555
          0 0 -0.784797914743621 0 0 -0.7847982349329357
          0 0 -0.7847982491857155 0 0 -0.7847982495252442
          0 0 -0.7847982491857134 0 0 -0.7847982349328907
          0 0 -0.7847979147435674 0 0 -0.7847978980293749
          0 0 -0.7847982188125221 0 0 -0.7847982349329143
          0 0 -0.7847982353142022 0 0 -0.784798234932912
          0 0 -0.7847982188124764 0 0 -0.7847978980293298
          0 0 -0.7847974958788508 0 0 -0.7847978980293839
          0 0 -0.7847979147435954 0 0 -0.7847979151434827
          0 0 -0.7847979147435928 0 0 -0.7847978980293208
          0 0 -0.7847974958787571 0 0 -0.784797073066114
          0 0 -0.784797495878842 0 0 -0.7847975116690906
          0 0 -0.7847975120759297 0 0 -0.784797511669088
          0 0 -0.7847974958787631 0 0 -0.784797073066106
          0 0 -0.7847974958788495 0 0 -0.7847978980293825
          0 0 -0.7847979147435945 0 0 -0.7847979151434815
          0 0 -0.7847979147435916 0 0 -0.7847978980293194
          0 0 -0.7847974958787557 0 0 -0.7847975116691441
          0 0 -0.7847979147436246 0 0 -0.7847979298342894
          0 0 -0.7847979301983985 0 0 -0.7847979298342869
          0 0 -0.7847979147435614 0 0 -0.7847975116690344
          0 0 -0.7847975120759847 0 0 -0.7847979151435132
          0 0 -0.7847979301983996 0 0 -0.7847979305525902
          0 0 -0.7847979301983975 0 0 -0.7847979151434499
          0 0 -0.7847975120758743 0 0 -0.7847975116691441
          0 0 -0.7847979147436246 0 0 -0.7847979298342894
          0 0 -0.7847979301983985 0 0 -0.7847979298342869
          0 0 -0.7847979147435614 0 0 -0.7847975116690344
          0 0 -0.7847974958788495 0 0 -0.7847978980293825
          0 0 -0.7847979147435945 0 0 -0.7847979151434815
          0 0 -0.7847979147435916 0 0 -0.7847978980293194
          0 0 -0.7847974958787557 0 0 -0.784797073066114
          0 0 -0.784797495878842 0 0 -0.7847975116690906
          0 0 -0.7847975120759297 0 0 -0.784797511669088
          0 0 -0.7847974958787631 0 0 -0.784797073066106
          <InformationKey name="L2_NORM_RANGE" location="vtkDataArray" length="2">
            <Value index="0">
              0.78479707307
            </Value>
            <Value index="1">
              0.78479826235
            </Value>
          </InformationKey>
        </DataArray>
        <DataArray type="Float64" Name="speed" format="ascii" RangeMin="0.784797073066106" RangeMax="0.7847982623544222">
          0.784797073066114 0.784797495878842 0.7847975116690906 0.7847975120759297 0.784797511669088 0.7847974958787631
          0.784797073066106 0.7847974958788495 0.7847978980293825 0.7847979147435945 0.7847979151434815 0.7847979147435916
          0.7847978980293194 0.7847974958787557 0.7847975116691441 0.7847979147436246 0.7847979298342894 0.7847979301983985
          0.7847979298342869 0.7847979147435614 0.7847975116690344 0.7847975120759847 0.7847979151435132 0.7847979301983996
          0.7847979305525902 0.7847979301983975 0.7847979151434499 0.7847975120758743 0.7847975116691441 0.7847979147436246
          0.7847979298342894 0.7847979301983985 0.7847979298342869 0.7847979147435614 0.7847975116690344 0.7847974958788495
          0.7847978980293825 0.7847979147435945 0.7847979151434815 0.7847979147435916 0.7847978980293194 0.7847974958787557
          0.784797073066114 0.784797495878842 0.7847975116690906 0.7847975120759297 0.784797511669088 0.7847974958787631
          0.784797073066106 0.7847974958788508 0.7847978980293839 0.7847979147435954 0.7847979151434827 0.7847979147435928
          0.7847978980293208 0.7847974958787571 0.7847978980293749 0.7847982188125221 0.7847982349329143 0.7847982353142022
          0.784798234932912 0.7847982188124764 0.7847978980293298 0.784797914743621 0.7847982349329357 0.7847982491857155
          0.7847982495252442 0.7847982491857134 0.7847982349328907 0.7847979147435674 0.7847979151435099 0.7847982353142245
          0.7847982495252454 0.7847982498547171 0.7847982495252434 0.7847982353141797 0.7847979151434555 0.784797914743621
          0.7847982349329357 0.7847982491857155 0.7847982495252442 0.7847982491857134 0.7847982349328907 0.7847979147435674
          0.7847978980293749 0.7847982188125221 0.7847982349329143 0.7847982353142022 0.784798234932912 0.7847982188124764
          0.7847978980293298 0.7847974958788508 0.7847978980293839 0.7847979147435954 0.7847979151434827 0.7847979147435928
          0.7847978980293208 0.7847974958787571 0.7847975116692644 0.784797914743739 0.7847979298343896 0.784797930198495
          0.7847979298343872 0.7847979147436757 0.7847975116691545 0.7847979147437342 0.7847982349330408 0.7847982491858072
          0.7847982495253323 0.7847982491858053 0.7847982349329959 0.7847979147436802 0.7847979298344193 0.784798249185828
          0.7847982614855558 0.7847982617820652 0.7847982614855538 0.7847982491857847 0.7847979298343577 0.7847979301985258
          0.7847982495253542 0.7847982617820659 0.784798262068321 0.7847982617820645 0.7847982495253107 0.7847979301984639
          0.7847979298344193 0.784798249185828 0.7847982614855558 0.7847982617820652 0.7847982614855538 0.7847982491857847
          0.7847979298343577 0.7847979147437342 0.7847982349330408 0.7847982491858072 0.7847982495253323 0.7847982491858053
          0.7847982349329959 0.7847979147436802 0.7847975116692644 0.784797914743739 0.7847979298343896 0.784797930198495
          0.7847979298343872 0.7847979147436757 0.7847975116691545 0.7847975120840666 0.7847979151512908 0.7847979302053405
          0.7847979305593037 0.7847979302053383 0.7847979151512275 0.7847975120839562 0.7847979151512864 0.7847982353215281
          0.7847982495316908 0.7847982498609255 0.7847982495316889 0.7847982353214829 0.7847979151512322 0.7847979302053704
          0.7847982495317115 0.7847982617875877 0.7847982620736095 0.7847982617875858 0.7847982495316681 0.7847979302053084
          0.7847979305593349 0.7847982498609472 0.7847982620736104 0.784798262349299 0.7847982620736089 0.7847982498609036
          0.7847979305592726 0.7847979302053704 0.7847982495317115 0.7847982617875877 0.7847982620736095 0.7847982617875858
          0.7847982495316681 0.7847979302053084 0.7847979151512864 0.7847982353215281 0.7847982495316908 0.7847982498609255
          0.7847982495316889 0.7847982353214829 0.7847979151512322 0.7847975120840666 0.7847979151512908 0.7847979302053405
          0.7847979305593037 0.7847979302053383 0.7847979151512275 0.7847975120839562 0.7847975120920283 0.7847979151589547
          0.784797930212181 0.7847979305659211 0.7847979302121788 0.7847979151588911 0.7847975120919181 0.78479791515895
          0.7847982353287258 0.7847982495380444 0.7847982498670456 0.7847982495380426 0.7847982353286809 0.7847979151588956
          0.784797930212211 0.7847982495380651 0.7847982617931056 0.7847982620788945 0.784798261793104 0.7847982495380217
          0.7847979302121489 0.7847979305659519 0.784798249867067 0.7847982620788952 0.7847982623543497 0.7847982620788938
          0.7847982498670241 0.7847979305658898 0.784797930212211 0.7847982495380651 0.7847982617931056 0.7847982620788945
          0.784798261793104 0.7847982495380217 0.7847979302121489 0.78479791515895 0.7847982353287258 0.7847982495380444
          0.7847982498670456 0.7847982495380426 0.7847982353286809 0.7847979151588956 0.7847975120920283 0.7847979151589547
          0.784797930212181 0.7847979305659211 0.7847979302121788 0.7847979151588911 0.7847975120919181 0.7847975120921471
          0.7847979151590675 0.7847979302122804 0.7847979305660164 0.7847979302122781 0.7847979151590041 0.7847975120920369
          0.7847979151590628 0.7847982353288311 0.7847982495381362 0.7847982498671333 0.784798249538134 0.7847982353287862
          0.7847979151590084 0.78479793021231 0.7847982495381567 0.7847982617931846 0.78479826207897 0.7847982617931829
          0.7847982495381134 0.7847979302122482 0.7847979305660474 0.7847982498671551 0.7847982620789707 0.7847982623544212
          0.784798262078969 0.7847982498671118 0.7847979305659851 0.78479793021231 0.7847982495381567 0.7847982617931846
          0.78479826207897 0.7847982617931829 0.7847982495381134 0.7847979302122482 0.7847979151590628 0.7847982353288311
          0.7847982495381362 0.7847982498671333 0.784798249538134 0.7847982353287862 0.7847979151590084 0.7847975120921471
          0.7847979151590675 0.7847979302122804 0.7847979305660164 0.7847979302122781 0.7847979151590041 0.7847975120920369
          0.7847975120921485 0.7847979151590687 0.7847979302122814 0.7847979305660175 0.7847979302122791 0.7847979151590053
          0.7847975120920382 0.7847979151590643 0.7847982353288323 0.784798249538137 0.7847982498671344 0.7847982495381353
          0.7847982353287872 0.7847979151590099 0.7847979302123113 0.7847982495381578 0.7847982617931855 0.7847982620789709
          0.7847982617931837 0.7847982495381145 0.7847979302122493 0.7847979305660485 0.7847982498671561 0.7847982620789715
          0.7847982623544222 0.78479826207897 0.7847982498671128 0.7847979305659863 0.7847979302123113 0.7847982495381578
          0.7847982617931855 0.7847982620789709 0.7847982617931837 0.7847982495381145 0.7847979302122493 0.7847979151590643
          0.7847982353288323 0.784798249538137 0.7847982498671344 0.7847982495381353 0.7847982353287872 0.7847979151590099
          0.7847975120921485 0.7847979151590687 0.7847979302122814 0.7847979305660175 0.7847979302122791 0.7847979151590053
          0.7847975120920382 0.7847975120921485 0.7847979151590687 0.7847979302122814 0.7847979305660175 0.7847979302122791
          0.7847979151590053 0.7847975120920382 0.7847979151590643 0.7847982353288323 0.784798249538137 0.7847982498671344
          0.7847982495381353 0.7847982353287872 0.7847979151590099 0.7847979302123113 0.7847982495381578 0.7847982617931855
          0.7847982620789709 0.7847982617931837 0.7847982495381145 0.7847979302122493 0.7847979305660485 0.7847982498671561
          0.7847982620789715 0.7847982623544222 0.78479826207897 0.7847982498671128 0.7847979305659863 0.7847979302123113
          0.7847982495381578 0.7847982617931855 0.7847982620789709 0.7847982617931837 0.7847982495381145 0.7847979302122493
          0.7847979151590643 0.7847982353288323 0.784798249538137 0.7847982498671344 0.7847982495381353 0.7847982353287872
          0.7847979151590099 0.7847975120921485 0.7847979151590687 0.7847979302122814 0.7847979305660175 0.7847979302122791
          0.7847979151590053 0.7847975120920382 0.7847975120921471 0.7847979151590675 0.7847979302122804 0.7847979305660164
          0.7847979302122781 0.7847979151590041 0.7847975120920369 0.7847979151590628 0.7847982353288311 0.7847982495381362
          0.7847982498671333 0.784798249538134 0.7847982353287862 0.7847979151590084 0.78479793021231 0.7847982495381567
          0.7847982617931846 0.78479826207897 0.7847982617931829 0.7847982495381134 0.7847979302122482 0.7847979305660474
          0.7847982498671551 0.7847982620789707 0.7847982623544212 0.784798262078969 0.7847982498671118 0.7847979305659851
          0.78479793021231 0.7847982495381567 0.7847982617931846 0.78479826207897 0.7847982617931829 0.7847982495381134
          0.7847979302122482 0.7847979151590628 0.7847982353288311 0.7847982495381362 0.7847982498671333 0.784798249538134
          0.7847982353287862 0.7847979151590084 0.7847975120921471 0.7847979151590675 0.7847979302122804 0.7847979305660164
          0.7847979302122781 0.7847979151590041 0.7847975120920369 0.7847975120920283 0.7847979151589547 0.784797930212181
          0.7847979305659211 0.7847979302121788 0.7847979151588911 0.7847975120919181 0.78479791515895 0.7847982353287258
          0.7847982495380444 0.7847982498670456 0.7847982495380426 0.7847982353286809 0.7847979151588956 0.784797930212211
          0.7847982495380651 0.7847982617931056 0.7847982620788945 0.784798261793104 0.7847982495380217 0.7847979302121489
          0.7847979305659519 0.784798249867067 0.7847982620788952 0.7847982623543497 0.7847982620788938 0.7847982498670241
          0.7847979305658898 0.784797930212211 0.7847982495380651 0.7847982617931056 0.7847982620788945 0.784798261793104
          0.7847982495380217 0.7847979302121489 0.78479791515895 0.7847982353287258 0.7847982495380444 0.7847982498670456
          0.7847982495380426 0.7847982353286809 0.7847979151588956 0.7847975120920283 0.7847979151589547 0.784797930212181
          0.7847979305659211 0.7847979302121788 0.7847979151588911 0.7847975120919181 0.7847975120840666 0.7847979151512908
          0.7847979302053405 0.7847979305593037 0.7847979302053383 0.7847979151512275 0.7847975120839562 0.7847979151512864
          0.7847982353215281 0.7847982495316908 0.7847982498609255 0.7847982495316889 0.7847982353214829 0.7847979151512322
          0.7847979302053704 0.7847982495317115 0.7847982617875877 0.7847982620736095 0.7847982617875858 0.7847982495316681
          0.7847979302053084 0.7847979305593349 0.7847982498609472 0.7847982620736104 0.784798262349299 0.7847982620736089
          0.7847982498609036 0.7847979305592726 0.7847979302053704 0.7847982495317115 0.7847982617875877 0.7847982620736095
          0.7847982617875858 0.7847982495316681 0.7847979302053084 0.7847979151512864 0.7847982353215281 0.7847982495316908
          0.7847982498609255 0.7847982495316889 0.7847982353214829 0.7847979151512322 0.7847975120840666 0.7847979151512908
          0.7847979302053405 0.7847979305593037 0.7847979302053383 0.7847979151512275 0.7847975120839562 0.7847975116692644
          0.784797914743739 0.7847979298343896 0.784797930198495 0.7847979298343872 0.7847979147436757 0.7847975116691545
          0.7847979147437342 0.7847982349330408 0.7847982491858072 0.7847982495253323 0.7847982491858053 0.7847982349329959
          0.7847979147436802 0.7847979298344193 0.784798249185828 0.7847982614855558 0.7847982617820652 0.7847982614855538
          0.7847982491857847 0.7847979298343577 0.7847979301985258 0.7847982495253542 0.7847982617820659 0.784798262068321
          0.7847982617820645 0.7847982495253107 0.7847979301984639 0.7847979298344193 0.784798249185828 0.7847982614855558
          0.7847982617820652 0.7847982614855538 0.7847982491857847 0.7847979298343577 0.7847979147437342 0.7847982349330408
          0.7847982491858072 0.7847982495253323 0.7847982491858053 0.7847982349329959 0.7847979147436802 0.7847975116692644
          0.784797914743739 0.7847979298343896 0.784797930198495 0.7847979298343872 0.7847979147436757 0.7847975116691545
          0.7847974958788508 0.7847978980293839 0.7847979147435954 0.7847979151434827 0.7847979147435928 0.7847978980293208
          0.7847974958787571 0.7847978980293749 0.7847982188125221 0.7847982349329143 0.7847982353142022 0.784798234932912
          0.7847982188124764 0.7847978980293298 0.784797914743621 0.7847982349329357 0.7847982491857155 0.7847982495252442
          0.7847982491857134 0.7847982349328907 0.7847979147435674 0.7847979151435099 0.7847982353142245 0.7847982495252454
          0.7847982498547171 0.7847982495252434 0.7847982353141797 0.7847979151434555 0.784797914743621 0.7847982349329357
          0.7847982491857155 0.7847982495252442 0.7847982491857134 0.7847982349328907 0.7847979147435674 0.7847978980293749
          0.7847982188125221 0.7847982349329143 0.7847982353142022 0.784798234932912 0.7847982188124764 0.7847978980293298
          0.7847974958788508 0.7847978980293839 0.7847979147435954 0.7847979151434827 0.7847979147435928 0.7847978980293208
          0.7847974958787571 0.784797073066114 0.784797495878842 0.7847975116690906 0.7847975120759297 0.784797511669088
          0.7847974958787631 0.784797073066106 0.7847974958788495 0.7847978980293825 0.7847979147435945 0.7847979151434815
          0.7847979147435916 0.7847978980293194 0.7847974958787557 0.7847975116691441 0.7847979147436246 0.7847979298342894
          0.7847979301983985 0.7847979298342869 0.7847979147435614 0.7847975116690344 0.7847975120759847 0.7847979151435132
          0.7847979301983996 0.7847979305525902 0.7847979301983975 0.7847979151434499 0.7847975120758743 0.7847975116691441
          0.7847979147436246 0.7847979298342894 0.7847979301983985 0.7847979298342869 0.7847979147435614 0.7847975116690344
          0.7847974958788495 0.7847978980293825 0.7847979147435945 0.7847979151434815 0.7847979147435916 0.7847978980293194
          0.7847974958787557 0.784797073066114 0.784797495878842 0.7847975116690906 0.7847975120759297 0.784797511669088
          0.7847974958787631 0.784797073066106
        </DataArray>
        <DataArray type="Float64" Name="radius" format="ascii" RangeMin="0.22" RangeMax="0.22">
          0.22 0.22 0.22 0.22 0.22 0.22
          0.22 0.22 0.22 0.22 0.22 0.22
          0.22 0.22 0.22 0.22 0.22 0.22
          0.22 0.22 0.22 0.22 0.22 0.22
          0.22 0.22 0.22 0.22 0.22 0.22
          0.22 0.22 0.22 0.22 0.22 0.22
          0.22 0.22 0.22 0.22 0.22 0.22
          0.22 0.22 0.22 0.22 0.22 0.22
          0.22 0.22 0.22 0.22 0.22 0.22
          0.22 0.22 0.22 0.22 0.22 0.22
          0.22 0.22 0.22 0.22 0.22 0.22
          0.22 0.22 0.22 0.22 0.22 0.22
          0.22 0.22 0.22 0.22 0.22 0.22
          0.22 0.22 0.22 0.22 0.22 0.22
          0.22 0.22 0.22 0.22 0.22 0.22
          0.22 0.22 0.22 0.22 0.22 0.22
          0.22 0.22 0.22 0.22 0.22 0.22
          0.22 0.22 0.22 0.22 0.22 0.22
          0.22 0.22 0.22 0.22 0.22 0.22
          0.22 0.22 0.22 0.22 0.22 0.22
          0.22 0.22 0.22 0.22 0.22 0.22
          0.22 0.22 0.22 0.22 0.22 0.22
          0.22 0.22 0.22 0.22 0.22 0.22
          0.22 0.22 0.22 0.22 0.22 0.22
          0.22 0.22 0.22 0.22 0.22 0.22
          0.22 0.22 0.22 0.22 0.22 0.22
          0.22 0.22 0.22 0.22 0.22 0.22
          0.22 0.22 0.22 0.22 0.22 0.22
          0.22 0.22 0.22 0.22 0.22 0.22
          0.22 0.22 0.22 0.22 0.22 0.22
          0.22 0.22 0.22 0.22 0.22 0.22
          0.22 0.22 0.22 0.22 0.22 0.22
          0.22 0.22 0.22 0.22 0.22 0.22
          0.22 0.22 0.22 0.22 0.22 0.22
          0.22 0.22 0.22 0.22 0.22 0.22
          0.22 0.22 0.22 0.22 0.22 0.22
          0.22 0.22 0.22 0.22 0.22 0.22
          0.22 0.22 0.22 0.22 0.22 0.22
          0.22 0.22 0.22 0.22 0.22 0.22
          0.22 0.22 0.22 0.22 0.22 0.22
          0.22 0.22 0.22 0.22 0.22 0.22
          0.22 0.22 0.22 0.22 0.22 0.22
          0.22 0.22 0.22 0.22 0.22 0.22
          0.22 0.22 0.22 0.22 0.22 0.22
          0.22 0.22 0.22 0.22 0.22 0.22
          0.22 0.22 0.22 0.22 0.22 0.22
          0.22 0.22 0.22 0.22 0.22 0.22
          0.22 0.22 0.22 0.22 0.22 0.22
          0.22 0.22 0.22 0.22 0.22 0.22
          0.22 0.22 0.22 0.22 0.22 0.22
          0.22 0.22 0.22 0.22 0.22 0.22
          0.22 0.22 0.22 0.22 0.22 0.22
          0.22 0.22 0.22 0.22 0.22 0.22
          0.22 0.22 0.22 0.22 0.22 0.22
          0.22 0.22 0.22 0.22 0.22 0.22
          0.22 0.22 0.22 0.22 0.22 0.22
          0.22 0.22 0.22 0.22 0.22 0.22
          0.22 0.22 0.22 0.22 0.22 0.22
          0.22 0.22 0.22 0.22 0.22 0.22
          0.22 0.22 0.22 0.22 0.22 0.22
          0.22 0.22 0.22 0.22 0.22 0.22
          0.22 0.22 0.22 0.22 0.22 0.22
          0.22 0.22 0.22 0.22 0.22 0.22
          0.22 0.22 0.22 0.22 0.22 0.22
          0.22 0.22 0.22 0.22 0.22 0.22
          0.22 0.22 0.22 0.22 0.22 0.22
          0.22 0.22 0.22 0.22 0.22 0.22
          0.22 0.22 0.22 0.22 0.22 0.22
          0.22 0.22 0.22 0.22 0.22 0.22
          0.22 0.22 0.22 0.22 0.22 0.22
          0.22 0.22 0.22 0.22 0.22 0.22
          0.22 0.22 0.22 0.22 0.22 0.22
          0.22 0.22 0.22 0.22 0.22 0.22
          0.22 0.22 0.22 0.22 0.22 0.22
          0.22 0.22 0.22 0.22 0.22 0.22
          0.22 0.22 0.22 0.22 0.22 0.22
          0.22 0.22 0.22 0.22 0.22 0.22
          0.22 0.22 0.22 0.22 0.22 0.22
          0.22 0.22 0.22 0.22 0.22 0.22
          0.22 0.22 0.22 0.22 0.22 0.22
          0.22 0.22 0.22 0.22 0.22 0.22
          0.22 0.22 0.22 0.22 0.22 0.22
          0.22 0.22 0.22 0.22 0.22 0.22
          0.22 0.22 0.22 0.22 0.22 0.22
          0.22 0.22 0.22 0.22 0.22 0.22
          0.22 0.22 0.22 0.22 0.22 0.22
          0.22 0.22 0.22 0.22 0.22 0.22
          0.22 0.22 0.22 0.22 0.22 0.22
          0.22 0.22 0.22 0.22 0.22 0.22
          0.22 0.22 0.22 0.22 0.22 0.22
          0.22 0.22 0.22 0.22 0.22 0.22
          0.22 0.22 0.22 0.22 0.22 0.22
          0.22 0.22 0.22 0.22 0.22 0.22
          0.22 0.22 0.22 0.22 0.22 0.22
          0.22 0.22 0.22 0.22 0.22 0.22
          0.22 0.22 0.22 0.22 0.22 0.22
          0.22 0.22 0.22 0.22 0.22 0.22
          0.22 0.22 0.22 0.22 0.22 0.22
          0.22 0.22 0.22 0.22 0.22 0.22
          0.22 0.22 0.22 0.22 0.22 0.22
          0.22 0.22 0.22 0.22 0.22 0.22
          0.22 0.22 0.22 0.22 0.22 0.22
          0.22 0.22 0.22 0.22 0.22 0.22
          0.22 0.22 0.22 0.22 0.22 0.22
          0.22 0.22 0.22 0.22 0.22 0.22
          0.22 0.22 0.22 0.22 0.22 0.22
          0.22 0.22 0.22 0.22 0.22 0.22
          0.22 0.22 0.22 0.22 0.22 0.22
          0.22 0.22 0.22 0.22 0.22 0.22
          0.22 0.22 0.22 0.22 0.22 0.22
          0.22 0.22 0.22 0.22 0.22 0.22
          0.22 0.22 0.22 0.22 0.22 0.22
          0.22 0.22 0.22 0.22 0.22 0.22
          0.22 0.22 0.22 0.22 0.22 0.22
          0.22 0.22
        </DataArray>
      </PointData>
      <CellData>
      </CellData>
      <Points>
        <DataArray type="Float32" Name="Points" NumberOfComponents="3" format="ascii" RangeMin="49.96708723388872" RangeMax="50.87932417824009">
          -1 -0.5 49.967037 -1 -0.5 50.11704
          -1 -0.5 50.26704 -1 -0.5 50.417038
          -1 -0.5 50.56704 -1 -0.5 50.717037
          -1 -0.5 50.86704 -1 -0.35 49.967037
          -1 -0.35 50.11704 -1 -0.35 50.26704
          -1 -0.35 50.417038 -1 -0.35 50.56704
          -1 -0.35 50.717037 -1 -0.35 50.86704
          -1 -0.2 49.967037 -1 -0.2 50.11704
          -1 -0.2 50.26704 -1 -0.2 50.417038
          -1 -0.2 50.56704 -1 -0.2 50.717037
          -1 -0.2 50.86704 -1 -0.05 49.967037
          -1 -0.05 50.11704 -1 -0.05 50.26704
          -1 -0.05 50.417038 -1 -0.05 50.56704
          -1 -0.05 50.717037 -1 -0.05 50.86704
          -1 0.1 49.967037 -1 0.1 50.11704
          -1 0.1 50.26704 -1 0.1 50.417038
          -1 0.1 50.56704 -1 0.1 50.717037
          -1 0.1 50.86704 -1 0.25 49.967037
          -1 0.25 50.11704 -1 0.25 50.26704
          -1 0.25 50.417038 -1 0.25 50.56704
          -1 0.25 50.717037 -1 0.25 50.86704
          -1 0.4 49.967037 -1 0.4 50.11704
          -1 0.4 50.26704 -1 0.4 50.417038
          -1 0.4 50.56704 -1 0.4 50.717037
          -1 0.4 50.86704 -0.85 -0.5 49.967037
          -0.85 -0.5 50.11704 -0.85 -0.5 50.26704
          -0.85 -0.5 50.417038 -0.85 -0.5 50.56704
          -0.85 -0.5 50.717037 -0.85 -0.5 50.86704
          -0.85 -0.35 49.967037 -0.85 -0.35 50.11704
          -0.85 -0.35 50.26704 -0.85 -0.35 50.417038
          -0.85 -0.35 50.56704 -0.85 -0.35 50.717037
          -0.85 -0.35 50.86704 -0.85 -0.2 49.967037
          -0.85 -0.2 50.11704 -0.85 -0.2 50.26704
          -0.85 -0.2 50.417038 -0.85 -0.2 50.56704
          -0.85 -0.2 50.717037 -0.85 -0.2 50.86704
          -0.85 -0.05 49.967037 -0.85 -0.05 50.11704
          -0.85 -0.05 50.26704 -0.85 -0.05 50.417038
          -0.85 -0.05 50.56704 -0.85 -0.05 50.717037
          -0.85 -0.05 50.86704 -0.85 0.1 49.967037
          -0.85 0.1 50.11704 -0.85 0.1 50.26704
          -0.85 0.1 50.417038 -0.85 0.1 50.56704
          -0.85 0.1 50.717037 -0.85 0.1 50.86704
          -0.85 0.25 49.967037 -0.85 0.25 50.11704
          -0.85 0.25 50.26704 -0.85 0.25 50.417038
          -0.85 0.25 50.56704 -0.85 0.25 50.717037
          -0.85 0.25 50.86704 -0.85 0.4 49.967037
          -0.85 0.4 50.11704 -0.85 0.4 50.26704
          -0.85 0.4 50.417038 -0.85 0.4 50.56704
          -0.85 0.4 50.717037 -0.85 0.4 50.86704
          -0.7 -0.5 49.967037 -0.7 -0.5 50.11704
          -0.7 -0.5 50.26704 -0.7 -0.5 50.417038
          -0.7 -0.5 50.56704 -0.7 -0.5 50.717037
          -0.7 -0.5 50.86704 -0.7 -0.35 49.967037
          -0.7 -0.35 50.11704 -0.7 -0.35 50.26704
          -0.7 -0.35 50.417038 -0.7 -0.35 50.56704
          -0.7 -0.35 50.717037 -0.7 -0.35 50.86704
          -0.7 -0.2 49.967037 -0.7 -0.2 50.11704
          -0.7 -0.2 50.26704 -0.7 -0.2 50.417038
          -0.7 -0.2 50.56704 -0.7 -0.2 50.717037
          -0.7 -0.2 50.86704 -0.7 -0.05 49.967037
          -0.7 -0.05 50.11704 -0.7 -0.05 50.26704
          -0.7 -0.05 50.417038 -0.7 -0.05 50.56704
          -0.7 -0.05 50.717037 -0.7 -0.05 50.86704
          -0.7 0.1 49.967037 -0.7 0.1 50.11704
          -0.7 0.1 50.26704 -0.7 0.1 50.417038
          -0.7 0.1 50.56704 -0.7 0.1 50.717037
          -0.7 0.1 50.86704 -0.7 0.25 49.967037
          -0.7 0.25 50.11704 -0.7 0.25 50.26704
          -0.7 0.25 50.417038 -0.7 0.25 50.56704
          -0.7 0.25 50.717037 -0.7 0.25 50.86704
          -0.7 0.4 49.967037 -0.7 0.4 50.11704
          -0.7 0.4 50.26704 -0.7 0.4 50.417038
          -0.7 0.4 50.56704 -0.7 0.4 50.717037
          -0.7 0.4 50.86704 -0.55 -0.5 49.967037
          -0.55 -0.5 50.11704 -0.55 -0.5 50.26704
          -0.55 -0.5 50.417038 -0.55 -0.5 50.56704
          -0.55 -0.5 50.717037 -0.55 -0.5 50.86704
          -0.55 -0.35 49.967037 -0.55 -0.35 50.11704
          -0.55 -0.35 50.26704 -0.55 -0.35 50.417038
          -0.55 -0.35 50.56704 -0.55 -0.35 50.717037
          -0.55 -0.35 50.86704 -0.55 -0.2 49.967037
          -0.55 -0.2 50.11704 -0.55 -0.2 50.26704
          -0.55 -0.2 50.417038 -0.55 -0.2 50.56704
          -0.55 -0.2 50.717037 -0.55 -0.2 50.86704
          -0.55 -0.05 49.967037 -0.55 -0.05 50.11704
          -0.55 -0.05 50.26704 -0.55 -0.05 50.417038
          -0.55 -0.05 50.56704 -0.55 -0.05 50.717037
          -0.55 -0.05 50.86704 -0.55 0.1 49.967037
          -0.55 0.1 50.11704 -0.55 0.1 50.26704
          -0.55 0.1 50.417038 -0.55 0.1 50.56704
          -0.55 0.1 50.717037 -0.55 0.1 50.86704
          -0.55 0.25 49.967037 -0.55 0.25 50.11704
          -0.55 0.25 50.26704 -0.55 0.25 50.417038
          -0.55 0.25 50.56704 -0.55 0.25 50.717037
          -0.55 0.25 50.86704 -0.55 0.4 49.967037
          -0.55 0.4 50.11704 -0.55 0.4 50.26704
          -0.55 0.4 50.417038 -0.55 0.4 50.56704
          -0.55 0.4 50.717037 -0.55 0.4 50.86704
          -0.4 -0.5 49.967037 -0.4 -0.5 50.11704
          -0.4 -0.5 50.26704 -0.4 -0.5 50.417038
          -0.4 -0.5 50.56704 -0.4 -0.5 50.717037
          -0.4 -0.5 50.86704 -0.4 -0.35 49.967037
          -0.4 -0.35 50.11704 -0.4 -0.35 50.26704
          -0.4 -0.35 50.417038 -0.4 -0.35 50.56704
          -0.4 -0.35 50.717037 -0.4 -0.35 50.86704
          -0.4 -0.2 49.967037 -0.4 -0.2 50.11704
          -0.4 -0.2 50.26704 -0.4 -0.2 50.417038
          -0.4 -0.2 50.56704 -0.4 -0.2 50.717037
          -0.4 -0.2 50.86704 -0.4 -0.05 49.967037
          -0.4 -0.05 50.11704 -0.4 -0.05 50.26704
          -0.4 -0.05 50.417038 -0.4 -0.05 50.56704
          -0.4 -0.05 50.717037 -0.4 -0.05 50.86704
          -0.4 0.1 49.967037 -0.4 0.1 50.11704
          -0.4 0.1 50.26704 -0.4 0.1 50.417038
          -0.4 0.1 50.56704 -0.4 0.1 50.717037
          -0.4 0.1 50.86704 -0.4 0.25 49.967037
          -0.4 0.25 50.11704 -0.4 0.25 50.26704
          -0.4 0.25 50.417038 -0.4 0.25 50.56704
          -0.4 0.25 50.717037 -0.4 0.25 50.86704
          -0.4 0.4 49.967037 -0.4 0.4 50.11704
          -0.4 0.4 50.26704 -0.4 0.4 50.417038
          -0.4 0.4 50.56704 -0.4 0.4 50.717037
          -0.4 0.4 50.86704 -0.25 -0.5 49.967037
          -0.25 -0.5 50.11704 -0.25 -0.5 50.26704
          -0.25 -0.5 50.417038 -0.25 -0.5 50.56704
          -0.25 -0.5 50.717037 -0.25 -0.5 50.86704
          -0.25 -0.35 49.967037 -0.25 -0.35 50.11704
          -0.25 -0.35 50.26704 -0.25 -0.35 50.417038
          -0.25 -0.35 50.56704 -0.25 -0.35 50.717037
          -0.25 -0.35 50.86704 -0.25 -0.2 49.967037
          -0.25 -0.2 50.11704 -0.25 -0.2 50.26704
          -0.25 -0.2 50.417038 -0.25 -0.2 50.56704
          -0.25 -0.2 50.717037 -0.25 -0.2 50.86704
          -0.25 -0.05 49.967037 -0.25 -0.05 50.11704
          -0.25 -0.05 50.26704 -0.25 -0.05 50.417038
          -0.25 -0.05 50.56704 -0.25 -0.05 50.717037
          -0.25 -0.05 50.86704 -0.25 0.1 49.967037
          -0.25 0.1 50.11704 -0.25 0.1 50.26704
          -0.25 0.1 50.417038 -0.25 0.1 50.56704
          -0.25 0.1 50.717037 -0.25 0.1 50.86704
          -0.25 0.25 49.967037 -0.25 0.25 50.11704
          -0.25 0.25 50.26704 -0.25 0.25 50.417038
          -0.25 0.25 50.56704 -0.25 0.25 50.717037
          -0.25 0.25 50.86704 -0.25 0.4 49.967037
          -0.25 0.4 50.11704 -0.25 0.4 50.26704
          -0.25 0.4 50.417038 -0.25 0.4 50.56704
          -0.25 0.4 50.717037 -0.25 0.4 50.86704
          -0.1 -0.5 49.967037 -0.1 -0.5 50.11704
          -0.1 -0.5 50.26704 -0.1 -0.5 50.417038
          -0.1 -0.5 50.56704 -0.1 -0.5 50.717037
          -0.1 -0.5 50.86704 -0.1 -0.35 49.967037
          -0.1 -0.35 50.11704 -0.1 -0.35 50.26704
          -0.1 -0.35 50.417038 -0.1 -0.35 50.56704
          -0.1 -0.35 50.717037 -0.1 -0.35 50.86704
          -0.1 -0.2 49.967037 -0.1 -0.2 50.11704
          -0.1 -0.2 50.26704 -0.1 -0.2 50.417038
          -0.1 -0.2 50.56704 -0.1 -0.2 50.717037
          -0.1 -0.2 50.86704 -0.1 -0.05 49.967037
          -0.1 -0.05 50.11704 -0.1 -0.05 50.26704
          -0.1 -0.05 50.417038 -0.1 -0.05 50.56704
          -0.1 -0.05 50.717037 -0.1 -0.05 50.86704
          -0.1 0.1 49.967037 -0.1 0.1 50.11704
          -0.1 0.1 50.26704 -0.1 0.1 50.417038
          -0.1 0.1 50.56704 -0.1 0.1 50.717037
          -0.1 0.1 50.86704 -0.1 0.25 49.967037
          -0.1 0.25 50.11704 -0.1 0.25 50.26704
          -0.1 0.25 50.417038 -0.1 0.25 50.56704
          -0.1 0.25 50.717037 -0.1 0.25 50.86704
          -0.1 0.4 49.967037 -0.1 0.4 50.11704
          -0.1 0.4 50.26704 -0.1 0.4 50.417038
          -0.1 0.4 50.56704 -0.1 0.4 50.717037
          -0.1 0.4 50.86704 0.05 -0.5 49.967037
          0.05 -0.5 50.11704 0.05 -0.5 50.26704
          0.05 -0.5 50.417038 0.05 -0.5 50.56704
          0.05 -0.5 50.717037 0.05 -0.5 50.86704
          0.05 -0.35 49.967037 0.05 -0.35 50.11704
          0.05 -0.35 50.26704 0.05 -0.35 50.417038
          0.05 -0.35 50.56704 0.05 -0.35 50.717037
          0.05 -0.35 50.86704 0.05 -0.2 49.967037
          0.05 -0.2 50.11704 0.05 -0.2 50.26704
          0.05 -0.2 50.417038 0.05 -0.2 50.56704
          0.05 -0.2 50.717037 0.05 -0.2 50.86704
          0.05 -0.05 49.967037 0.05 -0.05 50.11704
          0.05 -0.05 50.26704 0.05 -0.05 50.417038
          0.05 -0.05 50.56704 0.05 -0.05 50.717037
          0.05 -0.05 50.86704 0.05 0.1 49.967037
          0.05 0.1 50.11704 0.05 0.1 50.26704
          0.05 0.1 50.417038 0.05 0.1 50.56704
          0.05 0.1 50.717037 0.05 0.1 50.86704
          0.05 0.25 49.967037 0.05 0.25 50.11704
          0.05 0.25 50.26704 0.05 0.25 50.417038
          0.05 0.25 50.56704 0.05 0.25 50.717037
          0.05 0.25 50.86704 0.05 0.4 49.967037
          0.05 0.4 50.11704 0.05 0.4 50.26704
          0.05 0.4 50.417038 0.05 0.4 50.56704
          0.05 0.4 50.717037 0.05 0.4 50.86704
          0.2 -0.5 49.967037 0.2 -0.5 50.11704
          0.2 -0.5 50.26704 0.2 -0.5 50.417038
          0.2 -0.5 50.56704 0.2 -0.5 50.717037
          0.2 -0.5 50.86704 0.2 -0.35 49.967037
          0.2 -0.35 50.11704 0.2 -0.35 50.26704
          0.2 -0.35 50.417038 0.2 -0.35 50.56704
          0.2 -0.35 50.717037 0.2 -0.35 50.86704
          0.2 -0.2 49.967037 0.2 -0.2 50.11704
          0.2 -0.2 50.26704 0.2 -0.2 50.417038
          0.2 -0.2 50.56704 0.2 -0.2 50.717037
          0.2 -0.2 50.86704 0.2 -0.05 49.967037
          0.2 -0.05 50.11704 0.2 -0.05 50.26704
          0.2 -0.05 50.417038 0.2 -0.05 50.56704
          0.2 -0.05 50.717037 0.2 -0.05 50.86704
          0.2 0.1 49.967037 0.2 0.1 50.11704
          0.2 0.1 50.26704 0.2 0.1 50.417038
          0.2 0.1 50.56704 0.2 0.1 50.717037
          0.2 0.1 50.86704 0.2 0.25 49.967037
          0.2 0.25 50.11704 0.2 0.25 50.26704
          0.2 0.25 50.417038 0.2 0.25 50.56704
          0.2 0.25 50.717037 0.2 0.25 50.86704
          0.2 0.4 49.967037 0.2 0.4 50.11704
          0.2 0.4 50.26704 0.2 0.4 50.417038
          0.2 0.4 50.56704 0.2 0.4 50.717037
          0.2 0.4 50.86704 0.35 -0.5 49.967037
          0.35 -0.5 50.11704 0.35 -0.5 50.26704
          0.35 -0.5 50.417038 0.35 -0.5 50.56704
          0.35 -0.5 50.717037 0.35 -0.5 50.86704
          0.35 -0.35 49.967037 0.35 -0.35 50.11704
          0.35 -0.35 50.26704 0.35 -0.35 50.417038
          0.35 -0.35 50.56704 0.35 -0.35 50.717037
          0.35 -0.35 50.86704 0.35 -0.2 49.967037
          0.35 -0.2 50.11704 0.35 -0.2 50.26704
          0.35 -0.2 50.417038 0.35 -0.2 50.56704
          0.35 -0.2 50.717037 0.35 -0.2 50.86704
          0.35 -0.05 49.967037 0.35 -0.05 50.11704
          0.35 -0.05 50.26704 0.35 -0.05 50.417038
          0.35 -0.05 50.56704 0.35 -0.05 50.717037
          0.35 -0.05 50.86704 0.35 0.1 49.967037
          0.35 0.1 50.11704 0.35 0.1 50.26704
          0.35 0.1 50.417038 0.35 0.1 50.56704
          0.35 0.1 50.717037 0.35 0.1 50.86704
          0.35 0.25 49.967037 0.35 0.25 50.11704
          0.35 0.25 50.26704 0.35 0.25 50.417038
          0.35 0.25 50.56704 0.35 0.25 50.717037
          0.35 0.25 50.86704 0.35 0.4 49.967037
          0.35 0.4 50.11704 0.35 0.4 50.26704
          0.35 0.4 50.417038 0.35 0.4 50.56704
          0.35 0.4 50.717037 0.35 0.4 50.86704
          0.5 -0.5 49.967037 0.5 -0.5 50.11704
          0.5 -0.5 50.26704 0.5 -0.5 50.417038
          0.5 -0.5 50.56704 0.5 -0.5 50.717037
          0.5 -0.5 50.86704 0.5 -0.35 49.967037
          0.5 -0.35 50.11704 0.5 -0.35 50.26704
          0.5 -0.35 50.417038 0.5 -0.35 50.56704
          0.5 -0.35 50.717037 0.5 -0.35 50.86704
          0.5 -0.2 49.967037 0.5 -0.2 50.11704
          0.5 -0.2 50.26704 0.5 -0.2 50.417038
          0.5 -0.2 50.56704 0.5 -0.2 50.717037
          0.5 -0.2 50.86704 0.5 -0.05 49.967037
          0.5 -0.05 50.11704 0.5 -0.05 50.26704
          0.5 -0.05 50.417038 0.5 -0.05 50.56704
          0.5 -0.05 50.717037 0.5 -0.05 50.86704
          0.5 0.1 49.967037 0.5 0.1 50.11704
          0.5 0.1 50.26704 0.5 0.1 50.417038
          0.5 0.1 50.56704 0.5 0.1 50.717037
          0.5 0.1 50.86704 0.5 0.25 49.967037
          0.5 0.25 50.11704 0.5 0.25 50.26704
          0.5 0.25 50.417038 0.5 0.25 50.56704
          0.5 0.25 50.717037 0.5 0.25 50.86704
          0.5 0.4 49.967037 0.5 0.4 50.11704
          0.5 0.4 50.26704 0.5 0.4 50.417038
          0.5 0.4 50.56704 0.5 0.4 50.717037
          0.5 0.4 50.86704 0.65 -0.5 49.967037
          0.65 -0.5 50.11704 0.65 -0.5 50.26704
          0.65 -0.5 50.417038 0.65 -0.5 50.56704
          0.65 -0.5 50.717037 0.65 -0.5 50.86704
          0.65 -0.35 49.967037 0.65 -0.35 50.11704
          0.65 -0.35 50.26704 0.65 -0.35 50.417038
          0.65 -0.35 50.56704 0.65 -0.35 50.717037
          0.65 -0.35 50.86704 0.65 -0.2 49.967037
          0.65 -0.2 50.11704 0.65 -0.2 50.26704
          0.65 -0.2 50.417038 0.65 -0.2 50.56704
          0.65 -0.2 50.717037 0.65 -0.2 50.86704
          0.65 -0.05 49.967037 0.65 -0.05 50.11704
          0.65 -0.05 50.26704 0.65 -0.05 50.417038
          0.65 -0.05 50.56704 0.65 -0.05 50.717037
          0.65 -0.05 50.86704 0.65 0.1 49.967037
          0.65 0.1 50.11704 0.65 0.1 50.26704
          0.65 0.1 50.417038 0.65 0.1 50.56704
          0.65 0.1 50.717037 0.65 0.1 50.86704
          0.65 0.25 49.967037 0.65 0.25 50.11704
          0.65 0.25 50.26704 0.65 0.25 50.417038
          0.65 0.25 50.56704 0.65 0.25 50.717037
          0.65 0.25 50.86704 0.65 0.4 49.967037
          0.65 0.4 50.11704 0.65 0.4 50.26704
          0.65 0.4 50.417038 0.65 0.4 50.56704
          0.65 0.4 50.717037 0.65 0.4 50.86704
          0.8 -0.5 49.967037 0.8 -0.5 50.11704
          0.8 -0.5 50.26704 0.8 -0.5 50.417038
          0.8 -0.5 50.56704 0.8 -0.5 50.717037
          0.8 -0.5 50.86704 0.8 -0.35 49.967037
          0.8 -0.35 50.11704 0.8 -0.35 50.26704
          0.8 -0.35 50.417038 0.8 -0.35 50.56704
          0.8 -0.35 50.717037 0.8 -0.35 50.86704
          0.8 -0.2 49.967037 0.8 -0.2 50.11704
          0.8 -0.2 50.26704 0.8 -0.2 50.417038
          0.8 -0.2 50.56704 0.8 -0.2 50.717037
          0.8 -0.2 50.86704 0.8 -0.05 49.967037
          0.8 -0.05 50.11704 0.8 -0.05 50.26704
          0.8 -0.05 50.417038 0.8 -0.05 50.56704
          0.8 -0.05 50.717037 0.8 -0.05 50.86704
          0.8 0.1 49.967037 0.8 0.1 50.11704
          0.8 0.1 50.26704 0.8 0.1 50.417038
          0.8 0.1 50.56704 0.8 0.1 50.717037
          0.8 0.1 50.86704 0.8 0.25 49.967037
          0.8 0.25 50.11704 0.8 0.25 50.26704
          0.8 0.25 50.417038 0.8 0.25 50.56704
          0.8 0.25 50.717037 0.8 0.25 50.86704
          0.8 0.4 49.967037 0.8 0.4 50.11704
          0.8 0.4 50.26704 0.8 0.4 50.417038
          0.8 0.4 50.56704 0.8 0.4 50.717037
          0.8 0.4 50.86704 0.95 -0.5 49.967037
          0.95 -0.5 50.11704 0.95 -0.5 50.26704
          0.95 -0.5 50.417038 0.95 -0.5 50.56704
          0.95 -0.5 50.717037 0.95 -0.5 50.86704
          0.95 -0.35 49.967037 0.95 -0.35 50.11704
          0.95 -0.35 50.26704 0.95 -0.35 50.417038
          0.95 -0.35 50.56704 0.95 -0.35 50.717037
          0.95 -0.35 50.86704 0.95 -0.2 49.967037
          0.95 -0.2 50.11704 0.95 -0.2 50.26704
          0.95 -0.2 50.417038 0.95 -0.2 50.56704
          0.95 -0.2 50.717037 0.95 -0.2 50.86704
          0.95 -0.05 49.967037 0.95 -0.05 50.11704
          0.95 -0.05 50.26704 0.95 -0.05 50.417038
          0.95 -0.05 50.56704 0.95 -0.05 50.717037
          0.95 -0.05 50.86704 0.95 0.1 49.967037
          0.95 0.1 50.11704 0.95 0.1 50.26704
          0.95 0.1 50.417038 0.95 0.1 50.56704
          0.95 0.1 50.717037 0.95 0.1 50.86704
          0.95 0.25 49.967037 0.95 0.25 50.11704
          0.95 0.25 50.26704 0.95 0.25 50.417038
          0.95 0.25 50.56704 0.95 0.25 50.717037
          0.95 0.25 50.86704 0.95 0.4 49.967037
          0.95 0.4 50.11704 0.95 0.4 50.26704
          0.95 0.4 50.417038 0.95 0.4 50.56704
          0.95 0.4 50.717037 0.95 0.4 50.86704
          <InformationKey name="L2_NORM_RANGE" location="vtkDataArray" length="2">
            <Value index="0">
              49.967087234
            </Value>
            <Value index="1">
              50.879324178
            </Value>
          </InformationKey>
        </DataArray>
      </Points>
      <Verts>
        <DataArray type="Int64" Name="connectivity" format="ascii" RangeMin="0" RangeMax="685">
          0 1 2 3 4 5
          6 7 8 9 10 11
          12 13 14 15 16 17
          18 19 20 21 22 23
          24 25 26 27 28 29
          30 31 32 33 34 35
          36 37 38 39 40 41
          42 43 44 45 46 47
          48 49 50 51 52 53
          54 55 56 57 58 59
          60 61 62 63 64 65
          66 67 68 69 70 71
          72 73 74 75 76 77
          78 79 80 81 82 83
          84 85 86 87 88 89
          90 91 92 93 94 95
          96 97 98 99 100 101
          102 103 104 105 106 107
          108 109 110 111 112 113
          114 115 116 117 118 119
          120 121 122 123 124 125
          126 127 128 129 130 131
          132 133 134 135 136 137
          138 139 140 141 142 143
          144 145 146 147 148 149
          150 151 152 153 154 155
          156 157 158 159 160 161
          162 163 164 165 166 167
          168 169 170 171 172 173
          174 175 176 177 178 179
          180 181 182 183 184 185
          186 187 188 189 190 191
          192 193 194 195 196 197
          198 199 200 201 202 203
          204 205 206 207 208 209
          210 211 212 213 214 215
          216 217 218 219 220 221
          222 223 224 225 226 227
          228 229 230 231 232 233
          234 235 236 237 238 239
          240 241 242 243 244 245
          246 247 248 249 250 251
          252 253 254 255 256 257
          258 259 260 261 262 263
          264 265 266 267 268 269
          270 271 272 273 274 275
          276 277 278 279 280 281
          282 283 284 285 286 287
          288 289 290 291 292 293
          294 295 296 297 298 299
          300 301 302 303 304 305
          306 307 308 309 310 311
          312 313 314 315 316 317
          318 319 320 321 322 323
          324 325 326 327 328 329
          330 331 332 333 334 335
          336 337 338 339 340 341
          342 343 344 345 346 347
          348 349 350 351 352 353
          354 355 356 357 358 359
          360 361 362 363 364 365
          366 367 368 369 370 371
          372 373 374 375 376 377
          378 379 380 381 382 383
          384 385 386 387 388 389
          390 391 392 393 394 395
          396 397 398 399 400 401
          402 403 404 405 406 407
          408 409 410 411 412 413
          414 415 416 417 418 419
          420 421 422 423 424 425
          426 427 428 429 430 431
          432 433 434 435 436 437
          438 439 440 441 442 443
          444 445 446 447 448 449
          450 451 452 453 454 455
          456 457 458 459 460 461
          462 463 464 465 466 467
          468 469 470 471 472 473
          474 475 476 477 478 479
          480 481 482 483 484 485
          486 487 488 489 490 491
          492 493 494 495 496 497
          498 499 500 501 502 503
          504 505 506 507 508 509
          510 511 512 513 514 515
          516 517 518 519 520 521
          522 523 524 525 526 527
          528 529 530 531 532 533
          534 535 536 537 538 539
          540 541 542 543 544 545
          546 547 548 549 550 551
          552 553 554 555 556 557
          558 559 560 561 562 563
          564 565 566 567 568 569
          570 571 572 573 574 575
          576 577 578 579 580 581
          582 583 584 585 586 587
          588 589 590 591 592 593
          594 595 596 597 598 599
          600 601 602 603 604 605
          606 607 608 609 610 611
          612 613 614 615 616 617
          618 619 620 621 622 623
          624 625 626 627 628 629
          630 631 632 633 634 635
          636 637 638 639 640 641
          642 643 644 645 646 647
          648 649 650 651 652 653
          654 655 656 657 658 659
          660 661 662 663 664 665
          666 667 668 669 670 671
          672 673 674 675 676 677
          678 679 680 681 682 683
          684 685
        </DataArray>
        <DataArray type="Int64" Name="offsets" format="ascii" RangeMin="1" RangeMax="686">
          1 2 3 4 5 6
          7 8 9 10 11 12
          13 14 15 16 17 18
          19 20 21 22 23 24
          25 26 27 28 29 30
          31 32 33 34 35 36
          37 38 39 40 41 42
          43 44 45 46 47 48
          49 50 51 52 53 54
          55 56 57 58 59 60
          61 62 63 64 65 66
          67 68 69 70 71 72
          73 74 75 76 77 78
          79 80 81 82 83 84
          85 86 87 88 89 90
          91 92 93 94 95 96
          97 98 99 100 101 102
          103 104 105 106 107 108
          109 110 111 112 113 114
          115 116 117 118 119 120
          121 122 123 124 125 126
          127 128 129 130 131 132
          133 134 135 136 137 138
          139 140 141 142 143 144
          145 146 147 148 149 150
          151 152 153 154 155 156
          157 158 159 160 161 162
          163 164 165 166 167 168
          169 170 171 172 173 174
          175 176 177 178 179 180
          181 182 183 184 185 186
          187 188 189 190 191 192
          193 194 195 196 197 198
          199 200 201 202 203 204
          205 206 207 208 209 210
          211 212 213 214 215 216
          217 218 219 220 221 222
          223 224 225 226 227 228
          229 230 231 232 233 234
          235 236 237 238 239 240
          241 242 243 244 245 246
          247 248 249 250 251 252
          253 254 255 256 257 258
          259 260 261 262 263 264
          265 266 267 268 269 270
          271 272 273 274 275 276
          277 278 279 280 281 282
          283 284 285 286 287 288
          289 290 291 292 293 294
          295 296 297 298 299 300
          301 302 303 304 305 306
          307 308 309 310 311 312
          313 314 315 316 317 318
          319 320 321 322 323 324
          325 326 327 328 329 330
          331 332 333 334 335 336
          337 338 339 340 341 342
          343 344 345 346 347 348
          349 350 351 352 353 354
          355 356 357 358 359 360
          361 362 363 364 365 366
          367 368 369 370 371 372
          373 374 375 376 377 378
          379 380 381 382 383 384
          385 386 387 388 389 390
          391 392 393 394 395 396
          397 398 399 400 401 402
          403 404 405 406 407 408
          409 410 411 412 413 414
          415 416 417 418 419 420
          421 422 423 424 425 426
          427 428 429 430 431 432
          433 434 435 436 437 438
          439 440 441 442 443 444
          445 446 447 448 449 450
          451 452 453 454 455 456
          457 458 459 460 461 462
          463 464 465 466 467 468
          469 470 471 472 473 474
          475 476 477 478 479 480
          481 482 483 484 485 486
          487 488 489 490 491 492
          493 494 495 496 497 498
          499 500 501 502 503 504
          505 506 507 508 509 510
          511 512 513 514 515 516
          517 518 519 520 521 522
          523 524 525 526 527 528
          529 530 531 532 533 534
          535 536 537 538 539 540
          541 542 543 544 545 546
          547 548 549 550 551 552
          553 554 555 556 557 558
          559 560 561 562 563 564
          565 566 567 568 569 570
          571 572 573 574 575 576
          577 578 579 580 581 582
          583 584 585 586 587 588
          589 590 591 592 593 594
          595 596 597 598 599 600
          601 602 603 604 605 606
          607 608 609 610 611 612
          613 614 615 616 617 618
          619 620 621 622 623 624
          625 626 627 628 629 630
          631 632 633 634 635 636
          637 638 639 640 641 642
          643 644 645 646 647 648
          649 650 651 652 653 654
          655 656 657 658 659 660
          661 662 663 664 665 666
          667 668 669 670 671 672
          673 674 675 676 677 678
          679 680 681 682 683 684
          685 686
        </DataArray>
      </Verts>
      <Lines>
        <DataArray type="Int64" Name="connectivity" format="ascii" RangeMin="1e+299" RangeMax="-1e+299">
        </DataArray>
        <DataArray type="Int64" Name="offsets" format="ascii" RangeMin="1e+299" RangeMax="-1e+299">
        </DataArray>
      </Lines>
      <Strips>
        <DataArray type="Int64" Name="connectivity" format="ascii" RangeMin="1e+299" RangeMax="-1e+299">
        </DataArray>
        <DataArray type="Int64" Name="offsets" format="ascii" RangeMin="1e+299" RangeMax="-1e+299">
        </DataArray>
      </Strips>
      <Polys>
        <DataArray type="Int64" Name="connectivity" format="ascii" RangeMin="1e+299" RangeMax="-1e+299">
        </DataArray>
        <DataArray type="Int64" Name="offsets" format="ascii" RangeMin="1e+299" RangeMax="-1e+299">
        </DataArray>
      </Polys>
    </Piece>
  </PolyData>
</VTKFile>
