# vtk DataFile Version 3.0
particle building
ASCII
DATASET POLYDATA
POINTS 770 float
-1.5 -0.9 0
-1.2 -0.9 0
-0.9 -0.9 0
-0.6 -0.9 0
-0.3 -0.9 0
0 -0.9 0
0.3 -0.9 0
0.6 -0.9 0
0.9 -0.9 0
1.2 -0.9 0
1.5 -0.9 0
-1.5 -0.6 0
-1.2 -0.6 0
-0.9 -0.6 0
-0.6 -0.6 0
-0.3 -0.6 0
0 -0.6 0
0.3 -0.6 0
0.6 -0.6 0
0.9 -0.6 0
1.2 -0.6 0
1.5 -0.6 0
-1.5 -0.3 0
-1.2 -0.3 0
-0.9 -0.3 0
-0.6 -0.3 0
-0.3 -0.3 0
0 -0.3 0
0.3 -0.3 0
0.6 -0.3 0
0.9 -0.3 0
1.2 -0.3 0
1.5 -0.3 0
-1.5 0 0
-1.2 0 0
-0.9 0 0
-0.6 0 0
-0.3 0 0
0 0 0
0.3 0 0
0.6 0 0
0.9 0 0
1.2 0 0
1.5 0 0
-1.5 0.3 0
-1.2 0.3 0
-0.9 0.3 0
-0.6 0.3 0
-0.3 0.3 0
0 0.3 0
0.3 0.3 0
0.6 0.3 0
0.9 0.3 0
1.2 0.3 0
1.5 0.3 0
-1.5 0.6 0
-1.2 0.6 0
-0.9 0.6 0
-0.6 0.6 0
-0.3 0.6 0
0 0.6 0
0.3 0.6 0
0.6 0.6 0
0.9 0.6 0
1.2 0.6 0
1.5 0.6 0
-1.5 0.9 0
-1.2 0.9 0
-0.9 0.9 0
-0.6 0.9 0
-0.3 0.9 0
0 0.9 0
0.3 0.9 0
0.6 0.9 0
0.9 0.9 0
1.2 0.9 0
1.5 0.9 0
-1.46447 -0.859109 0.272247
-1.1747 -0.860457 0.258468
-0.883164 -0.856525 0.268407
-0.581252 -0.8928 0.281991
-0.273005 -0.90114 0.267154
0.017173 -0.893459 0.282744
0.320972 -0.90716 0.263893
0.621824 -0.895745 0.256797
0.926315 -0.887408 0.24698
1.23254 -0.90377 0.262859
1.52022 -0.894083 0.256056
-1.45133 -0.596124 0.294621
-1.17481 -0.575891 0.268384
-0.866143 -0.601176 0.240004
-0.567738 -0.623845 0.233902
-0.283636 -0.600351 0.254614
0.0161254 -0.59935 0.236905
0.316142 -0.609025 0.259399
0.615766 -0.600814 0.278056
0.916171 -0.603189 0.28981
1.21399 -0.606468 0.264686
1.51344 -0.601717 0.276655
-1.47093 -0.298381 0.288518
-1.21843 -0.268458 0.259869
-0.90722 -0.284329 0.239655
-0.593595 -0.307272 0.224808
-0.307514 -0.29598 0.212461
-0.00272711 -0.284256 0.224432
0.302539 -0.290726 0.227408
0.607767 -0.296476 0.246494
0.916632 -0.302892 0.274598
1.21317 -0.304778 0.276874
1.50084 -0.30052 0.276631
-1.48815 0.0126527 0.267098
-1.24522 0.0427587 0.244118
-0.930782 0.0335065 0.242412
-0.620371 0.0166947 0.227718
-0.307142 0.0116049 0.223631
0.00282998 -0.00212246 0.240733
0.306515 0.00939864 0.258421
0.60975 0.0068773 0.262677
0.920798 0.00433707 0.281717
1.2103 0.003108 0.292441
1.50304 0.00407327 0.27246
-1.52851 0.311868 0.26406
-1.23273 0.334126 0.253607
-0.935573 0.336967 0.254586
-0.621251 0.33119 0.257995
-0.318828 0.325367 0.260698
-0.00667629 0.316811 0.272275
0.297287 0.316966 0.260038
0.608775 0.3099 0.271232
0.921442 0.307501 0.28971
1.22147 0.312163 0.279872
1.51362 0.31133 0.268872
-1.53757 0.61684 0.268263
-1.24957 0.626083 0.26258
-0.938987 0.637182 0.253281
-0.624334 0.631842 0.267143
-0.307805 0.629793 0.264642
-0.0151016 0.629945 0.270389
0.29658 0.624787 0.267749
0.607792 0.613015 0.26962
0.921056 0.609164 0.281255
1.23003 0.612769 0.286507
1.5214 0.626426 0.237873
-1.53107 0.916209 0.276099
-1.24753 0.920723 0.265814
-0.950599 0.930279 0.261075
-0.638842 0.929429 0.251104
-0.323907 0.928621 0.240598
-0.00523675 0.928242 0.247692
0.30343 0.924814 0.248969
0.612977 0.914738 0.248142
0.925612 0.892652 0.249693
1.23552 0.911648 0.273635
1.52939 0.928349 0.227596
-1.41968 -0.817079 0.521457
-1.14757 -0.810151 0.500065
-0.854712 -0.819596 0.499429
-0.55498 -0.843827 0.517609
-0.256862 -0.843587 0.51331
0.0415203 -0.856942 0.52183
0.343765 -0.846936 0.522193
0.6424 -0.858828 0.52463
0.934351 -0.842121 0.507958
1.22466 -0.834819 0.464654
1.51629 -0.831014 0.486039
-1.4202 -0.550196 0.562412
-1.14549 -0.510768 0.507786
-0.84856 -0.522374 0.483722
-0.548789 -0.551164 0.460878
-0.255496 -0.552963 0.452313
0.0461473 -0.559022 0.468561
0.345366 -0.558825 0.471658
0.643669 -0.55785 0.487173
0.944179 -0.552897 0.480242
1.23579 -0.549256 0.432088
1.53228 -0.551113 0.48938
-1.44657 -0.274397 0.562092
-1.16082 -0.262889 0.509549
-0.871432 -0.234052 0.432513
-0.560346 -0.252325 0.412885
-0.25472 -0.258996 0.425379
0.0457042 -0.263098 0.433816
0.340431 -0.255687 0.436021
0.632307 -0.249275 0.463362
0.935612 -0.254202 0.473493
1.24015 -0.25709 0.475592
1.53269 -0.263886 0.508062
-1.4663 0.0248753 0.566274
-1.18964 0.0363061 0.517319
-0.899878 0.0598831 0.446929
-0.577433 0.0566854 0.432263
-0.260968 0.0496525 0.418661
0.0440087 0.0456323 0.448158
0.331595 0.0499013 0.476483
0.633417 0.0466401 0.500936
0.932392 0.0479605 0.501939
1.23187 0.0432642 0.489976
1.53792 0.048075 0.512619
-1.51074 0.307713 0.559998
-1.22343 0.337138 0.527801
-0.931882 0.347064 0.508474
-0.619247 0.350915 0.479416
-0.295368 0.353742 0.44747
0.0260766 0.354116 0.469046
0.328422 0.357259 0.4897
0.624278 0.357358 0.494404
0.923917 0.35539 0.515285
1.21487 0.354508 0.514516
1.51158 0.355995 0.490663
-1.52121 0.576712 0.573594
-1.23653 0.602341 0.555232
-0.954006 0.642896 0.510078
-0.640742 0.639262 0.506496
-0.32932 0.654317 0.498521
-0.000727996 0.649275 0.484943
0.320186 0.661423 0.487366
0.627088 0.665725 0.484287
0.916276 0.665477 0.510994
1.21114 0.662721 0.517596
1.48373 0.665568 0.478738
-1.47137 0.871803 0.568895
-1.24931 0.883368 0.560455
-0.97185 0.92488 0.531607
-0.671288 0.924804 0.511916
-0.361019 0.938706 0.497929
-0.0357663 0.947855 0.495405
0.289192 0.959411 0.487932
0.610051 0.970172 0.48563
0.923901 0.956273 0.494199
1.23226 0.951503 0.514116
1.50376 0.944236 0.452428
-1.32909 -0.770575 0.778062
-1.07572 -0.77036 0.75142
-0.797842 -0.739942 0.723052
-0.513999 -0.742872 0.711488
-0.21924 -0.744698 0.720752
0.0697085 -0.7188 0.723665
0.363765 -0.741464 0.75063
0.655839 -0.748517 0.766693
0.951115 -0.717864 0.724132
1.24665 -0.735604 0.702082
1.46079 -0.777642 0.734956
-1.35078 -0.488533 0.781996
-1.08935 -0.474494 0.74034
-0.808222 -0.460331 0.668576
-0.519417 -0.465806 0.648097
-0.21702 -0.472184 0.617578
0.0815343 -0.466935 0.634911
0.386112 -0.47946 0.660853
0.676186 -0.490919 0.701021
0.967021 -0.463825 0.693335
1.25595 -0.446652 0.632056
1.55334 -0.509562 0.698022
-1.36909 -0.202804 0.80565
-1.0905 -0.1859 0.732017
-0.81108 -0.167051 0.65862
-0.529662 -0.165455 0.601742
-0.232143 -0.17557 0.595506
0.0740192 -0.175532 0.585663
0.369499 -0.181261 0.617531
0.659702 -0.197074 0.689751
0.971377 -0.192008 0.672805
1.29774 -0.204672 0.646504
1.6015 -0.218089 0.691523
-1.37253 0.07004 0.809612
-1.10948 0.0971637 0.720214
-0.831381 0.122821 0.646309
-0.547006 0.136579 0.577729
-0.250992 0.116098 0.614812
0.0577555 0.11534 0.623414
0.366093 0.116065 0.635774
0.674686 0.0899376 0.691864
0.972486 0.0921139 0.697962
1.29281 0.0813426 0.68102
1.58848 0.0763283 0.727805
-1.38956 0.363716 0.806115
-1.15552 0.387891 0.753434
-0.870621 0.416701 0.682403
-0.572442 0.425697 0.637281
-0.27927 0.411497 0.637292
0.0112733 0.40107 0.656086
0.324344 0.410241 0.652616
0.650203 0.393227 0.669388
0.959594 0.389498 0.689085
1.26616 0.371559 0.687109
1.54933 0.363544 0.762129
-1.41522 0.632835 0.835186
-1.19379 0.688557 0.773497
-0.893575 0.700939 0.754826
-0.591288 0.709687 0.706067
-0.278349 0.697807 0.704707
0.017065 0.699337 0.705081
0.308242 0.708072 0.704711
0.618537 0.702839 0.707466
0.929499 0.68248 0.718849
1.24716 0.658314 0.687677
1.52986 0.675566 0.758059
-1.41861 0.860859 0.835511
-1.14196 0.953228 0.775281
-0.892728 0.981453 0.750325
-0.612385 0.994518 0.713436
-0.302473 0.99012 0.695911
0.00794712 0.985075 0.695828
0.297714 1.00871 0.732721
0.588991 0.985344 0.75421
0.891871 0.980147 0.746405
1.18368 0.934531 0.708108
1.46511 0.972986 0.730962
-1.25086 -0.539531 0.782422
-0.994433 -0.626573 0.911388
-0.708514 -0.649046 0.905428
-0.425564 -0.676593 0.89741
-0.143139 -0.691015 0.909575
0.139108 -0.652348 0.932082
0.432371 -0.631213 0.91308
0.734688 -0.646369 0.94539
1.03008 -0.649914 0.92244
1.30289 -0.725081 0.94577
1.56743 -0.746947 0.984988
-1.25724 -0.375964 0.957454
-0.970598 -0.426105 0.913824
-0.706219 -0.390346 0.833192
-0.418938 -0.380836 0.817839
-0.140852 -0.406189 0.808622
0.127403 -0.404624 0.827344
0.428863 -0.388448 0.827184
0.745975 -0.383261 0.840182
1.05012 -0.394246 0.806551
1.34283 -0.481542 0.776528
1.63077 -0.502819 0.823685
-1.27913 -0.0871946 0.965066
-0.997016 -0.124527 0.892982
-0.711097 -0.0963684 0.820849
-0.427689 -0.0868065 0.761929
-0.148026 -0.103999 0.754371
0.132561 -0.113575 0.773014
0.423182 -0.112287 0.767471
0.740739 -0.113394 0.778755
1.05141 -0.0991245 0.769753
1.35268 -0.162674 0.761355
1.51881 -0.255088 0.952774
-1.28375 0.158604 0.995582
-1.0334 0.171936 0.916489
-0.746142 0.201555 0.843326
-0.463135 0.21515 0.736245
-0.166511 0.199431 0.705989
0.107856 0.203852 0.755319
0.391874 0.173045 0.814229
0.686873 0.139722 0.918991
0.992201 0.120104 0.953576
1.29971 0.136777 0.890331
1.54211 0.0555894 0.98986
-1.30173 0.453989 0.987317
-1.04213 0.461257 0.949238
-0.783133 0.489858 0.849441
-0.499841 0.521805 0.777132
-0.200784 0.517991 0.733624
0.104537 0.509572 0.730832
0.367329 0.448295 0.83994
0.666293 0.420799 0.885589
0.964126 0.402876 0.937817
1.25401 0.43576 0.855419
1.46663 0.33311 1.02633
-1.34898 0.728894 1.05754
-1.09502 0.747668 0.970664
-0.811843 0.781666 0.904291
-0.510861 0.788348 0.870479
-0.202556 0.768685 0.859317
0.0832584 0.724412 0.911987
0.381521 0.705076 0.934162
0.664001 0.699905 0.910303
0.953605 0.699582 0.927187
1.15918 0.725848 0.846239
1.41649 0.636136 1.00924
-1.35977 0.986071 1.0721
-1.10061 1.01964 1.01501
-0.828101 1.04849 0.987462
-0.540489 1.0556 0.943773
-0.249369 1.05589 0.938885
0.0281968 1.03614 0.943215
0.297874 1.00368 0.983957
0.593741 0.986061 0.987486
0.880689 0.989227 0.991829
1.11384 1.04186 0.864704
1.35012 0.925933 0.998613
-1.21307 -0.543628 1.03091
-0.946168 -0.627634 1.07362
-0.649565 -0.632054 1.08662
-0.346276 -0.60656 1.06489
-0.0582016 -0.559112 1.07806
0.234665 -0.543216 1.05061
0.519734 -0.49493 1.04398
0.795601 -0.479793 1.05068
1.07088 -0.509171 1.12641
1.28926 -0.558748 1.11444
1.50767 -0.498612 1.11734
-1.22273 -0.353013 1.18069
-0.95226 -0.366587 1.07565
-0.666076 -0.347666 1.00972
-0.392943 -0.324982 0.971044
-0.0941362 -0.319498 0.941723
0.212282 -0.286134 0.940218
0.506178 -0.272958 0.881049
0.815563 -0.259878 0.847934
1.10533 -0.317288 0.914131
1.37937 -0.368411 0.886896
1.64914 -0.365376 0.997535
-1.24717 -0.0553732 1.18633
-0.988991 -0.0810095 1.05329
-0.694056 -0.0592917 0.983866
-0.39381 -0.0492736 0.924088
-0.101008 -0.0342266 0.901584
0.19627 -0.0151891 0.884359
0.465318 -0.00031325 0.916222
0.760849 -0.00531147 0.976097
1.08287 -0.0256211 0.956875
1.38122 -0.0723411 0.924562
1.68387 -0.0972766 0.965945
-1.25527 0.224224 1.2514
-1.00029 0.208112 1.07964
-0.731798 0.221214 0.987194
-0.431514 0.243819 0.910547
-0.119353 0.255538 0.864182
0.18512 0.270675 0.886851
0.478218 0.278092 0.899027
0.764316 0.249091 0.788752
1.06124 0.262919 0.853251
1.32203 0.176864 0.74404
1.59188 0.0516668 0.698535
-1.27676 0.473505 1.27161
-1.0414 0.518494 1.12392
-0.787214 0.528256 1.01273
-0.503757 0.537739 0.917473
-0.181511 0.525986 0.867221
0.141197 0.578862 0.830017
0.456371 0.570957 0.759968
0.778704 0.527503 0.767583
1.07475 0.521747 0.829728
1.27004 0.449476 0.635212
1.54195 0.360562 0.749423
-1.26796 0.750838 1.30946
-1.04013 0.80528 1.2012
-0.759771 0.821275 1.10314
-0.466793 0.776479 1.08769
-0.178424 0.724027 1.06049
0.105208 0.63206 1.10195
0.410199 0.685573 1.04613
0.729546 0.754643 0.983584
1.03117 0.815175 0.879544
1.18172 0.764251 0.611352
1.42282 0.615123 0.73464
-1.24835 1.0257 1.33194
-1.01943 1.04472 1.25321
-0.766757 1.06885 1.22985
-0.476554 1.056 1.17447
-0.198091 1.03461 1.12564
0.0881671 0.944748 1.0978
0.288576 0.906654 0.84957
0.573763 0.930462 0.772507
0.864842 1.02526 0.757791
1.14996 1.08333 0.682255
1.30392 0.862172 0.742811
-1.08938 -0.342837 0.997218
-0.885748 -0.432709 1.18489
-0.590585 -0.480105 1.21986
-0.298472 -0.442639 1.1694
-0.0105808 -0.384525 1.17737
0.292928 -0.384972 1.20087
0.599235 -0.385869 1.20384
0.910637 -0.404338 1.20801
1.20501 -0.402198 1.16554
1.46538 -0.474787 1.1904
1.53103 -0.299751 1.33355
-1.04925 -0.202253 1.13191
-0.84343 -0.309644 1.28693
-0.588312 -0.258106 1.1576
-0.321399 -0.212141 1.05338
-0.0475716 -0.175554 0.98613
0.248197 -0.172542 1.00556
0.557827 -0.185688 0.99521
0.878236 -0.20873 0.992306
1.19805 -0.245771 1.02273
1.49648 -0.32211 0.950183
1.60605 -0.108635 1.09073
-1.13566 -0.125304 1.42386
-0.922922 -0.0829572 1.28398
-0.662519 -0.00709393 1.19335
-0.378441 0.0522115 1.12827
-0.0911451 0.0846894 1.03627
0.235111 0.105127 0.995437
0.549532 0.109191 0.98166
0.881171 0.0841107 0.960665
1.1357 -0.0492256 0.789248
1.43267 -0.103591 0.755203
1.76216 -0.0643725 0.791254
-1.17427 0.144073 1.49897
-1.02371 0.199852 1.29028
-0.720913 0.251941 1.16155
-0.409388 0.316427 1.09067
-0.111904 0.359945 1.01667
0.193589 0.401088 0.962784
0.51544 0.403304 0.885535
0.850068 0.333834 0.859421
1.14527 0.211802 0.757699
1.38809 0.160156 0.626843
1.59486 0.17419 0.822155
-1.19683 0.446326 1.53611
-1.05356 0.472662 1.33107
-0.823356 0.530777 1.14339
-0.511834 0.603449 1.02796
-0.202885 0.625997 0.920007
0.0816488 0.544803 0.719415
0.372726 0.449932 0.605111
0.716223 0.467725 0.581599
1.0543 0.480624 0.597256
1.38371 0.460511 0.695916
1.43508 0.342483 0.947416
-1.17032 0.73687 1.44331
-0.99415 0.687551 1.44393
-0.718894 0.660474 1.28573
-0.440939 0.621494 1.28073
-0.161656 0.532545 1.225
0.0735503 0.424483 1.02309
0.400332 0.484009 0.914683
0.653703 0.67233 0.805506
0.971895 0.715951 0.782568
1.29464 0.762736 0.780891
1.31054 0.564314 0.919391
-1.05429 0.988374 1.45994
-0.899622 0.922998 1.33793
-0.705616 0.916314 1.43152
-0.418252 0.869463 1.36392
-0.131685 0.843863 1.26676
0.0172112 0.745265 0.978062
0.287269 0.670017 0.921745
0.523906 0.854356 0.990926
0.836457 0.948598 0.958653
1.15422 0.973614 0.929949
1.08257 0.716159 0.841929
-1.0357 -0.0813512 1.10802
-0.796308 -0.195046 1.15882
-0.574405 -0.296079 1.34457
-0.273997 -0.273712 1.30931
0.0339683 -0.219038 1.30404
0.344075 -0.217805 1.28891
0.650602 -0.223597 1.31618
0.939479 -0.257703 1.34164
1.24844 -0.297129 1.35317
1.4665 -0.403099 1.42756
1.72617 -0.440261 1.51493
-0.77137 -0.151901 1.15865
-0.85034 -0.111545 1.39633
-0.563453 -0.0680913 1.27239
-0.300397 -0.069499 1.13814
-0.00211791 -0.0461602 1.07935
0.320662 -0.04193 1.07044
0.619589 -0.0478061 1.08589
0.920198 -0.0701059 1.08654
1.19977 -0.128888 1.11911
1.4187 -0.256837 1.18363
1.73842 -0.297557 1.23808
-0.900125 0.000180412 1.41976
-0.896942 0.0211639 1.14119
-0.653173 0.13739 1.10987
-0.372931 0.194337 1.03234
-0.0891177 0.229043 0.932703
0.230132 0.228894 0.897551
0.563131 0.187621 0.851065
0.877998 0.13446 0.836149
1.17036 0.0433166 0.882711
1.38379 -0.0537351 1.03745
1.63905 -0.271912 0.939104
-1.08382 0.252077 1.5612
-0.92974 0.169082 1.38517
-0.650927 0.247769 1.38101
-0.418325 0.425484 1.24827
-0.100947 0.424486 1.17516
0.213357 0.438808 1.11212
0.536607 0.420741 1.06246
0.855527 0.371529 1.04805
1.18151 0.279645 1.00709
1.49566 0.208888 0.933665
1.40195 -0.0810422 0.864026
-1.11409 0.470815 1.31034
-0.846553 0.441156 1.37804
-0.723818 0.478098 1.19162
-0.558256 0.358302 0.999023
-0.260976 0.358391 0.909853
0.0443557 0.34659 0.833672
0.355931 0.291523 0.788459
0.686126 0.360217 0.765803
1.01283 0.449807 0.790197
1.34291 0.467081 0.829554
1.21164 0.175049 0.809324
-1.02609 0.75522 1.33153
-0.76997 0.704971 1.36545
-0.675048 0.490616 1.47891
-0.426342 0.409281 1.30118
-0.178997 0.355098 1.17911
0.095254 0.274551 1.06643
0.381995 0.384621 1.01963
0.652506 0.513126 0.986028
0.942114 0.612051 0.994757
1.23837 0.691704 0.980899
1.07043 0.466779 0.87981
-0.83543 0.970317 1.35244
-0.711387 0.985124 1.50498
-0.652267 0.752537 1.58572
-0.384792 0.667157 1.49141
-0.11993 0.622285 1.39097
0.0998294 0.551582 1.18632
0.294045 0.604906 1.18064
0.571117 0.704036 1.18204
0.845114 0.814909 1.17882
1.12439 0.890542 1.14196
0.933995 0.657906 1.03607
-1.079 0.0077742 1.36726
-0.869237 -0.147755 1.42327
-0.555587 -0.156545 1.48661
-0.257668 -0.139908 1.50468
0.037696 -0.130522 1.49284
0.338448 -0.114548 1.532
0.637292 -0.116328 1.52973
0.932244 -0.088419 1.53566
1.21404 -0.114774 1.58551
1.45455 -0.16598 1.60058
1.69608 -0.184841 1.6709
-0.923618 -0.134828 1.4116
-0.732775 0.0702416 1.40779
-0.574285 0.10116 1.3186
-0.300318 0.0393895 1.2715
0.00571178 0.0291428 1.237
0.32359 0.0163676 1.26746
0.613314 0.0460404 1.28243
0.91437 0.0511834 1.28878
1.20903 0.0142444 1.32341
1.41443 -0.0492325 1.32022
1.67786 -0.0958679 1.39963
-1.09945 0.0667404 1.25045
-0.842845 0.157347 1.16225
-0.641743 0.323882 1.1129
-0.362811 0.290639 1.07381
-0.0372344 0.24696 1.02585
0.271007 0.153211 0.981785
0.57511 0.106181 0.96669
0.891932 0.100032 0.971935
1.21636 0.0675657 1.03964
1.4824 -0.00194923 1.00494
1.72956 -0.0665421 1.12397
-1.13206 0.293295 1.41692
-0.897307 0.351084 1.35976
-0.606519 0.381263 1.39023
-0.354271 0.286133 1.34651
-0.0764598 0.256114 1.28137
0.225348 0.245859 1.24255
0.523249 0.258434 1.21474
0.815105 0.207335 1.2173
1.12641 0.202018 1.24439
1.46378 0.220653 1.19276
1.40402 -0.0417398 1.20022
-0.954281 0.50302 1.46334
-0.852809 0.520028 1.22096
-0.608788 0.389095 1.06418
-0.502865 0.137064 1.07084
-0.224002 0.119909 0.994054
0.0795643 0.13043 0.942862
0.387329 0.137192 0.936849
0.708375 0.180097 0.917176
1.01104 0.255527 0.917663
1.27663 0.318059 0.942504
1.20759 0.142697 1.03764
-0.868163 0.596172 1.20326
-0.661493 0.741872 1.29724
-0.502039 0.519984 1.31028
-0.473301 0.225662 1.33639
-0.174332 0.194497 1.26813
0.126803 0.164508 1.2081
0.406074 0.24792 1.19967
0.685075 0.323273 1.16448
0.957459 0.429006 1.1608
1.22702 0.503206 1.16188
1.00819 0.367763 1.06362
-0.680593 0.738859 1.30211
-0.736409 0.740534 1.58083
-0.468864 0.672206 1.5645
-0.45948 0.404538 1.59265
-0.161316 0.389277 1.51712
0.105616 0.365392 1.40601
0.358395 0.450181 1.41682
0.622986 0.52796 1.38152
0.892767 0.623711 1.36492
1.16218 0.715338 1.3511
0.966667 0.565919 1.25329
-0.916546 0.028246 1.55275
-0.698636 -0.0799821 1.46516
-0.581545 -0.336343 1.36405
-0.292454 -0.372251 1.40063
0.00323968 -0.400184 1.38705
0.302577 -0.374231 1.41234
0.592018 -0.389836 1.46497
0.881541 -0.385803 1.52777
1.16356 -0.387241 1.60534
1.42702 -0.377281 1.67946
1.70731 -0.411427 1.67885
-0.745563 -0.00828906 1.31738
-0.667066 0.200466 1.41538
-0.644644 -0.0998416 1.21176
-0.346278 -0.20246 1.16969
-0.0396442 -0.236074 1.14726
0.268414 -0.219229 1.19174
0.55392 -0.230147 1.22309
0.852645 -0.245947 1.24988
1.14508 -0.270888 1.31563
1.44451 -0.281712 1.39855
1.68562 -0.332557 1.38853
-0.898476 0.130029 1.19099
-0.850709 0.362451 1.21748
-0.619693 0.173576 1.11176
-0.3433 0.0850024 1.08103
-0.0642446 0.0326289 1.00776
0.239873 -0.0344941 0.975808
0.547402 -0.104364 0.961637
0.866811 -0.127701 0.972497
1.17254 -0.160807 1.03101
1.46756 -0.215602 1.12616
1.61438 -0.29247 1.10258
-0.962972 0.406256 1.24482
-0.80074 0.423288 1.45176
-0.60124 0.175116 1.45244
-0.341888 0.0751184 1.39092
-0.0603399 0.0382578 1.3378
0.224969 0.00892189 1.29899
0.512641 0.00749315 1.26973
0.795475 -0.0266345 1.26736
1.08864 -0.04256 1.28701
1.38985 -0.0419664 1.32346
1.34911 -0.101119 1.01827
-0.755853 0.346491 1.36193
-0.62043 0.547911 1.22441
-0.619994 0.257128 1.17562
-0.479057 -0.0081399 1.16985
-0.176216 -0.0762415 1.09777
0.139695 -0.0780395 1.02298
0.451003 -0.0626883 1.00459
0.767208 -0.00242739 1.00424
1.05886 0.0981205 1.03969
1.31959 0.136352 1.10816
1.08514 0.00616109 1.05082
-0.613057 0.5832 1.29576
-0.649785 0.721645 1.47857
-0.578924 0.405247 1.46872
-0.457576 0.127635 1.46122
-0.170691 -0.00251675 1.38657
0.141878 -0.0340849 1.31935
0.461905 0.0115898 1.31743
0.744919 0.108125 1.29454
1.01185 0.218956 1.30229
1.26705 0.320869 1.33224
1.02203 0.198198 1.27573
-0.657705 0.609569 1.57208
-0.489861 0.812503 1.65965
-0.403318 0.541349 1.68261
-0.399269 0.262381 1.72249
-0.125672 0.185846 1.63011
0.144255 0.146623 1.55579
0.432611 0.181804 1.54518
0.700173 0.287603 1.51774
0.974359 0.400635 1.5125
1.23919 0.513657 1.5095
1.01873 0.397727 1.46111
VERTICES 770 1540
1 0
1 1
1 2
1 3
1 4
1 5
1 6
1 7
1 8
1 9
1 10
1 11
1 12
1 13
1 14
1 15
1 16
1 17
1 18
1 19
1 20
1 21
1 22
1 23
1 24
1 25
1 26
1 27
1 28
1 29
1 30
1 31
1 32
1 33
1 34
1 35
1 36
1 37
1 38
1 39
1 40
1 41
1 42
1 43
1 44
1 45
1 46
1 47
1 48
1 49
1 50
1 51
1 52
1 53
1 54
1 55
1 56
1 57
1 58
1 59
1 60
1 61
1 62
1 63
1 64
1 65
1 66
1 67
1 68
1 69
1 70
1 71
1 72
1 73
1 74
1 75
1 76
1 77
1 78
1 79
1 80
1 81
1 82
1 83
1 84
1 85
1 86
1 87
1 88
1 89
1 90
1 91
1 92
1 93
1 94
1 95
1 96
1 97
1 98
1 99
1 100
1 101
1 102
1 103
1 104
1 105
1 106
1 107
1 108
1 109
1 110
1 111
1 112
1 113
1 114
1 115
1 116
1 117
1 118
1 119
1 120
1 121
1 122
1 123
1 124
1 125
1 126
1 127
1 128
1 129
1 130
1 131
1 132
1 133
1 134
1 135
1 136
1 137
1 138
1 139
1 140
1 141
1 142
1 143
1 144
1 145
1 146
1 147
1 148
1 149
1 150
1 151
1 152
1 153
1 154
1 155
1 156
1 157
1 158
1 159
1 160
1 161
1 162
1 163
1 164
1 165
1 166
1 167
1 168
1 169
1 170
1 171
1 172
1 173
1 174
1 175
1 176
1 177
1 178
1 179
1 180
1 181
1 182
1 183
1 184
1 185
1 186
1 187
1 188
1 189
1 190
1 191
1 192
1 193
1 194
1 195
1 196
1 197
1 198
1 199
1 200
1 201
1 202
1 203
1 204
1 205
1 206
1 207
1 208
1 209
1 210
1 211
1 212
1 213
1 214
1 215
1 216
1 217
1 218
1 219
1 220
1 221
1 222
1 223
1 224
1 225
1 226
1 227
1 228
1 229
1 230
1 231
1 232
1 233
1 234
1 235
1 236
1 237
1 238
1 239
1 240
1 241
1 242
1 243
1 244
1 245
1 246
1 247
1 248
1 249
1 250
1 251
1 252
1 253
1 254
1 255
1 256
1 257
1 258
1 259
1 260
1 261
1 262
1 263
1 264
1 265
1 266
1 267
1 268
1 269
1 270
1 271
1 272
1 273
1 274
1 275
1 276
1 277
1 278
1 279
1 280
1 281
1 282
1 283
1 284
1 285
1 286
1 287
1 288
1 289
1 290
1 291
1 292
1 293
1 294
1 295
1 296
1 297
1 298
1 299
1 300
1 301
1 302
1 303
1 304
1 305
1 306
1 307
1 308
1 309
1 310
1 311
1 312
1 313
1 314
1 315
1 316
1 317
1 318
1 319
1 320
1 321
1 322
1 323
1 324
1 325
1 326
1 327
1 328
1 329
1 330
1 331
1 332
1 333
1 334
1 335
1 336
1 337
1 338
1 339
1 340
1 341
1 342
1 343
1 344
1 345
1 346
1 347
1 348
1 349
1 350
1 351
1 352
1 353
1 354
1 355
1 356
1 357
1 358
1 359
1 360
1 361
1 362
1 363
1 364
1 365
1 366
1 367
1 368
1 369
1 370
1 371
1 372
1 373
1 374
1 375
1 376
1 377
1 378
1 379
1 380
1 381
1 382
1 383
1 384
1 385
1 386
1 387
1 388
1 389
1 390
1 391
1 392
1 393
1 394
1 395
1 396
1 397
1 398
1 399
1 400
1 401
1 402
1 403
1 404
1 405
1 406
1 407
1 408
1 409
1 410
1 411
1 412
1 413
1 414
1 415
1 416
1 417
1 418
1 419
1 420
1 421
1 422
1 423
1 424
1 425
1 426
1 427
1 428
1 429
1 430
1 431
1 432
1 433
1 434
1 435
1 436
1 437
1 438
1 439
1 440
1 441
1 442
1 443
1 444
1 445
1 446
1 447
1 448
1 449
1 450
1 451
1 452
1 453
1 454
1 455
1 456
1 457
1 458
1 459
1 460
1 461
1 462
1 463
1 464
1 465
1 466
1 467
1 468
1 469
1 470
1 471
1 472
1 473
1 474
1 475
1 476
1 477
1 478
1 479
1 480
1 481
1 482
1 483
1 484
1 485
1 486
1 487
1 488
1 489
1 490
1 491
1 492
1 493
1 494
1 495
1 496
1 497
1 498
1 499
1 500
1 501
1 502
1 503
1 504
1 505
1 506
1 507
1 508
1 509
1 510
1 511
1 512
1 513
1 514
1 515
1 516
1 517
1 518
1 519
1 520
1 521
1 522
1 523
1 524
1 525
1 526
1 527
1 528
1 529
1 530
1 531
1 532
1 533
1 534
1 535
1 536
1 537
1 538
1 539
1 540
1 541
1 542
1 543
1 544
1 545
1 546
1 547
1 548
1 549
1 550
1 551
1 552
1 553
1 554
1 555
1 556
1 557
1 558
1 559
1 560
1 561
1 562
1 563
1 564
1 565
1 566
1 567
1 568
1 569
1 570
1 571
1 572
1 573
1 574
1 575
1 576
1 577
1 578
1 579
1 580
1 581
1 582
1 583
1 584
1 585
1 586
1 587
1 588
1 589
1 590
1 591
1 592
1 593
1 594
1 595
1 596
1 597
1 598
1 599
1 600
1 601
1 602
1 603
1 604
1 605
1 606
1 607
1 608
1 609
1 610
1 611
1 612
1 613
1 614
1 615
1 616
1 617
1 618
1 619
1 620
1 621
1 622
1 623
1 624
1 625
1 626
1 627
1 628
1 629
1 630
1 631
1 632
1 633
1 634
1 635
1 636
1 637
1 638
1 639
1 640
1 641
1 642
1 643
1 644
1 645
1 646
1 647
1 648
1 649
1 650
1 651
1 652
1 653
1 654
1 655
1 656
1 657
1 658
1 659
1 660
1 661
1 662
1 663
1 664
1 665
1 666
1 667
1 668
1 669
1 670
1 671
1 672
1 673
1 674
1 675
1 676
1 677
1 678
1 679
1 680
1 681
1 682
1 683
1 684
1 685
1 686
1 687
1 688
1 689
1 690
1 691
1 692
1 693
1 694
1 695
1 696
1 697
1 698
1 699
1 700
1 701
1 702
1 703
1 704
1 705
1 706
1 707
1 708
1 709
1 710
1 711
1 712
1 713
1 714
1 715
1 716
1 717
1 718
1 719
1 720
1 721
1 722
1 723
1 724
1 725
1 726
1 727
1 728
1 729
1 730
1 731
1 732
1 733
1 734
1 735
1 736
1 737
1 738
1 739
1 740
1 741
1 742
1 743
1 744
1 745
1 746
1 747
1 748
1 749
1 750
1 751
1 752
1 753
1 754
1 755
1 756
1 757
1 758
1 759
1 760
1 761
1 762
1 763
1 764
1 765
1 766
1 767
1 768
1 769
LINES 3877 11631
2 0 1
2 0 11
2 0 77
2 0 12
2 0 78
2 0 88
2 1 2
2 1 12
2 1 78
2 1 13
2 1 79
2 1 89
2 2 3
2 2 13
2 2 79
2 2 14
2 2 80
2 2 90
2 3 4
2 3 14
2 3 80
2 3 15
2 3 81
2 3 91
2 4 5
2 4 15
2 4 81
2 4 16
2 4 82
2 4 92
2 5 6
2 5 16
2 5 82
2 5 17
2 5 83
2 5 93
2 6 7
2 6 17
2 6 83
2 6 18
2 6 84
2 6 94
2 7 8
2 7 18
2 7 84
2 7 19
2 7 85
2 7 95
2 8 9
2 8 19
2 8 85
2 8 20
2 8 86
2 8 96
2 9 10
2 9 20
2 9 86
2 9 21
2 9 87
2 9 97
2 10 21
2 10 87
2 10 98
2 11 12
2 11 22
2 11 88
2 11 23
2 11 89
2 11 99
2 12 13
2 12 23
2 12 89
2 12 24
2 12 90
2 12 100
2 13 14
2 13 24
2 13 90
2 13 25
2 13 91
2 13 101
2 14 15
2 14 25
2 14 91
2 14 26
2 14 92
2 14 102
2 15 16
2 15 26
2 15 92
2 15 27
2 15 93
2 15 103
2 16 17
2 16 27
2 16 93
2 16 28
2 16 94
2 16 104
2 17 18
2 17 28
2 17 94
2 17 29
2 17 95
2 17 105
2 18 19
2 18 29
2 18 95
2 18 30
2 18 96
2 18 106
2 19 20
2 19 30
2 19 96
2 19 31
2 19 97
2 19 107
2 20 21
2 20 31
2 20 97
2 20 32
2 20 98
2 20 108
2 21 32
2 21 98
2 21 109
2 22 23
2 22 33
2 22 99
2 22 34
2 22 100
2 22 110
2 23 24
2 23 34
2 23 100
2 23 35
2 23 101
2 23 111
2 24 25
2 24 35
2 24 101
2 24 36
2 24 102
2 24 112
2 25 26
2 25 36
2 25 102
2 25 37
2 25 103
2 25 113
2 26 27
2 26 37
2 26 103
2 26 38
2 26 104
2 26 114
2 27 28
2 27 38
2 27 104
2 27 39
2 27 105
2 27 115
2 28 29
2 28 39
2 28 105
2 28 40
2 28 106
2 28 116
2 29 30
2 29 40
2 29 106
2 29 41
2 29 107
2 29 117
2 30 31
2 30 41
2 30 107
2 30 42
2 30 108
2 30 118
2 31 32
2 31 42
2 31 108
2 31 43
2 31 109
2 31 119
2 32 43
2 32 109
2 32 120
2 33 34
2 33 44
2 33 110
2 33 45
2 33 111
2 33 121
2 34 35
2 34 45
2 34 111
2 34 46
2 34 112
2 34 122
2 35 36
2 35 46
2 35 112
2 35 47
2 35 113
2 35 123
2 36 37
2 36 47
2 36 113
2 36 48
2 36 114
2 36 124
2 37 38
2 37 48
2 37 114
2 37 49
2 37 115
2 37 125
2 38 39
2 38 49
2 38 115
2 38 50
2 38 116
2 38 126
2 39 40
2 39 50
2 39 116
2 39 51
2 39 117
2 39 127
2 40 41
2 40 51
2 40 117
2 40 52
2 40 118
2 40 128
2 41 42
2 41 52
2 41 118
2 41 53
2 41 119
2 41 129
2 42 43
2 42 53
2 42 119
2 42 54
2 42 120
2 42 130
2 43 54
2 43 120
2 43 131
2 44 45
2 44 55
2 44 121
2 44 56
2 44 122
2 44 132
2 45 46
2 45 56
2 45 122
2 45 57
2 45 123
2 45 133
2 46 47
2 46 57
2 46 123
2 46 58
2 46 124
2 46 134
2 47 48
2 47 58
2 47 124
2 47 59
2 47 125
2 47 135
2 48 49
2 48 59
2 48 125
2 48 60
2 48 126
2 48 136
2 49 50
2 49 60
2 49 126
2 49 61
2 49 127
2 49 137
2 50 51
2 50 61
2 50 127
2 50 62
2 50 128
2 50 138
2 51 52
2 51 62
2 51 128
2 51 63
2 51 129
2 51 139
2 52 53
2 52 63
2 52 129
2 52 64
2 52 130
2 52 140
2 53 54
2 53 64
2 53 130
2 53 65
2 53 131
2 53 141
2 54 65
2 54 131
2 54 142
2 55 56
2 55 66
2 55 132
2 55 67
2 55 133
2 55 143
2 56 57
2 56 67
2 56 133
2 56 68
2 56 134
2 56 144
2 57 58
2 57 68
2 57 134
2 57 69
2 57 135
2 57 145
2 58 59
2 58 69
2 58 135
2 58 70
2 58 136
2 58 146
2 59 60
2 59 70
2 59 136
2 59 71
2 59 137
2 59 147
2 60 61
2 60 71
2 60 137
2 60 72
2 60 138
2 60 148
2 61 62
2 61 72
2 61 138
2 61 73
2 61 139
2 61 149
2 62 63
2 62 73
2 62 139
2 62 74
2 62 140
2 62 150
2 63 64
2 63 74
2 63 140
2 63 75
2 63 141
2 63 151
2 64 65
2 64 75
2 64 141
2 64 76
2 64 142
2 64 152
2 65 76
2 65 142
2 65 153
2 66 67
2 66 143
2 66 144
2 67 68
2 67 144
2 67 145
2 68 69
2 68 145
2 68 146
2 69 70
2 69 146
2 69 147
2 70 71
2 70 147
2 70 148
2 71 72
2 71 148
2 71 149
2 72 73
2 72 149
2 72 150
2 73 74
2 73 150
2 73 151
2 74 75
2 74 151
2 74 152
2 75 76
2 75 152
2 75 153
2 76 153
2 77 78
2 77 88
2 77 154
2 77 89
2 77 155
2 77 165
2 78 79
2 78 89
2 78 155
2 78 90
2 78 156
2 78 166
2 79 80
2 79 90
2 79 156
2 79 91
2 79 157
2 79 167
2 80 81
2 80 91
2 80 157
2 80 92
2 80 158
2 80 168
2 81 82
2 81 92
2 81 158
2 81 93
2 81 159
2 81 169
2 82 83
2 82 93
2 82 159
2 82 94
2 82 160
2 82 170
2 83 84
2 83 94
2 83 160
2 83 95
2 83 161
2 83 171
2 84 85
2 84 95
2 84 161
2 84 96
2 84 162
2 84 172
2 85 86
2 85 96
2 85 162
2 85 97
2 85 163
2 85 173
2 86 87
2 86 97
2 86 163
2 86 98
2 86 164
2 86 174
2 87 98
2 87 164
2 87 175
2 88 89
2 88 99
2 88 165
2 88 100
2 88 166
2 88 176
2 89 90
2 89 100
2 89 166
2 89 101
2 89 167
2 89 177
2 90 91
2 90 101
2 90 167
2 90 102
2 90 168
2 90 178
2 91 92
2 91 102
2 91 168
2 91 103
2 91 169
2 91 179
2 92 93
2 92 103
2 92 169
2 92 104
2 92 170
2 92 180
2 93 94
2 93 104
2 93 170
2 93 105
2 93 171
2 93 181
2 94 95
2 94 105
2 94 171
2 94 106
2 94 172
2 94 182
2 95 96
2 95 106
2 95 172
2 95 107
2 95 173
2 95 183
2 96 97
2 96 107
2 96 173
2 96 108
2 96 174
2 96 184
2 97 98
2 97 108
2 97 174
2 97 109
2 97 175
2 97 185
2 98 109
2 98 175
2 98 186
2 99 100
2 99 110
2 99 176
2 99 111
2 99 177
2 99 187
2 100 101
2 100 111
2 100 177
2 100 112
2 100 178
2 100 188
2 101 102
2 101 112
2 101 178
2 101 113
2 101 179
2 101 189
2 102 103
2 102 113
2 102 179
2 102 114
2 102 180
2 102 190
2 103 104
2 103 114
2 103 180
2 103 115
2 103 181
2 103 191
2 104 105
2 104 115
2 104 181
2 104 116
2 104 182
2 104 192
2 105 106
2 105 116
2 105 182
2 105 117
2 105 183
2 105 193
2 106 107
2 106 117
2 106 183
2 106 118
2 106 184
2 106 194
2 107 108
2 107 118
2 107 184
2 107 119
2 107 185
2 107 195
2 108 109
2 108 119
2 108 185
2 108 120
2 108 186
2 108 196
2 109 120
2 109 186
2 109 197
2 110 111
2 110 121
2 110 187
2 110 122
2 110 188
2 110 198
2 111 112
2 111 122
2 111 188
2 111 123
2 111 189
2 111 199
2 112 113
2 112 123
2 112 189
2 112 124
2 112 190
2 112 200
2 113 114
2 113 124
2 113 190
2 113 125
2 113 191
2 113 201
2 114 115
2 114 125
2 114 191
2 114 126
2 114 192
2 114 202
2 115 116
2 115 126
2 115 192
2 115 127
2 115 193
2 115 203
2 116 117
2 116 127
2 116 193
2 116 128
2 116 194
2 116 204
2 117 118
2 117 128
2 117 194
2 117 129
2 117 195
2 117 205
2 118 119
2 118 129
2 118 195
2 118 130
2 118 196
2 118 206
2 119 120
2 119 130
2 119 196
2 119 131
2 119 197
2 119 207
2 120 131
2 120 197
2 120 208
2 121 122
2 121 132
2 121 198
2 121 133
2 121 199
2 121 209
2 122 123
2 122 133
2 122 199
2 122 134
2 122 200
2 122 210
2 123 124
2 123 134
2 123 200
2 123 135
2 123 201
2 123 211
2 124 125
2 124 135
2 124 201
2 124 136
2 124 202
2 124 212
2 125 126
2 125 136
2 125 202
2 125 137
2 125 203
2 125 213
2 126 127
2 126 137
2 126 203
2 126 138
2 126 204
2 126 214
2 127 128
2 127 138
2 127 204
2 127 139
2 127 205
2 127 215
2 128 129
2 128 139
2 128 205
2 128 140
2 128 206
2 128 216
2 129 130
2 129 140
2 129 206
2 129 141
2 129 207
2 129 217
2 130 131
2 130 141
2 130 207
2 130 142
2 130 208
2 130 218
2 131 142
2 131 208
2 131 219
2 132 133
2 132 143
2 132 209
2 132 144
2 132 210
2 132 220
2 133 134
2 133 144
2 133 210
2 133 145
2 133 211
2 133 221
2 134 135
2 134 145
2 134 211
2 134 146
2 134 212
2 134 222
2 135 136
2 135 146
2 135 212
2 135 147
2 135 213
2 135 223
2 136 137
2 136 147
2 136 213
2 136 148
2 136 214
2 136 224
2 137 138
2 137 148
2 137 214
2 137 149
2 137 215
2 137 225
2 138 139
2 138 149
2 138 215
2 138 150
2 138 216
2 138 226
2 139 140
2 139 150
2 139 216
2 139 151
2 139 217
2 139 227
2 140 141
2 140 151
2 140 217
2 140 152
2 140 218
2 140 228
2 141 142
2 141 152
2 141 218
2 141 153
2 141 219
2 141 229
2 142 153
2 142 219
2 142 230
2 143 144
2 143 220
2 143 221
2 144 145
2 144 221
2 144 222
2 145 146
2 145 222
2 145 223
2 146 147
2 146 223
2 146 224
2 147 148
2 147 224
2 147 225
2 148 149
2 148 225
2 148 226
2 149 150
2 149 226
2 149 227
2 150 151
2 150 227
2 150 228
2 151 152
2 151 228
2 151 229
2 152 153
2 152 229
2 152 230
2 153 230
2 154 155
2 154 165
2 154 231
2 154 166
2 154 232
2 154 242
2 155 156
2 155 166
2 155 232
2 155 167
2 155 233
2 155 243
2 156 157
2 156 167
2 156 233
2 156 168
2 156 234
2 156 244
2 157 158
2 157 168
2 157 234
2 157 169
2 157 235
2 157 245
2 158 159
2 158 169
2 158 235
2 158 170
2 158 236
2 158 246
2 159 160
2 159 170
2 159 236
2 159 171
2 159 237
2 159 247
2 160 161
2 160 171
2 160 237
2 160 172
2 160 238
2 160 248
2 161 162
2 161 172
2 161 238
2 161 173
2 161 239
2 161 249
2 162 163
2 162 173
2 162 239
2 162 174
2 162 240
2 162 250
2 163 164
2 163 174
2 163 240
2 163 175
2 163 241
2 163 251
2 164 175
2 164 241
2 164 252
2 165 166
2 165 176
2 165 242
2 165 177
2 165 243
2 165 253
2 166 167
2 166 177
2 166 243
2 166 178
2 166 244
2 166 254
2 167 168
2 167 178
2 167 244
2 167 179
2 167 245
2 167 255
2 168 169
2 168 179
2 168 245
2 168 180
2 168 246
2 168 256
2 169 170
2 169 180
2 169 246
2 169 181
2 169 247
2 169 257
2 170 171
2 170 181
2 170 247
2 170 182
2 170 248
2 170 258
2 171 172
2 171 182
2 171 248
2 171 183
2 171 249
2 171 259
2 172 173
2 172 183
2 172 249
2 172 184
2 172 250
2 172 260
2 173 174
2 173 184
2 173 250
2 173 185
2 173 251
2 173 261
2 174 175
2 174 185
2 174 251
2 174 186
2 174 252
2 174 262
2 175 186
2 175 252
2 175 263
2 176 177
2 176 187
2 176 253
2 176 188
2 176 254
2 176 264
2 177 178
2 177 188
2 177 254
2 177 189
2 177 255
2 177 265
2 178 179
2 178 189
2 178 255
2 178 190
2 178 256
2 178 266
2 179 180
2 179 190
2 179 256
2 179 191
2 179 257
2 179 267
2 180 181
2 180 191
2 180 257
2 180 192
2 180 258
2 180 268
2 181 182
2 181 192
2 181 258
2 181 193
2 181 259
2 181 269
2 182 183
2 182 193
2 182 259
2 182 194
2 182 260
2 182 270
2 183 184
2 183 194
2 183 260
2 183 195
2 183 261
2 183 271
2 184 185
2 184 195
2 184 261
2 184 196
2 184 262
2 184 272
2 185 186
2 185 196
2 185 262
2 185 197
2 185 263
2 185 273
2 186 197
2 186 263
2 186 274
2 187 188
2 187 198
2 187 264
2 187 199
2 187 265
2 187 275
2 188 189
2 188 199
2 188 265
2 188 200
2 188 266
2 188 276
2 189 190
2 189 200
2 189 266
2 189 201
2 189 267
2 189 277
2 190 191
2 190 201
2 190 267
2 190 202
2 190 268
2 190 278
2 191 192
2 191 202
2 191 268
2 191 203
2 191 269
2 191 279
2 192 193
2 192 203
2 192 269
2 192 204
2 192 270
2 192 280
2 193 194
2 193 204
2 193 270
2 193 205
2 193 271
2 193 281
2 194 195
2 194 205
2 194 271
2 194 206
2 194 272
2 194 282
2 195 196
2 195 206
2 195 272
2 195 207
2 195 273
2 195 283
2 196 197
2 196 207
2 196 273
2 196 208
2 196 274
2 196 284
2 197 208
2 197 274
2 197 285
2 198 199
2 198 209
2 198 275
2 198 210
2 198 276
2 198 286
2 199 200
2 199 210
2 199 276
2 199 211
2 199 277
2 199 287
2 200 201
2 200 211
2 200 277
2 200 212
2 200 278
2 200 288
2 201 202
2 201 212
2 201 278
2 201 213
2 201 279
2 201 289
2 202 203
2 202 213
2 202 279
2 202 214
2 202 280
2 202 290
2 203 204
2 203 214
2 203 280
2 203 215
2 203 281
2 203 291
2 204 205
2 204 215
2 204 281
2 204 216
2 204 282
2 204 292
2 205 206
2 205 216
2 205 282
2 205 217
2 205 283
2 205 293
2 206 207
2 206 217
2 206 283
2 206 218
2 206 284
2 206 294
2 207 208
2 207 218
2 207 284
2 207 219
2 207 285
2 207 295
2 208 219
2 208 285
2 208 296
2 209 210
2 209 220
2 209 286
2 209 221
2 209 287
2 209 297
2 210 211
2 210 221
2 210 287
2 210 222
2 210 288
2 210 298
2 211 212
2 211 222
2 211 288
2 211 223
2 211 289
2 211 299
2 212 213
2 212 223
2 212 289
2 212 224
2 212 290
2 212 300
2 213 214
2 213 224
2 213 290
2 213 225
2 213 291
2 213 301
2 214 215
2 214 225
2 214 291
2 214 226
2 214 292
2 214 302
2 215 216
2 215 226
2 215 292
2 215 227
2 215 293
2 215 303
2 216 217
2 216 227
2 216 293
2 216 228
2 216 294
2 216 304
2 217 218
2 217 228
2 217 294
2 217 229
2 217 295
2 217 305
2 218 219
2 218 229
2 218 295
2 218 230
2 218 296
2 218 306
2 219 230
2 219 296
2 219 307
2 220 221
2 220 297
2 220 298
2 221 222
2 221 298
2 221 299
2 222 223
2 222 299
2 222 300
2 223 224
2 223 300
2 223 301
2 224 225
2 224 301
2 224 302
2 225 226
2 225 302
2 225 303
2 226 227
2 226 303
2 226 304
2 227 228
2 227 304
2 227 305
2 228 229
2 228 305
2 228 306
2 229 230
2 229 306
2 229 307
2 230 307
2 231 232
2 231 242
2 231 308
2 231 243
2 231 309
2 231 319
2 232 233
2 232 243
2 232 309
2 232 244
2 232 310
2 232 320
2 233 234
2 233 244
2 233 310
2 233 245
2 233 311
2 233 321
2 234 235
2 234 245
2 234 311
2 234 246
2 234 312
2 234 322
2 235 236
2 235 246
2 235 312
2 235 247
2 235 313
2 235 323
2 236 237
2 236 247
2 236 313
2 236 248
2 236 314
2 236 324
2 237 238
2 237 248
2 237 314
2 237 249
2 237 315
2 237 325
2 238 239
2 238 249
2 238 315
2 238 250
2 238 316
2 238 326
2 239 240
2 239 250
2 239 316
2 239 251
2 239 317
2 239 327
2 240 241
2 240 251
2 240 317
2 240 252
2 240 318
2 240 328
2 241 252
2 241 318
2 241 329
2 242 243
2 242 253
2 242 319
2 242 254
2 242 320
2 242 330
2 243 244
2 243 254
2 243 320
2 243 255
2 243 321
2 243 331
2 244 245
2 244 255
2 244 321
2 244 256
2 244 322
2 244 332
2 245 246
2 245 256
2 245 322
2 245 257
2 245 323
2 245 333
2 246 247
2 246 257
2 246 323
2 246 258
2 246 324
2 246 334
2 247 248
2 247 258
2 247 324
2 247 259
2 247 325
2 247 335
2 248 249
2 248 259
2 248 325
2 248 260
2 248 326
2 248 336
2 249 250
2 249 260
2 249 326
2 249 261
2 249 327
2 249 337
2 250 251
2 250 261
2 250 327
2 250 262
2 250 328
2 250 338
2 251 252
2 251 262
2 251 328
2 251 263
2 251 329
2 251 339
2 252 263
2 252 329
2 252 340
2 253 254
2 253 264
2 253 330
2 253 265
2 253 331
2 253 341
2 254 255
2 254 265
2 254 331
2 254 266
2 254 332
2 254 342
2 255 256
2 255 266
2 255 332
2 255 267
2 255 333
2 255 343
2 256 257
2 256 267
2 256 333
2 256 268
2 256 334
2 256 344
2 257 258
2 257 268
2 257 334
2 257 269
2 257 335
2 257 345
2 258 259
2 258 269
2 258 335
2 258 270
2 258 336
2 258 346
2 259 260
2 259 270
2 259 336
2 259 271
2 259 337
2 259 347
2 260 261
2 260 271
2 260 337
2 260 272
2 260 338
2 260 348
2 261 262
2 261 272
2 261 338
2 261 273
2 261 339
2 261 349
2 262 263
2 262 273
2 262 339
2 262 274
2 262 340
2 262 350
2 263 274
2 263 340
2 263 351
2 264 265
2 264 275
2 264 341
2 264 276
2 264 342
2 264 352
2 265 266
2 265 276
2 265 342
2 265 277
2 265 343
2 265 353
2 266 267
2 266 277
2 266 343
2 266 278
2 266 344
2 266 354
2 267 268
2 267 278
2 267 344
2 267 279
2 267 345
2 267 355
2 268 269
2 268 279
2 268 345
2 268 280
2 268 346
2 268 356
2 269 270
2 269 280
2 269 346
2 269 281
2 269 347
2 269 357
2 270 271
2 270 281
2 270 347
2 270 282
2 270 348
2 270 358
2 271 272
2 271 282
2 271 348
2 271 283
2 271 349
2 271 359
2 272 273
2 272 283
2 272 349
2 272 284
2 272 350
2 272 360
2 273 274
2 273 284
2 273 350
2 273 285
2 273 351
2 273 361
2 274 285
2 274 351
2 274 362
2 275 276
2 275 286
2 275 352
2 275 287
2 275 353
2 275 363
2 276 277
2 276 287
2 276 353
2 276 288
2 276 354
2 276 364
2 277 278
2 277 288
2 277 354
2 277 289
2 277 355
2 277 365
2 278 279
2 278 289
2 278 355
2 278 290
2 278 356
2 278 366
2 279 280
2 279 290
2 279 356
2 279 291
2 279 357
2 279 367
2 280 281
2 280 291
2 280 357
2 280 292
2 280 358
2 280 368
2 281 282
2 281 292
2 281 358
2 281 293
2 281 359
2 281 369
2 282 283
2 282 293
2 282 359
2 282 294
2 282 360
2 282 370
2 283 284
2 283 294
2 283 360
2 283 295
2 283 361
2 283 371
2 284 285
2 284 295
2 284 361
2 284 296
2 284 362
2 284 372
2 285 296
2 285 362
2 285 373
2 286 287
2 286 297
2 286 363
2 286 298
2 286 364
2 286 374
2 287 288
2 287 298
2 287 364
2 287 299
2 287 365
2 287 375
2 288 289
2 288 299
2 288 365
2 288 300
2 288 366
2 288 376
2 289 290
2 289 300
2 289 366
2 289 301
2 289 367
2 289 377
2 290 291
2 290 301
2 290 367
2 290 302
2 290 368
2 290 378
2 291 292
2 291 302
2 291 368
2 291 303
2 291 369
2 291 379
2 292 293
2 292 303
2 292 369
2 292 304
2 292 370
2 292 380
2 293 294
2 293 304
2 293 370
2 293 305
2 293 371
2 293 381
2 294 295
2 294 305
2 294 371
2 294 306
2 294 372
2 294 382
2 295 296
2 295 306
2 295 372
2 295 307
2 295 373
2 295 383
2 296 307
2 296 373
2 296 384
2 297 298
2 297 374
2 297 375
2 298 299
2 298 375
2 298 376
2 299 300
2 299 376
2 299 377
2 300 301
2 300 377
2 300 378
2 301 302
2 301 378
2 301 379
2 302 303
2 302 379
2 302 380
2 303 304
2 303 380
2 303 381
2 304 305
2 304 381
2 304 382
2 305 306
2 305 382
2 305 383
2 306 307
2 306 383
2 306 384
2 307 384
2 308 309
2 308 319
2 308 385
2 308 320
2 308 386
2 308 396
2 309 310
2 309 320
2 309 386
2 309 321
2 309 387
2 309 397
2 310 311
2 310 321
2 310 387
2 310 322
2 310 388
2 310 398
2 311 312
2 311 322
2 311 388
2 311 323
2 311 389
2 311 399
2 312 313
2 312 323
2 312 389
2 312 324
2 312 390
2 312 400
2 313 314
2 313 324
2 313 390
2 313 325
2 313 391
2 313 401
2 314 315
2 314 325
2 314 391
2 314 326
2 314 392
2 314 402
2 315 316
2 315 326
2 315 392
2 315 327
2 315 393
2 315 403
2 316 317
2 316 327
2 316 393
2 316 328
2 316 394
2 316 404
2 317 318
2 317 328
2 317 394
2 317 329
2 317 395
2 317 405
2 318 329
2 318 395
2 318 406
2 319 320
2 319 330
2 319 396
2 319 331
2 319 397
2 319 407
2 320 321
2 320 331
2 320 397
2 320 332
2 320 398
2 320 408
2 321 322
2 321 332
2 321 398
2 321 333
2 321 399
2 321 409
2 322 323
2 322 333
2 322 399
2 322 334
2 322 400
2 322 410
2 323 324
2 323 334
2 323 400
2 323 335
2 323 401
2 323 411
2 324 325
2 324 335
2 324 401
2 324 336
2 324 402
2 324 412
2 325 326
2 325 336
2 325 402
2 325 337
2 325 403
2 325 413
2 326 327
2 326 337
2 326 403
2 326 338
2 326 404
2 326 414
2 327 328
2 327 338
2 327 404
2 327 339
2 327 405
2 327 415
2 328 329
2 328 339
2 328 405
2 328 340
2 328 406
2 328 416
2 329 340
2 329 406
2 329 417
2 330 331
2 330 341
2 330 407
2 330 342
2 330 408
2 330 418
2 331 332
2 331 342
2 331 408
2 331 343
2 331 409
2 331 419
2 332 333
2 332 343
2 332 409
2 332 344
2 332 410
2 332 420
2 333 334
2 333 344
2 333 410
2 333 345
2 333 411
2 333 421
2 334 335
2 334 345
2 334 411
2 334 346
2 334 412
2 334 422
2 335 336
2 335 346
2 335 412
2 335 347
2 335 413
2 335 423
2 336 337
2 336 347
2 336 413
2 336 348
2 336 414
2 336 424
2 337 338
2 337 348
2 337 414
2 337 349
2 337 415
2 337 425
2 338 339
2 338 349
2 338 415
2 338 350
2 338 416
2 338 426
2 339 340
2 339 350
2 339 416
2 339 351
2 339 417
2 339 427
2 340 351
2 340 417
2 340 428
2 341 342
2 341 352
2 341 418
2 341 353
2 341 419
2 341 429
2 342 343
2 342 353
2 342 419
2 342 354
2 342 420
2 342 430
2 343 344
2 343 354
2 343 420
2 343 355
2 343 421
2 343 431
2 344 345
2 344 355
2 344 421
2 344 356
2 344 422
2 344 432
2 345 346
2 345 356
2 345 422
2 345 357
2 345 423
2 345 433
2 346 347
2 346 357
2 346 423
2 346 358
2 346 424
2 346 434
2 347 348
2 347 358
2 347 424
2 347 359
2 347 425
2 347 435
2 348 349
2 348 359
2 348 425
2 348 360
2 348 426
2 348 436
2 349 350
2 349 360
2 349 426
2 349 361
2 349 427
2 349 437
2 350 351
2 350 361
2 350 427
2 350 362
2 350 428
2 350 438
2 351 362
2 351 428
2 351 439
2 352 353
2 352 363
2 352 429
2 352 364
2 352 430
2 352 440
2 353 354
2 353 364
2 353 430
2 353 365
2 353 431
2 353 441
2 354 355
2 354 365
2 354 431
2 354 366
2 354 432
2 354 442
2 355 356
2 355 366
2 355 432
2 355 367
2 355 433
2 355 443
2 356 357
2 356 367
2 356 433
2 356 368
2 356 434
2 356 444
2 357 358
2 357 368
2 357 434
2 357 369
2 357 435
2 357 445
2 358 359
2 358 369
2 358 435
2 358 370
2 358 436
2 358 446
2 359 360
2 359 370
2 359 436
2 359 371
2 359 437
2 359 447
2 360 361
2 360 371
2 360 437
2 360 372
2 360 438
2 360 448
2 361 362
2 361 372
2 361 438
2 361 373
2 361 439
2 361 449
2 362 373
2 362 439
2 362 450
2 363 364
2 363 374
2 363 440
2 363 375
2 363 441
2 363 451
2 364 365
2 364 375
2 364 441
2 364 376
2 364 442
2 364 452
2 365 366
2 365 376
2 365 442
2 365 377
2 365 443
2 365 453
2 366 367
2 366 377
2 366 443
2 366 378
2 366 444
2 366 454
2 367 368
2 367 378
2 367 444
2 367 379
2 367 445
2 367 455
2 368 369
2 368 379
2 368 445
2 368 380
2 368 446
2 368 456
2 369 370
2 369 380
2 369 446
2 369 381
2 369 447
2 369 457
2 370 371
2 370 381
2 370 447
2 370 382
2 370 448
2 370 458
2 371 372
2 371 382
2 371 448
2 371 383
2 371 449
2 371 459
2 372 373
2 372 383
2 372 449
2 372 384
2 372 450
2 372 460
2 373 384
2 373 450
2 373 461
2 374 375
2 374 451
2 374 452
2 375 376
2 375 452
2 375 453
2 376 377
2 376 453
2 376 454
2 377 378
2 377 454
2 377 455
2 378 379
2 378 455
2 378 456
2 379 380
2 379 456
2 379 457
2 380 381
2 380 457
2 380 458
2 381 382
2 381 458
2 381 459
2 382 383
2 382 459
2 382 460
2 383 384
2 383 460
2 383 461
2 384 461
2 385 386
2 385 396
2 385 462
2 385 397
2 385 463
2 385 473
2 386 387
2 386 397
2 386 463
2 386 398
2 386 464
2 386 474
2 387 388
2 387 398
2 387 464
2 387 399
2 387 465
2 387 475
2 388 389
2 388 399
2 388 465
2 388 400
2 388 466
2 388 476
2 389 390
2 389 400
2 389 466
2 389 401
2 389 467
2 389 477
2 390 391
2 390 401
2 390 467
2 390 402
2 390 468
2 390 478
2 391 392
2 391 402
2 391 468
2 391 403
2 391 469
2 391 479
2 392 393
2 392 403
2 392 469
2 392 404
2 392 470
2 392 480
2 393 394
2 393 404
2 393 470
2 393 405
2 393 471
2 393 481
2 394 395
2 394 405
2 394 471
2 394 406
2 394 472
2 394 482
2 395 406
2 395 472
2 395 483
2 396 397
2 396 407
2 396 473
2 396 408
2 396 474
2 396 484
2 397 398
2 397 408
2 397 474
2 397 409
2 397 475
2 397 485
2 398 399
2 398 409
2 398 475
2 398 410
2 398 476
2 398 486
2 399 400
2 399 410
2 399 476
2 399 411
2 399 477
2 399 487
2 400 401
2 400 411
2 400 477
2 400 412
2 400 478
2 400 488
2 401 402
2 401 412
2 401 478
2 401 413
2 401 479
2 401 489
2 402 403
2 402 413
2 402 479
2 402 414
2 402 480
2 402 490
2 403 404
2 403 414
2 403 480
2 403 415
2 403 481
2 403 491
2 404 405
2 404 415
2 404 481
2 404 416
2 404 482
2 404 492
2 405 406
2 405 416
2 405 482
2 405 417
2 405 483
2 405 493
2 406 417
2 406 483
2 406 494
2 407 408
2 407 418
2 407 484
2 407 419
2 407 485
2 407 495
2 408 409
2 408 419
2 408 485
2 408 420
2 408 486
2 408 496
2 409 410
2 409 420
2 409 486
2 409 421
2 409 487
2 409 497
2 410 411
2 410 421
2 410 487
2 410 422
2 410 488
2 410 498
2 411 412
2 411 422
2 411 488
2 411 423
2 411 489
2 411 499
2 412 413
2 412 423
2 412 489
2 412 424
2 412 490
2 412 500
2 413 414
2 413 424
2 413 490
2 413 425
2 413 491
2 413 501
2 414 415
2 414 425
2 414 491
2 414 426
2 414 492
2 414 502
2 415 416
2 415 426
2 415 492
2 415 427
2 415 493
2 415 503
2 416 417
2 416 427
2 416 493
2 416 428
2 416 494
2 416 504
2 417 428
2 417 494
2 417 505
2 418 419
2 418 429
2 418 495
2 418 430
2 418 496
2 418 506
2 419 420
2 419 430
2 419 496
2 419 431
2 419 497
2 419 507
2 420 421
2 420 431
2 420 497
2 420 432
2 420 498
2 420 508
2 421 422
2 421 432
2 421 498
2 421 433
2 421 499
2 421 509
2 422 423
2 422 433
2 422 499
2 422 434
2 422 500
2 422 510
2 423 424
2 423 434
2 423 500
2 423 435
2 423 501
2 423 511
2 424 425
2 424 435
2 424 501
2 424 436
2 424 502
2 424 512
2 425 426
2 425 436
2 425 502
2 425 437
2 425 503
2 425 513
2 426 427
2 426 437
2 426 503
2 426 438
2 426 504
2 426 514
2 427 428
2 427 438
2 427 504
2 427 439
2 427 505
2 427 515
2 428 439
2 428 505
2 428 516
2 429 430
2 429 440
2 429 506
2 429 441
2 429 507
2 429 517
2 430 431
2 430 441
2 430 507
2 430 442
2 430 508
2 430 518
2 431 432
2 431 442
2 431 508
2 431 443
2 431 509
2 431 519
2 432 433
2 432 443
2 432 509
2 432 444
2 432 510
2 432 520
2 433 434
2 433 444
2 433 510
2 433 445
2 433 511
2 433 521
2 434 435
2 434 445
2 434 511
2 434 446
2 434 512
2 434 522
2 435 436
2 435 446
2 435 512
2 435 447
2 435 513
2 435 523
2 436 437
2 436 447
2 436 513
2 436 448
2 436 514
2 436 524
2 437 438
2 437 448
2 437 514
2 437 449
2 437 515
2 437 525
2 438 439
2 438 449
2 438 515
2 438 450
2 438 516
2 438 526
2 439 450
2 439 516
2 439 527
2 440 441
2 440 451
2 440 517
2 440 452
2 440 518
2 440 528
2 441 442
2 441 452
2 441 518
2 441 453
2 441 519
2 441 529
2 442 443
2 442 453
2 442 519
2 442 454
2 442 520
2 442 530
2 443 444
2 443 454
2 443 520
2 443 455
2 443 521
2 443 531
2 444 445
2 444 455
2 444 521
2 444 456
2 444 522
2 444 532
2 445 446
2 445 456
2 445 522
2 445 457
2 445 523
2 445 533
2 446 447
2 446 457
2 446 523
2 446 458
2 446 524
2 446 534
2 447 448
2 447 458
2 447 524
2 447 459
2 447 525
2 447 535
2 448 449
2 448 459
2 448 525
2 448 460
2 448 526
2 448 536
2 449 450
2 449 460
2 449 526
2 449 461
2 449 527
2 449 537
2 450 461
2 450 527
2 450 538
2 451 452
2 451 528
2 451 529
2 452 453
2 452 529
2 452 530
2 453 454
2 453 530
2 453 531
2 454 455
2 454 531
2 454 532
2 455 456
2 455 532
2 455 533
2 456 457
2 456 533
2 456 534
2 457 458
2 457 534
2 457 535
2 458 459
2 458 535
2 458 536
2 459 460
2 459 536
2 459 537
2 460 461
2 460 537
2 460 538
2 461 538
2 462 463
2 462 473
2 462 539
2 462 474
2 462 540
2 462 550
2 463 464
2 463 474
2 463 540
2 463 475
2 463 541
2 463 551
2 464 465
2 464 475
2 464 541
2 464 476
2 464 542
2 464 552
2 465 466
2 465 476
2 465 542
2 465 477
2 465 543
2 465 553
2 466 467
2 466 477
2 466 543
2 466 478
2 466 544
2 466 554
2 467 468
2 467 478
2 467 544
2 467 479
2 467 545
2 467 555
2 468 469
2 468 479
2 468 545
2 468 480
2 468 546
2 468 556
2 469 470
2 469 480
2 469 546
2 469 481
2 469 547
2 469 557
2 470 471
2 470 481
2 470 547
2 470 482
2 470 548
2 470 558
2 471 472
2 471 482
2 471 548
2 471 483
2 471 549
2 471 559
2 472 483
2 472 549
2 472 560
2 473 474
2 473 484
2 473 550
2 473 485
2 473 551
2 473 561
2 474 475
2 474 485
2 474 551
2 474 486
2 474 552
2 474 562
2 475 476
2 475 486
2 475 552
2 475 487
2 475 553
2 475 563
2 476 477
2 476 487
2 476 553
2 476 488
2 476 554
2 476 564
2 477 478
2 477 488
2 477 554
2 477 489
2 477 555
2 477 565
2 478 479
2 478 489
2 478 555
2 478 490
2 478 556
2 478 566
2 479 480
2 479 490
2 479 556
2 479 491
2 479 557
2 479 567
2 480 481
2 480 491
2 480 557
2 480 492
2 480 558
2 480 568
2 481 482
2 481 492
2 481 558
2 481 493
2 481 559
2 481 569
2 482 483
2 482 493
2 482 559
2 482 494
2 482 560
2 482 570
2 483 494
2 483 560
2 483 571
2 484 485
2 484 495
2 484 561
2 484 496
2 484 562
2 484 572
2 485 486
2 485 496
2 485 562
2 485 497
2 485 563
2 485 573
2 486 487
2 486 497
2 486 563
2 486 498
2 486 564
2 486 574
2 487 488
2 487 498
2 487 564
2 487 499
2 487 565
2 487 575
2 488 489
2 488 499
2 488 565
2 488 500
2 488 566
2 488 576
2 489 490
2 489 500
2 489 566
2 489 501
2 489 567
2 489 577
2 490 491
2 490 501
2 490 567
2 490 502
2 490 568
2 490 578
2 491 492
2 491 502
2 491 568
2 491 503
2 491 569
2 491 579
2 492 493
2 492 503
2 492 569
2 492 504
2 492 570
2 492 580
2 493 494
2 493 504
2 493 570
2 493 505
2 493 571
2 493 581
2 494 505
2 494 571
2 494 582
2 495 496
2 495 506
2 495 572
2 495 507
2 495 573
2 495 583
2 496 497
2 496 507
2 496 573
2 496 508
2 496 574
2 496 584
2 497 498
2 497 508
2 497 574
2 497 509
2 497 575
2 497 585
2 498 499
2 498 509
2 498 575
2 498 510
2 498 576
2 498 586
2 499 500
2 499 510
2 499 576
2 499 511
2 499 577
2 499 587
2 500 501
2 500 511
2 500 577
2 500 512
2 500 578
2 500 588
2 501 502
2 501 512
2 501 578
2 501 513
2 501 579
2 501 589
2 502 503
2 502 513
2 502 579
2 502 514
2 502 580
2 502 590
2 503 504
2 503 514
2 503 580
2 503 515
2 503 581
2 503 591
2 504 505
2 504 515
2 504 581
2 504 516
2 504 582
2 504 592
2 505 516
2 505 582
2 505 593
2 506 507
2 506 517
2 506 583
2 506 518
2 506 584
2 506 594
2 507 508
2 507 518
2 507 584
2 507 519
2 507 585
2 507 595
2 508 509
2 508 519
2 508 585
2 508 520
2 508 586
2 508 596
2 509 510
2 509 520
2 509 586
2 509 521
2 509 587
2 509 597
2 510 511
2 510 521
2 510 587
2 510 522
2 510 588
2 510 598
2 511 512
2 511 522
2 511 588
2 511 523
2 511 589
2 511 599
2 512 513
2 512 523
2 512 589
2 512 524
2 512 590
2 512 600
2 513 514
2 513 524
2 513 590
2 513 525
2 513 591
2 513 601
2 514 515
2 514 525
2 514 591
2 514 526
2 514 592
2 514 602
2 515 516
2 515 526
2 515 592
2 515 527
2 515 593
2 515 603
2 516 527
2 516 593
2 516 604
2 517 518
2 517 528
2 517 594
2 517 529
2 517 595
2 517 605
2 518 519
2 518 529
2 518 595
2 518 530
2 518 596
2 518 606
2 519 520
2 519 530
2 519 596
2 519 531
2 519 597
2 519 607
2 520 521
2 520 531
2 520 597
2 520 532
2 520 598
2 520 608
2 521 522
2 521 532
2 521 598
2 521 533
2 521 599
2 521 609
2 522 523
2 522 533
2 522 599
2 522 534
2 522 600
2 522 610
2 523 524
2 523 534
2 523 600
2 523 535
2 523 601
2 523 611
2 524 525
2 524 535
2 524 601
2 524 536
2 524 602
2 524 612
2 525 526
2 525 536
2 525 602
2 525 537
2 525 603
2 525 613
2 526 527
2 526 537
2 526 603
2 526 538
2 526 604
2 526 614
2 527 538
2 527 604
2 527 615
2 528 529
2 528 605
2 528 606
2 529 530
2 529 606
2 529 607
2 530 531
2 530 607
2 530 608
2 531 532
2 531 608
2 531 609
2 532 533
2 532 609
2 532 610
2 533 534
2 533 610
2 533 611
2 534 535
2 534 611
2 534 612
2 535 536
2 535 612
2 535 613
2 536 537
2 536 613
2 536 614
2 537 538
2 537 614
2 537 615
2 538 615
2 539 540
2 539 550
2 539 616
2 539 551
2 539 617
2 539 627
2 540 541
2 540 551
2 540 617
2 540 552
2 540 618
2 540 628
2 541 542
2 541 552
2 541 618
2 541 553
2 541 619
2 541 629
2 542 543
2 542 553
2 542 619
2 542 554
2 542 620
2 542 630
2 543 544
2 543 554
2 543 620
2 543 555
2 543 621
2 543 631
2 544 545
2 544 555
2 544 621
2 544 556
2 544 622
2 544 632
2 545 546
2 545 556
2 545 622
2 545 557
2 545 623
2 545 633
2 546 547
2 546 557
2 546 623
2 546 558
2 546 624
2 546 634
2 547 548
2 547 558
2 547 624
2 547 559
2 547 625
2 547 635
2 548 549
2 548 559
2 548 625
2 548 560
2 548 626
2 548 636
2 549 560
2 549 626
2 549 637
2 550 551
2 550 561
2 550 627
2 550 562
2 550 628
2 550 638
2 551 552
2 551 562
2 551 628
2 551 563
2 551 629
2 551 639
2 552 553
2 552 563
2 552 629
2 552 564
2 552 630
2 552 640
2 553 554
2 553 564
2 553 630
2 553 565
2 553 631
2 553 641
2 554 555
2 554 565
2 554 631
2 554 566
2 554 632
2 554 642
2 555 556
2 555 566
2 555 632
2 555 567
2 555 633
2 555 643
2 556 557
2 556 567
2 556 633
2 556 568
2 556 634
2 556 644
2 557 558
2 557 568
2 557 634
2 557 569
2 557 635
2 557 645
2 558 559
2 558 569
2 558 635
2 558 570
2 558 636
2 558 646
2 559 560
2 559 570
2 559 636
2 559 571
2 559 637
2 559 647
2 560 571
2 560 637
2 560 648
2 561 562
2 561 572
2 561 638
2 561 573
2 561 639
2 561 649
2 562 563
2 562 573
2 562 639
2 562 574
2 562 640
2 562 650
2 563 564
2 563 574
2 563 640
2 563 575
2 563 641
2 563 651
2 564 565
2 564 575
2 564 641
2 564 576
2 564 642
2 564 652
2 565 566
2 565 576
2 565 642
2 565 577
2 565 643
2 565 653
2 566 567
2 566 577
2 566 643
2 566 578
2 566 644
2 566 654
2 567 568
2 567 578
2 567 644
2 567 579
2 567 645
2 567 655
2 568 569
2 568 579
2 568 645
2 568 580
2 568 646
2 568 656
2 569 570
2 569 580
2 569 646
2 569 581
2 569 647
2 569 657
2 570 571
2 570 581
2 570 647
2 570 582
2 570 648
2 570 658
2 571 582
2 571 648
2 571 659
2 572 573
2 572 583
2 572 649
2 572 584
2 572 650
2 572 660
2 573 574
2 573 584
2 573 650
2 573 585
2 573 651
2 573 661
2 574 575
2 574 585
2 574 651
2 574 586
2 574 652
2 574 662
2 575 576
2 575 586
2 575 652
2 575 587
2 575 653
2 575 663
2 576 577
2 576 587
2 576 653
2 576 588
2 576 654
2 576 664
2 577 578
2 577 588
2 577 654
2 577 589
2 577 655
2 577 665
2 578 579
2 578 589
2 578 655
2 578 590
2 578 656
2 578 666
2 579 580
2 579 590
2 579 656
2 579 591
2 579 657
2 579 667
2 580 581
2 580 591
2 580 657
2 580 592
2 580 658
2 580 668
2 581 582
2 581 592
2 581 658
2 581 593
2 581 659
2 581 669
2 582 593
2 582 659
2 582 670
2 583 584
2 583 594
2 583 660
2 583 595
2 583 661
2 583 671
2 584 585
2 584 595
2 584 661
2 584 596
2 584 662
2 584 672
2 585 586
2 585 596
2 585 662
2 585 597
2 585 663
2 585 673
2 586 587
2 586 597
2 586 663
2 586 598
2 586 664
2 586 674
2 587 588
2 587 598
2 587 664
2 587 599
2 587 665
2 587 675
2 588 589
2 588 599
2 588 665
2 588 600
2 588 666
2 588 676
2 589 590
2 589 600
2 589 666
2 589 601
2 589 667
2 589 677
2 590 591
2 590 601
2 590 667
2 590 602
2 590 668
2 590 678
2 591 592
2 591 602
2 591 668
2 591 603
2 591 669
2 591 679
2 592 593
2 592 603
2 592 669
2 592 604
2 592 670
2 592 680
2 593 604
2 593 670
2 593 681
2 594 595
2 594 605
2 594 671
2 594 606
2 594 672
2 594 682
2 595 596
2 595 606
2 595 672
2 595 607
2 595 673
2 595 683
2 596 597
2 596 607
2 596 673
2 596 608
2 596 674
2 596 684
2 597 598
2 597 608
2 597 674
2 597 609
2 597 675
2 597 685
2 598 599
2 598 609
2 598 675
2 598 610
2 598 676
2 598 686
2 599 600
2 599 610
2 599 676
2 599 611
2 599 677
2 599 687
2 600 601
2 600 611
2 600 677
2 600 612
2 600 678
2 600 688
2 601 602
2 601 612
2 601 678
2 601 613
2 601 679
2 601 689
2 602 603
2 602 613
2 602 679
2 602 614
2 602 680
2 602 690
2 603 604
2 603 614
2 603 680
2 603 615
2 603 681
2 603 691
2 604 615
2 604 681
2 604 692
2 605 606
2 605 682
2 605 683
2 606 607
2 606 683
2 606 684
2 607 608
2 607 684
2 607 685
2 608 609
2 608 685
2 608 686
2 609 610
2 609 686
2 609 687
2 610 611
2 610 687
2 610 688
2 611 612
2 611 688
2 611 689
2 612 613
2 612 689
2 612 690
2 613 614
2 613 690
2 613 691
2 614 615
2 614 691
2 614 692
2 615 692
2 616 617
2 616 627
2 616 693
2 616 628
2 616 694
2 616 704
2 617 618
2 617 628
2 617 694
2 617 629
2 617 695
2 617 705
2 618 619
2 618 629
2 618 695
2 618 630
2 618 696
2 618 706
2 619 620
2 619 630
2 619 696
2 619 631
2 619 697
2 619 707
2 620 621
2 620 631
2 620 697
2 620 632
2 620 698
2 620 708
2 621 622
2 621 632
2 621 698
2 621 633
2 621 699
2 621 709
2 622 623
2 622 633
2 622 699
2 622 634
2 622 700
2 622 710
2 623 624
2 623 634
2 623 700
2 623 635
2 623 701
2 623 711
2 624 625
2 624 635
2 624 701
2 624 636
2 624 702
2 624 712
2 625 626
2 625 636
2 625 702
2 625 637
2 625 703
2 625 713
2 626 637
2 626 703
2 626 714
2 627 628
2 627 638
2 627 704
2 627 639
2 627 705
2 627 715
2 628 629
2 628 639
2 628 705
2 628 640
2 628 706
2 628 716
2 629 630
2 629 640
2 629 706
2 629 641
2 629 707
2 629 717
2 630 631
2 630 641
2 630 707
2 630 642
2 630 708
2 630 718
2 631 632
2 631 642
2 631 708
2 631 643
2 631 709
2 631 719
2 632 633
2 632 643
2 632 709
2 632 644
2 632 710
2 632 720
2 633 634
2 633 644
2 633 710
2 633 645
2 633 711
2 633 721
2 634 635
2 634 645
2 634 711
2 634 646
2 634 712
2 634 722
2 635 636
2 635 646
2 635 712
2 635 647
2 635 713
2 635 723
2 636 637
2 636 647
2 636 713
2 636 648
2 636 714
2 636 724
2 637 648
2 637 714
2 637 725
2 638 639
2 638 649
2 638 715
2 638 650
2 638 716
2 638 726
2 639 640
2 639 650
2 639 716
2 639 651
2 639 717
2 639 727
2 640 641
2 640 651
2 640 717
2 640 652
2 640 718
2 640 728
2 641 642
2 641 652
2 641 718
2 641 653
2 641 719
2 641 729
2 642 643
2 642 653
2 642 719
2 642 654
2 642 720
2 642 730
2 643 644
2 643 654
2 643 720
2 643 655
2 643 721
2 643 731
2 644 645
2 644 655
2 644 721
2 644 656
2 644 722
2 644 732
2 645 646
2 645 656
2 645 722
2 645 657
2 645 723
2 645 733
2 646 647
2 646 657
2 646 723
2 646 658
2 646 724
2 646 734
2 647 648
2 647 658
2 647 724
2 647 659
2 647 725
2 647 735
2 648 659
2 648 725
2 648 736
2 649 650
2 649 660
2 649 726
2 649 661
2 649 727
2 649 737
2 650 651
2 650 661
2 650 727
2 650 662
2 650 728
2 650 738
2 651 652
2 651 662
2 651 728
2 651 663
2 651 729
2 651 739
2 652 653
2 652 663
2 652 729
2 652 664
2 652 730
2 652 740
2 653 654
2 653 664
2 653 730
2 653 665
2 653 731
2 653 741
2 654 655
2 654 665
2 654 731
2 654 666
2 654 732
2 654 742
2 655 656
2 655 666
2 655 732
2 655 667
2 655 733
2 655 743
2 656 657
2 656 667
2 656 733
2 656 668
2 656 734
2 656 744
2 657 658
2 657 668
2 657 734
2 657 669
2 657 735
2 657 745
2 658 659
2 658 669
2 658 735
2 658 670
2 658 736
2 658 746
2 659 670
2 659 736
2 659 747
2 660 661
2 660 671
2 660 737
2 660 672
2 660 738
2 660 748
2 661 662
2 661 672
2 661 738
2 661 673
2 661 739
2 661 749
2 662 663
2 662 673
2 662 739
2 662 674
2 662 740
2 662 750
2 663 664
2 663 674
2 663 740
2 663 675
2 663 741
2 663 751
2 664 665
2 664 675
2 664 741
2 664 676
2 664 742
2 664 752
2 665 666
2 665 676
2 665 742
2 665 677
2 665 743
2 665 753
2 666 667
2 666 677
2 666 743
2 666 678
2 666 744
2 666 754
2 667 668
2 667 678
2 667 744
2 667 679
2 667 745
2 667 755
2 668 669
2 668 679
2 668 745
2 668 680
2 668 746
2 668 756
2 669 670
2 669 680
2 669 746
2 669 681
2 669 747
2 669 757
2 670 681
2 670 747
2 670 758
2 671 672
2 671 682
2 671 748
2 671 683
2 671 749
2 671 759
2 672 673
2 672 683
2 672 749
2 672 684
2 672 750
2 672 760
2 673 674
2 673 684
2 673 750
2 673 685
2 673 751
2 673 761
2 674 675
2 674 685
2 674 751
2 674 686
2 674 752
2 674 762
2 675 676
2 675 686
2 675 752
2 675 687
2 675 753
2 675 763
2 676 677
2 676 687
2 676 753
2 676 688
2 676 754
2 676 764
2 677 678
2 677 688
2 677 754
2 677 689
2 677 755
2 677 765
2 678 679
2 678 689
2 678 755
2 678 690
2 678 756
2 678 766
2 679 680
2 679 690
2 679 756
2 679 691
2 679 757
2 679 767
2 680 681
2 680 691
2 680 757
2 680 692
2 680 758
2 680 768
2 681 692
2 681 758
2 681 769
2 682 683
2 682 759
2 682 760
2 683 684
2 683 760
2 683 761
2 684 685
2 684 761
2 684 762
2 685 686
2 685 762
2 685 763
2 686 687
2 686 763
2 686 764
2 687 688
2 687 764
2 687 765
2 688 689
2 688 765
2 688 766
2 689 690
2 689 766
2 689 767
2 690 691
2 690 767
2 690 768
2 691 692
2 691 768
2 691 769
2 692 769
2 693 694
2 693 704
2 693 705
2 694 695
2 694 705
2 694 706
2 695 696
2 695 706
2 695 707
2 696 697
2 696 707
2 696 708
2 697 698
2 697 708
2 697 709
2 698 699
2 698 709
2 698 710
2 699 700
2 699 710
2 699 711
2 700 701
2 700 711
2 700 712
2 701 702
2 701 712
2 701 713
2 702 703
2 702 713
2 702 714
2 703 714
2 704 705
2 704 715
2 704 716
2 705 706
2 705 716
2 705 717
2 706 707
2 706 717
2 706 718
2 707 708
2 707 718
2 707 719
2 708 709
2 708 719
2 708 720
2 709 710
2 709 720
2 709 721
2 710 711
2 710 721
2 710 722
2 711 712
2 711 722
2 711 723
2 712 713
2 712 723
2 712 724
2 713 714
2 713 724
2 713 725
2 714 725
2 715 716
2 715 726
2 715 727
2 716 717
2 716 727
2 716 728
2 717 718
2 717 728
2 717 729
2 718 719
2 718 729
2 718 730
2 719 720
2 719 730
2 719 731
2 720 721
2 720 731
2 720 732
2 721 722
2 721 732
2 721 733
2 722 723
2 722 733
2 722 734
2 723 724
2 723 734
2 723 735
2 724 725
2 724 735
2 724 736
2 725 736
2 726 727
2 726 737
2 726 738
2 727 728
2 727 738
2 727 739
2 728 729
2 728 739
2 728 740
2 729 730
2 729 740
2 729 741
2 730 731
2 730 741
2 730 742
2 731 732
2 731 742
2 731 743
2 732 733
2 732 743
2 732 744
2 733 734
2 733 744
2 733 745
2 734 735
2 734 745
2 734 746
2 735 736
2 735 746
2 735 747
2 736 747
2 737 738
2 737 748
2 737 749
2 738 739
2 738 749
2 738 750
2 739 740
2 739 750
2 739 751
2 740 741
2 740 751
2 740 752
2 741 742
2 741 752
2 741 753
2 742 743
2 742 753
2 742 754
2 743 744
2 743 754
2 743 755
2 744 745
2 744 755
2 744 756
2 745 746
2 745 756
2 745 757
2 746 747
2 746 757
2 746 758
2 747 758
2 748 749
2 748 759
2 748 760
2 749 750
2 749 760
2 749 761
2 750 751
2 750 761
2 750 762
2 751 752
2 751 762
2 751 763
2 752 753
2 752 763
2 752 764
2 753 754
2 753 764
2 753 765
2 754 755
2 754 765
2 754 766
2 755 756
2 755 766
2 755 767
2 756 757
2 756 767
2 756 768
2 757 758
2 757 768
2 757 769
2 758 769
2 759 760
2 760 761
2 761 762
2 762 763
2 763 764
2 764 765
2 765 766
2 766 767
2 767 768
2 768 769
POINT_DATA 770
SCALARS fixed float 1
LOOKUP_TABLE default
1
1
1
1
1
1
1
1
1
1
1
1
1
1
1
1
1
1
1
1
1
1
1
1
1
1
1
1
1
1
1
1
1
1
1
1
1
1
1
1
1
1
1
1
1
1
1
1
1
1
1
1
1
1
1
1
1
1
1
1
1
1
1
1
1
1
1
1
1
1
1
1
1
1
1
1
1
0
0
0
0
0
0
0
0
0
0
0
0
0
0
0
0
0
0
0
0
0
0
0
0
0
0
0
0
0
0
0
0
0
0
0
0
0
0
0
0
0
0
0
0
0
0
0
0
0
0
0
0
0
0
0
0
0
0
0
0
0
0
0
0
0
0
0
0
0
0
0
0
0
0
0
0
0
0
0
0
0
0
0
0
0
0
0
0
0
0
0
0
0
0
0
0
0
0
0
0
0
0
0
0
0
0
0
0
0
0
0
0
0
0
0
0
0
0
0
0
0
0
0
0
0
0
0
0
0
0
0
0
0
0
0
0
0
0
0
0
0
0
0
0
0
0
0
0
0
0
0
0
0
0
0
0
0
0
0
0
0
0
0
0
0
0
0
0
0
0
0
0
0
0
0
0
0
0
0
0
0
0
0
0
0
0
0
0
0
0
0
0
0
0
0
0
0
0
0
0
0
0
0
0
0
0
0
0
0
0
0
0
0
0
0
0
0
0
0
0
0
0
0
0
0
0
0
0
0
0
0
0
0
0
0
0
0
0
0
0
0
0
0
0
0
0
0
0
0
0
0
0
0
0
0
0
0
0
0
0
0
0
0
0
0
0
0
0
0
0
0
0
0
0
0
0
0
0
0
0
0
0
0
0
0
0
0
0
0
0
0
0
0
0
0
0
0
0
0
0
0
0
0
0
0
0
0
0
0
0
0
0
0
0
0
0
0
0
0
0
0
0
0
0
0
0
0
0
0
0
0
0
0
0
0
0
0
0
0
0
0
0
0
0
0
0
0
0
0
0
0
0
0
0
0
0
0
0
0
0
0
0
0
0
0
0
0
0
0
0
0
0
0
0
0
0
0
0
0
0
0
0
0
0
0
0
0
0
0
0
0
0
0
0
0
0
0
0
0
0
0
0
0
0
0
0
0
0
0
0
0
0
0
0
0
0
0
0
0
0
0
0
0
0
0
0
0
0
0
0
0
0
0
0
0
0
0
0
0
0
0
0
0
0
0
0
0
0
0
0
0
0
0
0
0
0
0
0
0
0
0
0
0
0
0
0
0
0
0
0
0
0
0
0
0
0
0
0
0
0
0
0
0
0
0
0
0
0
0
0
0
0
0
0
0
0
0
0
0
0
0
0
0
0
0
0
0
0
0
0
0
0
0
0
0
0
0
0
0
0
0
0
0
0
0
0
0
0
0
0
0
0
0
0
0
0
0
0
0
0
0
0
0
0
0
0
0
0
0
0
0
0
0
0
0
0
0
0
0
0
0
0
0
0
0
0
0
0
0
0
0
0
0
0
0
0
0
0
0
0
0
0
0
0
0
0
0
0
0
0
0
0
0
0
0
0
0
0
0
0
0
0
0
0
0
0
0
0
0
0
0
0
0
0
0
0
0
0
0
0
0
0
0
0
0
0
0
0
0
0
0
0
0
0
0
0
0
0
0
0
0
0
0
0
0
0
0
0
0
0
0
0
0
0
0
0
0
0
0
0
0
0
0
0
0
0
0
0
0
0
0
0
0
0
0
0
0
0
0
0
0
0
0
0
0
0
0
0
0
0
0
0
0
SCALARS displacement float 1
LOOKUP_TABLE default
0
0
0
0
0
0
0
0
0
0
0
0
0
0
0
0
0
0
0
0
0
0
0
0
0
0
0
0
0
0
0
0
0
0
0
0
0
0
0
0
0
0
0
0
0
0
0
0
0
0
0
0
0
0
0
0
0
0
0
0
0
0
0
0
0
0
0
0
0
0
0
0
0
0
0
0
0
0.0608656
0.0626793
0.0563171
0.026975
0.0425311
0.0252086
0.0423648
0.048589
0.0605152
0.0495221
0.0487348
0.0491242
0.0470683
0.0689
0.07732
0.0482469
0.0651263
0.0446142
0.0270331
0.0193781
0.038531
0.0269934
0.0312935
0.054268
0.062763
0.0758141
0.0879529
0.0772385
0.0732261
0.0541815
0.0305004
0.0270367
0.0233897
0.0371895
0.0836418
0.0733932
0.0769312
0.0775751
0.0593724
0.0431226
0.0391843
0.0280294
0.0131495
0.0280056
0.0473862
0.0662409
0.0685161
0.0564696
0.0504248
0.0331041
0.0434994
0.0316636
0.0249382
0.031844
0.0358158
0.0519832
0.0673607
0.0713105
0.0518231
0.046891
0.044739
0.0408194
0.0339561
0.0296426
0.0353077
0.0708248
0.0424192
0.0621095
0.0706555
0.0690331
0.0701378
0.0596753
0.0568478
0.0554514
0.0569277
0.045743
0.0831244
0.139628
0.144254
0.136493
0.10941
0.112064
0.09843
0.103851
0.0957789
0.114025
0.152234
0.134207
0.101298
0.139417
0.148971
0.156085
0.161259
0.145206
0.142216
0.128116
0.136061
0.179027
0.125173
0.0703353
0.105325
0.182256
0.197123
0.184997
0.17626
0.174606
0.149287
0.139175
0.137589
0.104044
0.0537742
0.090894
0.164367
0.178488
0.192023
0.164545
0.136912
0.11448
0.113866
0.122446
0.106697
0.0421299
0.0845042
0.107743
0.132301
0.161787
0.144074
0.127486
0.122596
0.104003
0.102468
0.123386
0.0411033
0.0578303
0.113325
0.109291
0.118777
0.125166
0.129872
0.135806
0.111688
0.104156
0.138811
0.0508191
0.0653582
0.102269
0.116
0.12506
0.120455
0.127302
0.134558
0.122195
0.105212
0.154106
0.246637
0.233085
0.259549
0.260043
0.250541
0.262272
0.226961
0.20937
0.258294
0.261484
0.209161
0.220491
0.231269
0.28546
0.296575
0.320913
0.307614
0.281312
0.239365
0.25641
0.313752
0.227639
0.188377
0.230711
0.289563
0.334675
0.335863
0.34609
0.314194
0.241583
0.261485
0.287925
0.245914
0.171247
0.223511
0.29009
0.354007
0.311789
0.305187
0.296065
0.23872
0.233578
0.25136
0.2081
0.158336
0.176591
0.248658
0.292541
0.286141
0.264266
0.271928
0.253758
0.236742
0.234138
0.159623
0.111651
0.154544
0.176933
0.222974
0.219486
0.219436
0.22335
0.219063
0.201218
0.225179
0.163552
0.110973
0.147503
0.170558
0.209507
0.223114
0.22133
0.199513
0.169291
0.173439
0.195656
0.187398
0.605294
0.447568
0.431761
0.414608
0.390674
0.390465
0.414839
0.383791
0.395606
0.325293
0.272402
0.409819
0.405908
0.464816
0.476302
0.46483
0.439631
0.447607
0.444695
0.468692
0.462343
0.410071
0.386344
0.407742
0.470006
0.516768
0.509998
0.484401
0.48733
0.481744
0.498387
0.484333
0.251975
0.337204
0.371072
0.437622
0.529236
0.549217
0.500929
0.432672
0.32563
0.289225
0.352909
0.22141
0.329025
0.337358
0.415446
0.4879
0.524281
0.524373
0.395181
0.34328
0.288852
0.374278
0.179919
0.244366
0.29227
0.358076
0.389878
0.392447
0.324595
0.297248
0.313052
0.295325
0.377691
0.211349
0.208399
0.241692
0.269055
0.305624
0.308295
0.292006
0.239642
0.229364
0.227309
0.374129
0.252375
0.655267
0.566049
0.552624
0.582929
0.593892
0.619932
0.648317
0.645537
0.567025
0.522564
0.554614
0.489733
0.543992
0.598971
0.631112
0.657825
0.675967
0.729771
0.766382
0.682149
0.679488
0.57425
0.471332
0.540398
0.605597
0.661099
0.68435
0.706154
0.676712
0.622245
0.635382
0.644824
0.600099
0.414696
0.509803
0.583265
0.659765
0.708659
0.695331
0.685759
0.77131
0.716526
0.785905
0.808367
0.363456
0.462953
0.549775
0.63649
0.682289
0.739309
0.803441
0.787482
0.727305
0.880402
0.754184
0.336005
0.396207
0.475522
0.467855
0.47258
0.412963
0.474832
0.554421
0.669681
0.903885
0.76939
0.327676
0.338311
0.345315
0.381501
0.410669
0.414176
0.650564
0.728603
0.753526
0.839537
0.783078
1.05995
0.833954
0.780134
0.835318
0.85857
0.842627
0.842186
0.832239
0.862195
0.789207
0.760813
0.898736
0.688975
0.791652
0.886282
0.951976
0.935656
0.941178
0.939615
0.904691
0.941974
0.869335
0.552032
0.624622
0.714295
0.790165
0.880281
0.930982
0.948358
0.964925
1.06774
1.08826
1.06856
0.466346
0.575181
0.709345
0.799752
0.882356
0.948303
1.02241
1.02892
1.09152
1.19888
0.997757
0.427746
0.520726
0.700196
0.834205
0.943448
1.11097
1.20645
1.23537
1.22598
1.13071
0.856106
0.504631
0.420505
0.548573
0.543508
0.595247
0.799882
0.898502
0.998566
1.02654
1.03635
0.901467
0.567546
0.551605
0.416924
0.473427
0.561981
0.836553
0.907957
0.813925
0.845142
0.874359
1.0611
1.3674
1.24328
1.02049
1.06005
1.09945
1.11429
1.09308
1.05019
1.02109
0.877562
0.777701
1.27194
0.925206
1.03977
1.13858
1.19883
1.21419
1.19812
1.18761
1.1287
1.00266
0.944048
0.955346
1.0556
1.11022
1.19826
1.29882
1.33363
1.36633
1.36505
1.29335
1.1061
1.16953
0.72599
0.782698
0.800229
0.969271
1.03689
1.10181
1.14433
1.14452
1.16271
1.22122
1.2425
0.895363
0.816138
0.94229
1.10331
1.19222
1.26796
1.31276
1.33833
1.32316
1.28933
1.32839
0.916095
0.857619
0.669572
0.839435
0.96055
1.08778
1.10468
1.11859
1.10611
1.12351
1.30044
1.00272
0.774618
0.589573
0.686228
0.782482
0.982939
0.965575
0.939084
0.926725
0.961069
1.22919
1.438
1.27643
1.22704
1.22333
1.23656
1.21857
1.21872
1.23132
1.17413
1.11474
1.03995
1.23512
1.2853
1.32934
1.33122
1.35715
1.32938
1.32834
1.32578
1.27744
1.23095
1.13425
1.27138
1.36702
1.45346
1.47102
1.50216
1.51333
1.51494
1.5115
1.44422
1.45423
1.31736
1.08989
1.13885
1.11854
1.11897
1.16914
1.20454
1.23348
1.21985
1.19479
1.25527
1.20433
1.10289
1.24863
1.37009
1.34262
1.41947
1.46913
1.47477
1.49161
1.48715
1.45962
1.40224
1.3533
1.23539
1.16287
1.13466
1.20886
1.27529
1.25539
1.26898
1.25226
1.24219
1.44282
1.37941
0.954665
0.96738
0.957623
1.02934
1.13357
1.08277
1.08455
1.07134
1.0657
1.30805
1.5869
1.56481
1.48455
1.43578
1.43722
1.4234
1.36779
1.31064
1.2372
1.16888
1.15083
1.68254
1.60468
1.59067
1.60133
1.61593
1.57857
1.54354
1.51395
1.4439
1.36194
1.35127
1.68043
1.66093
1.68088
1.6838
1.74066
1.76093
1.76674
1.75646
1.69681
1.59865
1.60152
1.60343
1.3772
1.29473
1.3364
1.38365
1.41898
1.44601
1.44616
1.42616
1.3902
1.69151
1.53178
1.6046
1.55048
1.56555
1.65047
1.72477
1.74033
1.73061
1.68006
1.60469
1.72576
1.66098
1.34515
1.28727
1.33341
1.45081
1.52591
1.51127
1.49608
1.45303
1.39756
1.55513
1.43736
1.26265
1.1876
1.18422
1.2981
1.37754
1.36638
1.33522
1.29037
1.25223
1.42083
SCALARS speed float 1
LOOKUP_TABLE default
0
0
0
0
0
0
0
0
0
0
0
0
0
0
0
0
0
0
0
0
0
0
0
0
0
0
0
0
0
0
0
0
0
0
0
0
0
0
0
0
0
0
0
0
0
0
0
0
0
0
0
0
0
0
0
0
0
0
0
0
0
0
0
0
0
0
0
0
0
0
0
0
0
0
0
0
0
0.0687927
0.0566626
0.0809859
0.100219
0.0633017
0.0622947
0.0419387
0.0436385
0.0619434
0.0953473
0.11037
0.0527039
0.0477315
0.0557803
0.0712186
0.0701013
0.0570472
0.0414204
0.0275325
0.0426308
0.0777225
0.101292
0.0519427
0.0291615
0.0417994
0.0620122
0.0652492
0.0513857
0.0366804
0.0242672
0.0352129
0.0579174
0.0765386
0.0329271
0.0174842
0.0296802
0.0546391
0.0711185
0.0460923
0.0351175
0.0259893
0.0353981
0.0572752
0.0641732
0.0292235
0.0289157
0.0254057
0.0190003
0.0275662
0.0379368
0.038689
0.0371122
0.0399871
0.0551395
0.0575562
0.0350387
0.0271405
0.0286974
0.0165609
0.00982007
0.0271507
0.0413188
0.0502619
0.0513507
0.0572808
0.0592375
0.0405045
0.027149
0.0216771
0.0168914
0.014713
0.0222128
0.0363678
0.0479905
0.0466708
0.0544258
0.0628602
0.102529
0.104535
0.115209
0.110696
0.0542172
0.050805
0.0634784
0.0704998
0.100696
0.15215
0.186381
0.0616719
0.0788322
0.0948486
0.10392
0.0819245
0.0546067
0.0411425
0.0296053
0.0582092
0.134713
0.176581
0.0521349
0.0589882
0.0744043
0.10931
0.10293
0.0602444
0.0267117
0.0281942
0.0414673
0.0925344
0.120851
0.0438148
0.0235866
0.0656755
0.127489
0.147527
0.0694361
0.0449008
0.0281194
0.0363088
0.0907172
0.110819
0.0404689
0.0393876
0.0321787
0.0451073
0.0489896
0.0591603
0.0535146
0.041841
0.0459826
0.0822996
0.0860281
0.0469024
0.0363287
0.0373297
0.0363073
0.0250099
0.0412643
0.0623229
0.0782082
0.0776291
0.0847757
0.084517
0.0541304
0.0217409
0.0224961
0.0151846
0.0228844
0.0323652
0.0546362
0.0804853
0.0763562
0.0758658
0.0842896
0.0977513
0.166348
0.149055
0.124755
0.0573373
0.0993368
0.073126
0.125169
0.146154
0.204437
0.267522
0.0740793
0.109531
0.116909
0.108335
0.0801103
0.078792
0.0938101
0.0537303
0.0814248
0.181584
0.244597
0.0452175
0.0792743
0.0941885
0.101671
0.106888
0.0861621
0.0225667
0.0522922
0.0658608
0.1557
0.227968
0.0545476
0.054783
0.0967617
0.161007
0.21003
0.0832218
0.0746012
0.0367405
0.0559702
0.13874
0.216851
0.0761532
0.058017
0.0526711
0.0937021
0.0851898
0.0756017
0.0503569
0.0349248
0.0523228
0.115636
0.141564
0.0620577
0.0597019
0.0574881
0.0507173
0.0589733
0.0711215
0.0741325
0.0824062
0.0834412
0.105865
0.120439
0.0614314
0.0685011
0.0374841
0.035534
0.0473764
0.0544159
0.0749516
0.0883692
0.0716183
0.0885441
0.117349
0.167571
0.265615
0.210579
0.165942
0.108603
0.114843
0.100168
0.184115
0.20017
0.226719
0.360494
0.116847
0.159246
0.179209
0.147676
0.0772409
0.0807634
0.13341
0.0926727
0.13524
0.212581
0.308274
0.0942294
0.131201
0.126286
0.10811
0.0699268
0.0914655
0.0863319
0.107779
0.125832
0.216588
0.297338
0.0708101
0.111756
0.163866
0.167727
0.125144
0.12136
0.115335
0.0774214
0.0978818
0.178312
0.283572
0.0942398
0.0921936
0.1488
0.129399
0.0906352
0.0865122
0.062379
0.0666808
0.0923506
0.160212
0.18894
0.0923219
0.0969404
0.144552
0.15612
0.143674
0.121296
0.111191
0.0979397
0.092452
0.135261
0.166737
0.161358
0.103878
0.104426
0.121852
0.105005
0.127595
0.10937
0.096108
0.0635838
0.0886046
0.154194
0.182261
0.326736
0.266839
0.210987
0.185825
0.181408
0.16627
0.211866
0.367737
0.286542
0.529772
0.17874
0.214976
0.22751
0.191658
0.0873247
0.0961861
0.0820503
0.179107
0.250196
0.256151
0.363096
0.177545
0.178064
0.163934
0.136655
0.0847052
0.0871213
0.0698345
0.114205
0.158771
0.249568
0.49072
0.145338
0.149164
0.175044
0.198553
0.133119
0.106261
0.293535
0.147184
0.163271
0.24319
0.395042
0.175601
0.153859
0.170481
0.179911
0.0917675
0.0964371
0.0912785
0.11416
0.139211
0.208596
0.245751
0.137618
0.166665
0.204864
0.217335
0.196619
0.178997
0.117929
0.122114
0.122735
0.185606
0.196753
0.199209
0.207611
0.21068
0.202604
0.188744
0.156839
0.131588
0.100027
0.107861
0.157487
0.18729
0.194341
0.301447
0.289096
0.25792
0.219428
0.207208
0.179422
0.204619
0.370356
0.73927
0.379306
0.19498
0.321955
0.276987
0.224493
0.26238
0.1172
0.109491
0.183847
0.333463
0.386444
0.423879
0.304011
0.277395
0.233108
0.199532
0.120626
0.108295
0.092352
0.138019
0.207544
0.281176
0.545483
0.240916
0.220578
0.195767
0.209034
0.155931
0.143801
0.108158
0.121276
0.168803
0.284264
0.413038
0.25754
0.219002
0.193309
0.198668
0.166106
0.160747
0.238325
0.14775
0.167257
0.22592
0.217415
0.161747
0.188623
0.208539
0.251746
0.227775
0.184043
0.15393
0.135594
0.159162
0.211176
0.233007
0.280039
0.286337
0.253424
0.247289
0.223588
0.179394
0.161179
0.144722
0.152883
0.132954
0.163551
0.319444
0.363713
0.330853
0.269422
0.216228
0.194779
0.156268
0.210048
0.373085
0.651799
0.682201
0.319957
0.358629
0.294563
0.244646
0.152654
0.133708
0.124411
0.198091
0.359279
0.206811
0.647792
0.406277
0.322886
0.253452
0.230542
0.156734
0.129068
0.116188
0.186606
0.253822
0.280431
0.402324
0.496428
0.355975
0.233602
0.162037
0.159647
0.17084
0.104312
0.109521
0.143111
0.241518
0.257854
0.299538
0.303801
0.212915
0.208042
0.16138
0.14375
0.180267
0.113417
0.139123
0.192312
0.192553
0.303445
0.248062
0.289284
0.251678
0.215874
0.19262
0.1449
0.127418
0.149689
0.190889
0.173322
0.623551
0.309319
0.344735
0.294803
0.24342
0.212025
0.158885
0.148309
0.165464
0.148675
0.126602
0.581968
0.469126
0.37678
0.325126
0.33467
0.285133
0.173655
0.144397
0.163323
0.413542
0.420421
0.557214
0.349516
0.311829
0.251948
0.187491
0.190146
0.144705
0.115455
0.285083
0.445201
0.444688
0.400885
0.283855
0.269625
0.200701
0.15193
0.13973
0.127077
0.200409
0.387287
0.520981
0.598507
0.439704
0.296717
0.226649
0.106508
0.145183
0.162641
0.11951
0.105912
0.143428
0.30521
0.228747
0.363853
0.243609
0.226131
0.220901
0.180443
0.152574
0.161909
0.116238
0.15431
0.233345
0.194832
0.364825
0.270399
0.244621
0.25589
0.197311
0.165785
0.146981
0.123761
0.160264
0.218023
0.206281
0.690898
0.392384
0.35165
0.324191
0.251323
0.206926
0.155932
0.14844
0.187648
0.203345
0.185305
0.662995
0.461475
0.437035
0.353946
0.379026
0.301107
0.214266
0.178319
0.408641
0.365847
0.387621
0.424054
0.372363
0.337772
0.286846
0.221145
0.1804
0.159201
0.138123
0.255443
0.537523
0.502323
0.312548
0.309089
0.271055
0.208373
0.151259
0.138668
0.125448
0.166371
0.329909
0.557006
0.657063
0.35792
0.313693
0.250091
0.159244
0.141127
0.15059
0.119461
0.111396
0.14163
0.222207
0.479093
0.291208
0.252427
0.259527
0.268931
0.222832
0.17437
0.16631
0.123954
0.162534
0.333931
0.219754
0.130226
0.23948
0.279779
0.283436
0.235267
0.19474
0.168065
0.129051
0.151508
0.291531
0.298944
0.609352
0.424458
0.42864
0.359232
0.266038
0.231119
0.188638
0.156945
0.189058
0.277771
0.272787
VECTORS velocity float
0 0 0
0 0 0
0 0 0
0 0 0
0 0 0
0 0 0
0 0 0
0 0 0
0 0 0
0 0 0
0 0 0
0 0 0
0 0 0
0 0 0
0 0 0
0 0 0
0 0 0
0 0 0
0 0 0
0 0 0
0 0 0
0 0 0
0 0 0
0 0 0
0 0 0
0 0 0
0 0 0
0 0 0
0 0 0
0 0 0
0 0 0
0 0 0
0 0 0
0 0 0
0 0 0
0 0 0
0 0 0
0 0 0
0 0 0
0 0 0
0 0 0
0 0 0
0 0 0
0 0 0
0 0 0
0 0 0
0 0 0
0 0 0
0 0 0
0 0 0
0 0 0
0 0 0
0 0 0
0 0 0
0 0 0
0 0 0
0 0 0
0 0 0
0 0 0
0 0 0
0 0 0
0 0 0
0 0 0
0 0 0
0 0 0
0 0 0
0 0 0
0 0 0
0 0 0
0 0 0
0 0 0
0 0 0
0 0 0
0 0 0
0 0 0
0 0 0
0 0 0
-0.0680856 -0.0078492 -0.00593151
-0.0420199 -0.0311335 -0.0218101
-0.0148434 -0.0750303 -0.026624
-0.00131546 -0.0987937 -0.0167896
-0.00638078 -0.0617628 0.0123185
-0.0107414 -0.0569814 0.0227676
-0.0245578 -0.000284955 0.0339954
-0.03486 0.0115268 0.0235846
-0.0348785 -0.0455188 0.0234206
-0.0316602 -0.0895521 0.0083163
-0.0265921 -0.106618 0.0103459
-0.0526921 0.000448728 -0.00102148
-0.0392951 -0.0265913 0.00520513
-0.0247986 -0.0496186 0.00587136
-0.0166633 -0.0673142 0.0162239
-0.0234034 -0.0568009 0.0337659
-0.0209414 -0.0495864 0.0188953
-0.0305402 -0.01893 0.0206059
-0.0269646 -0.00180429 0.00526248
-0.0229509 -0.0323671 0.0155889
-0.0334928 -0.0632401 0.030327
-0.0423864 -0.0840325 0.0374432
-0.0483563 0.0136745 -0.0131423
-0.0265431 -0.0119816 -0.00151697
-0.0185562 -0.0335184 0.0167145
-0.0177527 -0.0498545 0.0323247
-0.0217379 -0.0485469 0.0377906
-0.0203382 -0.0456403 0.011992
-0.0216521 -0.0294545 0.00301232
-0.0177222 -0.016528 -0.00128275
-0.0148757 -0.0299159 0.0111221
-0.0220484 -0.0480344 0.0236853
-0.0372046 -0.060852 0.027767
0.0170287 0.0138146 -0.0245637
0.0165298 -0.00462596 -0.00332583
0.00903183 -0.0210209 0.0189067
-0.00177182 -0.0395946 0.0376105
-0.0168216 -0.0468859 0.05076
-0.0157776 -0.0419424 0.0107891
-0.0122001 -0.0328669 -0.00204117
-0.00755155 -0.0247428 -0.00249246
-0.00637507 -0.0326815 0.0120128
-0.0142051 -0.0453292 0.0319987
-0.0244975 -0.0497729 0.0322604
0.0229201 0.00736131 -0.016568
0.0156058 0.0138116 -0.0200453
0.0070756 0.00892435 -0.0227099
0.00260248 -0.00812778 -0.0169758
-0.0075569 -0.0252308 0.00813619
-0.01205 -0.0345245 0.0101023
-0.011454 -0.0348871 0.0121875
-0.00845573 -0.0332387 0.0141776
-0.00651009 -0.0347305 0.0187184
-0.0134402 -0.0429657 0.0318383
-0.0249588 -0.0431952 0.0287044
0.0318787 -0.0116023 0.00876579
0.0173711 0.0178936 -0.0107084
0.00768967 0.0216123 -0.0172429
0.00545442 0.00703898 -0.013963
0.00100535 -0.00946726 -0.00240706
-0.00364881 -0.0250507 0.00981358
-0.00560721 -0.0351942 0.0209085
-0.00695511 -0.039489 0.0303068
-0.00942767 -0.0388978 0.032171
-0.0130405 -0.0433617 0.0350826
-0.0238855 -0.0414319 0.0349566
-0.0269142 -0.0234399 0.0191525
-0.00645819 0.0244106 -0.00997414
0.00998148 0.0189963 -0.00306763
0.0145478 0.00368513 0.00775233
0.0124778 -0.00501291 0.00597057
0.00791532 -0.0192166 0.00784075
-0.000104529 -0.0307666 0.0193913
-0.00806247 -0.0369042 0.0296001
-0.011194 -0.0360892 0.0273939
-0.012021 -0.0427522 0.0314629
-0.0166937 -0.0452211 0.0403457
-0.0841294 -0.0566057 0.0151769
-0.0730249 -0.0544434 -0.051292
-0.0437568 -0.0863606 -0.0624518
-0.019141 -0.101894 -0.0387928
-0.0133006 -0.0519707 0.00785148
-0.00826707 -0.0415563 0.0280334
-0.0270846 0.0203154 0.0536955
-0.0428076 0.00478864 0.0558105
-0.0431066 -0.07022 0.0578856
-0.0332378 -0.146419 0.0246282
-0.0231398 -0.184171 0.0168314
-0.0496335 -0.0359817 0.0067275
-0.0563209 -0.0551554 -0.000579407
-0.0416373 -0.0834027 -0.0175098
-0.0175041 -0.102428 -0.00123414
-0.0136287 -0.0697062 0.040828
-0.00461685 -0.0525343 0.0141678
-0.0259858 0.00041295 0.0318947
-0.0291203 0.00486881 0.00218529
-0.0192655 -0.0536187 0.011924
-0.0144602 -0.120897 0.0576397
-0.0426309 -0.15651 0.0697712
-0.0493231 -0.00112786 -0.0168525
-0.0495225 -0.0291623 -0.0132923
-0.0343276 -0.062327 0.0217477
-0.0233657 -0.0925307 0.0532988
-0.0174757 -0.078845 0.0638168
-0.00189461 -0.0598692 0.0064409
-0.0100449 -0.0228686 -0.00946801
-0.00685534 -0.00235574 -0.0272464
-0.00512886 -0.0404074 0.00777639
-0.000225562 -0.086943 0.0316777
0.000639172 -0.115218 0.0364584
0.0135555 0.0145737 -0.0390332
0.0136473 -0.0152744 -0.0116949
0.0144186 -0.0495301 0.0406466
-0.00179536 -0.084867 0.0951206
-0.0246177 -0.0894863 0.114675
-0.00265966 -0.0683039 0.0122015
0.00486861 -0.0376269 -0.0240124
0.0066152 -0.0197779 -0.018862
0.00933645 -0.03507 0.00111919
0.00614609 -0.0755589 0.0498266
-0.00313888 -0.0931484 0.0599533
0.0245874 0.00963268 -0.0306661
0.0254089 0.00761579 -0.0291166
0.0148572 -0.00470257 -0.0281535
0.00735785 -0.0201315 -0.0396895
-0.0066102 -0.0474128 0.0104073
-0.00709199 -0.0586231 0.00360223
-0.00373658 -0.0530193 0.00622951
0.00338346 -0.0406074 0.00950049
0.0110669 -0.0414305 0.0165961
0.00937886 -0.0657672 0.0485792
0.000362951 -0.0720762 0.0469651
0.0406124 -0.0189515 0.0138314
0.0338041 0.00922546 -0.00958903
0.0259135 0.0079361 -0.0256713
0.0206752 -0.00246855 -0.0297432
0.0112439 -0.0186565 -0.0122884
0.0011826 -0.0407675 0.00627322
-0.00388926 -0.0550478 0.0289612
-0.0028802 -0.0600174 0.0500614
0.00175221 -0.0568465 0.0528364
0.00437402 -0.064902 0.0543647
0.00129196 -0.0635912 0.0556562
-0.0196794 -0.030816 0.0399149
-0.00676524 0.0184267 -0.00934638
0.00240979 0.0210188 -0.00764726
0.010308 0.00010353 0.0111493
0.0177333 -0.00976032 0.0106754
0.0174614 -0.0257029 0.00905342
0.00776251 -0.0466568 0.0273497
-0.0042648 -0.0636736 0.0490445
-0.00731952 -0.0602868 0.0462839
-0.00793509 -0.0593695 0.0465609
-0.0121065 -0.0593628 0.0586023
-0.0421482 -0.085654 0.0210296
-0.0266785 -0.126709 -0.104425
-0.0337017 -0.086459 -0.116647
-0.0279125 -0.101479 -0.0669831
-0.0262229 -0.0498158 -0.0108774
-0.00592966 -0.0876331 0.0464012
-0.0225745 -0.0310707 0.0622287
-0.0372164 -0.0634036 0.101302
-0.025708 -0.108662 0.0943004
0.000380008 -0.19924 0.0458025
0.00735907 -0.266755 0.0188557
-0.0253 -0.069591 -0.00217812
-0.027571 -0.10581 -0.00642069
-0.038836 -0.0869912 -0.0677641
-0.0270986 -0.093724 -0.0470947
-0.0302784 -0.0588238 0.0451735
-0.0111576 -0.0642602 0.0442076
-0.0416246 -0.00334296 0.0840033
-0.0368582 -0.0257059 0.0294554
-0.0243114 -0.0776732 0.00241403
0.00786343 -0.171391 0.0594642
0.0212514 -0.232546 0.0727897
-0.0208241 -0.0268279 -0.0298536
-0.0230341 -0.0702555 -0.028601
-0.0258342 -0.0905732 0.000756256
-0.0148971 -0.0985634 0.0200103
-0.00872168 -0.0840235 0.0654908
0.00395923 -0.0784343 0.0354443
-0.000670739 -0.0219829 0.00505557
0.00934076 -0.00459033 -0.051246
0.00196096 -0.0646444 0.012446
-0.00698217 -0.139331 0.0691434
-0.0273043 -0.195538 0.113969
0.0071896 0.00512966 -0.0538279
0.0239493 -0.0469239 -0.0150253
0.0319128 -0.076218 0.0503509
0.0219557 -0.108906 0.116536
0.00309052 -0.122441 0.170621
0.0247663 -0.079288 0.00509014
0.0310915 -0.0292907 -0.0611613
0.019166 -0.0228727 -0.0214328
0.0217582 -0.0515675 -0.000189556
0.0166006 -0.119861 0.0678715
-0.00769411 -0.179 0.122165
0.0390439 0.0243645 -0.0606734
0.0372043 -0.00937417 -0.0435194
0.0318998 -0.0409723 -0.00882695
0.0213608 -0.0122022 -0.0904152
0.00708283 -0.0817987 0.0227182
0.0075107 -0.0749319 -0.0066643
0.00810621 -0.0480628 -0.0126519
0.0144683 -0.0315801 -0.00362081
0.0224273 -0.0454239 0.0130906
0.0250592 -0.0961896 0.059088
0.0167052 -0.124692 0.0649101
0.0588092 0.0110491 -0.0164485
0.0519839 0.0142055 -0.0256942
0.0440654 -0.00763036 -0.0361234
0.0343771 -0.0318778 -0.019346
0.0278505 -0.0512348 -0.0087859
0.015916 -0.0692448 0.00318038
0.00637307 -0.0683397 0.0280125
0.00434779 -0.0630915 0.0528331
0.00973901 -0.0597536 0.0574203
0.0173445 -0.083503 0.0627209
0.00653051 -0.0959548 0.0724962
0.0516571 -0.000167563 0.0332465
0.0189318 0.0558869 -0.0347941
0.0313629 0.00888095 -0.0185083
0.0312867 -0.0166319 0.00268169
0.0257266 -0.0375434 0.0131588
0.0206311 -0.0479359 0.0154143
0.0100951 -0.0647445 0.0363866
-0.00233216 -0.0699209 0.0539884
-0.000998081 -0.0565524 0.043932
0.00352285 -0.0752153 0.0465866
-0.0111977 -0.0851728 0.0799436
-0.029911 -0.0234476 -0.163204
0.0209112 -0.102297 -0.244232
0.0116377 -0.120933 -0.171998
0.00465001 -0.131061 -0.101676
0.0127947 -0.0866985 -0.0641433
0.0220036 -0.112687 -0.00252165
-0.0147146 -0.0897898 0.0418915
-0.0893665 -0.121251 0.105878
-0.0646497 -0.184016 0.0450179
-0.0541295 -0.195465 0.101316
-0.0520728 -0.35266 0.0536193
0.0214918 -0.108243 -0.038404
0.0110141 -0.147757 -0.0583595
0.00629386 -0.101218 -0.147754
0.000891713 -0.105745 -0.103079
-0.0316754 -0.0591297 0.038295
-0.0105246 -0.0759868 0.025258
-0.0263944 -0.0429218 0.123529
-0.00465716 -0.0880275 0.0285952
-0.0192509 -0.129153 0.0351936
-0.0288611 -0.200997 0.0629117
-0.0486147 -0.266156 0.147751
0.0194257 -0.0922031 -0.000634116
0.0117608 -0.120661 -0.0501626
0.00981223 -0.121229 -0.0339924
0.015099 -0.0996889 -0.0390113
0.00631944 -0.0655543 0.0235043
0.000224611 -0.0741863 0.0535003
-0.029343 -0.0301004 0.0754066
-0.0193642 -0.0727105 0.077165
0.0135327 -0.112239 0.0552549
0.0230803 -0.193583 0.0943589
-0.064837 -0.26652 0.114775
-0.000475591 -0.0707997 0.00111529
0.0243475 -0.108895 -0.00620005
0.0529344 -0.140646 0.0653363
0.0572706 -0.125336 0.0956206
0.0506072 -0.0891331 0.0717996
0.0826044 -0.0808975 -0.0368835
0.0669106 -0.0176679 -0.0922663
0.00626369 -0.0728825 0.025357
0.00240892 -0.0951942 0.0226518
0.022615 -0.159944 0.0755103
-0.0523619 -0.227071 0.161585
-0.0103289 -0.068503 0.0638889
0.00978192 -0.0905404 0.014367
0.0337513 -0.12897 0.0660991
0.0120136 -0.119624 0.0478513
0.0257894 -0.0747878 -0.0442315
0.0322417 -0.0712813 -0.0369298
0.017296 -0.0573677 -0.0173473
0.0189374 -0.0638862 0.00250144
0.00804955 -0.0899191 0.0194524
0.0363839 -0.137056 0.0745644
0.0178293 -0.165342 0.0896796
0.0454236 -0.0651977 0.047003
0.0423055 -0.0797841 0.0352445
0.0472904 -0.119196 0.0667184
0.0356616 -0.133893 0.0719336
0.019774 -0.131727 0.053842
0.0287544 -0.117262 0.0116416
0.0143446 -0.103127 0.0390188
0.00154295 -0.0730182 0.0652546
0.0123111 -0.0733846 0.0548682
0.0291303 -0.114717 0.065476
0.0264821 -0.140488 0.0858097
0.0690899 -0.0897966 0.114889
0.0641334 -0.0684042 0.0447029
0.0519543 -0.0857039 0.0293336
0.0415351 -0.107622 0.0392454
0.0351953 -0.0960563 0.023676
0.0215033 -0.1206 0.0356906
0.00692955 -0.102454 0.0376439
0.00325863 -0.0799206 0.0532806
0.00753834 -0.0521315 0.0356143
0.0157336 -0.0829037 0.0270222
-0.0241021 -0.124654 0.0875002
-0.0120018 -0.0593226 -0.171919
0.0101472 -0.173068 -0.27695
0.0104268 -0.184044 -0.192931
0.0238857 -0.17572 -0.114314
0.0464905 -0.168009 -0.0643608
0.0735117 -0.134219 -0.0974164
0.0441372 -0.160033 -0.00932697
-0.109431 -0.155929 0.0927262
-0.171306 -0.325133 -0.0131509
-0.0133677 -0.281478 0.0519399
0.148948 -0.364935 0.35397
0.0652074 -0.153323 -0.0647162
0.0408228 -0.18351 -0.104272
0.0315913 -0.160079 -0.158548
0.0211575 -0.141758 -0.12724
0.00748494 -0.0864308 0.00996498
0.00978349 -0.0909618 -0.0296986
0.0206133 -0.0739341 0.0290017
0.0305437 -0.141777 0.105099
-0.00819597 -0.214411 0.128681
-0.0362558 -0.217349 0.130607
-0.0247794 -0.323867 0.16228
0.0742671 -0.160366 0.0170105
0.0391819 -0.162623 -0.0610364
0.0282244 -0.155081 -0.0450311
0.024944 -0.130277 -0.0328675
0.0115831 -0.0838336 0.00356753
0.011505 -0.0826925 0.0248941
-0.00203391 -0.0558781 0.0418373
0.0106724 -0.0914982 0.067506
0.0168127 -0.142884 0.067155
-0.00801723 -0.215657 0.125347
-0.091191 -0.287074 0.3874
0.00115148 -0.141239 0.0342559
0.00900824 -0.146825 -0.0247201
0.0408872 -0.164023 0.0454404
0.0680176 -0.152279 0.107741
0.0460579 -0.0900419 0.0865546
0.04625 -0.0927877 0.0232967
-0.00779382 -0.0400004 0.290692
0.0201577 -0.0625016 0.13172
0.0718398 -0.130475 0.0668778
0.0911706 -0.203743 0.0965305
0.171864 -0.216378 0.282314
0.0470782 -0.140079 0.0948544
0.0171715 -0.149542 0.0318582
0.0281593 -0.157451 0.0589927
0.0331093 -0.163232 0.0680227
0.00901939 -0.0386634 -0.0827349
0.0343216 -0.0901221 0.000380113
0.0372726 -0.0803635 0.0220051
0.0302602 -0.109956 0.00515484
0.0484571 -0.128812 0.0209586
0.0838591 -0.177931 0.0694288
0.0561214 -0.196087 0.13709
0.0126562 -0.110009 0.0817097
0.0297363 -0.15177 0.0621192
0.0387409 -0.173348 0.102072
0.0323289 -0.192011 0.0965457
0.0367444 -0.188237 0.0433125
0.0368884 -0.175132 -0.00282395
0.0438501 -0.105689 0.0285384
0.048506 -0.109456 0.0240498
0.0316991 -0.11857 0.00019465
0.0826615 -0.159001 0.0483233
0.041765 -0.159766 0.106969
0.121303 -0.124683 0.0970781
0.0825989 -0.1644 0.0961895
0.059286 -0.182032 0.0879518
0.0402928 -0.184063 0.0744677
0.0246187 -0.181244 0.046573
0.0147633 -0.15379 0.0270017
0.0339344 -0.11983 0.0424811
0.0310917 -0.0795694 0.0520319
0.022332 -0.0984674 0.0379387
0.0265036 -0.155237 -0.00114
0.00232816 -0.151371 0.110269
0.0706506 -0.0822112 -0.161301
0.0270703 -0.24647 -0.171435
0.00402527 -0.242583 -0.157207
0.0174035 -0.257332 -4.46365e-06
0.0227987 -0.216276 0.029215
0.053716 -0.186376 -0.0728944
0.0579838 -0.168694 -0.0192959
-0.0429893 -0.17687 0.0934748
-0.227523 -0.258614 -0.136072
-0.479099 -0.0389063 0.561667
-0.0686939 -0.0766627 0.365072
0.0899987 -0.129412 -0.114761
0.0742132 -0.282374 -0.135691
0.041313 -0.223497 -0.158317
0.05689 -0.216353 -0.0187611
0.0215394 -0.14861 0.215162
0.00911534 -0.113576 0.027442
0.00955028 -0.106419 0.0239152
0.00969056 -0.176093 0.0519337
0.0511319 -0.328984 -0.0187725
0.0405835 -0.362812 0.126728
-0.0196639 -0.332253 0.262478
0.186004 -0.238905 -0.0273719
0.0956147 -0.250856 -0.0698387
0.0508033 -0.2233 -0.0435388
0.0374268 -0.195988 0.00103008
0.0100462 -0.119701 0.0110211
0.0195435 -0.106029 0.0101839
0.0175484 -0.0867974 0.0262139
0.0167029 -0.12134 0.0636136
0.0385435 -0.180648 0.0946332
0.0958421 -0.215269 0.153408
0.134361 -0.174687 0.498982
0.0824516 -0.2245 0.0290195
-0.0300447 -0.208152 -0.0665207
0.00401309 -0.19545 0.0103919
0.0311029 -0.180388 0.100935
0.0356635 -0.11749 0.0961168
0.0411449 -0.104882 0.0893619
0.0502486 -0.0944814 0.015701
0.0377848 -0.110416 0.0329926
0.025804 -0.162766 0.0365479
0.119036 -0.221289 0.13292
0.0316479 -0.25198 0.325737
0.118549 -0.209146 0.0923643
0.0531579 -0.209707 0.0340451
0.0292951 -0.187152 0.0385249
0.0292241 -0.182536 0.0727702
0.0290843 -0.13942 0.0854841
0.0497269 -0.148788 0.0350548
0.0448167 -0.222075 0.0739784
0.0443944 -0.138802 0.0243521
0.0563054 -0.153735 0.0342091
0.0689747 -0.201417 0.0755893
-0.0204549 -0.183499 0.114799
0.0733856 -0.13405 0.0529833
0.028967 -0.183886 0.0304221
0.0322976 -0.19659 0.0616281
0.0337246 -0.237062 0.0777205
0.0471865 -0.222671 -0.00851165
0.0562938 -0.173654 -0.0233958
0.0714157 -0.129043 0.0440703
0.0457514 -0.12459 0.0277434
0.0472181 -0.147183 0.0379508
0.0514871 -0.190649 0.0748163
-0.0247236 -0.22727 0.0450502
0.205179 -0.165707 -0.0941517
0.146237 -0.239019 -0.058935
0.0391112 -0.213533 0.130758
0.0244691 -0.223607 0.102729
0.0133184 -0.218388 0.0460541
0.0471895 -0.166872 0.045924
0.0567473 -0.136003 0.0652805
0.0561939 -0.125576 0.0449142
0.0515254 -0.137286 0.0432535
0.0425667 -0.124912 0.0161818
0.030764 -0.129966 0.0944002
0.243806 -0.0812485 -0.189742
0.132796 -0.295563 -0.165212
0.0449189 -0.302655 -0.12588
0.0181518 -0.251586 -0.0946747
0.00595462 -0.211301 -0.0455067
-0.00144334 -0.190362 -0.0412184
-0.0146987 -0.154371 0.0193192
-0.016036 -0.145357 0.15078
-0.0191815 -0.348635 -0.131448
-0.451892 -0.292036 0.3679
-0.374894 -0.378467 0.426165
0.169889 -0.197379 -0.18588
0.0838225 -0.324851 -0.126732
0.0648698 -0.274671 -0.0843483
0.0606574 -0.230001 -0.0572011
0.0441226 -0.140544 0.0400468
0.0311816 -0.128918 0.0169055
0.00344799 -0.118585 0.0374694
-0.0334687 -0.169844 0.0962961
-0.112305 -0.339953 -0.0300123
-0.0577761 -0.176199 0.0915782
-0.200903 -0.56971 0.233885
0.292036 -0.275543 -0.0620625
0.0788692 -0.290855 -0.115923
0.0809094 -0.234555 -0.0517284
0.0950085 -0.205435 0.0438119
0.0536734 -0.138556 0.0498701
0.0404058 -0.0931073 0.0797301
0.0509618 -0.0898624 0.0531732
0.0603297 -0.164461 0.0643023
0.00366166 -0.223439 0.120363
-0.0543932 -0.254099 0.105436
-0.0995942 -0.363241 0.141425
0.319047 -0.359915 0.122927
-0.0364224 -0.274872 -0.223242
-0.00980477 -0.230117 -0.0389862
-0.0150648 -0.161272 0.00453154
0.0185598 -0.140663 0.0731901
0.031401 -0.130717 0.105421
0.0454347 -0.0837037 0.042548
0.053343 -0.0922249 0.0253761
0.0347737 -0.133995 0.0362888
0.0216359 -0.221531 0.0937386
0.023581 -0.232492 0.108995
0.058646 -0.264793 0.127155
0.0660951 -0.286309 -0.077161
0.0643772 -0.198672 -0.0414479
0.0639228 -0.197618 -0.0119469
0.0731507 -0.14068 0.0300299
0.0621046 -0.103381 0.0782263
0.0367029 -0.142851 0.103648
0.0461293 -0.0947663 0.0418902
0.0488665 -0.127962 0.0243531
0.0400837 -0.183021 0.0433652
0.0350836 -0.184397 0.0429339
0.081648 -0.292068 -0.0104417
0.0537619 -0.242077 0.00655629
-0.0169711 -0.288766 0.00334512
0.0116707 -0.250246 0.0241346
0.0438057 -0.211234 0.00793287
0.0927471 -0.164917 0.0360921
0.0683557 -0.0969466 0.0832157
0.0691178 -0.100691 0.0363244
0.0654754 -0.12843 0.0403156
0.0447137 -0.178986 0.0490249
-0.00141205 -0.166948 0.0465479
0.285124 -0.519677 -0.193534
0.0622443 -0.290366 0.0865533
-0.052414 -0.327616 0.0936085
-0.0107742 -0.281455 0.0870381
-0.00253535 -0.242813 0.0169827
0.0575947 -0.199091 0.0447242
0.064582 -0.126576 0.0710784
0.090036 -0.107906 0.0473841
0.0907767 -0.127639 0.0533492
0.0749287 -0.123111 0.0365194
0.0279766 -0.10171 0.070003
0.0452956 -0.57778 -0.0529731
0.113723 -0.426654 -0.15847
0.0728052 -0.343502 -0.136634
0.0336007 -0.303164 -0.112559
0.00430773 -0.331765 -0.0437862
-0.0366686 -0.282711 -0.00550019
-0.0888969 -0.149046 0.00623541
-0.131899 0.00885261 0.0580936
-0.128681 -0.0903523 0.0441811
-0.317644 -0.261357 0.0425682
-0.408037 -0.0818062 0.0597331
0.184528 -0.484654 -0.203833
0.0249963 -0.333912 -0.100198
0.0412752 -0.294326 -0.0943692
0.0456218 -0.234058 -0.0813245
0.0454497 -0.181296 0.0148018
0.0260061 -0.183057 0.0443794
-0.0085754 -0.137829 0.043233
-0.0143625 -0.104526 0.0468813
0.00925542 -0.283069 0.032538
-0.156337 -0.416669 0.0122599
-0.16561 -0.408032 0.0618874
0.0909945 -0.368526 0.128907
0.0146886 -0.273926 -0.0729555
0.0224886 -0.261955 -0.0597612
0.0481846 -0.186036 -0.0578779
0.0855247 -0.122697 0.0267186
0.0731644 -0.093352 0.0738699
0.0532625 -0.105673 0.0463112
0.0616405 -0.185036 0.0461099
0.063035 -0.372209 0.0864755
0.0283018 -0.520202 -0.00321843
-0.0568118 -0.578051 0.144359
0.19535 -0.36415 0.150241
0.0715817 -0.27437 -0.0873967
-0.0134397 -0.219351 -0.0554426
0.0234243 -0.100934 -0.0246498
0.0201242 -0.139527 0.0347166
0.0372568 -0.129758 0.0907019
0.0621328 -0.0863121 0.0545187
0.0605431 -0.0833597 0.024556
0.0618084 -0.128153 0.0181194
0.0637781 -0.296477 -0.0344513
-0.0197574 -0.212587 0.0821073
0.161642 -0.321332 0.0548287
0.0484743 -0.238219 -0.0157149
0.124429 -0.188208 -0.0151742
0.117074 -0.184263 -0.0337347
0.110756 -0.142216 0.00821614
0.0935303 -0.108617 0.0522817
0.0622422 -0.117338 0.0925856
0.0536456 -0.0955515 0.0387721
0.0507032 -0.145313 0.0111726
0.0359491 -0.229556 -0.021487
0.00866287 -0.194094 0.0145654
0.00343071 -0.364805 -0.00173998
0.0492631 -0.265841 -0.00414217
0.0445558 -0.231213 0.0662928
0.0735468 -0.244362 -0.0189137
0.0978239 -0.171074 0.00978935
0.104538 -0.116964 0.0536291
0.0832517 -0.0849214 0.0863759
0.0856331 -0.0805138 0.0387451
0.0957587 -0.125356 0.0282997
0.083051 -0.200935 0.016174
0.0548617 -0.188251 0.0640608
0.159225 -0.6723 -0.000126193
-0.122857 -0.372642 -0.00309312
-0.0718879 -0.319048 0.129221
0.0671373 -0.315855 0.0287806
0.0702913 -0.240515 0.0193641
0.10102 -0.169023 0.0635954
0.093284 -0.0933229 0.0830888
0.115199 -0.0819562 0.0452424
0.135828 -0.121278 0.0453206
0.134183 -0.150352 0.0271726
0.113598 -0.136441 0.0530775
0.0933313 -0.642098 -0.136244
0.1316 -0.425346 -0.121332
0.108076 -0.363895 -0.216564
0.0762181 -0.284899 -0.195707
0.0240069 -0.294514 -0.237374
0.00475376 -0.272728 -0.127523
-0.0212752 -0.205976 -0.0550544
-0.0934613 -0.05233 0.142562
-0.19548 0.0649502 0.352926
-0.19879 -0.108733 0.287235
-0.181635 -0.0561949 0.337788
0.0579592 -0.345981 -0.238243
-0.00611198 -0.369326 -0.0470624
0.0837585 -0.301589 -0.12696
0.0890083 -0.222293 -0.157938
0.079883 -0.159591 -0.130594
0.0501675 -0.164015 -0.0559145
0.0210122 -0.156841 -0.0174412
-0.0138515 -0.10915 0.0835008
-0.0966376 -0.133724 0.195014
-0.143671 -0.506376 0.108961
-0.142652 -0.428619 0.219692
-0.013333 -0.30834 -0.0493411
-0.000137724 -0.308768 -0.0140889
0.0266998 -0.264222 -0.0542674
0.0646604 -0.186741 -0.0660754
0.1011 -0.112283 -0.0071091
0.106203 -0.0875812 0.0167107
0.0810266 -0.0936883 0.0198566
0.0511288 -0.147619 0.0572159
-0.0127438 -0.311819 0.106989
-0.0927483 -0.539111 0.104941
-0.139171 -0.623448 0.153867
0.0892112 -0.345973 0.0212323
0.113946 -0.289222 -0.0420729
0.122088 -0.211439 -0.0541632
0.127791 -0.0798571 -0.0514861
0.0601101 -0.127378 -0.00884298
0.0568734 -0.13231 0.0440077
0.068474 -0.0861323 0.0465122
0.0475667 -0.0910447 0.0430976
0.0183443 -0.112785 0.0836792
0.0318724 -0.218678 0.0232406
-0.0402385 -0.449176 0.161715
0.180317 -0.217529 -0.0704929
0.0722358 -0.236541 -0.0504975
0.0528088 -0.248887 -0.0511927
0.198066 -0.175884 -0.04646
0.167312 -0.145774 -0.0202752
0.14013 -0.101062 0.023556
0.099484 -0.114735 0.0678081
0.067604 -0.0979811 0.0345556
0.054734 -0.152234 0.0156941
0.0848649 -0.311551 -0.0851122
0.0288086 -0.217549 0.0115844
0.000291756 -0.0210659 -0.128511
0.0690089 -0.222583 -0.0551808
0.0429588 -0.276155 -0.0130027
0.155598 -0.232731 -0.0442908
0.177874 -0.153446 -0.0128835
0.159671 -0.107454 0.0297105
0.127243 -0.0856176 0.0687357
0.10359 -0.0697583 0.0325139
0.102007 -0.111723 0.00819515
0.161968 -0.238367 -0.0440225
0.158445 -0.241435 0.0772798
0.1702 -0.584061 -0.0348512
-0.254041 -0.291363 0.175316
-0.212662 -0.314317 0.19928
0.135842 -0.331241 -0.0295592
0.154822 -0.216203 0.00791578
0.164838 -0.15181 0.0565494
0.152843 -0.0850167 0.0706804
0.139718 -0.0620401 0.0355215
0.154786 -0.106162 0.0226631
0.199755 -0.190397 -0.0316837
0.203561 -0.180523 0.0196665
